G04 EAGLE Gerber RS-274X export*
G75*
%MOMM*%
%FSLAX34Y34*%
%LPD*%
%INBottom Copper*%
%IPPOS*%
%AMOC8*
5,1,8,0,0,1.08239X$1,22.5*%
G01*
%ADD10C,1.463037*%
%ADD11R,1.450000X0.450000*%
%ADD12R,0.600000X1.475000*%
%ADD13R,1.475000X0.600000*%
%ADD14P,1.814519X8X292.500000*%
%ADD15P,1.814519X8X112.500000*%
%ADD16R,1.100000X1.400000*%
%ADD17R,3.000000X0.750000*%
%ADD18R,1.200000X0.400000*%
%ADD19C,1.440000*%
%ADD20C,2.817363*%
%ADD21R,1.100000X0.600000*%
%ADD22R,1.500000X1.300000*%
%ADD23R,1.000000X1.100000*%
%ADD24C,0.502400*%
%ADD25C,0.304800*%

G36*
X1059291Y393170D02*
X1059291Y393170D01*
X1059318Y393168D01*
X1059464Y393190D01*
X1059610Y393206D01*
X1059636Y393216D01*
X1059663Y393220D01*
X1059800Y393274D01*
X1059938Y393323D01*
X1059961Y393338D01*
X1059987Y393348D01*
X1060107Y393432D01*
X1060231Y393512D01*
X1060250Y393532D01*
X1060273Y393547D01*
X1060371Y393656D01*
X1060474Y393762D01*
X1060488Y393786D01*
X1060506Y393806D01*
X1060577Y393935D01*
X1060653Y394061D01*
X1060661Y394087D01*
X1060675Y394111D01*
X1060715Y394253D01*
X1060760Y394392D01*
X1060762Y394420D01*
X1060770Y394447D01*
X1060789Y394690D01*
X1060789Y600236D01*
X1060786Y600262D01*
X1060788Y600288D01*
X1060766Y600435D01*
X1060749Y600582D01*
X1060741Y600607D01*
X1060737Y600633D01*
X1060682Y600771D01*
X1060632Y600910D01*
X1060618Y600932D01*
X1060608Y600957D01*
X1060523Y601078D01*
X1060443Y601203D01*
X1060424Y601221D01*
X1060409Y601243D01*
X1060299Y601342D01*
X1060192Y601445D01*
X1060170Y601459D01*
X1060150Y601476D01*
X1060020Y601548D01*
X1059893Y601624D01*
X1059868Y601632D01*
X1059845Y601645D01*
X1059702Y601685D01*
X1059561Y601730D01*
X1059535Y601732D01*
X1059510Y601740D01*
X1059266Y601759D01*
X508231Y601759D01*
X508131Y601748D01*
X508030Y601746D01*
X507958Y601728D01*
X507884Y601719D01*
X507790Y601686D01*
X507692Y601661D01*
X507626Y601627D01*
X507556Y601602D01*
X507472Y601547D01*
X507383Y601501D01*
X507326Y601453D01*
X507263Y601413D01*
X507194Y601341D01*
X507117Y601276D01*
X507073Y601216D01*
X507021Y601162D01*
X506970Y601076D01*
X506910Y600995D01*
X506881Y600927D01*
X506842Y600863D01*
X506812Y600767D01*
X506772Y600675D01*
X506759Y600602D01*
X506736Y600531D01*
X506728Y600431D01*
X506710Y600332D01*
X506714Y600258D01*
X506708Y600184D01*
X506723Y600084D01*
X506728Y599984D01*
X506749Y599913D01*
X506760Y599839D01*
X506797Y599746D01*
X506825Y599649D01*
X506861Y599584D01*
X506889Y599515D01*
X506946Y599433D01*
X506995Y599345D01*
X507060Y599269D01*
X507088Y599229D01*
X507114Y599205D01*
X507153Y599159D01*
X513109Y593204D01*
X513109Y589253D01*
X513120Y589153D01*
X513122Y589052D01*
X513140Y588980D01*
X513149Y588906D01*
X513182Y588812D01*
X513207Y588714D01*
X513241Y588648D01*
X513266Y588578D01*
X513321Y588494D01*
X513367Y588405D01*
X513415Y588348D01*
X513455Y588285D01*
X513527Y588216D01*
X513592Y588139D01*
X513652Y588095D01*
X513706Y588043D01*
X513792Y587992D01*
X513873Y587932D01*
X513941Y587903D01*
X514005Y587864D01*
X514101Y587834D01*
X514193Y587794D01*
X514266Y587781D01*
X514337Y587758D01*
X514437Y587750D01*
X514536Y587732D01*
X514610Y587736D01*
X514684Y587730D01*
X514784Y587745D01*
X514884Y587750D01*
X514955Y587771D01*
X515029Y587782D01*
X515122Y587819D01*
X515219Y587847D01*
X515284Y587883D01*
X515353Y587911D01*
X515435Y587968D01*
X515523Y588017D01*
X515599Y588082D01*
X515639Y588110D01*
X515663Y588136D01*
X515709Y588175D01*
X522351Y594817D01*
X524434Y596901D01*
X774776Y596901D01*
X784517Y587159D01*
X784616Y587080D01*
X784710Y586996D01*
X784753Y586972D01*
X784790Y586942D01*
X784905Y586888D01*
X785015Y586827D01*
X785062Y586814D01*
X785106Y586793D01*
X785229Y586767D01*
X785351Y586732D01*
X785412Y586727D01*
X785446Y586720D01*
X785494Y586721D01*
X785595Y586713D01*
X787697Y586713D01*
X789913Y584497D01*
X789913Y581363D01*
X787697Y579147D01*
X784563Y579147D01*
X782102Y581608D01*
X782060Y581684D01*
X782020Y581731D01*
X782001Y581761D01*
X781966Y581794D01*
X781901Y581871D01*
X772907Y590865D01*
X772808Y590944D01*
X772714Y591028D01*
X772671Y591052D01*
X772634Y591082D01*
X772519Y591136D01*
X772409Y591197D01*
X772362Y591210D01*
X772318Y591231D01*
X772195Y591257D01*
X772073Y591292D01*
X772012Y591297D01*
X771978Y591304D01*
X771930Y591303D01*
X771829Y591311D01*
X527381Y591311D01*
X527255Y591297D01*
X527129Y591290D01*
X527082Y591277D01*
X527034Y591271D01*
X526915Y591229D01*
X526794Y591194D01*
X526752Y591170D01*
X526706Y591154D01*
X526600Y591085D01*
X526490Y591024D01*
X526443Y590984D01*
X526413Y590965D01*
X526380Y590930D01*
X526303Y590865D01*
X525440Y590001D01*
X525377Y589923D01*
X525308Y589851D01*
X525269Y589787D01*
X525223Y589728D01*
X525180Y589638D01*
X525129Y589551D01*
X525106Y589481D01*
X525074Y589413D01*
X525053Y589315D01*
X525023Y589220D01*
X525017Y589145D01*
X525001Y589073D01*
X525003Y588972D01*
X524995Y588872D01*
X525006Y588799D01*
X525007Y588724D01*
X525031Y588627D01*
X525046Y588528D01*
X525074Y588458D01*
X525092Y588386D01*
X525138Y588297D01*
X525175Y588204D01*
X525217Y588143D01*
X525251Y588076D01*
X525317Y588000D01*
X525374Y587917D01*
X525429Y587868D01*
X525477Y587811D01*
X525558Y587751D01*
X525633Y587684D01*
X525698Y587648D01*
X525758Y587604D01*
X525850Y587564D01*
X525938Y587516D01*
X526009Y587495D01*
X526078Y587466D01*
X526176Y587448D01*
X526273Y587421D01*
X526373Y587413D01*
X526421Y587404D01*
X526456Y587406D01*
X526517Y587401D01*
X530028Y587401D01*
X533184Y586094D01*
X535599Y583679D01*
X536906Y580523D01*
X536906Y562477D01*
X535599Y559321D01*
X533184Y556906D01*
X530028Y555599D01*
X526612Y555599D01*
X523456Y556906D01*
X521041Y559321D01*
X519734Y562477D01*
X519734Y578017D01*
X519723Y578117D01*
X519721Y578217D01*
X519703Y578289D01*
X519694Y578363D01*
X519660Y578458D01*
X519636Y578555D01*
X519602Y578621D01*
X519577Y578691D01*
X519522Y578776D01*
X519476Y578865D01*
X519428Y578922D01*
X519388Y578984D01*
X519315Y579054D01*
X519250Y579130D01*
X519191Y579175D01*
X519137Y579226D01*
X519051Y579278D01*
X518970Y579338D01*
X518902Y579367D01*
X518838Y579405D01*
X518742Y579436D01*
X518650Y579476D01*
X518577Y579489D01*
X518506Y579511D01*
X518406Y579519D01*
X518307Y579537D01*
X518233Y579533D01*
X518159Y579539D01*
X518059Y579524D01*
X517959Y579519D01*
X517888Y579499D01*
X517814Y579488D01*
X517721Y579451D01*
X517624Y579423D01*
X517559Y579386D01*
X517490Y579359D01*
X517408Y579302D01*
X517320Y579253D01*
X517243Y579187D01*
X517204Y579160D01*
X517192Y579147D01*
X516018Y579147D01*
X515992Y579144D01*
X515966Y579146D01*
X515819Y579124D01*
X515672Y579107D01*
X515647Y579099D01*
X515621Y579095D01*
X515483Y579040D01*
X515344Y578990D01*
X515322Y578976D01*
X515297Y578966D01*
X515176Y578881D01*
X515051Y578801D01*
X515033Y578782D01*
X515011Y578767D01*
X514912Y578657D01*
X514809Y578550D01*
X514795Y578528D01*
X514778Y578508D01*
X514706Y578378D01*
X514630Y578251D01*
X514622Y578226D01*
X514609Y578203D01*
X514569Y578060D01*
X514524Y577919D01*
X514522Y577893D01*
X514514Y577868D01*
X514495Y577624D01*
X514495Y535189D01*
X514509Y535063D01*
X514516Y534937D01*
X514529Y534890D01*
X514535Y534842D01*
X514577Y534723D01*
X514612Y534602D01*
X514636Y534560D01*
X514652Y534514D01*
X514721Y534408D01*
X514782Y534298D01*
X514822Y534251D01*
X514841Y534221D01*
X514876Y534188D01*
X514941Y534111D01*
X515233Y533819D01*
X515332Y533740D01*
X515426Y533656D01*
X515469Y533632D01*
X515506Y533602D01*
X515621Y533548D01*
X515731Y533487D01*
X515778Y533474D01*
X515822Y533453D01*
X515945Y533427D01*
X516067Y533392D01*
X516128Y533387D01*
X516162Y533380D01*
X516210Y533381D01*
X516311Y533373D01*
X517077Y533373D01*
X519293Y531157D01*
X519293Y528023D01*
X518751Y527481D01*
X518672Y527382D01*
X518588Y527288D01*
X518564Y527246D01*
X518534Y527208D01*
X518480Y527094D01*
X518419Y526983D01*
X518406Y526937D01*
X518385Y526893D01*
X518359Y526770D01*
X518324Y526648D01*
X518319Y526587D01*
X518312Y526552D01*
X518313Y526504D01*
X518305Y526404D01*
X518305Y523049D01*
X518316Y522949D01*
X518318Y522849D01*
X518336Y522777D01*
X518345Y522703D01*
X518379Y522608D01*
X518403Y522511D01*
X518437Y522445D01*
X518462Y522375D01*
X518517Y522290D01*
X518563Y522201D01*
X518611Y522144D01*
X518651Y522082D01*
X518724Y522012D01*
X518789Y521936D01*
X518848Y521892D01*
X518902Y521840D01*
X518988Y521788D01*
X519069Y521728D01*
X519137Y521699D01*
X519201Y521661D01*
X519297Y521630D01*
X519389Y521591D01*
X519462Y521577D01*
X519533Y521555D01*
X519633Y521547D01*
X519732Y521529D01*
X519806Y521533D01*
X519880Y521527D01*
X519980Y521542D01*
X520080Y521547D01*
X520152Y521568D01*
X520172Y521571D01*
X536056Y521571D01*
X536336Y521291D01*
X536435Y521212D01*
X536529Y521128D01*
X536571Y521104D01*
X536609Y521074D01*
X536723Y521020D01*
X536834Y520959D01*
X536881Y520946D01*
X536924Y520925D01*
X537048Y520899D01*
X537170Y520864D01*
X537230Y520859D01*
X537265Y520852D01*
X537313Y520853D01*
X537413Y520845D01*
X547368Y520845D01*
X552197Y516016D01*
X552197Y482705D01*
X545747Y476255D01*
X538324Y476255D01*
X538298Y476252D01*
X538272Y476254D01*
X538125Y476232D01*
X537978Y476215D01*
X537953Y476207D01*
X537927Y476203D01*
X537789Y476148D01*
X537650Y476098D01*
X537628Y476084D01*
X537603Y476074D01*
X537482Y475989D01*
X537357Y475909D01*
X537339Y475890D01*
X537317Y475875D01*
X537218Y475765D01*
X537115Y475658D01*
X537101Y475636D01*
X537084Y475616D01*
X537012Y475486D01*
X536936Y475359D01*
X536928Y475334D01*
X536915Y475311D01*
X536875Y475168D01*
X536830Y475027D01*
X536828Y475001D01*
X536820Y474976D01*
X536801Y474732D01*
X536801Y469774D01*
X536056Y469029D01*
X520504Y469029D01*
X519759Y469774D01*
X519759Y479552D01*
X519756Y479578D01*
X519758Y479604D01*
X519736Y479750D01*
X519719Y479898D01*
X519711Y479923D01*
X519707Y479949D01*
X519652Y480087D01*
X519602Y480226D01*
X519588Y480248D01*
X519578Y480273D01*
X519494Y480394D01*
X519413Y480519D01*
X519394Y480537D01*
X519379Y480559D01*
X519269Y480658D01*
X519162Y480761D01*
X519140Y480775D01*
X519120Y480792D01*
X518990Y480864D01*
X518863Y480940D01*
X518838Y480948D01*
X518815Y480961D01*
X518672Y481001D01*
X518531Y481046D01*
X518505Y481048D01*
X518480Y481056D01*
X518236Y481075D01*
X512456Y481075D01*
X512330Y481061D01*
X512204Y481054D01*
X512158Y481041D01*
X512110Y481035D01*
X511991Y480993D01*
X511869Y480958D01*
X511827Y480934D01*
X511782Y480918D01*
X511675Y480849D01*
X511565Y480788D01*
X511519Y480748D01*
X511489Y480729D01*
X511455Y480694D01*
X511379Y480629D01*
X510837Y480087D01*
X507703Y480087D01*
X505487Y482303D01*
X505487Y485437D01*
X507703Y487653D01*
X509160Y487653D01*
X509260Y487664D01*
X509361Y487666D01*
X509433Y487684D01*
X509506Y487693D01*
X509601Y487727D01*
X509699Y487751D01*
X509765Y487785D01*
X509835Y487810D01*
X509919Y487865D01*
X510008Y487911D01*
X510065Y487959D01*
X510127Y487999D01*
X510197Y488071D01*
X510274Y488137D01*
X510318Y488196D01*
X510370Y488250D01*
X510421Y488336D01*
X510481Y488417D01*
X510510Y488485D01*
X510548Y488549D01*
X510579Y488645D01*
X510619Y488737D01*
X510632Y488810D01*
X510655Y488881D01*
X510663Y488981D01*
X510680Y489080D01*
X510677Y489154D01*
X510683Y489228D01*
X510668Y489328D01*
X510662Y489428D01*
X510642Y489499D01*
X510631Y489573D01*
X510594Y489666D01*
X510567Y489758D01*
X510567Y493057D01*
X512783Y495273D01*
X514367Y495273D01*
X514467Y495284D01*
X514568Y495286D01*
X514640Y495304D01*
X514714Y495313D01*
X514808Y495346D01*
X514906Y495371D01*
X514972Y495405D01*
X515042Y495430D01*
X515126Y495485D01*
X515215Y495531D01*
X515272Y495579D01*
X515335Y495619D01*
X515404Y495691D01*
X515481Y495756D01*
X515525Y495816D01*
X515577Y495870D01*
X515628Y495956D01*
X515688Y496037D01*
X515717Y496105D01*
X515756Y496169D01*
X515786Y496265D01*
X515826Y496357D01*
X515839Y496430D01*
X515862Y496501D01*
X515870Y496601D01*
X515888Y496700D01*
X515884Y496774D01*
X515890Y496848D01*
X515875Y496948D01*
X515870Y497048D01*
X515849Y497119D01*
X515838Y497193D01*
X515801Y497286D01*
X515773Y497383D01*
X515737Y497448D01*
X515709Y497517D01*
X515652Y497599D01*
X515603Y497687D01*
X515538Y497763D01*
X515510Y497803D01*
X515484Y497827D01*
X515445Y497873D01*
X513970Y499347D01*
X513950Y499364D01*
X513933Y499384D01*
X513813Y499472D01*
X513697Y499564D01*
X513674Y499575D01*
X513652Y499591D01*
X513516Y499650D01*
X513382Y499713D01*
X513357Y499718D01*
X513332Y499729D01*
X513186Y499755D01*
X513041Y499786D01*
X513015Y499786D01*
X512989Y499790D01*
X512841Y499783D01*
X512693Y499780D01*
X512668Y499774D01*
X512641Y499773D01*
X512499Y499732D01*
X512355Y499695D01*
X512332Y499683D01*
X512307Y499676D01*
X512177Y499604D01*
X512045Y499536D01*
X512025Y499519D01*
X512002Y499506D01*
X511816Y499347D01*
X509951Y497483D01*
X509185Y497483D01*
X509060Y497468D01*
X508933Y497462D01*
X508887Y497448D01*
X508839Y497443D01*
X508720Y497400D01*
X508598Y497365D01*
X508556Y497342D01*
X508511Y497325D01*
X508405Y497257D01*
X508294Y497195D01*
X508248Y497156D01*
X508218Y497136D01*
X508184Y497102D01*
X508108Y497037D01*
X498381Y487309D01*
X498302Y487210D01*
X498218Y487117D01*
X498194Y487074D01*
X498164Y487036D01*
X498110Y486922D01*
X498049Y486811D01*
X498036Y486765D01*
X498015Y486721D01*
X497989Y486598D01*
X497954Y486476D01*
X497949Y486415D01*
X497942Y486381D01*
X497943Y486333D01*
X497935Y486232D01*
X497935Y475884D01*
X497938Y475858D01*
X497936Y475832D01*
X497958Y475685D01*
X497975Y475538D01*
X497983Y475513D01*
X497987Y475487D01*
X498042Y475349D01*
X498092Y475210D01*
X498106Y475188D01*
X498116Y475163D01*
X498201Y475042D01*
X498281Y474917D01*
X498300Y474899D01*
X498315Y474877D01*
X498425Y474778D01*
X498532Y474675D01*
X498554Y474661D01*
X498574Y474644D01*
X498704Y474572D01*
X498831Y474496D01*
X498856Y474488D01*
X498879Y474475D01*
X499022Y474435D01*
X499163Y474390D01*
X499189Y474388D01*
X499214Y474380D01*
X499458Y474361D01*
X501166Y474361D01*
X501911Y473616D01*
X501911Y458564D01*
X501166Y457819D01*
X489114Y457819D01*
X488369Y458564D01*
X488369Y473616D01*
X489114Y474361D01*
X490822Y474361D01*
X490848Y474364D01*
X490874Y474362D01*
X491021Y474384D01*
X491168Y474401D01*
X491193Y474409D01*
X491219Y474413D01*
X491357Y474468D01*
X491496Y474518D01*
X491518Y474532D01*
X491543Y474542D01*
X491664Y474627D01*
X491789Y474707D01*
X491807Y474726D01*
X491829Y474741D01*
X491928Y474851D01*
X492031Y474958D01*
X492045Y474980D01*
X492062Y475000D01*
X492134Y475129D01*
X492210Y475257D01*
X492218Y475282D01*
X492231Y475305D01*
X492271Y475448D01*
X492316Y475589D01*
X492318Y475615D01*
X492326Y475640D01*
X492345Y475884D01*
X492345Y487255D01*
X492334Y487355D01*
X492332Y487456D01*
X492314Y487528D01*
X492305Y487602D01*
X492272Y487696D01*
X492247Y487794D01*
X492213Y487860D01*
X492188Y487930D01*
X492133Y488014D01*
X492087Y488103D01*
X492039Y488160D01*
X491999Y488223D01*
X491927Y488292D01*
X491862Y488369D01*
X491802Y488413D01*
X491748Y488465D01*
X491662Y488516D01*
X491581Y488576D01*
X491513Y488605D01*
X491449Y488644D01*
X491353Y488674D01*
X491261Y488714D01*
X491188Y488727D01*
X491117Y488750D01*
X491017Y488758D01*
X490918Y488776D01*
X490844Y488772D01*
X490770Y488778D01*
X490670Y488763D01*
X490570Y488758D01*
X490499Y488737D01*
X490425Y488726D01*
X490332Y488689D01*
X490235Y488661D01*
X490170Y488625D01*
X490101Y488597D01*
X490019Y488540D01*
X489931Y488491D01*
X489855Y488426D01*
X489815Y488398D01*
X489791Y488372D01*
X489745Y488333D01*
X478381Y476969D01*
X478302Y476870D01*
X478251Y476813D01*
X478249Y476810D01*
X478248Y476810D01*
X478218Y476776D01*
X478194Y476733D01*
X478164Y476696D01*
X478110Y476581D01*
X478092Y476548D01*
X478070Y476511D01*
X478068Y476504D01*
X478049Y476471D01*
X478036Y476424D01*
X478015Y476380D01*
X477989Y476260D01*
X477964Y476179D01*
X477962Y476163D01*
X477954Y476135D01*
X477949Y476074D01*
X477942Y476040D01*
X477943Y475992D01*
X477935Y475891D01*
X477935Y475884D01*
X477938Y475858D01*
X477936Y475832D01*
X477947Y475757D01*
X477948Y475691D01*
X477965Y475625D01*
X477975Y475538D01*
X477983Y475513D01*
X477987Y475487D01*
X478020Y475405D01*
X478033Y475353D01*
X478058Y475304D01*
X478092Y475210D01*
X478106Y475188D01*
X478116Y475163D01*
X478173Y475081D01*
X478193Y475043D01*
X478221Y475010D01*
X478281Y474917D01*
X478300Y474899D01*
X478315Y474877D01*
X478397Y474803D01*
X478418Y474778D01*
X478445Y474758D01*
X478532Y474675D01*
X478554Y474661D01*
X478574Y474644D01*
X478679Y474586D01*
X478699Y474571D01*
X478722Y474561D01*
X478831Y474496D01*
X478856Y474488D01*
X478879Y474475D01*
X479001Y474441D01*
X479019Y474433D01*
X479039Y474429D01*
X479163Y474390D01*
X479189Y474388D01*
X479214Y474380D01*
X479458Y474361D01*
X481166Y474361D01*
X481911Y473616D01*
X481911Y458564D01*
X481166Y457819D01*
X479458Y457819D01*
X479432Y457816D01*
X479406Y457818D01*
X479259Y457796D01*
X479112Y457779D01*
X479087Y457771D01*
X479061Y457767D01*
X478923Y457712D01*
X478784Y457662D01*
X478762Y457648D01*
X478737Y457638D01*
X478616Y457553D01*
X478491Y457473D01*
X478473Y457454D01*
X478451Y457439D01*
X478352Y457329D01*
X478249Y457222D01*
X478235Y457200D01*
X478218Y457180D01*
X478146Y457050D01*
X478070Y456923D01*
X478062Y456898D01*
X478049Y456875D01*
X478009Y456732D01*
X477964Y456591D01*
X477962Y456565D01*
X477954Y456540D01*
X477935Y456296D01*
X477935Y449214D01*
X477938Y449188D01*
X477936Y449162D01*
X477958Y449015D01*
X477975Y448868D01*
X477983Y448843D01*
X477987Y448817D01*
X478042Y448679D01*
X478092Y448540D01*
X478106Y448518D01*
X478116Y448493D01*
X478201Y448372D01*
X478281Y448247D01*
X478300Y448229D01*
X478315Y448207D01*
X478425Y448108D01*
X478532Y448005D01*
X478554Y447991D01*
X478574Y447974D01*
X478704Y447902D01*
X478831Y447826D01*
X478856Y447818D01*
X478879Y447805D01*
X479022Y447765D01*
X479163Y447720D01*
X479189Y447718D01*
X479214Y447710D01*
X479458Y447691D01*
X482436Y447691D01*
X483181Y446946D01*
X483181Y431894D01*
X482436Y431149D01*
X472723Y431149D01*
X472597Y431135D01*
X472471Y431128D01*
X472424Y431115D01*
X472376Y431109D01*
X472257Y431067D01*
X472136Y431032D01*
X472094Y431008D01*
X472048Y430992D01*
X471942Y430923D01*
X471832Y430862D01*
X471785Y430822D01*
X471755Y430803D01*
X471722Y430768D01*
X471645Y430703D01*
X460108Y419165D01*
X447734Y419165D01*
X447708Y419162D01*
X447682Y419164D01*
X447535Y419142D01*
X447388Y419125D01*
X447363Y419117D01*
X447337Y419113D01*
X447199Y419058D01*
X447060Y419008D01*
X447038Y418994D01*
X447013Y418984D01*
X446892Y418899D01*
X446767Y418819D01*
X446749Y418800D01*
X446727Y418785D01*
X446628Y418675D01*
X446525Y418568D01*
X446511Y418546D01*
X446494Y418526D01*
X446422Y418396D01*
X446346Y418269D01*
X446338Y418244D01*
X446325Y418221D01*
X446285Y418078D01*
X446240Y417937D01*
X446238Y417911D01*
X446230Y417886D01*
X446214Y417687D01*
X445466Y416939D01*
X414414Y416939D01*
X413669Y417684D01*
X413669Y422549D01*
X413658Y422649D01*
X413656Y422750D01*
X413638Y422822D01*
X413629Y422896D01*
X413596Y422990D01*
X413571Y423088D01*
X413537Y423154D01*
X413512Y423224D01*
X413457Y423308D01*
X413411Y423397D01*
X413363Y423454D01*
X413323Y423517D01*
X413251Y423586D01*
X413186Y423663D01*
X413126Y423707D01*
X413072Y423759D01*
X412986Y423810D01*
X412905Y423870D01*
X412837Y423899D01*
X412773Y423938D01*
X412677Y423968D01*
X412585Y424008D01*
X412512Y424021D01*
X412441Y424044D01*
X412341Y424052D01*
X412242Y424070D01*
X412168Y424066D01*
X412094Y424072D01*
X411994Y424057D01*
X411894Y424052D01*
X411823Y424031D01*
X411749Y424020D01*
X411656Y423983D01*
X411559Y423955D01*
X411494Y423919D01*
X411425Y423891D01*
X411343Y423834D01*
X411255Y423785D01*
X411179Y423720D01*
X411139Y423692D01*
X411115Y423666D01*
X411069Y423627D01*
X406608Y419165D01*
X405734Y419165D01*
X405708Y419162D01*
X405682Y419164D01*
X405535Y419142D01*
X405388Y419125D01*
X405363Y419117D01*
X405337Y419113D01*
X405199Y419058D01*
X405060Y419008D01*
X405038Y418994D01*
X405013Y418984D01*
X404892Y418899D01*
X404767Y418819D01*
X404749Y418800D01*
X404727Y418785D01*
X404628Y418675D01*
X404525Y418568D01*
X404511Y418546D01*
X404494Y418526D01*
X404422Y418396D01*
X404346Y418269D01*
X404338Y418244D01*
X404325Y418221D01*
X404285Y418078D01*
X404240Y417937D01*
X404238Y417911D01*
X404230Y417886D01*
X404214Y417687D01*
X403466Y416939D01*
X372414Y416939D01*
X371669Y417684D01*
X371669Y426236D01*
X372414Y426981D01*
X403466Y426981D01*
X403915Y426532D01*
X403936Y426515D01*
X403953Y426496D01*
X404072Y426408D01*
X404188Y426315D01*
X404212Y426304D01*
X404233Y426288D01*
X404369Y426230D01*
X404503Y426166D01*
X404529Y426161D01*
X404553Y426150D01*
X404699Y426124D01*
X404844Y426093D01*
X404870Y426093D01*
X404896Y426089D01*
X405045Y426096D01*
X405192Y426099D01*
X405218Y426105D01*
X405244Y426107D01*
X405387Y426148D01*
X405530Y426184D01*
X405554Y426196D01*
X405579Y426203D01*
X405708Y426275D01*
X405840Y426343D01*
X405860Y426361D01*
X405883Y426373D01*
X406069Y426532D01*
X408239Y428701D01*
X408310Y428790D01*
X408318Y428799D01*
X408321Y428804D01*
X408402Y428894D01*
X408426Y428937D01*
X408456Y428974D01*
X408510Y429089D01*
X408571Y429199D01*
X408584Y429246D01*
X408605Y429290D01*
X408631Y429413D01*
X408666Y429535D01*
X408671Y429596D01*
X408678Y429630D01*
X408677Y429678D01*
X408685Y429779D01*
X408685Y445505D01*
X408674Y445605D01*
X408672Y445706D01*
X408654Y445778D01*
X408645Y445852D01*
X408612Y445946D01*
X408587Y446044D01*
X408553Y446110D01*
X408528Y446180D01*
X408473Y446264D01*
X408427Y446353D01*
X408379Y446410D01*
X408339Y446473D01*
X408267Y446542D01*
X408202Y446619D01*
X408142Y446663D01*
X408088Y446715D01*
X408002Y446766D01*
X407921Y446826D01*
X407853Y446855D01*
X407789Y446894D01*
X407693Y446924D01*
X407601Y446964D01*
X407528Y446977D01*
X407457Y447000D01*
X407357Y447008D01*
X407258Y447026D01*
X407184Y447022D01*
X407110Y447028D01*
X407010Y447013D01*
X406910Y447008D01*
X406839Y446987D01*
X406765Y446976D01*
X406672Y446939D01*
X406575Y446911D01*
X406510Y446875D01*
X406441Y446847D01*
X406359Y446790D01*
X406271Y446741D01*
X406195Y446676D01*
X406155Y446648D01*
X406131Y446622D01*
X406085Y446583D01*
X404657Y445155D01*
X404578Y445055D01*
X404494Y444962D01*
X404470Y444919D01*
X404440Y444881D01*
X404386Y444767D01*
X404325Y444657D01*
X404312Y444610D01*
X404291Y444566D01*
X404265Y444443D01*
X404230Y444321D01*
X404225Y444261D01*
X404218Y444226D01*
X404219Y444177D01*
X404211Y444077D01*
X404211Y437684D01*
X403466Y436939D01*
X372414Y436939D01*
X371669Y437684D01*
X371669Y446236D01*
X372414Y446981D01*
X397947Y446981D01*
X398073Y446995D01*
X398199Y447002D01*
X398246Y447015D01*
X398294Y447021D01*
X398413Y447063D01*
X398534Y447098D01*
X398576Y447122D01*
X398622Y447138D01*
X398728Y447207D01*
X398838Y447268D01*
X398885Y447308D01*
X398915Y447327D01*
X398948Y447362D01*
X399025Y447427D01*
X406969Y455371D01*
X407048Y455470D01*
X407132Y455564D01*
X407156Y455607D01*
X407186Y455644D01*
X407240Y455759D01*
X407301Y455869D01*
X407314Y455916D01*
X407335Y455960D01*
X407361Y456083D01*
X407396Y456205D01*
X407401Y456266D01*
X407408Y456300D01*
X407407Y456348D01*
X407415Y456449D01*
X407415Y466448D01*
X413662Y472695D01*
X423915Y472695D01*
X424015Y472706D01*
X424116Y472708D01*
X424188Y472726D01*
X424262Y472735D01*
X424356Y472768D01*
X424454Y472793D01*
X424520Y472827D01*
X424590Y472852D01*
X424674Y472907D01*
X424763Y472953D01*
X424820Y473001D01*
X424883Y473041D01*
X424952Y473113D01*
X425029Y473178D01*
X425073Y473238D01*
X425125Y473292D01*
X425176Y473378D01*
X425236Y473459D01*
X425265Y473527D01*
X425304Y473591D01*
X425334Y473687D01*
X425374Y473779D01*
X425387Y473852D01*
X425410Y473923D01*
X425418Y474023D01*
X425436Y474122D01*
X425432Y474196D01*
X425438Y474270D01*
X425423Y474370D01*
X425418Y474470D01*
X425397Y474541D01*
X425386Y474615D01*
X425349Y474708D01*
X425321Y474805D01*
X425285Y474870D01*
X425257Y474939D01*
X425200Y475021D01*
X425151Y475109D01*
X425086Y475185D01*
X425058Y475225D01*
X425032Y475249D01*
X424993Y475295D01*
X424053Y476235D01*
X424049Y476255D01*
X424000Y476368D01*
X423958Y476485D01*
X423930Y476528D01*
X423910Y476575D01*
X423836Y476674D01*
X423769Y476778D01*
X423732Y476813D01*
X423702Y476854D01*
X423607Y476934D01*
X423518Y477020D01*
X423474Y477046D01*
X423435Y477079D01*
X423325Y477135D01*
X423219Y477199D01*
X423170Y477214D01*
X423125Y477237D01*
X423005Y477267D01*
X422887Y477305D01*
X422836Y477309D01*
X422787Y477321D01*
X422663Y477323D01*
X422540Y477333D01*
X422489Y477325D01*
X422438Y477326D01*
X422266Y477294D01*
X420433Y477294D01*
X420433Y487210D01*
X420433Y497126D01*
X422245Y497126D01*
X422891Y496953D01*
X423470Y496618D01*
X423786Y496302D01*
X423885Y496223D01*
X423979Y496139D01*
X424021Y496115D01*
X424059Y496085D01*
X424173Y496031D01*
X424284Y495970D01*
X424331Y495957D01*
X424374Y495936D01*
X424498Y495910D01*
X424620Y495875D01*
X424680Y495870D01*
X424715Y495863D01*
X424763Y495864D01*
X424863Y495856D01*
X437924Y495856D01*
X437950Y495859D01*
X437976Y495857D01*
X438123Y495879D01*
X438270Y495896D01*
X438295Y495904D01*
X438321Y495908D01*
X438459Y495963D01*
X438598Y496013D01*
X438620Y496027D01*
X438645Y496037D01*
X438766Y496122D01*
X438891Y496202D01*
X438909Y496221D01*
X438931Y496236D01*
X439030Y496346D01*
X439133Y496453D01*
X439147Y496475D01*
X439164Y496495D01*
X439236Y496625D01*
X439312Y496752D01*
X439320Y496777D01*
X439333Y496800D01*
X439373Y496943D01*
X439418Y497084D01*
X439420Y497110D01*
X439428Y497135D01*
X439447Y497379D01*
X439447Y499407D01*
X441663Y501623D01*
X444797Y501623D01*
X447013Y499407D01*
X447013Y497379D01*
X447016Y497353D01*
X447014Y497327D01*
X447036Y497180D01*
X447053Y497033D01*
X447061Y497008D01*
X447065Y496982D01*
X447120Y496844D01*
X447170Y496705D01*
X447184Y496683D01*
X447194Y496658D01*
X447279Y496537D01*
X447359Y496412D01*
X447378Y496394D01*
X447393Y496372D01*
X447503Y496273D01*
X447610Y496170D01*
X447632Y496156D01*
X447652Y496139D01*
X447782Y496067D01*
X447909Y495991D01*
X447934Y495983D01*
X447957Y495970D01*
X448100Y495930D01*
X448241Y495885D01*
X448267Y495883D01*
X448292Y495875D01*
X448536Y495856D01*
X454436Y495856D01*
X455181Y495111D01*
X455181Y481861D01*
X455192Y481761D01*
X455194Y481660D01*
X455212Y481588D01*
X455221Y481514D01*
X455254Y481420D01*
X455279Y481322D01*
X455313Y481256D01*
X455338Y481186D01*
X455393Y481102D01*
X455439Y481013D01*
X455487Y480956D01*
X455527Y480893D01*
X455599Y480823D01*
X455664Y480747D01*
X455724Y480703D01*
X455778Y480651D01*
X455864Y480600D01*
X455945Y480540D01*
X456013Y480510D01*
X456077Y480472D01*
X456172Y480442D01*
X456265Y480402D01*
X456338Y480389D01*
X456409Y480366D01*
X456509Y480358D01*
X456608Y480340D01*
X456682Y480344D01*
X456756Y480338D01*
X456855Y480353D01*
X456956Y480358D01*
X457027Y480379D01*
X457101Y480390D01*
X457194Y480427D01*
X457291Y480455D01*
X457356Y480491D01*
X457425Y480519D01*
X457507Y480576D01*
X457595Y480625D01*
X457671Y480690D01*
X457711Y480718D01*
X457735Y480744D01*
X457781Y480783D01*
X458239Y481242D01*
X458318Y481341D01*
X458402Y481434D01*
X458426Y481477D01*
X458456Y481515D01*
X458510Y481629D01*
X458571Y481739D01*
X458584Y481786D01*
X458605Y481830D01*
X458631Y481953D01*
X458666Y482075D01*
X458671Y482135D01*
X458678Y482170D01*
X458677Y482219D01*
X458685Y482319D01*
X458685Y495796D01*
X458682Y495822D01*
X458684Y495848D01*
X458662Y495995D01*
X458645Y496142D01*
X458637Y496167D01*
X458633Y496193D01*
X458578Y496331D01*
X458528Y496470D01*
X458514Y496492D01*
X458504Y496517D01*
X458419Y496638D01*
X458339Y496763D01*
X458320Y496781D01*
X458305Y496803D01*
X458195Y496902D01*
X458088Y497005D01*
X458066Y497019D01*
X458046Y497036D01*
X457916Y497108D01*
X457789Y497184D01*
X457764Y497192D01*
X457741Y497205D01*
X457598Y497245D01*
X457457Y497290D01*
X457431Y497292D01*
X457409Y497299D01*
X456644Y498064D01*
X456644Y561116D01*
X457389Y561861D01*
X459118Y561861D01*
X459218Y561872D01*
X459319Y561874D01*
X459391Y561892D01*
X459464Y561901D01*
X459559Y561935D01*
X459657Y561959D01*
X459723Y561993D01*
X459792Y562018D01*
X459877Y562073D01*
X459966Y562119D01*
X460023Y562167D01*
X460085Y562207D01*
X460155Y562280D01*
X460232Y562345D01*
X460276Y562404D01*
X460327Y562458D01*
X460379Y562544D01*
X460439Y562625D01*
X460468Y562693D01*
X460506Y562757D01*
X460537Y562853D01*
X460577Y562945D01*
X460590Y563018D01*
X460613Y563089D01*
X460621Y563189D01*
X460638Y563288D01*
X460635Y563362D01*
X460641Y563436D01*
X460626Y563536D01*
X460620Y563636D01*
X460600Y563707D01*
X460589Y563781D01*
X460552Y563874D01*
X460524Y563971D01*
X460490Y564032D01*
X460464Y564122D01*
X460440Y564164D01*
X460424Y564210D01*
X460355Y564316D01*
X460294Y564426D01*
X460254Y564472D01*
X460235Y564503D01*
X460200Y564536D01*
X460135Y564613D01*
X457781Y566967D01*
X457703Y567029D01*
X457630Y567099D01*
X457566Y567137D01*
X457508Y567183D01*
X457417Y567226D01*
X457331Y567278D01*
X457260Y567300D01*
X457193Y567332D01*
X457095Y567353D01*
X456999Y567384D01*
X456925Y567390D01*
X456852Y567405D01*
X456752Y567404D01*
X456652Y567412D01*
X456578Y567401D01*
X456504Y567400D01*
X456407Y567375D01*
X456307Y567360D01*
X456238Y567333D01*
X456166Y567315D01*
X456077Y567269D01*
X455983Y567231D01*
X455922Y567189D01*
X455856Y567155D01*
X455780Y567090D01*
X455697Y567032D01*
X455647Y566977D01*
X455591Y566929D01*
X455531Y566848D01*
X455464Y566774D01*
X455428Y566709D01*
X455383Y566649D01*
X455344Y566557D01*
X455295Y566469D01*
X455275Y566397D01*
X455245Y566329D01*
X455228Y566230D01*
X455200Y566133D01*
X455192Y566033D01*
X455184Y565986D01*
X455186Y565950D01*
X455181Y565889D01*
X455181Y564069D01*
X454436Y563324D01*
X439986Y563324D01*
X439886Y563313D01*
X439785Y563311D01*
X439713Y563293D01*
X439639Y563284D01*
X439545Y563251D01*
X439447Y563226D01*
X439381Y563192D01*
X439311Y563167D01*
X439227Y563112D01*
X439138Y563066D01*
X439081Y563018D01*
X439018Y562978D01*
X438949Y562906D01*
X438872Y562841D01*
X438828Y562781D01*
X438776Y562727D01*
X438725Y562641D01*
X438665Y562560D01*
X438636Y562492D01*
X438597Y562428D01*
X438567Y562332D01*
X438527Y562240D01*
X438514Y562167D01*
X438491Y562096D01*
X438483Y561996D01*
X438465Y561897D01*
X438469Y561823D01*
X438463Y561749D01*
X438478Y561649D01*
X438483Y561549D01*
X438504Y561478D01*
X438515Y561404D01*
X438552Y561311D01*
X438580Y561214D01*
X438616Y561149D01*
X438644Y561080D01*
X438701Y560998D01*
X438750Y560910D01*
X438815Y560834D01*
X438843Y560794D01*
X438869Y560770D01*
X438908Y560724D01*
X440413Y559219D01*
X440513Y559140D01*
X440606Y559056D01*
X440649Y559032D01*
X440686Y559002D01*
X440801Y558948D01*
X440911Y558887D01*
X440958Y558874D01*
X441002Y558853D01*
X441125Y558827D01*
X441247Y558792D01*
X441307Y558787D01*
X441342Y558780D01*
X441391Y558781D01*
X441491Y558773D01*
X442257Y558773D01*
X444473Y556557D01*
X444473Y553423D01*
X442257Y551207D01*
X439123Y551207D01*
X436907Y553423D01*
X436907Y554189D01*
X436893Y554315D01*
X436886Y554441D01*
X436873Y554488D01*
X436867Y554536D01*
X436825Y554655D01*
X436790Y554776D01*
X436766Y554818D01*
X436750Y554864D01*
X436681Y554970D01*
X436620Y555080D01*
X436580Y555127D01*
X436561Y555157D01*
X436526Y555190D01*
X436461Y555267D01*
X432115Y559612D01*
X432115Y560570D01*
X432109Y560621D01*
X432112Y560672D01*
X432090Y560794D01*
X432075Y560917D01*
X432058Y560965D01*
X432049Y561015D01*
X432000Y561128D01*
X431958Y561245D01*
X431930Y561288D01*
X431910Y561334D01*
X431836Y561434D01*
X431769Y561538D01*
X431732Y561573D01*
X431702Y561614D01*
X431607Y561694D01*
X431518Y561780D01*
X431474Y561806D01*
X431436Y561839D01*
X431325Y561895D01*
X431219Y561959D01*
X431171Y561974D01*
X431125Y561997D01*
X431005Y562027D01*
X430887Y562065D01*
X430836Y562069D01*
X430787Y562081D01*
X430663Y562083D01*
X430540Y562093D01*
X430489Y562085D01*
X430438Y562086D01*
X430266Y562054D01*
X428433Y562054D01*
X428433Y571970D01*
X428433Y581886D01*
X430245Y581886D01*
X430891Y581713D01*
X431470Y581378D01*
X431786Y581062D01*
X431885Y580983D01*
X431979Y580899D01*
X432021Y580875D01*
X432059Y580845D01*
X432173Y580791D01*
X432284Y580730D01*
X432331Y580717D01*
X432374Y580696D01*
X432498Y580670D01*
X432620Y580635D01*
X432680Y580630D01*
X432715Y580623D01*
X432763Y580624D01*
X432863Y580616D01*
X438592Y580616D01*
X438618Y580619D01*
X438644Y580617D01*
X438791Y580639D01*
X438938Y580656D01*
X438963Y580664D01*
X438989Y580668D01*
X439127Y580723D01*
X439266Y580773D01*
X439288Y580787D01*
X439313Y580797D01*
X439434Y580882D01*
X439559Y580962D01*
X439577Y580981D01*
X439599Y580996D01*
X439698Y581106D01*
X439801Y581213D01*
X439815Y581235D01*
X439832Y581255D01*
X439904Y581385D01*
X439980Y581512D01*
X439988Y581537D01*
X440001Y581560D01*
X440041Y581703D01*
X440086Y581844D01*
X440088Y581870D01*
X440096Y581895D01*
X440115Y582139D01*
X440115Y583768D01*
X442139Y585791D01*
X442139Y585792D01*
X444222Y587875D01*
X459138Y587875D01*
X461029Y585983D01*
X461107Y585921D01*
X461180Y585851D01*
X461244Y585813D01*
X461302Y585767D01*
X461393Y585724D01*
X461479Y585672D01*
X461550Y585650D01*
X461617Y585618D01*
X461715Y585597D01*
X461811Y585566D01*
X461885Y585560D01*
X461958Y585545D01*
X462058Y585546D01*
X462158Y585538D01*
X462232Y585549D01*
X462306Y585550D01*
X462403Y585575D01*
X462503Y585590D01*
X462572Y585617D01*
X462644Y585635D01*
X462733Y585681D01*
X462827Y585719D01*
X462888Y585761D01*
X462954Y585795D01*
X463030Y585860D01*
X463113Y585918D01*
X463163Y585973D01*
X463219Y586021D01*
X463279Y586102D01*
X463346Y586176D01*
X463382Y586241D01*
X463427Y586301D01*
X463465Y586391D01*
X470194Y586391D01*
X470220Y586394D01*
X470246Y586392D01*
X470393Y586414D01*
X470540Y586431D01*
X470565Y586439D01*
X470591Y586443D01*
X470728Y586498D01*
X470868Y586548D01*
X470890Y586562D01*
X470915Y586572D01*
X471036Y586657D01*
X471161Y586737D01*
X471179Y586756D01*
X471201Y586771D01*
X471300Y586881D01*
X471403Y586988D01*
X471417Y587010D01*
X471434Y587030D01*
X471506Y587160D01*
X471582Y587287D01*
X471590Y587312D01*
X471603Y587335D01*
X471643Y587478D01*
X471688Y587619D01*
X471690Y587645D01*
X471697Y587670D01*
X471717Y587914D01*
X471717Y589866D01*
X471714Y589892D01*
X471716Y589918D01*
X471694Y590065D01*
X471677Y590212D01*
X471668Y590237D01*
X471664Y590263D01*
X471610Y590401D01*
X471560Y590540D01*
X471545Y590562D01*
X471536Y590587D01*
X471451Y590708D01*
X471371Y590833D01*
X471352Y590851D01*
X471337Y590873D01*
X471227Y590972D01*
X471120Y591075D01*
X471097Y591089D01*
X471078Y591106D01*
X470948Y591178D01*
X470821Y591254D01*
X470796Y591262D01*
X470773Y591275D01*
X470630Y591315D01*
X470489Y591360D01*
X470463Y591362D01*
X470438Y591370D01*
X470194Y591389D01*
X463629Y591389D01*
X463629Y593852D01*
X463626Y593878D01*
X463628Y593904D01*
X463606Y594051D01*
X463589Y594198D01*
X463581Y594223D01*
X463577Y594249D01*
X463522Y594387D01*
X463472Y594526D01*
X463458Y594548D01*
X463448Y594573D01*
X463363Y594694D01*
X463283Y594819D01*
X463264Y594837D01*
X463249Y594859D01*
X463139Y594958D01*
X463032Y595061D01*
X463010Y595075D01*
X462990Y595092D01*
X462860Y595164D01*
X462733Y595240D01*
X462708Y595248D01*
X462685Y595261D01*
X462542Y595301D01*
X462401Y595346D01*
X462375Y595348D01*
X462350Y595356D01*
X462106Y595375D01*
X434859Y595375D01*
X434733Y595361D01*
X434607Y595354D01*
X434560Y595341D01*
X434512Y595335D01*
X434393Y595293D01*
X434272Y595258D01*
X434230Y595234D01*
X434184Y595218D01*
X434078Y595149D01*
X433968Y595088D01*
X433921Y595048D01*
X433891Y595029D01*
X433858Y594994D01*
X433781Y594929D01*
X423338Y584486D01*
X423276Y584408D01*
X423206Y584335D01*
X423168Y584271D01*
X423122Y584213D01*
X423079Y584122D01*
X423027Y584036D01*
X423005Y583965D01*
X422973Y583898D01*
X422952Y583800D01*
X422921Y583704D01*
X422915Y583630D01*
X422900Y583557D01*
X422901Y583457D01*
X422893Y583357D01*
X422904Y583283D01*
X422905Y583209D01*
X422930Y583112D01*
X422945Y583012D01*
X422972Y582943D01*
X422990Y582871D01*
X423037Y582781D01*
X423074Y582688D01*
X423116Y582627D01*
X423150Y582561D01*
X423215Y582484D01*
X423273Y582402D01*
X423328Y582352D01*
X423376Y582296D01*
X423457Y582236D01*
X423531Y582169D01*
X423596Y582133D01*
X423656Y582088D01*
X423748Y582049D01*
X423836Y582000D01*
X423908Y581980D01*
X423976Y581950D01*
X424075Y581933D01*
X424172Y581905D01*
X424272Y581897D01*
X424319Y581889D01*
X424355Y581891D01*
X424416Y581886D01*
X425387Y581886D01*
X425387Y571970D01*
X425387Y562054D01*
X423575Y562054D01*
X422929Y562227D01*
X422350Y562562D01*
X422034Y562878D01*
X421935Y562957D01*
X421841Y563041D01*
X421799Y563065D01*
X421761Y563095D01*
X421647Y563149D01*
X421536Y563210D01*
X421489Y563223D01*
X421446Y563244D01*
X421322Y563270D01*
X421200Y563305D01*
X421140Y563310D01*
X421105Y563317D01*
X421057Y563316D01*
X420957Y563324D01*
X408236Y563324D01*
X408136Y563313D01*
X408035Y563311D01*
X407963Y563293D01*
X407889Y563284D01*
X407795Y563251D01*
X407697Y563226D01*
X407631Y563192D01*
X407561Y563167D01*
X407477Y563112D01*
X407388Y563066D01*
X407331Y563018D01*
X407268Y562978D01*
X407198Y562906D01*
X407122Y562841D01*
X407078Y562781D01*
X407026Y562727D01*
X406975Y562641D01*
X406915Y562560D01*
X406886Y562492D01*
X406847Y562428D01*
X406817Y562332D01*
X406777Y562240D01*
X406764Y562167D01*
X406741Y562096D01*
X406733Y561996D01*
X406715Y561897D01*
X406719Y561823D01*
X406713Y561749D01*
X406728Y561649D01*
X406733Y561549D01*
X406754Y561478D01*
X406765Y561404D01*
X406802Y561311D01*
X406830Y561214D01*
X406866Y561149D01*
X406894Y561080D01*
X406951Y560998D01*
X407000Y560910D01*
X407065Y560834D01*
X407093Y560794D01*
X407119Y560770D01*
X407158Y560724D01*
X409651Y558231D01*
X409750Y558152D01*
X409844Y558068D01*
X409887Y558044D01*
X409924Y558014D01*
X410039Y557960D01*
X410149Y557899D01*
X410196Y557886D01*
X410240Y557865D01*
X410363Y557839D01*
X410485Y557804D01*
X410546Y557799D01*
X410580Y557792D01*
X410628Y557793D01*
X410729Y557785D01*
X413374Y557785D01*
X413500Y557799D01*
X413626Y557806D01*
X413672Y557819D01*
X413720Y557825D01*
X413840Y557867D01*
X413961Y557902D01*
X414003Y557926D01*
X414049Y557942D01*
X414155Y558011D01*
X414265Y558072D01*
X414311Y558112D01*
X414341Y558131D01*
X414375Y558166D01*
X414451Y558231D01*
X414993Y558773D01*
X418127Y558773D01*
X420343Y556557D01*
X420343Y553423D01*
X418127Y551207D01*
X414993Y551207D01*
X414451Y551749D01*
X414352Y551828D01*
X414258Y551912D01*
X414216Y551936D01*
X414178Y551966D01*
X414064Y552020D01*
X413953Y552081D01*
X413907Y552094D01*
X413863Y552115D01*
X413740Y552141D01*
X413618Y552176D01*
X413557Y552181D01*
X413523Y552188D01*
X413474Y552187D01*
X413374Y552195D01*
X407782Y552195D01*
X400115Y559862D01*
X400115Y561801D01*
X400112Y561827D01*
X400114Y561853D01*
X400092Y562000D01*
X400075Y562147D01*
X400067Y562172D01*
X400063Y562198D01*
X400008Y562336D01*
X399958Y562475D01*
X399944Y562497D01*
X399934Y562522D01*
X399849Y562643D01*
X399769Y562768D01*
X399750Y562786D01*
X399735Y562808D01*
X399625Y562907D01*
X399518Y563010D01*
X399496Y563024D01*
X399476Y563041D01*
X399346Y563113D01*
X399219Y563189D01*
X399194Y563197D01*
X399171Y563210D01*
X399028Y563250D01*
X398887Y563295D01*
X398861Y563297D01*
X398836Y563305D01*
X398592Y563324D01*
X391384Y563324D01*
X390639Y564069D01*
X390639Y571657D01*
X390625Y571783D01*
X390618Y571909D01*
X390605Y571956D01*
X390599Y572004D01*
X390557Y572123D01*
X390522Y572244D01*
X390498Y572286D01*
X390482Y572332D01*
X390413Y572438D01*
X390352Y572548D01*
X390312Y572595D01*
X390293Y572625D01*
X390258Y572658D01*
X390193Y572735D01*
X388696Y574232D01*
X388675Y574248D01*
X388658Y574268D01*
X388539Y574356D01*
X388423Y574449D01*
X388399Y574460D01*
X388378Y574475D01*
X388241Y574534D01*
X388108Y574597D01*
X388082Y574603D01*
X388058Y574613D01*
X387912Y574640D01*
X387767Y574671D01*
X387741Y574670D01*
X387715Y574675D01*
X387567Y574667D01*
X387418Y574665D01*
X387393Y574658D01*
X387367Y574657D01*
X387225Y574616D01*
X387080Y574580D01*
X387057Y574568D01*
X387032Y574561D01*
X386902Y574488D01*
X386771Y574420D01*
X386751Y574403D01*
X386728Y574390D01*
X386541Y574232D01*
X386377Y574067D01*
X383243Y574067D01*
X381378Y575932D01*
X381358Y575948D01*
X381341Y575968D01*
X381221Y576057D01*
X381105Y576149D01*
X381082Y576160D01*
X381061Y576175D01*
X380924Y576234D01*
X380790Y576297D01*
X380765Y576303D01*
X380741Y576313D01*
X380595Y576340D01*
X380450Y576371D01*
X380424Y576370D01*
X380398Y576375D01*
X380249Y576367D01*
X380101Y576365D01*
X380076Y576358D01*
X380050Y576357D01*
X379907Y576316D01*
X379763Y576280D01*
X379740Y576268D01*
X379715Y576261D01*
X379585Y576188D01*
X379453Y576120D01*
X379434Y576103D01*
X379411Y576090D01*
X379224Y575932D01*
X378691Y575399D01*
X378612Y575300D01*
X378528Y575206D01*
X378504Y575163D01*
X378474Y575126D01*
X378420Y575011D01*
X378359Y574901D01*
X378346Y574854D01*
X378325Y574810D01*
X378299Y574687D01*
X378264Y574565D01*
X378259Y574504D01*
X378252Y574470D01*
X378253Y574422D01*
X378245Y574321D01*
X378245Y564459D01*
X378259Y564333D01*
X378266Y564207D01*
X378279Y564160D01*
X378285Y564112D01*
X378327Y563993D01*
X378362Y563872D01*
X378386Y563830D01*
X378402Y563784D01*
X378471Y563678D01*
X378532Y563568D01*
X378572Y563521D01*
X378591Y563491D01*
X378626Y563458D01*
X378691Y563381D01*
X379765Y562307D01*
X379865Y562228D01*
X379958Y562144D01*
X380001Y562120D01*
X380038Y562090D01*
X380153Y562036D01*
X380263Y561975D01*
X380310Y561962D01*
X380354Y561941D01*
X380477Y561915D01*
X380599Y561880D01*
X380659Y561875D01*
X380694Y561868D01*
X380742Y561869D01*
X380843Y561861D01*
X388431Y561861D01*
X389176Y561116D01*
X389176Y545908D01*
X389179Y545882D01*
X389177Y545856D01*
X389199Y545709D01*
X389216Y545562D01*
X389224Y545537D01*
X389228Y545511D01*
X389283Y545373D01*
X389333Y545234D01*
X389347Y545212D01*
X389357Y545187D01*
X389442Y545066D01*
X389522Y544941D01*
X389541Y544923D01*
X389556Y544901D01*
X389666Y544802D01*
X389773Y544699D01*
X389795Y544685D01*
X389815Y544668D01*
X389945Y544596D01*
X390072Y544520D01*
X390097Y544512D01*
X390120Y544499D01*
X390263Y544459D01*
X390404Y544414D01*
X390430Y544412D01*
X390455Y544404D01*
X390699Y544385D01*
X401908Y544385D01*
X402313Y543979D01*
X402412Y543900D01*
X402506Y543816D01*
X402549Y543792D01*
X402586Y543762D01*
X402701Y543708D01*
X402811Y543647D01*
X402858Y543634D01*
X402902Y543613D01*
X403025Y543587D01*
X403147Y543552D01*
X403208Y543547D01*
X403242Y543540D01*
X403290Y543541D01*
X403391Y543533D01*
X404157Y543533D01*
X406373Y541317D01*
X406373Y538183D01*
X404157Y535967D01*
X401023Y535967D01*
X398641Y538349D01*
X398542Y538428D01*
X398448Y538512D01*
X398406Y538536D01*
X398368Y538566D01*
X398254Y538620D01*
X398143Y538681D01*
X398097Y538694D01*
X398053Y538715D01*
X397930Y538741D01*
X397808Y538776D01*
X397747Y538781D01*
X397712Y538788D01*
X397664Y538787D01*
X397564Y538795D01*
X390699Y538795D01*
X390673Y538792D01*
X390647Y538794D01*
X390500Y538772D01*
X390353Y538755D01*
X390328Y538747D01*
X390302Y538743D01*
X390164Y538688D01*
X390025Y538638D01*
X390003Y538624D01*
X389978Y538614D01*
X389857Y538529D01*
X389732Y538449D01*
X389714Y538430D01*
X389692Y538415D01*
X389593Y538305D01*
X389490Y538198D01*
X389476Y538176D01*
X389459Y538156D01*
X389387Y538026D01*
X389311Y537899D01*
X389303Y537874D01*
X389290Y537851D01*
X389250Y537708D01*
X389205Y537567D01*
X389203Y537541D01*
X389195Y537516D01*
X389176Y537272D01*
X389176Y521208D01*
X389179Y521182D01*
X389177Y521156D01*
X389199Y521009D01*
X389216Y520862D01*
X389224Y520837D01*
X389228Y520811D01*
X389283Y520673D01*
X389333Y520534D01*
X389347Y520512D01*
X389357Y520487D01*
X389442Y520366D01*
X389522Y520241D01*
X389541Y520223D01*
X389556Y520201D01*
X389666Y520102D01*
X389773Y519999D01*
X389795Y519985D01*
X389815Y519968D01*
X389945Y519896D01*
X390072Y519820D01*
X390097Y519812D01*
X390120Y519799D01*
X390263Y519759D01*
X390404Y519714D01*
X390430Y519712D01*
X390455Y519704D01*
X390699Y519685D01*
X437504Y519685D01*
X437630Y519699D01*
X437756Y519706D01*
X437802Y519719D01*
X437850Y519725D01*
X437969Y519767D01*
X438091Y519802D01*
X438133Y519826D01*
X438178Y519842D01*
X438285Y519911D01*
X438395Y519972D01*
X438441Y520012D01*
X438471Y520031D01*
X438505Y520066D01*
X438581Y520131D01*
X439123Y520673D01*
X442257Y520673D01*
X444473Y518457D01*
X444473Y515323D01*
X442922Y513773D01*
X442906Y513752D01*
X442886Y513735D01*
X442797Y513615D01*
X442706Y513500D01*
X442694Y513476D01*
X442679Y513455D01*
X442620Y513319D01*
X442557Y513184D01*
X442551Y513159D01*
X442541Y513135D01*
X442514Y512989D01*
X442483Y512844D01*
X442484Y512818D01*
X442479Y512792D01*
X442487Y512643D01*
X442489Y512495D01*
X442496Y512470D01*
X442497Y512444D01*
X442538Y512301D01*
X442574Y512157D01*
X442586Y512134D01*
X442593Y512109D01*
X442666Y511979D01*
X442734Y511848D01*
X442751Y511828D01*
X442764Y511805D01*
X442922Y511618D01*
X443902Y510639D01*
X443902Y507505D01*
X441686Y505289D01*
X438552Y505289D01*
X437492Y506349D01*
X437393Y506428D01*
X437299Y506512D01*
X437257Y506536D01*
X437219Y506566D01*
X437105Y506620D01*
X436994Y506681D01*
X436948Y506694D01*
X436904Y506715D01*
X436781Y506741D01*
X436659Y506776D01*
X436598Y506781D01*
X436563Y506788D01*
X436515Y506787D01*
X436415Y506795D01*
X398692Y506795D01*
X398592Y506784D01*
X398492Y506782D01*
X398419Y506764D01*
X398346Y506755D01*
X398251Y506722D01*
X398154Y506697D01*
X398087Y506663D01*
X398017Y506638D01*
X397933Y506583D01*
X397844Y506537D01*
X397787Y506489D01*
X397725Y506449D01*
X397655Y506377D01*
X397578Y506312D01*
X397534Y506252D01*
X397482Y506198D01*
X397431Y506112D01*
X397371Y506031D01*
X397342Y505963D01*
X397304Y505899D01*
X397273Y505804D01*
X397233Y505711D01*
X397220Y505638D01*
X397197Y505567D01*
X397189Y505467D01*
X397172Y505368D01*
X397175Y505294D01*
X397169Y505220D01*
X397184Y505121D01*
X397189Y505020D01*
X397210Y504949D01*
X397221Y504875D01*
X397258Y504782D01*
X397286Y504685D01*
X397322Y504620D01*
X397350Y504551D01*
X397407Y504469D01*
X397456Y504381D01*
X397483Y504350D01*
X397483Y501193D01*
X395267Y498977D01*
X392133Y498977D01*
X391776Y499334D01*
X391697Y499397D01*
X391625Y499467D01*
X391561Y499505D01*
X391503Y499551D01*
X391412Y499594D01*
X391326Y499645D01*
X391255Y499668D01*
X391188Y499700D01*
X391090Y499721D01*
X390994Y499752D01*
X390920Y499758D01*
X390847Y499773D01*
X390747Y499772D01*
X390647Y499780D01*
X390573Y499769D01*
X390499Y499767D01*
X390402Y499743D01*
X390302Y499728D01*
X390233Y499700D01*
X390161Y499682D01*
X390072Y499636D01*
X389978Y499599D01*
X389917Y499557D01*
X389851Y499523D01*
X389774Y499457D01*
X389692Y499400D01*
X389642Y499345D01*
X389586Y499297D01*
X389526Y499216D01*
X389459Y499141D01*
X389423Y499076D01*
X389378Y499017D01*
X389339Y498924D01*
X389290Y498836D01*
X389270Y498765D01*
X389240Y498697D01*
X389223Y498598D01*
X389195Y498501D01*
X389187Y498401D01*
X389179Y498354D01*
X389181Y498318D01*
X389176Y498257D01*
X389176Y498064D01*
X388431Y497319D01*
X374142Y497319D01*
X374116Y497316D01*
X374090Y497318D01*
X373943Y497296D01*
X373796Y497279D01*
X373771Y497271D01*
X373745Y497267D01*
X373607Y497212D01*
X373468Y497162D01*
X373446Y497148D01*
X373421Y497138D01*
X373300Y497053D01*
X373175Y496973D01*
X373157Y496954D01*
X373135Y496939D01*
X373036Y496829D01*
X372933Y496722D01*
X372919Y496700D01*
X372902Y496680D01*
X372830Y496550D01*
X372754Y496423D01*
X372746Y496398D01*
X372733Y496375D01*
X372693Y496232D01*
X372648Y496091D01*
X372646Y496065D01*
X372638Y496040D01*
X372619Y495796D01*
X372619Y481865D01*
X372633Y481739D01*
X372640Y481613D01*
X372653Y481566D01*
X372659Y481518D01*
X372701Y481399D01*
X372736Y481278D01*
X372760Y481236D01*
X372776Y481190D01*
X372845Y481084D01*
X372906Y480974D01*
X372946Y480927D01*
X372965Y480897D01*
X373000Y480864D01*
X373065Y480787D01*
X386425Y467427D01*
X386524Y467348D01*
X386618Y467264D01*
X386661Y467240D01*
X386698Y467210D01*
X386813Y467156D01*
X386923Y467095D01*
X386970Y467082D01*
X387014Y467061D01*
X387137Y467035D01*
X387259Y467000D01*
X387320Y466995D01*
X387354Y466988D01*
X387402Y466989D01*
X387503Y466981D01*
X403466Y466981D01*
X404211Y466236D01*
X404211Y457684D01*
X403466Y456939D01*
X372414Y456939D01*
X371669Y457684D01*
X371669Y466236D01*
X372414Y466981D01*
X375289Y466981D01*
X375389Y466992D01*
X375490Y466994D01*
X375562Y467012D01*
X375636Y467021D01*
X375730Y467054D01*
X375828Y467079D01*
X375894Y467113D01*
X375964Y467138D01*
X376048Y467193D01*
X376137Y467239D01*
X376194Y467287D01*
X376257Y467327D01*
X376326Y467399D01*
X376403Y467464D01*
X376447Y467524D01*
X376499Y467578D01*
X376550Y467664D01*
X376610Y467745D01*
X376639Y467813D01*
X376678Y467877D01*
X376708Y467973D01*
X376748Y468065D01*
X376761Y468138D01*
X376784Y468209D01*
X376792Y468309D01*
X376810Y468408D01*
X376806Y468482D01*
X376812Y468556D01*
X376797Y468656D01*
X376792Y468756D01*
X376771Y468827D01*
X376760Y468901D01*
X376723Y468994D01*
X376695Y469091D01*
X376659Y469156D01*
X376631Y469225D01*
X376574Y469307D01*
X376525Y469395D01*
X376460Y469471D01*
X376432Y469511D01*
X376406Y469535D01*
X376367Y469581D01*
X367029Y478918D01*
X367029Y532272D01*
X371438Y536680D01*
X371517Y536779D01*
X371601Y536873D01*
X371625Y536916D01*
X371655Y536953D01*
X371709Y537068D01*
X371770Y537178D01*
X371783Y537225D01*
X371804Y537269D01*
X371830Y537392D01*
X371865Y537514D01*
X371870Y537574D01*
X371877Y537609D01*
X371876Y537657D01*
X371884Y537758D01*
X371884Y545272D01*
X371881Y545298D01*
X371883Y545324D01*
X371861Y545471D01*
X371844Y545618D01*
X371836Y545643D01*
X371832Y545669D01*
X371777Y545807D01*
X371727Y545946D01*
X371713Y545968D01*
X371703Y545993D01*
X371618Y546114D01*
X371538Y546239D01*
X371519Y546257D01*
X371504Y546279D01*
X371394Y546378D01*
X371287Y546481D01*
X371265Y546495D01*
X371245Y546512D01*
X371115Y546584D01*
X370988Y546660D01*
X370963Y546668D01*
X370940Y546681D01*
X370797Y546721D01*
X370656Y546766D01*
X370630Y546768D01*
X370605Y546776D01*
X370361Y546795D01*
X370002Y546795D01*
X366775Y550022D01*
X366775Y579123D01*
X384934Y597282D01*
X391911Y597282D01*
X392037Y597296D01*
X392163Y597303D01*
X392209Y597316D01*
X392257Y597322D01*
X392376Y597364D01*
X392498Y597399D01*
X392540Y597423D01*
X392585Y597439D01*
X392692Y597508D01*
X392802Y597569D01*
X392848Y597609D01*
X392878Y597628D01*
X392879Y597629D01*
X392912Y597663D01*
X392988Y597728D01*
X393403Y598143D01*
X396537Y598143D01*
X398753Y595927D01*
X398753Y595740D01*
X398755Y595722D01*
X398754Y595707D01*
X398764Y595636D01*
X398766Y595540D01*
X398784Y595467D01*
X398793Y595394D01*
X398826Y595299D01*
X398851Y595202D01*
X398885Y595136D01*
X398910Y595065D01*
X398965Y594981D01*
X399011Y594892D01*
X399059Y594835D01*
X399099Y594773D01*
X399171Y594703D01*
X399236Y594626D01*
X399296Y594582D01*
X399350Y594530D01*
X399436Y594479D01*
X399517Y594419D01*
X399585Y594390D01*
X399649Y594352D01*
X399744Y594321D01*
X399837Y594281D01*
X399910Y594268D01*
X399981Y594245D01*
X400081Y594237D01*
X400180Y594220D01*
X400254Y594223D01*
X400328Y594217D01*
X400427Y594232D01*
X400528Y594237D01*
X400599Y594258D01*
X400673Y594269D01*
X400766Y594306D01*
X400863Y594334D01*
X400928Y594370D01*
X400997Y594398D01*
X401079Y594455D01*
X401167Y594504D01*
X401243Y594569D01*
X401258Y594579D01*
X401263Y594582D01*
X401263Y594583D01*
X401283Y594597D01*
X401307Y594623D01*
X401353Y594663D01*
X401658Y594968D01*
X404792Y594968D01*
X407008Y592752D01*
X407008Y589506D01*
X407011Y589480D01*
X407009Y589454D01*
X407031Y589307D01*
X407048Y589160D01*
X407056Y589135D01*
X407060Y589109D01*
X407115Y588971D01*
X407165Y588832D01*
X407179Y588810D01*
X407189Y588785D01*
X407274Y588664D01*
X407354Y588539D01*
X407373Y588521D01*
X407388Y588499D01*
X407498Y588400D01*
X407605Y588297D01*
X407627Y588283D01*
X407647Y588266D01*
X407777Y588194D01*
X407904Y588118D01*
X407929Y588110D01*
X407952Y588097D01*
X408095Y588057D01*
X408236Y588012D01*
X408262Y588010D01*
X408287Y588002D01*
X408531Y587983D01*
X411777Y587983D01*
X414277Y585483D01*
X414297Y585467D01*
X414314Y585447D01*
X414434Y585358D01*
X414550Y585266D01*
X414573Y585255D01*
X414594Y585240D01*
X414731Y585181D01*
X414865Y585118D01*
X414890Y585112D01*
X414914Y585102D01*
X415061Y585075D01*
X415205Y585044D01*
X415231Y585045D01*
X415257Y585040D01*
X415406Y585048D01*
X415554Y585050D01*
X415579Y585057D01*
X415605Y585058D01*
X415748Y585099D01*
X415892Y585135D01*
X415915Y585147D01*
X415940Y585154D01*
X416070Y585227D01*
X416202Y585295D01*
X416222Y585312D01*
X416244Y585325D01*
X416431Y585483D01*
X429829Y598881D01*
X429829Y598882D01*
X430107Y599159D01*
X430169Y599237D01*
X430239Y599310D01*
X430277Y599374D01*
X430323Y599432D01*
X430366Y599523D01*
X430418Y599609D01*
X430440Y599680D01*
X430472Y599747D01*
X430493Y599845D01*
X430524Y599941D01*
X430530Y600015D01*
X430545Y600088D01*
X430544Y600188D01*
X430552Y600288D01*
X430541Y600362D01*
X430540Y600436D01*
X430515Y600534D01*
X430500Y600633D01*
X430473Y600702D01*
X430455Y600774D01*
X430408Y600863D01*
X430371Y600957D01*
X430329Y601018D01*
X430295Y601084D01*
X430230Y601161D01*
X430172Y601243D01*
X430117Y601293D01*
X430069Y601349D01*
X429988Y601409D01*
X429914Y601476D01*
X429849Y601512D01*
X429789Y601556D01*
X429697Y601596D01*
X429609Y601645D01*
X429537Y601665D01*
X429469Y601695D01*
X429370Y601712D01*
X429273Y601740D01*
X429173Y601748D01*
X429126Y601756D01*
X429090Y601754D01*
X429029Y601759D01*
X361664Y601759D01*
X361638Y601756D01*
X361612Y601758D01*
X361465Y601736D01*
X361318Y601719D01*
X361293Y601711D01*
X361267Y601707D01*
X361129Y601652D01*
X360990Y601602D01*
X360968Y601588D01*
X360943Y601578D01*
X360822Y601493D01*
X360697Y601413D01*
X360679Y601394D01*
X360657Y601379D01*
X360558Y601269D01*
X360455Y601162D01*
X360441Y601140D01*
X360424Y601120D01*
X360352Y600990D01*
X360276Y600863D01*
X360268Y600838D01*
X360255Y600815D01*
X360215Y600672D01*
X360170Y600531D01*
X360168Y600505D01*
X360160Y600480D01*
X360141Y600236D01*
X360141Y395948D01*
X360144Y395923D01*
X360142Y395898D01*
X360163Y395750D01*
X360181Y395601D01*
X360189Y395578D01*
X360193Y395553D01*
X360248Y395414D01*
X360298Y395273D01*
X360312Y395252D01*
X360321Y395229D01*
X360406Y395106D01*
X360487Y394980D01*
X360505Y394963D01*
X360519Y394943D01*
X360630Y394843D01*
X360738Y394738D01*
X360759Y394726D01*
X360778Y394709D01*
X360909Y394636D01*
X361037Y394559D01*
X361060Y394552D01*
X361082Y394540D01*
X361227Y394499D01*
X361369Y394453D01*
X361394Y394451D01*
X361417Y394444D01*
X361661Y394424D01*
X1059263Y393167D01*
X1059291Y393170D01*
G37*
%LPC*%
G36*
X526612Y403199D02*
X526612Y403199D01*
X523456Y404506D01*
X521041Y406921D01*
X519734Y410077D01*
X519734Y428123D01*
X521041Y431279D01*
X523456Y433694D01*
X524157Y433984D01*
X524289Y434058D01*
X524423Y434126D01*
X524441Y434142D01*
X524462Y434154D01*
X524573Y434254D01*
X524688Y434352D01*
X524702Y434372D01*
X524720Y434388D01*
X524806Y434511D01*
X524895Y434632D01*
X524905Y434655D01*
X524918Y434674D01*
X524974Y434814D01*
X525033Y434952D01*
X525037Y434976D01*
X525046Y434999D01*
X525068Y435147D01*
X525095Y435295D01*
X525094Y435320D01*
X525097Y435343D01*
X525085Y435494D01*
X525077Y435643D01*
X525070Y435667D01*
X525068Y435691D01*
X525022Y435834D01*
X524980Y435978D01*
X524968Y435999D01*
X524961Y436022D01*
X524884Y436151D01*
X524810Y436283D01*
X524791Y436305D01*
X524781Y436321D01*
X524749Y436355D01*
X524652Y436469D01*
X524537Y436583D01*
X524537Y439717D01*
X526753Y441933D01*
X529887Y441933D01*
X530429Y441391D01*
X530528Y441312D01*
X530622Y441228D01*
X530664Y441204D01*
X530702Y441174D01*
X530816Y441120D01*
X530927Y441059D01*
X530973Y441046D01*
X531017Y441025D01*
X531140Y440999D01*
X531262Y440964D01*
X531323Y440959D01*
X531357Y440952D01*
X531406Y440953D01*
X531506Y440945D01*
X539242Y440945D01*
X539268Y440948D01*
X539294Y440946D01*
X539441Y440968D01*
X539588Y440985D01*
X539613Y440993D01*
X539639Y440997D01*
X539777Y441052D01*
X539916Y441102D01*
X539938Y441116D01*
X539963Y441126D01*
X540084Y441211D01*
X540209Y441291D01*
X540227Y441310D01*
X540249Y441325D01*
X540348Y441435D01*
X540451Y441542D01*
X540465Y441564D01*
X540482Y441584D01*
X540554Y441714D01*
X540630Y441841D01*
X540638Y441866D01*
X540651Y441889D01*
X540691Y442032D01*
X540736Y442173D01*
X540738Y442199D01*
X540746Y442224D01*
X540765Y442468D01*
X540765Y448198D01*
X542848Y450281D01*
X542849Y450281D01*
X556829Y464261D01*
X558912Y466345D01*
X576241Y466345D01*
X576317Y466353D01*
X576392Y466352D01*
X576489Y466373D01*
X576588Y466385D01*
X576659Y466410D01*
X576733Y466426D01*
X576823Y466469D01*
X576916Y466502D01*
X576979Y466543D01*
X577048Y466576D01*
X577125Y466637D01*
X577209Y466691D01*
X577261Y466746D01*
X577320Y466793D01*
X577382Y466870D01*
X577451Y466942D01*
X577490Y467007D01*
X577537Y467066D01*
X577579Y467156D01*
X577630Y467241D01*
X577653Y467313D01*
X577685Y467382D01*
X577706Y467478D01*
X577736Y467573D01*
X577742Y467648D01*
X577758Y467722D01*
X577756Y467822D01*
X577764Y467920D01*
X577753Y467995D01*
X577751Y468071D01*
X577727Y468167D01*
X577712Y468265D01*
X577684Y468335D01*
X577666Y468409D01*
X577601Y468545D01*
X577583Y468589D01*
X577573Y468604D01*
X577561Y468630D01*
X577162Y469319D01*
X576989Y469965D01*
X576989Y471027D01*
X586780Y471027D01*
X596571Y471027D01*
X596571Y470851D01*
X596574Y470825D01*
X596572Y470801D01*
X596583Y470727D01*
X596584Y470650D01*
X596602Y470578D01*
X596611Y470504D01*
X596620Y470478D01*
X596623Y470456D01*
X596649Y470391D01*
X596669Y470312D01*
X596703Y470246D01*
X596728Y470176D01*
X596745Y470150D01*
X596752Y470132D01*
X596790Y470078D01*
X596829Y470003D01*
X596877Y469946D01*
X596917Y469883D01*
X596941Y469860D01*
X596951Y469846D01*
X596998Y469804D01*
X597054Y469737D01*
X597114Y469693D01*
X597168Y469641D01*
X597198Y469623D01*
X597210Y469612D01*
X597262Y469583D01*
X597335Y469530D01*
X597403Y469501D01*
X597467Y469462D01*
X597502Y469451D01*
X597515Y469444D01*
X597571Y469428D01*
X597655Y469392D01*
X597728Y469379D01*
X597799Y469356D01*
X597836Y469353D01*
X597850Y469349D01*
X597927Y469343D01*
X597998Y469330D01*
X598051Y469333D01*
X598094Y469330D01*
X598096Y469330D01*
X598110Y469331D01*
X598146Y469328D01*
X598246Y469343D01*
X598346Y469348D01*
X598404Y469365D01*
X598443Y469369D01*
X598458Y469375D01*
X598491Y469380D01*
X598584Y469417D01*
X598681Y469445D01*
X598730Y469472D01*
X598771Y469487D01*
X598787Y469498D01*
X598815Y469509D01*
X598897Y469566D01*
X598985Y469615D01*
X599035Y469658D01*
X599063Y469676D01*
X599080Y469693D01*
X599101Y469708D01*
X599125Y469734D01*
X599171Y469773D01*
X603819Y474421D01*
X603898Y474520D01*
X603982Y474614D01*
X604006Y474657D01*
X604036Y474694D01*
X604090Y474809D01*
X604151Y474919D01*
X604164Y474966D01*
X604185Y475010D01*
X604211Y475133D01*
X604246Y475255D01*
X604251Y475316D01*
X604258Y475350D01*
X604257Y475398D01*
X604265Y475499D01*
X604265Y480811D01*
X604251Y480937D01*
X604244Y481063D01*
X604231Y481110D01*
X604225Y481158D01*
X604183Y481277D01*
X604148Y481398D01*
X604124Y481440D01*
X604108Y481486D01*
X604039Y481592D01*
X603978Y481702D01*
X603938Y481748D01*
X603919Y481779D01*
X603884Y481812D01*
X603819Y481889D01*
X597901Y487807D01*
X597823Y487869D01*
X597750Y487939D01*
X597686Y487977D01*
X597628Y488023D01*
X597537Y488066D01*
X597451Y488118D01*
X597380Y488140D01*
X597313Y488172D01*
X597215Y488193D01*
X597119Y488224D01*
X597045Y488230D01*
X596972Y488245D01*
X596872Y488244D01*
X596772Y488252D01*
X596698Y488241D01*
X596624Y488240D01*
X596527Y488215D01*
X596427Y488200D01*
X596358Y488173D01*
X596286Y488155D01*
X596196Y488108D01*
X596103Y488071D01*
X596042Y488029D01*
X595976Y487995D01*
X595899Y487930D01*
X595817Y487872D01*
X595767Y487817D01*
X595711Y487769D01*
X595651Y487688D01*
X595584Y487614D01*
X595548Y487549D01*
X595503Y487489D01*
X595464Y487397D01*
X595415Y487309D01*
X595395Y487237D01*
X595365Y487169D01*
X595348Y487070D01*
X595320Y486973D01*
X595312Y486873D01*
X595304Y486826D01*
X595306Y486790D01*
X595301Y486729D01*
X595301Y477753D01*
X595315Y477628D01*
X595322Y477502D01*
X595335Y477455D01*
X595341Y477407D01*
X595383Y477288D01*
X595418Y477167D01*
X595442Y477125D01*
X595458Y477079D01*
X595527Y476973D01*
X595588Y476863D01*
X595628Y476816D01*
X595647Y476786D01*
X595682Y476753D01*
X595747Y476676D01*
X596063Y476360D01*
X596398Y475781D01*
X596571Y475135D01*
X596571Y474073D01*
X586780Y474073D01*
X576989Y474073D01*
X576989Y474472D01*
X576986Y474498D01*
X576988Y474524D01*
X576966Y474671D01*
X576949Y474818D01*
X576941Y474843D01*
X576937Y474869D01*
X576882Y475007D01*
X576832Y475146D01*
X576818Y475168D01*
X576808Y475193D01*
X576723Y475314D01*
X576643Y475439D01*
X576624Y475457D01*
X576609Y475479D01*
X576499Y475578D01*
X576392Y475681D01*
X576370Y475695D01*
X576350Y475712D01*
X576220Y475784D01*
X576093Y475860D01*
X576068Y475868D01*
X576045Y475881D01*
X575902Y475921D01*
X575761Y475966D01*
X575735Y475968D01*
X575710Y475976D01*
X575466Y475995D01*
X570342Y475995D01*
X561085Y485252D01*
X561085Y515101D01*
X561071Y515227D01*
X561064Y515353D01*
X561051Y515400D01*
X561045Y515448D01*
X561003Y515567D01*
X560968Y515688D01*
X560944Y515730D01*
X560928Y515776D01*
X560859Y515882D01*
X560798Y515992D01*
X560758Y516039D01*
X560739Y516069D01*
X560704Y516102D01*
X560639Y516179D01*
X532001Y544817D01*
X531980Y544833D01*
X531963Y544853D01*
X531844Y544942D01*
X531728Y545034D01*
X531704Y545045D01*
X531683Y545060D01*
X531546Y545119D01*
X531413Y545182D01*
X531387Y545188D01*
X531363Y545198D01*
X531216Y545225D01*
X531072Y545256D01*
X531046Y545255D01*
X531020Y545260D01*
X530871Y545252D01*
X530723Y545250D01*
X530698Y545243D01*
X530672Y545242D01*
X530529Y545201D01*
X530385Y545165D01*
X530362Y545153D01*
X530337Y545146D01*
X530208Y545073D01*
X530076Y545005D01*
X530056Y544988D01*
X530033Y544975D01*
X529894Y544857D01*
X526753Y544857D01*
X524537Y547073D01*
X524537Y550207D01*
X526753Y552423D01*
X529887Y552423D01*
X530429Y551881D01*
X530528Y551802D01*
X530622Y551718D01*
X530664Y551694D01*
X530702Y551664D01*
X530816Y551610D01*
X530927Y551549D01*
X530973Y551536D01*
X531017Y551515D01*
X531140Y551489D01*
X531262Y551454D01*
X531323Y551449D01*
X531357Y551442D01*
X531406Y551443D01*
X531506Y551435D01*
X649594Y551435D01*
X649720Y551449D01*
X649846Y551456D01*
X649892Y551469D01*
X649940Y551475D01*
X650059Y551517D01*
X650181Y551552D01*
X650223Y551576D01*
X650268Y551592D01*
X650375Y551661D01*
X650485Y551722D01*
X650531Y551762D01*
X650561Y551781D01*
X650595Y551816D01*
X650671Y551881D01*
X651213Y552423D01*
X654347Y552423D01*
X654889Y551881D01*
X654988Y551802D01*
X655082Y551718D01*
X655124Y551694D01*
X655162Y551664D01*
X655276Y551610D01*
X655387Y551549D01*
X655433Y551536D01*
X655477Y551515D01*
X655600Y551489D01*
X655722Y551454D01*
X655783Y551449D01*
X655817Y551442D01*
X655866Y551443D01*
X655966Y551435D01*
X761481Y551435D01*
X761607Y551449D01*
X761733Y551456D01*
X761780Y551469D01*
X761828Y551475D01*
X761947Y551517D01*
X762068Y551552D01*
X762110Y551576D01*
X762156Y551592D01*
X762262Y551661D01*
X762372Y551722D01*
X762419Y551762D01*
X762449Y551781D01*
X762482Y551816D01*
X762559Y551881D01*
X767649Y556971D01*
X767728Y557070D01*
X767812Y557164D01*
X767836Y557207D01*
X767866Y557244D01*
X767920Y557359D01*
X767981Y557469D01*
X767994Y557516D01*
X768015Y557560D01*
X768041Y557683D01*
X768076Y557805D01*
X768081Y557866D01*
X768088Y557900D01*
X768087Y557948D01*
X768095Y558049D01*
X768095Y567578D01*
X774812Y574295D01*
X810311Y574295D01*
X810337Y574298D01*
X810363Y574296D01*
X810510Y574318D01*
X810657Y574335D01*
X810682Y574343D01*
X810708Y574347D01*
X810845Y574402D01*
X810985Y574452D01*
X811007Y574466D01*
X811032Y574476D01*
X811153Y574561D01*
X811278Y574641D01*
X811296Y574660D01*
X811318Y574675D01*
X811417Y574785D01*
X811520Y574892D01*
X811534Y574914D01*
X811551Y574934D01*
X811623Y575064D01*
X811699Y575191D01*
X811707Y575216D01*
X811720Y575239D01*
X811760Y575382D01*
X811805Y575523D01*
X811807Y575549D01*
X811814Y575574D01*
X811834Y575818D01*
X811834Y580523D01*
X813141Y583679D01*
X815556Y586094D01*
X818712Y587401D01*
X822128Y587401D01*
X825284Y586094D01*
X827699Y583679D01*
X829006Y580523D01*
X829006Y562477D01*
X827699Y559321D01*
X825582Y557205D01*
X825566Y557184D01*
X825546Y557167D01*
X825499Y557103D01*
X825477Y557081D01*
X825456Y557046D01*
X825365Y556932D01*
X825354Y556908D01*
X825339Y556887D01*
X825280Y556750D01*
X825216Y556616D01*
X825211Y556591D01*
X825201Y556567D01*
X825174Y556421D01*
X825143Y556276D01*
X825144Y556250D01*
X825139Y556224D01*
X825147Y556075D01*
X825149Y555927D01*
X825155Y555902D01*
X825157Y555876D01*
X825198Y555733D01*
X825234Y555589D01*
X825246Y555566D01*
X825253Y555541D01*
X825326Y555411D01*
X825394Y555279D01*
X825411Y555260D01*
X825424Y555237D01*
X825582Y555050D01*
X828751Y551881D01*
X828850Y551802D01*
X828944Y551718D01*
X828987Y551694D01*
X829024Y551664D01*
X829139Y551610D01*
X829249Y551549D01*
X829296Y551536D01*
X829340Y551515D01*
X829463Y551489D01*
X829585Y551454D01*
X829646Y551449D01*
X829680Y551442D01*
X829728Y551443D01*
X829829Y551435D01*
X929121Y551435D01*
X929247Y551449D01*
X929373Y551456D01*
X929420Y551469D01*
X929468Y551475D01*
X929587Y551517D01*
X929708Y551552D01*
X929750Y551576D01*
X929796Y551592D01*
X929902Y551661D01*
X930012Y551722D01*
X930058Y551762D01*
X930089Y551781D01*
X930122Y551816D01*
X930199Y551881D01*
X936893Y558575D01*
X936940Y558635D01*
X936995Y558688D01*
X937048Y558771D01*
X937109Y558848D01*
X937142Y558917D01*
X937183Y558981D01*
X937216Y559074D01*
X937258Y559163D01*
X937274Y559238D01*
X937300Y559310D01*
X937311Y559408D01*
X937331Y559504D01*
X937330Y559580D01*
X937339Y559656D01*
X937327Y559754D01*
X937326Y559852D01*
X937307Y559926D01*
X937298Y560002D01*
X937252Y560144D01*
X937241Y560190D01*
X937232Y560207D01*
X937223Y560235D01*
X936294Y562477D01*
X936294Y580523D01*
X937601Y583679D01*
X940016Y586094D01*
X943172Y587401D01*
X946588Y587401D01*
X949744Y586094D01*
X952159Y583679D01*
X953466Y580523D01*
X953466Y562477D01*
X952159Y559321D01*
X949744Y556906D01*
X946588Y555599D01*
X943172Y555599D01*
X943157Y555605D01*
X943084Y555626D01*
X943014Y555656D01*
X942917Y555674D01*
X942822Y555701D01*
X942746Y555704D01*
X942671Y555718D01*
X942572Y555713D01*
X942474Y555718D01*
X942399Y555704D01*
X942323Y555700D01*
X942228Y555673D01*
X942131Y555655D01*
X942061Y555625D01*
X941988Y555604D01*
X941902Y555556D01*
X941812Y555516D01*
X941750Y555471D01*
X941684Y555433D01*
X941570Y555337D01*
X941532Y555308D01*
X941520Y555294D01*
X941497Y555275D01*
X933907Y547685D01*
X933845Y547607D01*
X933775Y547534D01*
X933737Y547470D01*
X933691Y547412D01*
X933648Y547321D01*
X933596Y547235D01*
X933574Y547164D01*
X933542Y547097D01*
X933521Y546999D01*
X933490Y546903D01*
X933484Y546829D01*
X933469Y546756D01*
X933470Y546656D01*
X933462Y546556D01*
X933473Y546482D01*
X933474Y546408D01*
X933499Y546311D01*
X933514Y546211D01*
X933541Y546142D01*
X933559Y546070D01*
X933606Y545980D01*
X933643Y545887D01*
X933685Y545826D01*
X933719Y545760D01*
X933784Y545683D01*
X933842Y545601D01*
X933897Y545551D01*
X933945Y545495D01*
X934026Y545435D01*
X934100Y545368D01*
X934165Y545332D01*
X934225Y545287D01*
X934317Y545248D01*
X934405Y545199D01*
X934477Y545179D01*
X934545Y545149D01*
X934644Y545132D01*
X934741Y545104D01*
X934841Y545096D01*
X934888Y545088D01*
X934924Y545090D01*
X934985Y545085D01*
X958331Y545085D01*
X958457Y545099D01*
X958583Y545106D01*
X958630Y545119D01*
X958678Y545125D01*
X958797Y545167D01*
X958918Y545202D01*
X958960Y545226D01*
X959006Y545242D01*
X959112Y545311D01*
X959222Y545372D01*
X959269Y545412D01*
X959299Y545431D01*
X959332Y545466D01*
X959409Y545531D01*
X967039Y553161D01*
X967118Y553260D01*
X967202Y553354D01*
X967226Y553397D01*
X967256Y553434D01*
X967310Y553549D01*
X967371Y553659D01*
X967384Y553706D01*
X967405Y553750D01*
X967431Y553873D01*
X967466Y553995D01*
X967471Y554056D01*
X967478Y554090D01*
X967477Y554138D01*
X967485Y554239D01*
X967485Y555031D01*
X967477Y555107D01*
X967478Y555184D01*
X967457Y555280D01*
X967445Y555378D01*
X967420Y555449D01*
X967403Y555524D01*
X967361Y555613D01*
X967328Y555706D01*
X967286Y555770D01*
X967254Y555839D01*
X967192Y555916D01*
X967139Y555998D01*
X967084Y556052D01*
X967036Y556111D01*
X966959Y556172D01*
X966888Y556241D01*
X966823Y556280D01*
X966763Y556327D01*
X966630Y556395D01*
X966589Y556419D01*
X966571Y556425D01*
X966545Y556439D01*
X965416Y556906D01*
X963001Y559321D01*
X961694Y562477D01*
X961694Y580523D01*
X963001Y583679D01*
X965416Y586094D01*
X968572Y587401D01*
X971988Y587401D01*
X975144Y586094D01*
X977559Y583679D01*
X978866Y580523D01*
X978866Y562477D01*
X977559Y559321D01*
X975144Y556906D01*
X974015Y556439D01*
X973948Y556401D01*
X973877Y556373D01*
X973796Y556317D01*
X973710Y556269D01*
X973654Y556218D01*
X973591Y556174D01*
X973525Y556101D01*
X973452Y556035D01*
X973409Y555972D01*
X973358Y555916D01*
X973310Y555829D01*
X973254Y555748D01*
X973226Y555677D01*
X973189Y555610D01*
X973162Y555516D01*
X973126Y555424D01*
X973115Y555349D01*
X973094Y555275D01*
X973082Y555126D01*
X973075Y555079D01*
X973077Y555060D01*
X973075Y555031D01*
X973075Y551292D01*
X963361Y541579D01*
X961847Y540065D01*
X961785Y539986D01*
X961715Y539914D01*
X961677Y539850D01*
X961631Y539792D01*
X961588Y539701D01*
X961536Y539615D01*
X961514Y539544D01*
X961482Y539477D01*
X961461Y539379D01*
X961430Y539283D01*
X961424Y539209D01*
X961409Y539136D01*
X961410Y539036D01*
X961402Y538936D01*
X961413Y538862D01*
X961414Y538788D01*
X961439Y538691D01*
X961454Y538591D01*
X961481Y538522D01*
X961499Y538450D01*
X961545Y538361D01*
X961583Y538267D01*
X961625Y538206D01*
X961659Y538140D01*
X961724Y538064D01*
X961782Y537981D01*
X961837Y537931D01*
X961885Y537875D01*
X961966Y537815D01*
X962040Y537748D01*
X962105Y537712D01*
X962165Y537667D01*
X962257Y537628D01*
X962345Y537579D01*
X962417Y537559D01*
X962485Y537529D01*
X962584Y537512D01*
X962681Y537484D01*
X962781Y537476D01*
X962828Y537468D01*
X962864Y537470D01*
X962925Y537465D01*
X982461Y537465D01*
X982587Y537479D01*
X982713Y537486D01*
X982760Y537499D01*
X982808Y537505D01*
X982927Y537547D01*
X983048Y537582D01*
X983090Y537606D01*
X983136Y537622D01*
X983242Y537691D01*
X983352Y537752D01*
X983398Y537792D01*
X983429Y537811D01*
X983462Y537846D01*
X983539Y537911D01*
X998626Y552999D01*
X998689Y553077D01*
X998758Y553149D01*
X998797Y553213D01*
X998843Y553272D01*
X998886Y553362D01*
X998937Y553449D01*
X998960Y553519D01*
X998992Y553587D01*
X999013Y553685D01*
X999043Y553780D01*
X999049Y553855D01*
X999065Y553927D01*
X999063Y554028D01*
X999071Y554128D01*
X999060Y554201D01*
X999059Y554276D01*
X999035Y554373D01*
X999020Y554472D01*
X998992Y554542D01*
X998974Y554614D01*
X998928Y554703D01*
X998891Y554796D01*
X998849Y554857D01*
X998815Y554924D01*
X998749Y555000D01*
X998692Y555083D01*
X998637Y555132D01*
X998589Y555189D01*
X998508Y555249D01*
X998433Y555316D01*
X998368Y555352D01*
X998308Y555396D01*
X998216Y555436D01*
X998128Y555484D01*
X998057Y555505D01*
X997988Y555534D01*
X997890Y555552D01*
X997793Y555579D01*
X997693Y555587D01*
X997645Y555596D01*
X997610Y555594D01*
X997549Y555599D01*
X993972Y555599D01*
X990816Y556906D01*
X988401Y559321D01*
X987094Y562477D01*
X987094Y580523D01*
X988401Y583679D01*
X990816Y586094D01*
X993972Y587401D01*
X997388Y587401D01*
X1000544Y586094D01*
X1002959Y583679D01*
X1004266Y580523D01*
X1004266Y562316D01*
X1004277Y562216D01*
X1004279Y562116D01*
X1004297Y562043D01*
X1004306Y561969D01*
X1004340Y561875D01*
X1004364Y561778D01*
X1004398Y561711D01*
X1004423Y561641D01*
X1004478Y561557D01*
X1004524Y561468D01*
X1004572Y561411D01*
X1004612Y561349D01*
X1004685Y561279D01*
X1004750Y561202D01*
X1004809Y561158D01*
X1004863Y561106D01*
X1004949Y561055D01*
X1005030Y560995D01*
X1005098Y560966D01*
X1005162Y560928D01*
X1005258Y560897D01*
X1005350Y560857D01*
X1005423Y560844D01*
X1005494Y560821D01*
X1005594Y560813D01*
X1005693Y560795D01*
X1005767Y560799D01*
X1005841Y560793D01*
X1005941Y560808D01*
X1006041Y560813D01*
X1006112Y560834D01*
X1006186Y560845D01*
X1006279Y560882D01*
X1006376Y560910D01*
X1006441Y560946D01*
X1006510Y560974D01*
X1006592Y561031D01*
X1006680Y561080D01*
X1006757Y561145D01*
X1006796Y561173D01*
X1006820Y561199D01*
X1006866Y561239D01*
X1012048Y566420D01*
X1012126Y566519D01*
X1012211Y566613D01*
X1012235Y566655D01*
X1012265Y566693D01*
X1012319Y566807D01*
X1012380Y566918D01*
X1012393Y566965D01*
X1012413Y567008D01*
X1012440Y567131D01*
X1012474Y567254D01*
X1012479Y567314D01*
X1012487Y567349D01*
X1012486Y567397D01*
X1012494Y567497D01*
X1012494Y580523D01*
X1013801Y583679D01*
X1016216Y586094D01*
X1019372Y587401D01*
X1022788Y587401D01*
X1025944Y586094D01*
X1028359Y583679D01*
X1029666Y580523D01*
X1029666Y568666D01*
X1029677Y568566D01*
X1029679Y568466D01*
X1029697Y568393D01*
X1029706Y568319D01*
X1029740Y568225D01*
X1029764Y568128D01*
X1029798Y568061D01*
X1029823Y567991D01*
X1029878Y567907D01*
X1029924Y567818D01*
X1029972Y567761D01*
X1030012Y567699D01*
X1030085Y567629D01*
X1030150Y567552D01*
X1030209Y567508D01*
X1030263Y567456D01*
X1030349Y567405D01*
X1030430Y567345D01*
X1030498Y567316D01*
X1030562Y567278D01*
X1030658Y567247D01*
X1030750Y567207D01*
X1030823Y567194D01*
X1030894Y567171D01*
X1030994Y567163D01*
X1031093Y567145D01*
X1031167Y567149D01*
X1031241Y567143D01*
X1031341Y567158D01*
X1031441Y567163D01*
X1031512Y567184D01*
X1031586Y567195D01*
X1031679Y567232D01*
X1031776Y567260D01*
X1031841Y567296D01*
X1031910Y567324D01*
X1031992Y567381D01*
X1032080Y567430D01*
X1032157Y567495D01*
X1032196Y567523D01*
X1032220Y567549D01*
X1032266Y567589D01*
X1036889Y572211D01*
X1037448Y572770D01*
X1037526Y572869D01*
X1037611Y572963D01*
X1037635Y573005D01*
X1037665Y573043D01*
X1037719Y573157D01*
X1037780Y573268D01*
X1037793Y573315D01*
X1037813Y573358D01*
X1037840Y573482D01*
X1037874Y573604D01*
X1037879Y573664D01*
X1037887Y573699D01*
X1037886Y573747D01*
X1037894Y573847D01*
X1037894Y580523D01*
X1039201Y583679D01*
X1041616Y586094D01*
X1044772Y587401D01*
X1048188Y587401D01*
X1051344Y586094D01*
X1053759Y583679D01*
X1055066Y580523D01*
X1055066Y562477D01*
X1053759Y559321D01*
X1051344Y556906D01*
X1048188Y555599D01*
X1044772Y555599D01*
X1041616Y556906D01*
X1039201Y559321D01*
X1037936Y562375D01*
X1037863Y562506D01*
X1037794Y562640D01*
X1037779Y562659D01*
X1037767Y562680D01*
X1037666Y562791D01*
X1037568Y562906D01*
X1037549Y562920D01*
X1037533Y562938D01*
X1037409Y563024D01*
X1037288Y563113D01*
X1037266Y563122D01*
X1037246Y563136D01*
X1037106Y563191D01*
X1036968Y563251D01*
X1036944Y563255D01*
X1036922Y563264D01*
X1036773Y563286D01*
X1036625Y563313D01*
X1036601Y563311D01*
X1036577Y563315D01*
X1036427Y563302D01*
X1036277Y563295D01*
X1036254Y563288D01*
X1036230Y563286D01*
X1036086Y563240D01*
X1035942Y563198D01*
X1035921Y563186D01*
X1035898Y563179D01*
X1035769Y563101D01*
X1035638Y563028D01*
X1035616Y563009D01*
X1035599Y562999D01*
X1035566Y562966D01*
X1035452Y562869D01*
X1034481Y561899D01*
X1034402Y561800D01*
X1034318Y561706D01*
X1034294Y561663D01*
X1034264Y561626D01*
X1034210Y561511D01*
X1034149Y561401D01*
X1034136Y561354D01*
X1034115Y561310D01*
X1034089Y561187D01*
X1034054Y561065D01*
X1034049Y561004D01*
X1034042Y560970D01*
X1034043Y560922D01*
X1034035Y560821D01*
X1034035Y560336D01*
X1032294Y556135D01*
X1029079Y552920D01*
X1024878Y551179D01*
X1014233Y551179D01*
X1014107Y551165D01*
X1013981Y551158D01*
X1013934Y551145D01*
X1013886Y551139D01*
X1013767Y551097D01*
X1013646Y551062D01*
X1013604Y551038D01*
X1013558Y551022D01*
X1013452Y550953D01*
X1013342Y550892D01*
X1013295Y550852D01*
X1013265Y550833D01*
X1013232Y550798D01*
X1013155Y550733D01*
X987948Y525525D01*
X925206Y525525D01*
X925080Y525511D01*
X924954Y525504D01*
X924908Y525491D01*
X924860Y525485D01*
X924740Y525443D01*
X924619Y525408D01*
X924577Y525384D01*
X924531Y525368D01*
X924425Y525299D01*
X924315Y525238D01*
X924269Y525198D01*
X924239Y525179D01*
X924205Y525144D01*
X924129Y525079D01*
X923587Y524537D01*
X920453Y524537D01*
X919911Y525079D01*
X919812Y525158D01*
X919718Y525242D01*
X919676Y525266D01*
X919638Y525296D01*
X919524Y525350D01*
X919413Y525411D01*
X919367Y525424D01*
X919323Y525445D01*
X919200Y525471D01*
X919078Y525506D01*
X919017Y525511D01*
X918983Y525518D01*
X918934Y525517D01*
X918834Y525525D01*
X810433Y525525D01*
X810307Y525511D01*
X810181Y525504D01*
X810135Y525491D01*
X810087Y525485D01*
X809968Y525443D01*
X809846Y525408D01*
X809804Y525384D01*
X809759Y525368D01*
X809653Y525299D01*
X809542Y525238D01*
X809496Y525198D01*
X809466Y525179D01*
X809432Y525144D01*
X809356Y525079D01*
X798372Y514095D01*
X776428Y514095D01*
X765444Y525079D01*
X765345Y525158D01*
X765251Y525242D01*
X765209Y525266D01*
X765171Y525296D01*
X765057Y525350D01*
X764946Y525411D01*
X764900Y525424D01*
X764856Y525445D01*
X764733Y525471D01*
X764611Y525506D01*
X764550Y525511D01*
X764515Y525518D01*
X764467Y525517D01*
X764367Y525525D01*
X757566Y525525D01*
X757440Y525511D01*
X757314Y525504D01*
X757268Y525491D01*
X757220Y525485D01*
X757100Y525443D01*
X756979Y525408D01*
X756937Y525384D01*
X756891Y525368D01*
X756785Y525299D01*
X756675Y525238D01*
X756629Y525198D01*
X756599Y525179D01*
X756565Y525144D01*
X756489Y525079D01*
X755947Y524537D01*
X752813Y524537D01*
X750570Y526781D01*
X750557Y526888D01*
X750549Y526913D01*
X750545Y526939D01*
X750490Y527077D01*
X750440Y527216D01*
X750426Y527238D01*
X750416Y527263D01*
X750331Y527384D01*
X750251Y527509D01*
X750232Y527527D01*
X750217Y527549D01*
X750107Y527648D01*
X750000Y527751D01*
X749978Y527765D01*
X749958Y527782D01*
X749828Y527854D01*
X749701Y527930D01*
X749676Y527938D01*
X749653Y527951D01*
X749510Y527991D01*
X749369Y528036D01*
X749343Y528038D01*
X749318Y528046D01*
X749074Y528065D01*
X634238Y528065D01*
X634212Y528062D01*
X634186Y528064D01*
X634039Y528042D01*
X633892Y528025D01*
X633867Y528017D01*
X633841Y528013D01*
X633703Y527958D01*
X633564Y527908D01*
X633542Y527894D01*
X633517Y527884D01*
X633396Y527799D01*
X633271Y527719D01*
X633253Y527700D01*
X633231Y527685D01*
X633132Y527575D01*
X633029Y527468D01*
X633015Y527446D01*
X632998Y527426D01*
X632926Y527296D01*
X632850Y527169D01*
X632842Y527144D01*
X632829Y527121D01*
X632789Y526978D01*
X632744Y526837D01*
X632742Y526811D01*
X632734Y526786D01*
X632715Y526542D01*
X632715Y517002D01*
X624468Y508755D01*
X603775Y508755D01*
X603675Y508744D01*
X603574Y508742D01*
X603502Y508724D01*
X603428Y508715D01*
X603334Y508682D01*
X603236Y508657D01*
X603170Y508623D01*
X603100Y508598D01*
X603016Y508543D01*
X602927Y508497D01*
X602870Y508449D01*
X602807Y508409D01*
X602738Y508337D01*
X602661Y508272D01*
X602617Y508212D01*
X602565Y508158D01*
X602514Y508072D01*
X602454Y507991D01*
X602425Y507923D01*
X602386Y507859D01*
X602356Y507763D01*
X602316Y507671D01*
X602303Y507598D01*
X602280Y507527D01*
X602272Y507427D01*
X602254Y507328D01*
X602258Y507254D01*
X602252Y507180D01*
X602267Y507080D01*
X602272Y506980D01*
X602293Y506909D01*
X602304Y506835D01*
X602341Y506742D01*
X602369Y506645D01*
X602405Y506580D01*
X602433Y506511D01*
X602490Y506429D01*
X602539Y506341D01*
X602604Y506265D01*
X602632Y506225D01*
X602658Y506201D01*
X602697Y506155D01*
X620015Y488838D01*
X620015Y458978D01*
X620018Y458952D01*
X620016Y458926D01*
X620038Y458779D01*
X620055Y458632D01*
X620063Y458607D01*
X620067Y458581D01*
X620122Y458443D01*
X620172Y458304D01*
X620186Y458282D01*
X620196Y458257D01*
X620281Y458136D01*
X620361Y458011D01*
X620380Y457993D01*
X620395Y457971D01*
X620505Y457872D01*
X620612Y457769D01*
X620634Y457755D01*
X620654Y457738D01*
X620784Y457666D01*
X620911Y457590D01*
X620936Y457582D01*
X620959Y457569D01*
X621102Y457529D01*
X621243Y457484D01*
X621269Y457482D01*
X621294Y457474D01*
X621538Y457455D01*
X625718Y457455D01*
X625818Y457466D01*
X625918Y457468D01*
X625991Y457486D01*
X626064Y457495D01*
X626159Y457529D01*
X626256Y457553D01*
X626322Y457587D01*
X626393Y457612D01*
X626477Y457667D01*
X626566Y457713D01*
X626623Y457761D01*
X626685Y457801D01*
X626755Y457873D01*
X626832Y457938D01*
X626876Y457998D01*
X626928Y458052D01*
X626979Y458138D01*
X627039Y458219D01*
X627068Y458287D01*
X627106Y458351D01*
X627137Y458447D01*
X627177Y458539D01*
X627190Y458612D01*
X627213Y458683D01*
X627221Y458783D01*
X627238Y458882D01*
X627235Y458956D01*
X627241Y459030D01*
X627226Y459130D01*
X627221Y459230D01*
X627200Y459301D01*
X627189Y459375D01*
X627152Y459468D01*
X627124Y459565D01*
X627088Y459630D01*
X627060Y459699D01*
X627003Y459781D01*
X626954Y459869D01*
X626889Y459945D01*
X626861Y459985D01*
X626835Y460009D01*
X626795Y460055D01*
X626137Y460713D01*
X626137Y463847D01*
X628353Y466063D01*
X631487Y466063D01*
X632029Y465521D01*
X632128Y465442D01*
X632222Y465358D01*
X632264Y465334D01*
X632302Y465304D01*
X632416Y465250D01*
X632527Y465189D01*
X632573Y465176D01*
X632617Y465155D01*
X632740Y465129D01*
X632862Y465094D01*
X632923Y465089D01*
X632958Y465082D01*
X633006Y465083D01*
X633106Y465075D01*
X752998Y465075D01*
X754103Y463969D01*
X754202Y463890D01*
X754296Y463806D01*
X754339Y463782D01*
X754376Y463752D01*
X754491Y463698D01*
X754601Y463637D01*
X754648Y463624D01*
X754692Y463603D01*
X754815Y463577D01*
X754937Y463542D01*
X754998Y463537D01*
X755032Y463530D01*
X755080Y463531D01*
X755181Y463523D01*
X755947Y463523D01*
X756489Y462981D01*
X756588Y462902D01*
X756682Y462818D01*
X756724Y462794D01*
X756762Y462764D01*
X756876Y462710D01*
X756987Y462649D01*
X757033Y462636D01*
X757077Y462615D01*
X757200Y462589D01*
X757322Y462554D01*
X757383Y462549D01*
X757418Y462542D01*
X757466Y462543D01*
X757566Y462535D01*
X768177Y462535D01*
X768303Y462549D01*
X768429Y462556D01*
X768475Y462569D01*
X768523Y462575D01*
X768642Y462617D01*
X768764Y462652D01*
X768806Y462676D01*
X768851Y462692D01*
X768957Y462761D01*
X769068Y462822D01*
X769114Y462862D01*
X769144Y462881D01*
X769178Y462916D01*
X769254Y462981D01*
X781508Y475235D01*
X793292Y475235D01*
X805546Y462981D01*
X805645Y462902D01*
X805739Y462818D01*
X805781Y462794D01*
X805819Y462764D01*
X805933Y462710D01*
X806044Y462649D01*
X806090Y462636D01*
X806134Y462615D01*
X806257Y462589D01*
X806379Y462554D01*
X806440Y462549D01*
X806475Y462542D01*
X806523Y462543D01*
X806623Y462535D01*
X888982Y462535D01*
X889108Y462549D01*
X889234Y462556D01*
X889281Y462569D01*
X889329Y462575D01*
X889447Y462617D01*
X889569Y462652D01*
X889611Y462676D01*
X889657Y462692D01*
X889763Y462761D01*
X889873Y462822D01*
X889919Y462862D01*
X889949Y462881D01*
X889983Y462916D01*
X890059Y462981D01*
X892633Y465555D01*
X919314Y465555D01*
X919440Y465569D01*
X919566Y465576D01*
X919612Y465589D01*
X919660Y465595D01*
X919779Y465637D01*
X919901Y465672D01*
X919943Y465696D01*
X919988Y465712D01*
X920095Y465781D01*
X920205Y465842D01*
X920251Y465882D01*
X920281Y465901D01*
X920315Y465936D01*
X920391Y466001D01*
X920453Y466063D01*
X923587Y466063D01*
X924129Y465521D01*
X924228Y465442D01*
X924322Y465358D01*
X924364Y465334D01*
X924402Y465304D01*
X924516Y465250D01*
X924627Y465189D01*
X924673Y465176D01*
X924717Y465155D01*
X924840Y465129D01*
X924962Y465094D01*
X925023Y465089D01*
X925058Y465082D01*
X925106Y465083D01*
X925206Y465075D01*
X987948Y465075D01*
X1011631Y441391D01*
X1011730Y441312D01*
X1011824Y441228D01*
X1011867Y441204D01*
X1011904Y441174D01*
X1012019Y441120D01*
X1012129Y441059D01*
X1012176Y441046D01*
X1012220Y441025D01*
X1012343Y440999D01*
X1012465Y440964D01*
X1012526Y440959D01*
X1012560Y440952D01*
X1012608Y440953D01*
X1012709Y440945D01*
X1043828Y440945D01*
X1049283Y435489D01*
X1049282Y435416D01*
X1049303Y435320D01*
X1049315Y435222D01*
X1049340Y435151D01*
X1049357Y435076D01*
X1049399Y434987D01*
X1049432Y434894D01*
X1049474Y434830D01*
X1049506Y434761D01*
X1049568Y434684D01*
X1049621Y434602D01*
X1049676Y434548D01*
X1049724Y434489D01*
X1049801Y434428D01*
X1049872Y434359D01*
X1049937Y434320D01*
X1049997Y434273D01*
X1050130Y434205D01*
X1050171Y434181D01*
X1050189Y434175D01*
X1050215Y434161D01*
X1051344Y433694D01*
X1053759Y431279D01*
X1055066Y428123D01*
X1055066Y410077D01*
X1053759Y406921D01*
X1051344Y404506D01*
X1048188Y403199D01*
X1044772Y403199D01*
X1041616Y404506D01*
X1039201Y406921D01*
X1037894Y410077D01*
X1037894Y428123D01*
X1039201Y431279D01*
X1040677Y432755D01*
X1040740Y432834D01*
X1040810Y432906D01*
X1040848Y432970D01*
X1040894Y433028D01*
X1040937Y433119D01*
X1040988Y433205D01*
X1041011Y433276D01*
X1041043Y433343D01*
X1041064Y433441D01*
X1041095Y433537D01*
X1041101Y433611D01*
X1041116Y433684D01*
X1041115Y433784D01*
X1041123Y433884D01*
X1041112Y433958D01*
X1041110Y434032D01*
X1041086Y434129D01*
X1041071Y434229D01*
X1041043Y434298D01*
X1041025Y434370D01*
X1040979Y434459D01*
X1040942Y434553D01*
X1040900Y434614D01*
X1040866Y434680D01*
X1040801Y434756D01*
X1040743Y434839D01*
X1040688Y434889D01*
X1040640Y434945D01*
X1040559Y435005D01*
X1040485Y435072D01*
X1040419Y435108D01*
X1040360Y435153D01*
X1040267Y435192D01*
X1040180Y435241D01*
X1040108Y435261D01*
X1040040Y435291D01*
X1039941Y435308D01*
X1039844Y435336D01*
X1039744Y435344D01*
X1039697Y435352D01*
X1039661Y435350D01*
X1039600Y435355D01*
X1027960Y435355D01*
X1027860Y435344D01*
X1027759Y435342D01*
X1027687Y435324D01*
X1027613Y435315D01*
X1027519Y435282D01*
X1027422Y435257D01*
X1027355Y435223D01*
X1027285Y435198D01*
X1027201Y435143D01*
X1027112Y435097D01*
X1027055Y435049D01*
X1026993Y435009D01*
X1026923Y434937D01*
X1026846Y434872D01*
X1026802Y434812D01*
X1026750Y434758D01*
X1026699Y434672D01*
X1026639Y434591D01*
X1026610Y434523D01*
X1026572Y434459D01*
X1026541Y434363D01*
X1026501Y434271D01*
X1026488Y434198D01*
X1026465Y434127D01*
X1026457Y434027D01*
X1026439Y433928D01*
X1026443Y433854D01*
X1026437Y433780D01*
X1026452Y433680D01*
X1026457Y433580D01*
X1026478Y433509D01*
X1026489Y433435D01*
X1026526Y433342D01*
X1026554Y433245D01*
X1026590Y433180D01*
X1026618Y433111D01*
X1026675Y433029D01*
X1026724Y432941D01*
X1026789Y432865D01*
X1026817Y432825D01*
X1026843Y432801D01*
X1026883Y432755D01*
X1028359Y431279D01*
X1029666Y428123D01*
X1029666Y410077D01*
X1028359Y406921D01*
X1025944Y404506D01*
X1022788Y403199D01*
X1019372Y403199D01*
X1016216Y404506D01*
X1013801Y406921D01*
X1012494Y410077D01*
X1012494Y423103D01*
X1012480Y423228D01*
X1012473Y423354D01*
X1012460Y423401D01*
X1012454Y423449D01*
X1012412Y423568D01*
X1012377Y423689D01*
X1012353Y423731D01*
X1012337Y423777D01*
X1012268Y423883D01*
X1012206Y423993D01*
X1012167Y424040D01*
X1012148Y424070D01*
X1012113Y424103D01*
X1012048Y424180D01*
X1006866Y429361D01*
X1006788Y429424D01*
X1006715Y429494D01*
X1006651Y429532D01*
X1006593Y429578D01*
X1006502Y429621D01*
X1006416Y429672D01*
X1006345Y429695D01*
X1006278Y429727D01*
X1006180Y429748D01*
X1006084Y429779D01*
X1006010Y429785D01*
X1005937Y429800D01*
X1005837Y429799D01*
X1005737Y429807D01*
X1005663Y429796D01*
X1005589Y429794D01*
X1005492Y429770D01*
X1005392Y429755D01*
X1005323Y429727D01*
X1005251Y429709D01*
X1005162Y429663D01*
X1005068Y429626D01*
X1005007Y429584D01*
X1004941Y429550D01*
X1004865Y429485D01*
X1004782Y429427D01*
X1004733Y429372D01*
X1004676Y429324D01*
X1004616Y429243D01*
X1004549Y429169D01*
X1004513Y429103D01*
X1004469Y429044D01*
X1004429Y428951D01*
X1004380Y428863D01*
X1004360Y428792D01*
X1004331Y428724D01*
X1004313Y428625D01*
X1004286Y428528D01*
X1004277Y428428D01*
X1004269Y428381D01*
X1004271Y428345D01*
X1004266Y428284D01*
X1004266Y410077D01*
X1002959Y406921D01*
X1000544Y404506D01*
X997388Y403199D01*
X993972Y403199D01*
X990816Y404506D01*
X988401Y406921D01*
X987094Y410077D01*
X987094Y428123D01*
X988401Y431279D01*
X990816Y433694D01*
X993972Y435001D01*
X997549Y435001D01*
X997649Y435013D01*
X997749Y435014D01*
X997821Y435032D01*
X997895Y435041D01*
X997990Y435075D01*
X998087Y435099D01*
X998153Y435133D01*
X998223Y435158D01*
X998308Y435213D01*
X998397Y435259D01*
X998454Y435307D01*
X998516Y435348D01*
X998586Y435420D01*
X998662Y435485D01*
X998707Y435545D01*
X998758Y435598D01*
X998810Y435684D01*
X998870Y435765D01*
X998899Y435833D01*
X998937Y435897D01*
X998968Y435993D01*
X999008Y436085D01*
X999021Y436158D01*
X999043Y436229D01*
X999052Y436329D01*
X999069Y436428D01*
X999065Y436503D01*
X999071Y436577D01*
X999057Y436676D01*
X999051Y436776D01*
X999031Y436848D01*
X999020Y436921D01*
X998983Y437015D01*
X998955Y437111D01*
X998919Y437176D01*
X998891Y437245D01*
X998834Y437327D01*
X998785Y437415D01*
X998720Y437492D01*
X998692Y437531D01*
X998666Y437555D01*
X998626Y437601D01*
X984019Y452209D01*
X983920Y452288D01*
X983826Y452372D01*
X983783Y452396D01*
X983746Y452426D01*
X983631Y452480D01*
X983521Y452541D01*
X983474Y452554D01*
X983430Y452575D01*
X983307Y452601D01*
X983185Y452636D01*
X983124Y452641D01*
X983090Y452648D01*
X983042Y452647D01*
X982941Y452655D01*
X943085Y452655D01*
X942985Y452644D01*
X942884Y452642D01*
X942812Y452624D01*
X942738Y452615D01*
X942644Y452582D01*
X942546Y452557D01*
X942480Y452523D01*
X942410Y452498D01*
X942326Y452443D01*
X942237Y452397D01*
X942180Y452349D01*
X942117Y452309D01*
X942048Y452237D01*
X941971Y452172D01*
X941927Y452112D01*
X941875Y452058D01*
X941824Y451972D01*
X941764Y451891D01*
X941735Y451823D01*
X941696Y451759D01*
X941666Y451663D01*
X941626Y451571D01*
X941613Y451498D01*
X941590Y451427D01*
X941582Y451327D01*
X941564Y451228D01*
X941568Y451154D01*
X941562Y451080D01*
X941577Y450980D01*
X941582Y450880D01*
X941603Y450809D01*
X941614Y450735D01*
X941651Y450642D01*
X941679Y450545D01*
X941715Y450480D01*
X941743Y450411D01*
X941800Y450329D01*
X941849Y450241D01*
X941914Y450165D01*
X941942Y450125D01*
X941968Y450101D01*
X942007Y450055D01*
X960815Y431247D01*
X960836Y431231D01*
X960853Y431211D01*
X960972Y431123D01*
X961088Y431030D01*
X961112Y431019D01*
X961133Y431004D01*
X961269Y430945D01*
X961403Y430881D01*
X961429Y430876D01*
X961453Y430866D01*
X961599Y430839D01*
X961744Y430808D01*
X961770Y430809D01*
X961796Y430804D01*
X961945Y430812D01*
X962093Y430814D01*
X962118Y430820D01*
X962144Y430822D01*
X962287Y430863D01*
X962431Y430899D01*
X962454Y430911D01*
X962479Y430918D01*
X962609Y430991D01*
X962740Y431059D01*
X962760Y431076D01*
X962783Y431089D01*
X962970Y431247D01*
X965416Y433694D01*
X968572Y435001D01*
X971988Y435001D01*
X975144Y433694D01*
X977559Y431279D01*
X978866Y428123D01*
X978866Y410077D01*
X977559Y406921D01*
X975144Y404506D01*
X971988Y403199D01*
X968572Y403199D01*
X965416Y404506D01*
X963001Y406921D01*
X961694Y410077D01*
X961694Y421833D01*
X961680Y421958D01*
X961673Y422084D01*
X961660Y422131D01*
X961654Y422179D01*
X961612Y422298D01*
X961577Y422419D01*
X961553Y422461D01*
X961537Y422507D01*
X961468Y422613D01*
X961406Y422723D01*
X961367Y422770D01*
X961348Y422800D01*
X961313Y422833D01*
X961248Y422910D01*
X956066Y428091D01*
X955988Y428154D01*
X955915Y428224D01*
X955851Y428262D01*
X955793Y428308D01*
X955702Y428351D01*
X955616Y428402D01*
X955545Y428425D01*
X955478Y428457D01*
X955380Y428478D01*
X955284Y428509D01*
X955210Y428515D01*
X955137Y428530D01*
X955037Y428529D01*
X954937Y428537D01*
X954863Y428526D01*
X954789Y428524D01*
X954692Y428500D01*
X954592Y428485D01*
X954523Y428457D01*
X954451Y428439D01*
X954362Y428393D01*
X954268Y428356D01*
X954207Y428314D01*
X954141Y428280D01*
X954065Y428215D01*
X953982Y428157D01*
X953933Y428102D01*
X953876Y428054D01*
X953816Y427973D01*
X953749Y427899D01*
X953713Y427833D01*
X953669Y427774D01*
X953629Y427681D01*
X953580Y427593D01*
X953560Y427522D01*
X953531Y427454D01*
X953513Y427355D01*
X953486Y427258D01*
X953477Y427158D01*
X953469Y427111D01*
X953471Y427075D01*
X953466Y427014D01*
X953466Y410077D01*
X952159Y406921D01*
X949744Y404506D01*
X946588Y403199D01*
X943172Y403199D01*
X940016Y404506D01*
X937601Y406921D01*
X936294Y410077D01*
X936294Y428183D01*
X936280Y428308D01*
X936273Y428434D01*
X936260Y428481D01*
X936254Y428529D01*
X936212Y428648D01*
X936177Y428769D01*
X936153Y428811D01*
X936137Y428857D01*
X936068Y428963D01*
X936006Y429073D01*
X935967Y429120D01*
X935948Y429150D01*
X935913Y429183D01*
X935909Y429188D01*
X935895Y429209D01*
X935880Y429221D01*
X935848Y429260D01*
X931469Y433639D01*
X931370Y433718D01*
X931276Y433802D01*
X931233Y433826D01*
X931196Y433856D01*
X931081Y433910D01*
X930971Y433971D01*
X930924Y433984D01*
X930880Y434005D01*
X930757Y434031D01*
X930635Y434066D01*
X930574Y434071D01*
X930540Y434078D01*
X930492Y434077D01*
X930391Y434085D01*
X930170Y434085D01*
X930070Y434074D01*
X929969Y434072D01*
X929897Y434054D01*
X929823Y434045D01*
X929729Y434012D01*
X929631Y433987D01*
X929565Y433953D01*
X929495Y433928D01*
X929411Y433873D01*
X929322Y433827D01*
X929265Y433779D01*
X929203Y433739D01*
X929133Y433667D01*
X929056Y433602D01*
X929012Y433542D01*
X928960Y433488D01*
X928909Y433402D01*
X928849Y433321D01*
X928820Y433253D01*
X928782Y433189D01*
X928751Y433094D01*
X928711Y433001D01*
X928698Y432928D01*
X928675Y432857D01*
X928667Y432757D01*
X928649Y432658D01*
X928653Y432584D01*
X928647Y432510D01*
X928662Y432411D01*
X928667Y432310D01*
X928688Y432239D01*
X928699Y432165D01*
X928736Y432072D01*
X928764Y431975D01*
X928800Y431910D01*
X928828Y431841D01*
X928885Y431759D01*
X928934Y431671D01*
X928999Y431595D01*
X929027Y431555D01*
X929053Y431531D01*
X929093Y431485D01*
X929299Y431279D01*
X930606Y428123D01*
X930606Y410077D01*
X929299Y406921D01*
X926884Y404506D01*
X923728Y403199D01*
X920312Y403199D01*
X917156Y404506D01*
X914741Y406921D01*
X913434Y410077D01*
X913434Y428123D01*
X914741Y431279D01*
X914947Y431485D01*
X915010Y431563D01*
X915080Y431636D01*
X915118Y431700D01*
X915164Y431758D01*
X915207Y431849D01*
X915258Y431935D01*
X915281Y432006D01*
X915313Y432073D01*
X915334Y432171D01*
X915365Y432267D01*
X915371Y432341D01*
X915386Y432414D01*
X915385Y432514D01*
X915393Y432614D01*
X915382Y432688D01*
X915380Y432762D01*
X915356Y432860D01*
X915341Y432959D01*
X915313Y433028D01*
X915295Y433100D01*
X915249Y433189D01*
X915212Y433283D01*
X915170Y433344D01*
X915136Y433410D01*
X915071Y433486D01*
X915013Y433569D01*
X914958Y433619D01*
X914910Y433675D01*
X914829Y433735D01*
X914755Y433802D01*
X914690Y433838D01*
X914630Y433883D01*
X914537Y433922D01*
X914450Y433971D01*
X914378Y433991D01*
X914310Y434021D01*
X914211Y434038D01*
X914114Y434066D01*
X914014Y434074D01*
X913967Y434082D01*
X913931Y434080D01*
X913870Y434085D01*
X904770Y434085D01*
X904670Y434074D01*
X904569Y434072D01*
X904497Y434054D01*
X904423Y434045D01*
X904329Y434012D01*
X904231Y433987D01*
X904165Y433953D01*
X904095Y433928D01*
X904011Y433873D01*
X903922Y433827D01*
X903865Y433779D01*
X903803Y433739D01*
X903733Y433667D01*
X903656Y433602D01*
X903612Y433542D01*
X903560Y433488D01*
X903509Y433402D01*
X903449Y433321D01*
X903420Y433253D01*
X903382Y433189D01*
X903351Y433094D01*
X903311Y433001D01*
X903298Y432928D01*
X903275Y432857D01*
X903267Y432757D01*
X903249Y432658D01*
X903253Y432584D01*
X903247Y432510D01*
X903262Y432411D01*
X903267Y432310D01*
X903288Y432239D01*
X903299Y432165D01*
X903336Y432072D01*
X903364Y431975D01*
X903400Y431910D01*
X903428Y431841D01*
X903485Y431759D01*
X903534Y431671D01*
X903599Y431595D01*
X903627Y431555D01*
X903653Y431531D01*
X903693Y431485D01*
X903899Y431279D01*
X905206Y428123D01*
X905206Y410077D01*
X903899Y406921D01*
X901484Y404506D01*
X898328Y403199D01*
X894912Y403199D01*
X891756Y404506D01*
X889341Y406921D01*
X888034Y410077D01*
X888034Y428123D01*
X889341Y431279D01*
X889547Y431485D01*
X889610Y431563D01*
X889680Y431636D01*
X889718Y431700D01*
X889764Y431758D01*
X889807Y431849D01*
X889858Y431935D01*
X889881Y432006D01*
X889913Y432073D01*
X889934Y432171D01*
X889965Y432267D01*
X889971Y432341D01*
X889986Y432414D01*
X889985Y432514D01*
X889993Y432614D01*
X889982Y432688D01*
X889980Y432762D01*
X889956Y432860D01*
X889941Y432959D01*
X889913Y433028D01*
X889895Y433100D01*
X889849Y433189D01*
X889812Y433283D01*
X889770Y433344D01*
X889736Y433410D01*
X889671Y433486D01*
X889613Y433569D01*
X889558Y433619D01*
X889510Y433675D01*
X889429Y433735D01*
X889355Y433802D01*
X889290Y433838D01*
X889230Y433883D01*
X889137Y433922D01*
X889050Y433971D01*
X888978Y433991D01*
X888910Y434021D01*
X888811Y434038D01*
X888714Y434066D01*
X888614Y434074D01*
X888567Y434082D01*
X888531Y434080D01*
X888470Y434085D01*
X879370Y434085D01*
X879270Y434074D01*
X879169Y434072D01*
X879097Y434054D01*
X879023Y434045D01*
X878929Y434012D01*
X878831Y433987D01*
X878765Y433953D01*
X878695Y433928D01*
X878611Y433873D01*
X878522Y433827D01*
X878465Y433779D01*
X878403Y433739D01*
X878333Y433667D01*
X878256Y433602D01*
X878212Y433542D01*
X878160Y433488D01*
X878109Y433402D01*
X878049Y433321D01*
X878020Y433253D01*
X877982Y433189D01*
X877951Y433094D01*
X877911Y433001D01*
X877898Y432928D01*
X877875Y432857D01*
X877867Y432757D01*
X877849Y432658D01*
X877853Y432584D01*
X877847Y432510D01*
X877862Y432411D01*
X877867Y432310D01*
X877888Y432239D01*
X877899Y432165D01*
X877936Y432072D01*
X877964Y431975D01*
X878000Y431910D01*
X878028Y431841D01*
X878085Y431759D01*
X878134Y431671D01*
X878199Y431595D01*
X878227Y431555D01*
X878253Y431531D01*
X878293Y431485D01*
X878499Y431279D01*
X879806Y428123D01*
X879806Y410077D01*
X878499Y406921D01*
X876084Y404506D01*
X872928Y403199D01*
X869512Y403199D01*
X866356Y404506D01*
X863941Y406921D01*
X862634Y410077D01*
X862634Y428123D01*
X863941Y431279D01*
X864147Y431485D01*
X864210Y431563D01*
X864280Y431636D01*
X864318Y431700D01*
X864364Y431758D01*
X864407Y431849D01*
X864458Y431935D01*
X864481Y432006D01*
X864513Y432073D01*
X864534Y432171D01*
X864565Y432267D01*
X864571Y432341D01*
X864586Y432414D01*
X864585Y432514D01*
X864593Y432614D01*
X864582Y432688D01*
X864580Y432762D01*
X864556Y432860D01*
X864541Y432959D01*
X864513Y433028D01*
X864495Y433100D01*
X864449Y433189D01*
X864412Y433283D01*
X864370Y433344D01*
X864336Y433410D01*
X864271Y433486D01*
X864213Y433569D01*
X864158Y433619D01*
X864110Y433675D01*
X864029Y433735D01*
X863955Y433802D01*
X863890Y433838D01*
X863830Y433883D01*
X863737Y433922D01*
X863650Y433971D01*
X863578Y433991D01*
X863510Y434021D01*
X863411Y434038D01*
X863314Y434066D01*
X863214Y434074D01*
X863167Y434082D01*
X863131Y434080D01*
X863070Y434085D01*
X853970Y434085D01*
X853870Y434074D01*
X853769Y434072D01*
X853697Y434054D01*
X853623Y434045D01*
X853529Y434012D01*
X853431Y433987D01*
X853365Y433953D01*
X853295Y433928D01*
X853211Y433873D01*
X853122Y433827D01*
X853065Y433779D01*
X853003Y433739D01*
X852933Y433667D01*
X852856Y433602D01*
X852812Y433542D01*
X852760Y433488D01*
X852709Y433402D01*
X852649Y433321D01*
X852620Y433253D01*
X852582Y433189D01*
X852551Y433094D01*
X852511Y433001D01*
X852498Y432928D01*
X852475Y432857D01*
X852467Y432757D01*
X852449Y432658D01*
X852453Y432584D01*
X852447Y432510D01*
X852462Y432411D01*
X852467Y432310D01*
X852488Y432239D01*
X852499Y432165D01*
X852536Y432072D01*
X852564Y431975D01*
X852600Y431910D01*
X852628Y431841D01*
X852685Y431759D01*
X852734Y431671D01*
X852799Y431595D01*
X852827Y431555D01*
X852853Y431531D01*
X852893Y431485D01*
X853099Y431279D01*
X854406Y428123D01*
X854406Y410077D01*
X853099Y406921D01*
X850684Y404506D01*
X847528Y403199D01*
X844112Y403199D01*
X840956Y404506D01*
X838541Y406921D01*
X837234Y410077D01*
X837234Y428284D01*
X837223Y428384D01*
X837221Y428484D01*
X837203Y428557D01*
X837194Y428631D01*
X837160Y428725D01*
X837136Y428822D01*
X837102Y428889D01*
X837077Y428959D01*
X837022Y429043D01*
X836976Y429132D01*
X836928Y429189D01*
X836888Y429251D01*
X836815Y429321D01*
X836750Y429398D01*
X836691Y429442D01*
X836637Y429494D01*
X836551Y429545D01*
X836470Y429605D01*
X836402Y429634D01*
X836338Y429672D01*
X836242Y429703D01*
X836150Y429743D01*
X836077Y429756D01*
X836006Y429779D01*
X835906Y429787D01*
X835807Y429805D01*
X835733Y429801D01*
X835659Y429807D01*
X835559Y429792D01*
X835459Y429787D01*
X835388Y429766D01*
X835314Y429755D01*
X835221Y429718D01*
X835124Y429690D01*
X835059Y429654D01*
X834990Y429626D01*
X834908Y429569D01*
X834820Y429520D01*
X834743Y429455D01*
X834704Y429427D01*
X834680Y429401D01*
X834634Y429361D01*
X829452Y424180D01*
X829374Y424081D01*
X829289Y423987D01*
X829265Y423945D01*
X829235Y423907D01*
X829181Y423793D01*
X829120Y423682D01*
X829107Y423635D01*
X829087Y423592D01*
X829060Y423468D01*
X829026Y423346D01*
X829021Y423286D01*
X829013Y423251D01*
X829014Y423203D01*
X829006Y423103D01*
X829006Y410077D01*
X827699Y406921D01*
X825284Y404506D01*
X822128Y403199D01*
X818712Y403199D01*
X815556Y404506D01*
X813141Y406921D01*
X811834Y410077D01*
X811834Y414782D01*
X811831Y414808D01*
X811833Y414834D01*
X811811Y414981D01*
X811794Y415128D01*
X811785Y415153D01*
X811781Y415179D01*
X811727Y415317D01*
X811677Y415456D01*
X811662Y415478D01*
X811653Y415503D01*
X811568Y415624D01*
X811488Y415749D01*
X811469Y415767D01*
X811454Y415789D01*
X811344Y415888D01*
X811237Y415991D01*
X811214Y416005D01*
X811195Y416022D01*
X811065Y416094D01*
X810938Y416170D01*
X810913Y416178D01*
X810890Y416191D01*
X810747Y416231D01*
X810606Y416276D01*
X810580Y416278D01*
X810555Y416286D01*
X810311Y416305D01*
X776082Y416305D01*
X773999Y418389D01*
X765566Y426821D01*
X765488Y426884D01*
X765415Y426954D01*
X765351Y426992D01*
X765293Y427038D01*
X765202Y427081D01*
X765116Y427132D01*
X765045Y427155D01*
X764978Y427187D01*
X764880Y427208D01*
X764784Y427239D01*
X764710Y427245D01*
X764637Y427260D01*
X764537Y427259D01*
X764437Y427267D01*
X764363Y427256D01*
X764289Y427254D01*
X764192Y427230D01*
X764092Y427215D01*
X764023Y427187D01*
X763951Y427169D01*
X763862Y427123D01*
X763768Y427086D01*
X763707Y427044D01*
X763641Y427010D01*
X763565Y426945D01*
X763482Y426887D01*
X763433Y426832D01*
X763376Y426784D01*
X763316Y426703D01*
X763249Y426629D01*
X763213Y426563D01*
X763169Y426504D01*
X763129Y426411D01*
X763080Y426323D01*
X763060Y426252D01*
X763031Y426184D01*
X763013Y426085D01*
X762986Y425988D01*
X762977Y425888D01*
X762969Y425841D01*
X762971Y425805D01*
X762966Y425744D01*
X762966Y410077D01*
X761659Y406921D01*
X759244Y404506D01*
X756088Y403199D01*
X752672Y403199D01*
X749516Y404506D01*
X747101Y406921D01*
X745794Y410077D01*
X745794Y428123D01*
X747101Y431279D01*
X748577Y432755D01*
X748640Y432834D01*
X748710Y432906D01*
X748748Y432970D01*
X748794Y433028D01*
X748837Y433119D01*
X748888Y433205D01*
X748911Y433276D01*
X748943Y433343D01*
X748964Y433441D01*
X748995Y433537D01*
X749001Y433611D01*
X749016Y433684D01*
X749015Y433784D01*
X749023Y433884D01*
X749012Y433958D01*
X749010Y434032D01*
X748986Y434129D01*
X748971Y434229D01*
X748943Y434298D01*
X748925Y434370D01*
X748879Y434459D01*
X748842Y434553D01*
X748800Y434614D01*
X748766Y434680D01*
X748701Y434756D01*
X748643Y434839D01*
X748588Y434889D01*
X748540Y434945D01*
X748459Y435005D01*
X748385Y435072D01*
X748319Y435108D01*
X748260Y435153D01*
X748167Y435192D01*
X748080Y435241D01*
X748008Y435261D01*
X747940Y435291D01*
X747841Y435308D01*
X747744Y435336D01*
X747644Y435344D01*
X747597Y435352D01*
X747561Y435350D01*
X747500Y435355D01*
X735860Y435355D01*
X735760Y435344D01*
X735659Y435342D01*
X735587Y435324D01*
X735513Y435315D01*
X735419Y435282D01*
X735322Y435257D01*
X735255Y435223D01*
X735185Y435198D01*
X735101Y435143D01*
X735012Y435097D01*
X734955Y435049D01*
X734893Y435009D01*
X734823Y434937D01*
X734746Y434872D01*
X734702Y434812D01*
X734650Y434758D01*
X734599Y434672D01*
X734539Y434591D01*
X734510Y434523D01*
X734472Y434459D01*
X734441Y434363D01*
X734401Y434271D01*
X734388Y434198D01*
X734365Y434127D01*
X734357Y434027D01*
X734339Y433928D01*
X734343Y433854D01*
X734337Y433780D01*
X734352Y433680D01*
X734357Y433580D01*
X734378Y433509D01*
X734389Y433435D01*
X734426Y433342D01*
X734454Y433245D01*
X734490Y433180D01*
X734518Y433111D01*
X734575Y433029D01*
X734624Y432941D01*
X734689Y432865D01*
X734717Y432825D01*
X734743Y432801D01*
X734783Y432755D01*
X736259Y431279D01*
X737566Y428123D01*
X737566Y410077D01*
X736259Y406921D01*
X733844Y404506D01*
X730688Y403199D01*
X727272Y403199D01*
X724116Y404506D01*
X721701Y406921D01*
X720394Y410077D01*
X720394Y428123D01*
X721701Y431279D01*
X723177Y432755D01*
X723240Y432834D01*
X723310Y432906D01*
X723348Y432970D01*
X723394Y433028D01*
X723437Y433119D01*
X723488Y433205D01*
X723511Y433276D01*
X723543Y433343D01*
X723564Y433441D01*
X723595Y433537D01*
X723601Y433611D01*
X723616Y433684D01*
X723615Y433784D01*
X723623Y433884D01*
X723612Y433958D01*
X723610Y434032D01*
X723586Y434129D01*
X723571Y434229D01*
X723543Y434298D01*
X723525Y434370D01*
X723479Y434459D01*
X723442Y434553D01*
X723400Y434614D01*
X723366Y434680D01*
X723301Y434756D01*
X723243Y434839D01*
X723188Y434889D01*
X723140Y434945D01*
X723059Y435005D01*
X722985Y435072D01*
X722919Y435108D01*
X722860Y435153D01*
X722767Y435192D01*
X722680Y435241D01*
X722608Y435261D01*
X722540Y435291D01*
X722441Y435308D01*
X722344Y435336D01*
X722244Y435344D01*
X722197Y435352D01*
X722161Y435350D01*
X722100Y435355D01*
X710460Y435355D01*
X710360Y435344D01*
X710259Y435342D01*
X710187Y435324D01*
X710113Y435315D01*
X710019Y435282D01*
X709922Y435257D01*
X709855Y435223D01*
X709785Y435198D01*
X709701Y435143D01*
X709612Y435097D01*
X709555Y435049D01*
X709493Y435009D01*
X709423Y434937D01*
X709346Y434872D01*
X709302Y434812D01*
X709250Y434758D01*
X709199Y434672D01*
X709139Y434591D01*
X709110Y434523D01*
X709072Y434459D01*
X709041Y434363D01*
X709001Y434271D01*
X708988Y434198D01*
X708965Y434127D01*
X708957Y434027D01*
X708939Y433928D01*
X708943Y433854D01*
X708937Y433780D01*
X708952Y433680D01*
X708957Y433580D01*
X708978Y433509D01*
X708989Y433435D01*
X709026Y433342D01*
X709054Y433245D01*
X709090Y433180D01*
X709118Y433111D01*
X709175Y433029D01*
X709224Y432941D01*
X709289Y432865D01*
X709317Y432825D01*
X709343Y432801D01*
X709383Y432755D01*
X710859Y431279D01*
X712166Y428123D01*
X712166Y410077D01*
X710859Y406921D01*
X708444Y404506D01*
X705288Y403199D01*
X701872Y403199D01*
X698716Y404506D01*
X696301Y406921D01*
X694994Y410077D01*
X694994Y428123D01*
X696301Y431279D01*
X697777Y432755D01*
X697840Y432834D01*
X697910Y432906D01*
X697948Y432970D01*
X697994Y433028D01*
X698037Y433119D01*
X698088Y433205D01*
X698111Y433276D01*
X698143Y433343D01*
X698164Y433441D01*
X698195Y433537D01*
X698201Y433611D01*
X698216Y433684D01*
X698215Y433784D01*
X698223Y433884D01*
X698212Y433958D01*
X698210Y434032D01*
X698186Y434129D01*
X698171Y434229D01*
X698143Y434298D01*
X698125Y434370D01*
X698079Y434459D01*
X698042Y434553D01*
X698000Y434614D01*
X697966Y434680D01*
X697901Y434756D01*
X697843Y434839D01*
X697788Y434889D01*
X697740Y434945D01*
X697659Y435005D01*
X697585Y435072D01*
X697519Y435108D01*
X697460Y435153D01*
X697367Y435192D01*
X697280Y435241D01*
X697208Y435261D01*
X697140Y435291D01*
X697041Y435308D01*
X696944Y435336D01*
X696844Y435344D01*
X696797Y435352D01*
X696761Y435350D01*
X696700Y435355D01*
X685060Y435355D01*
X684960Y435344D01*
X684859Y435342D01*
X684787Y435324D01*
X684713Y435315D01*
X684619Y435282D01*
X684522Y435257D01*
X684455Y435223D01*
X684385Y435198D01*
X684301Y435143D01*
X684212Y435097D01*
X684155Y435049D01*
X684093Y435009D01*
X684023Y434937D01*
X683946Y434872D01*
X683902Y434812D01*
X683850Y434758D01*
X683799Y434672D01*
X683739Y434591D01*
X683710Y434523D01*
X683672Y434459D01*
X683641Y434363D01*
X683601Y434271D01*
X683588Y434198D01*
X683565Y434127D01*
X683557Y434027D01*
X683539Y433928D01*
X683543Y433854D01*
X683537Y433780D01*
X683552Y433680D01*
X683557Y433580D01*
X683578Y433509D01*
X683589Y433435D01*
X683626Y433342D01*
X683654Y433245D01*
X683690Y433180D01*
X683718Y433111D01*
X683775Y433029D01*
X683824Y432941D01*
X683889Y432865D01*
X683917Y432825D01*
X683943Y432801D01*
X683983Y432755D01*
X685459Y431279D01*
X686766Y428123D01*
X686766Y410077D01*
X685459Y406921D01*
X683044Y404506D01*
X679888Y403199D01*
X676472Y403199D01*
X673316Y404506D01*
X670901Y406921D01*
X669594Y410077D01*
X669594Y428123D01*
X670901Y431279D01*
X672377Y432755D01*
X672440Y432834D01*
X672510Y432906D01*
X672548Y432970D01*
X672594Y433028D01*
X672637Y433119D01*
X672688Y433205D01*
X672711Y433276D01*
X672743Y433343D01*
X672764Y433441D01*
X672795Y433537D01*
X672801Y433611D01*
X672816Y433684D01*
X672815Y433784D01*
X672823Y433884D01*
X672812Y433958D01*
X672810Y434032D01*
X672786Y434129D01*
X672771Y434229D01*
X672743Y434298D01*
X672725Y434370D01*
X672679Y434459D01*
X672642Y434553D01*
X672600Y434614D01*
X672566Y434680D01*
X672501Y434756D01*
X672443Y434839D01*
X672388Y434889D01*
X672340Y434945D01*
X672259Y435005D01*
X672185Y435072D01*
X672119Y435108D01*
X672060Y435153D01*
X671967Y435192D01*
X671880Y435241D01*
X671808Y435261D01*
X671740Y435291D01*
X671641Y435308D01*
X671544Y435336D01*
X671444Y435344D01*
X671397Y435352D01*
X671361Y435350D01*
X671300Y435355D01*
X659660Y435355D01*
X659560Y435344D01*
X659459Y435342D01*
X659387Y435324D01*
X659313Y435315D01*
X659219Y435282D01*
X659122Y435257D01*
X659055Y435223D01*
X658985Y435198D01*
X658901Y435143D01*
X658812Y435097D01*
X658755Y435049D01*
X658693Y435009D01*
X658623Y434937D01*
X658546Y434872D01*
X658502Y434812D01*
X658450Y434758D01*
X658399Y434672D01*
X658339Y434591D01*
X658310Y434523D01*
X658272Y434459D01*
X658241Y434363D01*
X658201Y434271D01*
X658188Y434198D01*
X658165Y434127D01*
X658157Y434027D01*
X658139Y433928D01*
X658143Y433854D01*
X658137Y433780D01*
X658152Y433680D01*
X658157Y433580D01*
X658178Y433509D01*
X658189Y433435D01*
X658226Y433342D01*
X658254Y433245D01*
X658290Y433180D01*
X658318Y433111D01*
X658375Y433029D01*
X658424Y432941D01*
X658489Y432865D01*
X658517Y432825D01*
X658543Y432801D01*
X658583Y432755D01*
X660059Y431279D01*
X661366Y428123D01*
X661366Y410077D01*
X660059Y406921D01*
X657644Y404506D01*
X654488Y403199D01*
X651072Y403199D01*
X647916Y404506D01*
X645501Y406921D01*
X644194Y410077D01*
X644194Y428123D01*
X645501Y431279D01*
X647916Y433694D01*
X648617Y433984D01*
X648749Y434058D01*
X648883Y434126D01*
X648901Y434142D01*
X648922Y434154D01*
X649033Y434254D01*
X649148Y434352D01*
X649162Y434372D01*
X649180Y434388D01*
X649266Y434511D01*
X649355Y434632D01*
X649365Y434655D01*
X649378Y434674D01*
X649434Y434814D01*
X649493Y434952D01*
X649497Y434976D01*
X649506Y434999D01*
X649528Y435147D01*
X649555Y435295D01*
X649554Y435320D01*
X649557Y435343D01*
X649545Y435494D01*
X649537Y435643D01*
X649530Y435667D01*
X649528Y435691D01*
X649482Y435834D01*
X649440Y435978D01*
X649428Y435999D01*
X649421Y436022D01*
X649344Y436151D01*
X649270Y436283D01*
X649251Y436305D01*
X649241Y436321D01*
X649209Y436355D01*
X649112Y436469D01*
X648997Y436583D01*
X648997Y437349D01*
X648995Y437372D01*
X648996Y437394D01*
X648982Y437489D01*
X648976Y437601D01*
X648963Y437648D01*
X648957Y437696D01*
X648946Y437726D01*
X648945Y437738D01*
X648919Y437802D01*
X648915Y437815D01*
X648880Y437936D01*
X648856Y437978D01*
X648840Y438024D01*
X648817Y438059D01*
X648816Y438062D01*
X648805Y438078D01*
X648771Y438130D01*
X648710Y438240D01*
X648670Y438287D01*
X648651Y438317D01*
X648616Y438350D01*
X648551Y438427D01*
X648259Y438719D01*
X648160Y438798D01*
X648066Y438882D01*
X648023Y438906D01*
X647986Y438936D01*
X647871Y438990D01*
X647761Y439051D01*
X647714Y439064D01*
X647670Y439085D01*
X647547Y439111D01*
X647425Y439146D01*
X647364Y439151D01*
X647330Y439158D01*
X647282Y439157D01*
X647181Y439165D01*
X625105Y439165D01*
X625005Y439154D01*
X624904Y439152D01*
X624832Y439134D01*
X624758Y439125D01*
X624664Y439092D01*
X624566Y439067D01*
X624500Y439033D01*
X624430Y439008D01*
X624346Y438953D01*
X624257Y438907D01*
X624200Y438859D01*
X624137Y438819D01*
X624068Y438747D01*
X623991Y438682D01*
X623947Y438622D01*
X623895Y438568D01*
X623844Y438482D01*
X623784Y438401D01*
X623755Y438333D01*
X623716Y438269D01*
X623686Y438173D01*
X623646Y438081D01*
X623633Y438008D01*
X623610Y437937D01*
X623602Y437837D01*
X623584Y437738D01*
X623588Y437664D01*
X623582Y437590D01*
X623597Y437490D01*
X623602Y437390D01*
X623623Y437319D01*
X623634Y437245D01*
X623671Y437152D01*
X623699Y437055D01*
X623735Y436990D01*
X623763Y436921D01*
X623820Y436839D01*
X623869Y436751D01*
X623934Y436675D01*
X623962Y436635D01*
X623988Y436611D01*
X624027Y436565D01*
X625639Y434953D01*
X625699Y434906D01*
X625752Y434851D01*
X625835Y434798D01*
X625912Y434737D01*
X625981Y434704D01*
X626046Y434663D01*
X626138Y434630D01*
X626227Y434588D01*
X626302Y434572D01*
X626374Y434546D01*
X626472Y434535D01*
X626568Y434514D01*
X626644Y434516D01*
X626720Y434507D01*
X626818Y434519D01*
X626916Y434520D01*
X626991Y434539D01*
X627067Y434548D01*
X627209Y434594D01*
X627254Y434605D01*
X627272Y434614D01*
X627299Y434623D01*
X628212Y435001D01*
X631628Y435001D01*
X634784Y433694D01*
X637199Y431279D01*
X638506Y428123D01*
X638506Y410077D01*
X637199Y406921D01*
X634784Y404506D01*
X631628Y403199D01*
X628212Y403199D01*
X625056Y404506D01*
X622641Y406921D01*
X621334Y410077D01*
X621334Y428123D01*
X621891Y429467D01*
X621912Y429541D01*
X621942Y429611D01*
X621959Y429707D01*
X621986Y429802D01*
X621990Y429878D01*
X622004Y429954D01*
X621999Y430052D01*
X622003Y430150D01*
X621990Y430225D01*
X621986Y430302D01*
X621959Y430396D01*
X621941Y430493D01*
X621910Y430563D01*
X621889Y430637D01*
X621841Y430723D01*
X621802Y430813D01*
X621756Y430874D01*
X621719Y430941D01*
X621622Y431055D01*
X621594Y431092D01*
X621580Y431105D01*
X621561Y431127D01*
X619303Y433385D01*
X619204Y433464D01*
X619110Y433548D01*
X619067Y433572D01*
X619030Y433602D01*
X618915Y433656D01*
X618805Y433717D01*
X618758Y433730D01*
X618714Y433751D01*
X618591Y433777D01*
X618469Y433812D01*
X618408Y433817D01*
X618374Y433824D01*
X618326Y433823D01*
X618225Y433831D01*
X612924Y433831D01*
X612824Y433820D01*
X612723Y433818D01*
X612651Y433800D01*
X612577Y433791D01*
X612483Y433758D01*
X612385Y433733D01*
X612319Y433699D01*
X612249Y433674D01*
X612165Y433619D01*
X612076Y433573D01*
X612019Y433525D01*
X611957Y433485D01*
X611887Y433413D01*
X611810Y433347D01*
X611766Y433288D01*
X611714Y433234D01*
X611663Y433148D01*
X611603Y433067D01*
X611574Y432999D01*
X611536Y432935D01*
X611505Y432840D01*
X611465Y432747D01*
X611452Y432674D01*
X611429Y432603D01*
X611421Y432503D01*
X611403Y432404D01*
X611407Y432330D01*
X611401Y432256D01*
X611416Y432157D01*
X611421Y432056D01*
X611442Y431985D01*
X611453Y431911D01*
X611490Y431818D01*
X611518Y431721D01*
X611554Y431656D01*
X611582Y431587D01*
X611639Y431505D01*
X611688Y431417D01*
X611753Y431341D01*
X611781Y431301D01*
X611795Y431288D01*
X613106Y428123D01*
X613106Y410077D01*
X611799Y406921D01*
X609384Y404506D01*
X606228Y403199D01*
X602812Y403199D01*
X599656Y404506D01*
X597241Y406921D01*
X595934Y410077D01*
X595934Y428123D01*
X597252Y431305D01*
X597256Y431309D01*
X597326Y431382D01*
X597364Y431446D01*
X597410Y431504D01*
X597453Y431595D01*
X597504Y431681D01*
X597527Y431752D01*
X597559Y431819D01*
X597580Y431917D01*
X597611Y432013D01*
X597617Y432087D01*
X597632Y432160D01*
X597631Y432260D01*
X597639Y432360D01*
X597628Y432434D01*
X597626Y432508D01*
X597602Y432605D01*
X597587Y432705D01*
X597559Y432774D01*
X597541Y432846D01*
X597495Y432935D01*
X597458Y433029D01*
X597416Y433090D01*
X597382Y433156D01*
X597317Y433233D01*
X597259Y433315D01*
X597204Y433365D01*
X597156Y433421D01*
X597075Y433481D01*
X597001Y433548D01*
X596935Y433584D01*
X596876Y433628D01*
X596784Y433668D01*
X596696Y433717D01*
X596624Y433737D01*
X596556Y433767D01*
X596457Y433784D01*
X596360Y433812D01*
X596260Y433820D01*
X596213Y433828D01*
X596177Y433826D01*
X596116Y433831D01*
X587524Y433831D01*
X587424Y433820D01*
X587323Y433818D01*
X587251Y433800D01*
X587177Y433791D01*
X587083Y433758D01*
X586985Y433733D01*
X586919Y433699D01*
X586849Y433674D01*
X586765Y433619D01*
X586676Y433573D01*
X586619Y433525D01*
X586557Y433485D01*
X586487Y433413D01*
X586410Y433347D01*
X586366Y433288D01*
X586314Y433234D01*
X586263Y433148D01*
X586203Y433067D01*
X586174Y432999D01*
X586136Y432935D01*
X586105Y432840D01*
X586065Y432747D01*
X586052Y432674D01*
X586029Y432603D01*
X586021Y432503D01*
X586003Y432404D01*
X586007Y432330D01*
X586001Y432256D01*
X586016Y432157D01*
X586021Y432056D01*
X586042Y431985D01*
X586053Y431911D01*
X586090Y431818D01*
X586118Y431721D01*
X586154Y431656D01*
X586182Y431587D01*
X586239Y431505D01*
X586288Y431417D01*
X586353Y431341D01*
X586381Y431301D01*
X586395Y431288D01*
X587706Y428123D01*
X587706Y410077D01*
X586399Y406921D01*
X583984Y404506D01*
X580828Y403199D01*
X577412Y403199D01*
X574256Y404506D01*
X571841Y406921D01*
X570534Y410077D01*
X570534Y428123D01*
X571852Y431305D01*
X571856Y431309D01*
X571926Y431382D01*
X571964Y431446D01*
X572010Y431504D01*
X572053Y431595D01*
X572104Y431681D01*
X572127Y431752D01*
X572159Y431819D01*
X572180Y431917D01*
X572211Y432013D01*
X572217Y432087D01*
X572232Y432160D01*
X572231Y432260D01*
X572239Y432360D01*
X572228Y432434D01*
X572226Y432508D01*
X572202Y432605D01*
X572187Y432705D01*
X572159Y432774D01*
X572141Y432846D01*
X572095Y432935D01*
X572058Y433029D01*
X572016Y433090D01*
X571982Y433156D01*
X571917Y433233D01*
X571859Y433315D01*
X571804Y433365D01*
X571756Y433421D01*
X571675Y433481D01*
X571601Y433548D01*
X571535Y433584D01*
X571476Y433628D01*
X571384Y433668D01*
X571296Y433717D01*
X571224Y433737D01*
X571156Y433767D01*
X571057Y433784D01*
X570960Y433812D01*
X570860Y433820D01*
X570813Y433828D01*
X570777Y433826D01*
X570716Y433831D01*
X570142Y433831D01*
X570016Y433817D01*
X569890Y433810D01*
X569844Y433797D01*
X569796Y433791D01*
X569677Y433749D01*
X569555Y433714D01*
X569513Y433690D01*
X569467Y433674D01*
X569361Y433605D01*
X569251Y433544D01*
X569205Y433504D01*
X569175Y433485D01*
X569141Y433450D01*
X569065Y433385D01*
X567987Y432307D01*
X564853Y432307D01*
X562637Y434523D01*
X562637Y436897D01*
X562626Y436997D01*
X562624Y437098D01*
X562606Y437170D01*
X562597Y437244D01*
X562564Y437338D01*
X562539Y437436D01*
X562505Y437502D01*
X562480Y437572D01*
X562425Y437656D01*
X562379Y437745D01*
X562331Y437802D01*
X562291Y437865D01*
X562219Y437934D01*
X562154Y438011D01*
X562094Y438055D01*
X562040Y438107D01*
X561954Y438158D01*
X561873Y438218D01*
X561805Y438247D01*
X561741Y438286D01*
X561645Y438316D01*
X561553Y438356D01*
X561480Y438369D01*
X561409Y438392D01*
X561309Y438400D01*
X561210Y438418D01*
X561136Y438414D01*
X561062Y438420D01*
X560962Y438405D01*
X560862Y438400D01*
X560791Y438379D01*
X560717Y438368D01*
X560624Y438331D01*
X560527Y438303D01*
X560462Y438267D01*
X560393Y438239D01*
X560311Y438182D01*
X560223Y438133D01*
X560147Y438068D01*
X560107Y438040D01*
X560083Y438014D01*
X560037Y437975D01*
X558196Y436134D01*
X558103Y436017D01*
X558006Y435902D01*
X557995Y435880D01*
X557980Y435861D01*
X557916Y435725D01*
X557847Y435591D01*
X557841Y435568D01*
X557831Y435546D01*
X557799Y435399D01*
X557763Y435253D01*
X557763Y435229D01*
X557757Y435205D01*
X557760Y435055D01*
X557758Y434905D01*
X557763Y434881D01*
X557763Y434857D01*
X557800Y434711D01*
X557832Y434564D01*
X557843Y434542D01*
X557848Y434519D01*
X557917Y434385D01*
X557982Y434249D01*
X557997Y434231D01*
X558008Y434209D01*
X558106Y434094D01*
X558199Y433977D01*
X558218Y433962D01*
X558234Y433944D01*
X558355Y433854D01*
X558473Y433761D01*
X558499Y433748D01*
X558514Y433736D01*
X558558Y433718D01*
X558562Y433715D01*
X560999Y431279D01*
X562306Y428123D01*
X562306Y410077D01*
X560999Y406921D01*
X558584Y404506D01*
X555428Y403199D01*
X552012Y403199D01*
X548856Y404506D01*
X546441Y406921D01*
X545134Y410077D01*
X545134Y428123D01*
X546441Y431279D01*
X547917Y432755D01*
X547980Y432834D01*
X548050Y432906D01*
X548088Y432970D01*
X548134Y433028D01*
X548177Y433119D01*
X548228Y433205D01*
X548251Y433276D01*
X548283Y433343D01*
X548304Y433441D01*
X548335Y433537D01*
X548341Y433611D01*
X548356Y433684D01*
X548355Y433784D01*
X548363Y433884D01*
X548352Y433958D01*
X548350Y434032D01*
X548326Y434129D01*
X548311Y434229D01*
X548283Y434298D01*
X548265Y434370D01*
X548219Y434459D01*
X548182Y434553D01*
X548140Y434614D01*
X548106Y434680D01*
X548041Y434756D01*
X547983Y434839D01*
X547928Y434889D01*
X547880Y434945D01*
X547799Y435005D01*
X547725Y435072D01*
X547659Y435108D01*
X547600Y435153D01*
X547507Y435192D01*
X547420Y435241D01*
X547348Y435261D01*
X547280Y435291D01*
X547181Y435308D01*
X547084Y435336D01*
X546984Y435344D01*
X546937Y435352D01*
X546901Y435350D01*
X546840Y435355D01*
X535200Y435355D01*
X535100Y435344D01*
X534999Y435342D01*
X534927Y435324D01*
X534853Y435315D01*
X534759Y435282D01*
X534662Y435257D01*
X534595Y435223D01*
X534525Y435198D01*
X534441Y435143D01*
X534352Y435097D01*
X534295Y435049D01*
X534233Y435009D01*
X534163Y434937D01*
X534086Y434872D01*
X534042Y434812D01*
X533990Y434758D01*
X533939Y434672D01*
X533879Y434591D01*
X533850Y434523D01*
X533812Y434459D01*
X533781Y434363D01*
X533741Y434271D01*
X533728Y434198D01*
X533705Y434127D01*
X533697Y434027D01*
X533679Y433928D01*
X533683Y433854D01*
X533677Y433780D01*
X533692Y433680D01*
X533697Y433580D01*
X533718Y433509D01*
X533729Y433435D01*
X533766Y433342D01*
X533794Y433245D01*
X533830Y433180D01*
X533858Y433111D01*
X533915Y433029D01*
X533964Y432941D01*
X534029Y432865D01*
X534057Y432825D01*
X534083Y432801D01*
X534123Y432755D01*
X535599Y431279D01*
X536906Y428123D01*
X536906Y410077D01*
X535599Y406921D01*
X533184Y404506D01*
X530028Y403199D01*
X526612Y403199D01*
G37*
%LPD*%
%LPC*%
G36*
X1029785Y448752D02*
X1029785Y448752D01*
X1024141Y451091D01*
X1019821Y455411D01*
X1017482Y461055D01*
X1017482Y467165D01*
X1017507Y467224D01*
X1017535Y467321D01*
X1017571Y467414D01*
X1017579Y467464D01*
X1017594Y467511D01*
X1017596Y467535D01*
X1017603Y467559D01*
X1017608Y467660D01*
X1017622Y467759D01*
X1017618Y467811D01*
X1017622Y467859D01*
X1017618Y467881D01*
X1017620Y467907D01*
X1017602Y468006D01*
X1017593Y468106D01*
X1017577Y468156D01*
X1017570Y468203D01*
X1017562Y468224D01*
X1017557Y468250D01*
X1017517Y468342D01*
X1017486Y468438D01*
X1017459Y468484D01*
X1017441Y468527D01*
X1017429Y468545D01*
X1017418Y468570D01*
X1017358Y468650D01*
X1017307Y468737D01*
X1017269Y468776D01*
X1017242Y468813D01*
X1017227Y468827D01*
X1017210Y468850D01*
X1017134Y468914D01*
X1017064Y468986D01*
X1017018Y469016D01*
X1016984Y469047D01*
X1016966Y469057D01*
X1016944Y469075D01*
X1016855Y469121D01*
X1016770Y469175D01*
X1016719Y469193D01*
X1016679Y469215D01*
X1016659Y469221D01*
X1016634Y469233D01*
X1016537Y469258D01*
X1016442Y469291D01*
X1016387Y469298D01*
X1016343Y469310D01*
X1016319Y469312D01*
X1016296Y469318D01*
X1016238Y469318D01*
X1016109Y469329D01*
X1016096Y469330D01*
X1016022Y469322D01*
X1015947Y469323D01*
X1015849Y469301D01*
X1015750Y469289D01*
X1015654Y469259D01*
X1015607Y469248D01*
X1015574Y469233D01*
X1015517Y469214D01*
X1013525Y468389D01*
X1010155Y468389D01*
X1007042Y469679D01*
X1004659Y472062D01*
X1003369Y475175D01*
X1003369Y478545D01*
X1003954Y479956D01*
X1003968Y480005D01*
X1003989Y480050D01*
X1004015Y480172D01*
X1004050Y480291D01*
X1004052Y480342D01*
X1004063Y480391D01*
X1004060Y480515D01*
X1004067Y480640D01*
X1004058Y480689D01*
X1004057Y480739D01*
X1004026Y480860D01*
X1004004Y480982D01*
X1003984Y481029D01*
X1003972Y481077D01*
X1003931Y481156D01*
X1004021Y481182D01*
X1004086Y481218D01*
X1004155Y481246D01*
X1004237Y481303D01*
X1004325Y481352D01*
X1004401Y481417D01*
X1004441Y481445D01*
X1004465Y481471D01*
X1004511Y481510D01*
X1007042Y484041D01*
X1007859Y484380D01*
X1007926Y484417D01*
X1007997Y484445D01*
X1008077Y484501D01*
X1008164Y484549D01*
X1008220Y484600D01*
X1008229Y484606D01*
X1008368Y484619D01*
X1008388Y484625D01*
X1008402Y484626D01*
X1008441Y484641D01*
X1008602Y484688D01*
X1008603Y484688D01*
X1008665Y484721D01*
X1008730Y484744D01*
X1008731Y484744D01*
X1008819Y484801D01*
X1008912Y484850D01*
X1008965Y484895D01*
X1009023Y484933D01*
X1009096Y485009D01*
X1009176Y485077D01*
X1009217Y485134D01*
X1009266Y485184D01*
X1009320Y485274D01*
X1009381Y485359D01*
X1009409Y485423D01*
X1009444Y485483D01*
X1009476Y485583D01*
X1009518Y485680D01*
X1009529Y485749D01*
X1009551Y485815D01*
X1009559Y485920D01*
X1009577Y486023D01*
X1009573Y486093D01*
X1009579Y486162D01*
X1009563Y486266D01*
X1009557Y486371D01*
X1009537Y486438D01*
X1009527Y486507D01*
X1009488Y486605D01*
X1009458Y486705D01*
X1009424Y486766D01*
X1009398Y486831D01*
X1009338Y486917D01*
X1009286Y487008D01*
X1009239Y487060D01*
X1009199Y487117D01*
X1009122Y487187D01*
X1009050Y487265D01*
X1008992Y487304D01*
X1008941Y487350D01*
X1008849Y487401D01*
X1008799Y487435D01*
X1008799Y488445D01*
X1008972Y489091D01*
X1009307Y489670D01*
X1009623Y489986D01*
X1009702Y490085D01*
X1009786Y490179D01*
X1009810Y490221D01*
X1009840Y490259D01*
X1009894Y490373D01*
X1009955Y490484D01*
X1009968Y490531D01*
X1009989Y490574D01*
X1010015Y490698D01*
X1010050Y490820D01*
X1010055Y490880D01*
X1010062Y490915D01*
X1010061Y490963D01*
X1010069Y491063D01*
X1010069Y495345D01*
X1010081Y495371D01*
X1010087Y495397D01*
X1010097Y495421D01*
X1010124Y495567D01*
X1010155Y495712D01*
X1010154Y495738D01*
X1010159Y495764D01*
X1010151Y495912D01*
X1010149Y496060D01*
X1010142Y496086D01*
X1010141Y496112D01*
X1010100Y496255D01*
X1010069Y496376D01*
X1010069Y501845D01*
X1010081Y501871D01*
X1010087Y501897D01*
X1010097Y501921D01*
X1010124Y502067D01*
X1010155Y502212D01*
X1010154Y502238D01*
X1010159Y502264D01*
X1010151Y502412D01*
X1010149Y502560D01*
X1010142Y502586D01*
X1010141Y502612D01*
X1010100Y502755D01*
X1010069Y502876D01*
X1010069Y507454D01*
X1010068Y507462D01*
X1010068Y507463D01*
X1010068Y507467D01*
X1010066Y507480D01*
X1010068Y507506D01*
X1010046Y507653D01*
X1010029Y507800D01*
X1010021Y507825D01*
X1010017Y507851D01*
X1009962Y507989D01*
X1009912Y508128D01*
X1009898Y508150D01*
X1009888Y508175D01*
X1009803Y508296D01*
X1009723Y508421D01*
X1009704Y508439D01*
X1009689Y508461D01*
X1009579Y508560D01*
X1009472Y508663D01*
X1009450Y508677D01*
X1009430Y508694D01*
X1009300Y508766D01*
X1009173Y508842D01*
X1009148Y508850D01*
X1009125Y508863D01*
X1008982Y508903D01*
X1008841Y508948D01*
X1008815Y508950D01*
X1008790Y508958D01*
X1008546Y508977D01*
X1002164Y508977D01*
X1002138Y508974D01*
X1002112Y508976D01*
X1001965Y508954D01*
X1001818Y508937D01*
X1001793Y508929D01*
X1001767Y508925D01*
X1001629Y508870D01*
X1001490Y508820D01*
X1001468Y508806D01*
X1001443Y508796D01*
X1001322Y508711D01*
X1001197Y508631D01*
X1001179Y508612D01*
X1001157Y508597D01*
X1001058Y508487D01*
X1000955Y508380D01*
X1000941Y508358D01*
X1000924Y508338D01*
X1000852Y508208D01*
X1000776Y508081D01*
X1000768Y508056D01*
X1000755Y508033D01*
X1000715Y507890D01*
X1000670Y507749D01*
X1000668Y507723D01*
X1000660Y507698D01*
X1000641Y507454D01*
X1000641Y501584D01*
X999969Y500912D01*
X999937Y500872D01*
X999900Y500838D01*
X999829Y500736D01*
X999752Y500639D01*
X999731Y500593D01*
X999702Y500551D01*
X999656Y500436D01*
X999604Y500324D01*
X999593Y500274D01*
X999574Y500227D01*
X999556Y500104D01*
X999530Y499983D01*
X999531Y499932D01*
X999524Y499882D01*
X999534Y499758D01*
X999536Y499635D01*
X999549Y499585D01*
X999553Y499534D01*
X999591Y499417D01*
X999621Y499297D01*
X999645Y499251D01*
X999660Y499203D01*
X999724Y499097D01*
X999781Y498987D01*
X999814Y498948D01*
X999840Y498904D01*
X999926Y498816D01*
X1000007Y498722D01*
X1000048Y498691D01*
X1000083Y498655D01*
X1000285Y498516D01*
X1000930Y498143D01*
X1001403Y497670D01*
X1001738Y497091D01*
X1001911Y496445D01*
X1001911Y492657D01*
X993394Y492657D01*
X993368Y492654D01*
X993342Y492656D01*
X993195Y492634D01*
X993048Y492617D01*
X993023Y492608D01*
X992997Y492605D01*
X992859Y492550D01*
X992720Y492500D01*
X992698Y492486D01*
X992673Y492476D01*
X992552Y492391D01*
X992427Y492311D01*
X992409Y492292D01*
X992387Y492277D01*
X992288Y492167D01*
X992185Y492060D01*
X992171Y492038D01*
X992154Y492018D01*
X992082Y491888D01*
X992006Y491761D01*
X991998Y491736D01*
X991985Y491713D01*
X991945Y491570D01*
X991900Y491429D01*
X991898Y491403D01*
X991890Y491378D01*
X991871Y491134D01*
X991871Y489609D01*
X991869Y489609D01*
X991869Y491134D01*
X991866Y491160D01*
X991868Y491186D01*
X991846Y491333D01*
X991829Y491480D01*
X991820Y491505D01*
X991817Y491531D01*
X991762Y491669D01*
X991712Y491808D01*
X991698Y491830D01*
X991688Y491855D01*
X991603Y491976D01*
X991523Y492101D01*
X991504Y492119D01*
X991489Y492141D01*
X991379Y492240D01*
X991272Y492343D01*
X991250Y492357D01*
X991230Y492374D01*
X991100Y492446D01*
X990973Y492522D01*
X990948Y492530D01*
X990925Y492543D01*
X990782Y492583D01*
X990641Y492628D01*
X990615Y492630D01*
X990590Y492638D01*
X990346Y492657D01*
X981829Y492657D01*
X981829Y496445D01*
X982002Y497091D01*
X982337Y497670D01*
X982810Y498143D01*
X983455Y498516D01*
X983496Y498546D01*
X983542Y498570D01*
X983636Y498650D01*
X983735Y498723D01*
X983768Y498762D01*
X983807Y498795D01*
X983881Y498895D01*
X983961Y498989D01*
X983984Y499035D01*
X984014Y499076D01*
X984063Y499189D01*
X984120Y499299D01*
X984132Y499349D01*
X984152Y499396D01*
X984174Y499517D01*
X984204Y499637D01*
X984205Y499688D01*
X984214Y499739D01*
X984208Y499862D01*
X984210Y499986D01*
X984199Y500036D01*
X984196Y500087D01*
X984162Y500205D01*
X984136Y500326D01*
X984114Y500373D01*
X984100Y500422D01*
X984039Y500529D01*
X983986Y500641D01*
X983954Y500681D01*
X983929Y500726D01*
X983771Y500912D01*
X983099Y501584D01*
X983099Y503022D01*
X983096Y503048D01*
X983098Y503074D01*
X983076Y503221D01*
X983059Y503368D01*
X983051Y503393D01*
X983047Y503419D01*
X982992Y503557D01*
X982942Y503696D01*
X982928Y503718D01*
X982918Y503743D01*
X982833Y503864D01*
X982753Y503989D01*
X982734Y504007D01*
X982719Y504029D01*
X982609Y504128D01*
X982502Y504231D01*
X982480Y504245D01*
X982460Y504262D01*
X982330Y504334D01*
X982203Y504410D01*
X982178Y504418D01*
X982155Y504431D01*
X982012Y504471D01*
X981871Y504516D01*
X981845Y504518D01*
X981820Y504526D01*
X981576Y504545D01*
X750072Y504545D01*
X737159Y517459D01*
X737060Y517538D01*
X736966Y517622D01*
X736923Y517646D01*
X736886Y517676D01*
X736771Y517730D01*
X736661Y517791D01*
X736614Y517804D01*
X736570Y517825D01*
X736447Y517851D01*
X736325Y517886D01*
X736264Y517891D01*
X736230Y517898D01*
X736182Y517897D01*
X736081Y517905D01*
X645806Y517905D01*
X645680Y517891D01*
X645554Y517884D01*
X645508Y517871D01*
X645460Y517865D01*
X645341Y517823D01*
X645219Y517788D01*
X645177Y517764D01*
X645132Y517748D01*
X645025Y517679D01*
X644915Y517618D01*
X644869Y517578D01*
X644839Y517559D01*
X644805Y517524D01*
X644729Y517459D01*
X644187Y516917D01*
X641053Y516917D01*
X638837Y519133D01*
X638837Y522267D01*
X641053Y524483D01*
X644187Y524483D01*
X644729Y523941D01*
X644828Y523862D01*
X644922Y523778D01*
X644964Y523754D01*
X645002Y523724D01*
X645116Y523670D01*
X645227Y523609D01*
X645273Y523596D01*
X645317Y523575D01*
X645440Y523549D01*
X645562Y523514D01*
X645623Y523509D01*
X645658Y523502D01*
X645706Y523503D01*
X645806Y523495D01*
X739028Y523495D01*
X751941Y510581D01*
X752040Y510502D01*
X752134Y510418D01*
X752177Y510394D01*
X752214Y510364D01*
X752329Y510310D01*
X752439Y510249D01*
X752486Y510236D01*
X752530Y510215D01*
X752653Y510189D01*
X752775Y510154D01*
X752836Y510149D01*
X752870Y510142D01*
X752918Y510143D01*
X753019Y510135D01*
X981576Y510135D01*
X981602Y510138D01*
X981628Y510136D01*
X981775Y510158D01*
X981922Y510175D01*
X981947Y510183D01*
X981973Y510187D01*
X982111Y510242D01*
X982250Y510292D01*
X982272Y510306D01*
X982297Y510316D01*
X982418Y510401D01*
X982543Y510481D01*
X982561Y510500D01*
X982583Y510515D01*
X982682Y510625D01*
X982785Y510732D01*
X982799Y510754D01*
X982816Y510774D01*
X982888Y510904D01*
X982964Y511031D01*
X982972Y511056D01*
X982985Y511079D01*
X983025Y511222D01*
X983070Y511363D01*
X983072Y511389D01*
X983080Y511414D01*
X983099Y511658D01*
X983099Y515636D01*
X983844Y516381D01*
X999896Y516381D01*
X1000763Y515514D01*
X1000798Y515416D01*
X1000812Y515394D01*
X1000822Y515369D01*
X1000907Y515248D01*
X1000987Y515123D01*
X1001006Y515105D01*
X1001021Y515083D01*
X1001131Y514984D01*
X1001238Y514881D01*
X1001260Y514867D01*
X1001280Y514850D01*
X1001410Y514778D01*
X1001537Y514702D01*
X1001562Y514694D01*
X1001585Y514681D01*
X1001728Y514641D01*
X1001869Y514596D01*
X1001895Y514594D01*
X1001920Y514586D01*
X1002164Y514567D01*
X1003206Y514567D01*
X1003354Y514584D01*
X1003505Y514596D01*
X1003528Y514604D01*
X1003552Y514607D01*
X1003693Y514657D01*
X1003836Y514703D01*
X1003857Y514716D01*
X1003880Y514724D01*
X1004006Y514806D01*
X1004135Y514883D01*
X1004152Y514900D01*
X1004173Y514913D01*
X1004277Y515021D01*
X1004385Y515126D01*
X1004398Y515146D01*
X1004415Y515164D01*
X1004492Y515293D01*
X1004573Y515419D01*
X1004581Y515442D01*
X1004594Y515463D01*
X1004639Y515606D01*
X1004690Y515748D01*
X1004693Y515772D01*
X1004700Y515795D01*
X1004712Y515944D01*
X1004729Y516094D01*
X1004726Y516118D01*
X1004728Y516142D01*
X1004706Y516291D01*
X1004688Y516440D01*
X1004679Y516468D01*
X1004676Y516487D01*
X1004659Y516531D01*
X1004613Y516673D01*
X1003369Y519675D01*
X1003369Y523045D01*
X1004659Y526158D01*
X1007042Y528541D01*
X1010155Y529831D01*
X1013525Y529831D01*
X1015517Y529006D01*
X1015613Y528978D01*
X1015707Y528941D01*
X1015780Y528930D01*
X1015852Y528910D01*
X1015952Y528905D01*
X1016052Y528890D01*
X1016126Y528897D01*
X1016200Y528893D01*
X1016299Y528911D01*
X1016399Y528919D01*
X1016470Y528942D01*
X1016543Y528956D01*
X1016635Y528996D01*
X1016731Y529026D01*
X1016794Y529065D01*
X1016863Y529094D01*
X1016943Y529154D01*
X1017029Y529206D01*
X1017083Y529258D01*
X1017142Y529302D01*
X1017207Y529379D01*
X1017279Y529449D01*
X1017319Y529512D01*
X1017367Y529568D01*
X1017413Y529658D01*
X1017467Y529742D01*
X1017492Y529812D01*
X1017526Y529879D01*
X1017550Y529976D01*
X1017584Y530071D01*
X1017592Y530145D01*
X1017610Y530217D01*
X1017612Y530317D01*
X1017623Y530417D01*
X1017614Y530491D01*
X1017615Y530565D01*
X1017594Y530663D01*
X1017582Y530763D01*
X1017551Y530859D01*
X1017541Y530906D01*
X1017526Y530938D01*
X1017507Y530996D01*
X1017482Y531055D01*
X1017482Y537165D01*
X1019821Y542809D01*
X1024141Y547129D01*
X1029785Y549468D01*
X1035895Y549468D01*
X1041539Y547129D01*
X1045859Y542809D01*
X1048198Y537165D01*
X1048198Y531055D01*
X1045859Y525411D01*
X1041539Y521091D01*
X1035895Y518752D01*
X1029785Y518752D01*
X1024141Y521090D01*
X1022911Y522320D01*
X1022832Y522383D01*
X1022760Y522452D01*
X1022696Y522491D01*
X1022638Y522537D01*
X1022547Y522580D01*
X1022461Y522631D01*
X1022390Y522654D01*
X1022323Y522686D01*
X1022225Y522707D01*
X1022129Y522737D01*
X1022055Y522743D01*
X1021982Y522759D01*
X1021882Y522757D01*
X1021782Y522765D01*
X1021708Y522754D01*
X1021634Y522753D01*
X1021537Y522729D01*
X1021437Y522714D01*
X1021368Y522686D01*
X1021296Y522668D01*
X1021207Y522622D01*
X1021113Y522585D01*
X1021052Y522542D01*
X1020986Y522508D01*
X1020910Y522443D01*
X1020827Y522386D01*
X1020777Y522331D01*
X1020721Y522283D01*
X1020661Y522202D01*
X1020594Y522127D01*
X1020558Y522062D01*
X1020513Y522002D01*
X1020474Y521910D01*
X1020425Y521822D01*
X1020405Y521751D01*
X1020375Y521682D01*
X1020358Y521583D01*
X1020330Y521487D01*
X1020322Y521387D01*
X1020314Y521339D01*
X1020316Y521303D01*
X1020311Y521243D01*
X1020311Y519675D01*
X1019404Y517487D01*
X1019363Y517342D01*
X1019317Y517199D01*
X1019315Y517175D01*
X1019309Y517152D01*
X1019301Y517001D01*
X1019289Y516852D01*
X1019293Y516828D01*
X1019292Y516804D01*
X1019319Y516656D01*
X1019341Y516507D01*
X1019350Y516485D01*
X1019354Y516461D01*
X1019414Y516323D01*
X1019470Y516183D01*
X1019484Y516163D01*
X1019493Y516141D01*
X1019583Y516020D01*
X1019669Y515897D01*
X1019687Y515881D01*
X1019701Y515861D01*
X1019816Y515764D01*
X1019927Y515664D01*
X1019949Y515652D01*
X1019967Y515636D01*
X1020101Y515568D01*
X1020232Y515495D01*
X1020256Y515489D01*
X1020277Y515478D01*
X1020423Y515441D01*
X1020568Y515400D01*
X1020597Y515398D01*
X1020615Y515393D01*
X1020663Y515393D01*
X1020812Y515381D01*
X1023866Y515381D01*
X1024611Y514636D01*
X1024611Y509375D01*
X1024599Y509349D01*
X1024593Y509323D01*
X1024583Y509299D01*
X1024557Y509154D01*
X1024525Y509009D01*
X1024526Y508982D01*
X1024521Y508956D01*
X1024529Y508808D01*
X1024531Y508660D01*
X1024538Y508635D01*
X1024539Y508608D01*
X1024580Y508466D01*
X1024611Y508344D01*
X1024611Y502875D01*
X1024599Y502849D01*
X1024593Y502823D01*
X1024583Y502799D01*
X1024557Y502654D01*
X1024525Y502509D01*
X1024526Y502482D01*
X1024521Y502456D01*
X1024529Y502307D01*
X1024531Y502160D01*
X1024538Y502135D01*
X1024539Y502108D01*
X1024580Y501966D01*
X1024611Y501844D01*
X1024611Y496375D01*
X1024599Y496349D01*
X1024593Y496323D01*
X1024583Y496299D01*
X1024557Y496154D01*
X1024525Y496009D01*
X1024526Y495982D01*
X1024521Y495956D01*
X1024529Y495808D01*
X1024531Y495660D01*
X1024538Y495635D01*
X1024539Y495608D01*
X1024580Y495466D01*
X1024611Y495344D01*
X1024611Y491063D01*
X1024625Y490938D01*
X1024632Y490812D01*
X1024645Y490765D01*
X1024651Y490717D01*
X1024693Y490598D01*
X1024728Y490477D01*
X1024752Y490435D01*
X1024768Y490389D01*
X1024837Y490283D01*
X1024898Y490173D01*
X1024938Y490126D01*
X1024957Y490096D01*
X1024992Y490063D01*
X1025057Y489986D01*
X1025373Y489670D01*
X1025708Y489091D01*
X1025881Y488445D01*
X1025881Y487633D01*
X1017340Y487633D01*
X1015624Y487633D01*
X1015554Y487625D01*
X1015485Y487627D01*
X1015382Y487606D01*
X1015277Y487594D01*
X1015212Y487570D01*
X1015143Y487556D01*
X1015048Y487511D01*
X1014949Y487476D01*
X1014891Y487438D01*
X1014827Y487409D01*
X1014745Y487344D01*
X1014657Y487287D01*
X1014608Y487237D01*
X1014553Y487194D01*
X1014487Y487112D01*
X1014414Y487036D01*
X1014379Y486977D01*
X1014335Y486922D01*
X1014289Y486827D01*
X1014236Y486737D01*
X1014214Y486671D01*
X1014184Y486608D01*
X1014161Y486505D01*
X1014129Y486405D01*
X1014124Y486336D01*
X1014109Y486268D01*
X1014110Y486162D01*
X1014101Y486058D01*
X1014112Y485989D01*
X1014112Y485919D01*
X1014137Y485817D01*
X1014153Y485713D01*
X1014179Y485648D01*
X1014195Y485581D01*
X1014243Y485487D01*
X1014282Y485389D01*
X1014321Y485332D01*
X1014353Y485270D01*
X1014421Y485189D01*
X1014481Y485103D01*
X1014532Y485057D01*
X1014577Y485003D01*
X1014661Y484940D01*
X1014739Y484870D01*
X1014801Y484836D01*
X1014856Y484794D01*
X1015008Y484722D01*
X1015044Y484701D01*
X1015045Y484701D01*
X1015058Y484697D01*
X1015077Y484688D01*
X1015078Y484688D01*
X1015229Y484649D01*
X1015381Y484606D01*
X1015402Y484605D01*
X1015415Y484601D01*
X1015457Y484600D01*
X1015624Y484587D01*
X1017340Y484587D01*
X1025881Y484587D01*
X1025881Y483775D01*
X1025708Y483129D01*
X1025373Y482550D01*
X1024900Y482077D01*
X1024321Y481742D01*
X1023675Y481569D01*
X1021338Y481569D01*
X1021189Y481552D01*
X1021039Y481540D01*
X1021015Y481532D01*
X1020991Y481529D01*
X1020850Y481479D01*
X1020707Y481432D01*
X1020686Y481420D01*
X1020663Y481412D01*
X1020537Y481330D01*
X1020408Y481253D01*
X1020391Y481236D01*
X1020371Y481223D01*
X1020266Y481115D01*
X1020158Y481010D01*
X1020145Y480990D01*
X1020128Y480972D01*
X1020051Y480843D01*
X1019970Y480717D01*
X1019962Y480694D01*
X1019950Y480673D01*
X1019904Y480530D01*
X1019853Y480388D01*
X1019851Y480364D01*
X1019843Y480341D01*
X1019831Y480192D01*
X1019814Y480042D01*
X1019817Y480018D01*
X1019815Y479994D01*
X1019838Y479845D01*
X1019855Y479696D01*
X1019864Y479668D01*
X1019867Y479649D01*
X1019885Y479605D01*
X1019930Y479463D01*
X1020311Y478545D01*
X1020311Y476977D01*
X1020322Y476877D01*
X1020324Y476777D01*
X1020342Y476705D01*
X1020351Y476631D01*
X1020385Y476536D01*
X1020409Y476439D01*
X1020443Y476373D01*
X1020468Y476303D01*
X1020523Y476218D01*
X1020569Y476129D01*
X1020617Y476072D01*
X1020657Y476010D01*
X1020729Y475940D01*
X1020794Y475864D01*
X1020854Y475819D01*
X1020908Y475768D01*
X1020994Y475716D01*
X1021075Y475656D01*
X1021143Y475627D01*
X1021207Y475589D01*
X1021303Y475558D01*
X1021395Y475518D01*
X1021468Y475505D01*
X1021539Y475483D01*
X1021639Y475475D01*
X1021738Y475457D01*
X1021812Y475461D01*
X1021886Y475455D01*
X1021986Y475470D01*
X1022086Y475475D01*
X1022157Y475495D01*
X1022231Y475506D01*
X1022324Y475543D01*
X1022421Y475571D01*
X1022486Y475608D01*
X1022555Y475635D01*
X1022637Y475692D01*
X1022725Y475741D01*
X1022801Y475807D01*
X1022841Y475834D01*
X1022865Y475860D01*
X1022911Y475900D01*
X1024141Y477130D01*
X1029785Y479468D01*
X1035895Y479468D01*
X1041539Y477129D01*
X1045859Y472809D01*
X1048198Y467165D01*
X1048198Y461055D01*
X1045859Y455411D01*
X1041539Y451091D01*
X1035895Y448752D01*
X1029785Y448752D01*
G37*
%LPD*%
%LPC*%
G36*
X577412Y555599D02*
X577412Y555599D01*
X574256Y556906D01*
X571841Y559321D01*
X570534Y562477D01*
X570534Y580523D01*
X571841Y583679D01*
X574256Y586094D01*
X577412Y587401D01*
X580828Y587401D01*
X583984Y586094D01*
X586399Y583679D01*
X587706Y580523D01*
X587706Y562477D01*
X586399Y559321D01*
X583984Y556906D01*
X580828Y555599D01*
X577412Y555599D01*
G37*
%LPD*%
%LPC*%
G36*
X628212Y555599D02*
X628212Y555599D01*
X625056Y556906D01*
X622641Y559321D01*
X621334Y562477D01*
X621334Y580523D01*
X622641Y583679D01*
X625056Y586094D01*
X628212Y587401D01*
X631628Y587401D01*
X634784Y586094D01*
X637199Y583679D01*
X638506Y580523D01*
X638506Y562477D01*
X637199Y559321D01*
X634784Y556906D01*
X631628Y555599D01*
X628212Y555599D01*
G37*
%LPD*%
%LPC*%
G36*
X602812Y555599D02*
X602812Y555599D01*
X599656Y556906D01*
X597241Y559321D01*
X595934Y562477D01*
X595934Y580523D01*
X597241Y583679D01*
X599656Y586094D01*
X602812Y587401D01*
X606228Y587401D01*
X609384Y586094D01*
X611799Y583679D01*
X613106Y580523D01*
X613106Y562477D01*
X611799Y559321D01*
X609384Y556906D01*
X606228Y555599D01*
X602812Y555599D01*
G37*
%LPD*%
%LPC*%
G36*
X869512Y555599D02*
X869512Y555599D01*
X866356Y556906D01*
X863941Y559321D01*
X862634Y562477D01*
X862634Y580523D01*
X863941Y583679D01*
X866356Y586094D01*
X869512Y587401D01*
X872928Y587401D01*
X876084Y586094D01*
X878499Y583679D01*
X879806Y580523D01*
X879806Y562477D01*
X878499Y559321D01*
X876084Y556906D01*
X872928Y555599D01*
X869512Y555599D01*
G37*
%LPD*%
%LPC*%
G36*
X920312Y555599D02*
X920312Y555599D01*
X917156Y556906D01*
X914741Y559321D01*
X913434Y562477D01*
X913434Y580523D01*
X914741Y583679D01*
X917156Y586094D01*
X920312Y587401D01*
X923728Y587401D01*
X926884Y586094D01*
X929299Y583679D01*
X930606Y580523D01*
X930606Y562477D01*
X929299Y559321D01*
X926884Y556906D01*
X923728Y555599D01*
X920312Y555599D01*
G37*
%LPD*%
%LPC*%
G36*
X894912Y555599D02*
X894912Y555599D01*
X891756Y556906D01*
X889341Y559321D01*
X888034Y562477D01*
X888034Y580523D01*
X889341Y583679D01*
X891756Y586094D01*
X894912Y587401D01*
X898328Y587401D01*
X901484Y586094D01*
X903899Y583679D01*
X905206Y580523D01*
X905206Y562477D01*
X903899Y559321D01*
X901484Y556906D01*
X898328Y555599D01*
X894912Y555599D01*
G37*
%LPD*%
%LPC*%
G36*
X727272Y555599D02*
X727272Y555599D01*
X724116Y556906D01*
X721701Y559321D01*
X720394Y562477D01*
X720394Y580523D01*
X721701Y583679D01*
X724116Y586094D01*
X727272Y587401D01*
X730688Y587401D01*
X733844Y586094D01*
X736259Y583679D01*
X737566Y580523D01*
X737566Y562477D01*
X736259Y559321D01*
X733844Y556906D01*
X730688Y555599D01*
X727272Y555599D01*
G37*
%LPD*%
%LPC*%
G36*
X844112Y555599D02*
X844112Y555599D01*
X840956Y556906D01*
X838541Y559321D01*
X837234Y562477D01*
X837234Y580523D01*
X838541Y583679D01*
X840956Y586094D01*
X844112Y587401D01*
X847528Y587401D01*
X850684Y586094D01*
X853099Y583679D01*
X854406Y580523D01*
X854406Y562477D01*
X853099Y559321D01*
X850684Y556906D01*
X847528Y555599D01*
X844112Y555599D01*
G37*
%LPD*%
%LPC*%
G36*
X752672Y555599D02*
X752672Y555599D01*
X749516Y556906D01*
X747101Y559321D01*
X745794Y562477D01*
X745794Y580523D01*
X747101Y583679D01*
X749516Y586094D01*
X752672Y587401D01*
X756088Y587401D01*
X759244Y586094D01*
X761659Y583679D01*
X762966Y580523D01*
X762966Y562477D01*
X761659Y559321D01*
X759244Y556906D01*
X756088Y555599D01*
X752672Y555599D01*
G37*
%LPD*%
%LPC*%
G36*
X701872Y555599D02*
X701872Y555599D01*
X698716Y556906D01*
X696301Y559321D01*
X694994Y562477D01*
X694994Y580523D01*
X696301Y583679D01*
X698716Y586094D01*
X701872Y587401D01*
X705288Y587401D01*
X708444Y586094D01*
X710859Y583679D01*
X712166Y580523D01*
X712166Y562477D01*
X710859Y559321D01*
X708444Y556906D01*
X705288Y555599D01*
X701872Y555599D01*
G37*
%LPD*%
%LPC*%
G36*
X651072Y555599D02*
X651072Y555599D01*
X647916Y556906D01*
X645501Y559321D01*
X644194Y562477D01*
X644194Y580523D01*
X645501Y583679D01*
X647916Y586094D01*
X651072Y587401D01*
X654488Y587401D01*
X657644Y586094D01*
X660059Y583679D01*
X661366Y580523D01*
X661366Y562477D01*
X660059Y559321D01*
X657644Y556906D01*
X654488Y555599D01*
X651072Y555599D01*
G37*
%LPD*%
%LPC*%
G36*
X552012Y555599D02*
X552012Y555599D01*
X548856Y556906D01*
X546441Y559321D01*
X545134Y562477D01*
X545134Y580523D01*
X546441Y583679D01*
X548856Y586094D01*
X552012Y587401D01*
X555428Y587401D01*
X558584Y586094D01*
X560999Y583679D01*
X562306Y580523D01*
X562306Y562477D01*
X560999Y559321D01*
X558584Y556906D01*
X555428Y555599D01*
X552012Y555599D01*
G37*
%LPD*%
%LPC*%
G36*
X676472Y555599D02*
X676472Y555599D01*
X673316Y556906D01*
X670901Y559321D01*
X669594Y562477D01*
X669594Y580523D01*
X670901Y583679D01*
X673316Y586094D01*
X676472Y587401D01*
X679888Y587401D01*
X683044Y586094D01*
X685459Y583679D01*
X686766Y580523D01*
X686766Y562477D01*
X685459Y559321D01*
X683044Y556906D01*
X679888Y555599D01*
X676472Y555599D01*
G37*
%LPD*%
%LPC*%
G36*
X415575Y477294D02*
X415575Y477294D01*
X414929Y477467D01*
X414350Y477802D01*
X414034Y478118D01*
X413935Y478197D01*
X413841Y478281D01*
X413799Y478305D01*
X413761Y478335D01*
X413647Y478389D01*
X413536Y478450D01*
X413489Y478463D01*
X413446Y478484D01*
X413322Y478510D01*
X413200Y478545D01*
X413140Y478550D01*
X413105Y478557D01*
X413057Y478556D01*
X412957Y478564D01*
X391384Y478564D01*
X390639Y479309D01*
X390639Y495111D01*
X391384Y495856D01*
X412957Y495856D01*
X413082Y495870D01*
X413208Y495877D01*
X413255Y495890D01*
X413303Y495896D01*
X413422Y495938D01*
X413543Y495973D01*
X413585Y495997D01*
X413631Y496013D01*
X413737Y496082D01*
X413847Y496143D01*
X413894Y496183D01*
X413924Y496202D01*
X413957Y496237D01*
X414034Y496302D01*
X414350Y496618D01*
X414929Y496953D01*
X415575Y497126D01*
X417387Y497126D01*
X417387Y487210D01*
X417387Y477294D01*
X415575Y477294D01*
G37*
%LPD*%
%LPC*%
G36*
X490384Y431149D02*
X490384Y431149D01*
X489639Y431894D01*
X489639Y446946D01*
X490384Y447691D01*
X500097Y447691D01*
X500223Y447705D01*
X500349Y447712D01*
X500396Y447725D01*
X500444Y447731D01*
X500563Y447773D01*
X500684Y447808D01*
X500726Y447832D01*
X500772Y447848D01*
X500878Y447917D01*
X500988Y447978D01*
X501035Y448018D01*
X501065Y448037D01*
X501098Y448072D01*
X501175Y448137D01*
X507299Y454261D01*
X507378Y454360D01*
X507462Y454454D01*
X507486Y454497D01*
X507516Y454534D01*
X507570Y454649D01*
X507631Y454759D01*
X507644Y454806D01*
X507665Y454850D01*
X507691Y454973D01*
X507726Y455095D01*
X507731Y455156D01*
X507738Y455190D01*
X507737Y455238D01*
X507745Y455339D01*
X507745Y466714D01*
X507731Y466840D01*
X507724Y466966D01*
X507711Y467012D01*
X507705Y467060D01*
X507663Y467179D01*
X507628Y467301D01*
X507604Y467343D01*
X507588Y467388D01*
X507519Y467495D01*
X507458Y467605D01*
X507418Y467651D01*
X507399Y467681D01*
X507364Y467715D01*
X507299Y467791D01*
X506757Y468333D01*
X506757Y471467D01*
X508973Y473683D01*
X512107Y473683D01*
X514323Y471467D01*
X514323Y468333D01*
X513781Y467791D01*
X513702Y467692D01*
X513618Y467598D01*
X513594Y467556D01*
X513564Y467518D01*
X513510Y467404D01*
X513449Y467293D01*
X513436Y467247D01*
X513415Y467203D01*
X513389Y467080D01*
X513354Y466958D01*
X513349Y466897D01*
X513342Y466862D01*
X513343Y466814D01*
X513335Y466714D01*
X513335Y452392D01*
X503627Y442685D01*
X503548Y442586D01*
X503464Y442492D01*
X503440Y442449D01*
X503410Y442412D01*
X503356Y442297D01*
X503295Y442187D01*
X503282Y442140D01*
X503261Y442096D01*
X503235Y441973D01*
X503200Y441851D01*
X503195Y441790D01*
X503188Y441756D01*
X503189Y441708D01*
X503181Y441607D01*
X503181Y431894D01*
X502436Y431149D01*
X490384Y431149D01*
G37*
%LPD*%
G36*
X621647Y514359D02*
X621647Y514359D01*
X621773Y514366D01*
X621820Y514379D01*
X621868Y514385D01*
X621987Y514427D01*
X622108Y514462D01*
X622150Y514486D01*
X622196Y514502D01*
X622302Y514571D01*
X622412Y514632D01*
X622459Y514672D01*
X622489Y514691D01*
X622522Y514726D01*
X622599Y514791D01*
X626679Y518871D01*
X626758Y518970D01*
X626842Y519064D01*
X626866Y519107D01*
X626896Y519144D01*
X626950Y519259D01*
X627011Y519369D01*
X627024Y519416D01*
X627045Y519460D01*
X627071Y519583D01*
X627106Y519705D01*
X627111Y519766D01*
X627118Y519800D01*
X627117Y519848D01*
X627125Y519949D01*
X627125Y527674D01*
X627111Y527800D01*
X627104Y527926D01*
X627091Y527972D01*
X627085Y528020D01*
X627043Y528139D01*
X627008Y528261D01*
X626984Y528303D01*
X626968Y528348D01*
X626899Y528455D01*
X626838Y528565D01*
X626798Y528611D01*
X626779Y528641D01*
X626744Y528675D01*
X626679Y528751D01*
X626137Y529293D01*
X626137Y532892D01*
X626134Y532918D01*
X626136Y532944D01*
X626114Y533091D01*
X626097Y533238D01*
X626089Y533263D01*
X626085Y533289D01*
X626030Y533427D01*
X625980Y533566D01*
X625966Y533588D01*
X625956Y533613D01*
X625871Y533734D01*
X625791Y533859D01*
X625772Y533877D01*
X625757Y533899D01*
X625647Y533998D01*
X625540Y534101D01*
X625518Y534115D01*
X625498Y534132D01*
X625368Y534204D01*
X625241Y534280D01*
X625216Y534288D01*
X625193Y534301D01*
X625050Y534341D01*
X624909Y534386D01*
X624883Y534388D01*
X624858Y534396D01*
X624614Y534415D01*
X608838Y534415D01*
X608812Y534412D01*
X608786Y534414D01*
X608639Y534392D01*
X608492Y534375D01*
X608467Y534367D01*
X608441Y534363D01*
X608303Y534308D01*
X608164Y534258D01*
X608142Y534244D01*
X608117Y534234D01*
X607996Y534149D01*
X607871Y534069D01*
X607853Y534050D01*
X607831Y534035D01*
X607732Y533925D01*
X607629Y533818D01*
X607615Y533796D01*
X607598Y533776D01*
X607526Y533646D01*
X607450Y533519D01*
X607442Y533494D01*
X607429Y533471D01*
X607389Y533328D01*
X607344Y533187D01*
X607342Y533161D01*
X607334Y533136D01*
X607315Y532892D01*
X607315Y520812D01*
X603447Y516945D01*
X603385Y516867D01*
X603315Y516794D01*
X603277Y516730D01*
X603231Y516672D01*
X603188Y516581D01*
X603136Y516495D01*
X603114Y516424D01*
X603082Y516357D01*
X603061Y516259D01*
X603030Y516163D01*
X603024Y516089D01*
X603009Y516016D01*
X603010Y515916D01*
X603002Y515816D01*
X603013Y515742D01*
X603014Y515668D01*
X603039Y515571D01*
X603054Y515471D01*
X603081Y515402D01*
X603099Y515330D01*
X603146Y515240D01*
X603183Y515147D01*
X603225Y515086D01*
X603259Y515020D01*
X603324Y514943D01*
X603382Y514861D01*
X603437Y514811D01*
X603485Y514755D01*
X603566Y514695D01*
X603640Y514628D01*
X603705Y514592D01*
X603765Y514547D01*
X603857Y514508D01*
X603945Y514459D01*
X604017Y514439D01*
X604085Y514409D01*
X604184Y514392D01*
X604281Y514364D01*
X604381Y514356D01*
X604428Y514348D01*
X604464Y514350D01*
X604525Y514345D01*
X621521Y514345D01*
X621647Y514359D01*
G37*
G36*
X446647Y452389D02*
X446647Y452389D01*
X446773Y452396D01*
X446820Y452409D01*
X446868Y452415D01*
X446987Y452457D01*
X447108Y452492D01*
X447150Y452516D01*
X447196Y452532D01*
X447302Y452601D01*
X447412Y452662D01*
X447459Y452702D01*
X447489Y452721D01*
X447522Y452756D01*
X447599Y452821D01*
X452689Y457911D01*
X452768Y458010D01*
X452852Y458104D01*
X452876Y458147D01*
X452906Y458184D01*
X452960Y458299D01*
X453021Y458409D01*
X453034Y458456D01*
X453055Y458500D01*
X453081Y458623D01*
X453116Y458745D01*
X453121Y458806D01*
X453128Y458840D01*
X453127Y458888D01*
X453135Y458989D01*
X453135Y469635D01*
X453124Y469735D01*
X453122Y469836D01*
X453104Y469908D01*
X453095Y469982D01*
X453062Y470076D01*
X453037Y470174D01*
X453003Y470240D01*
X452978Y470310D01*
X452923Y470394D01*
X452877Y470483D01*
X452829Y470540D01*
X452789Y470603D01*
X452717Y470672D01*
X452652Y470749D01*
X452592Y470793D01*
X452538Y470845D01*
X452452Y470896D01*
X452371Y470956D01*
X452303Y470985D01*
X452239Y471024D01*
X452143Y471054D01*
X452051Y471094D01*
X451978Y471107D01*
X451907Y471130D01*
X451807Y471138D01*
X451708Y471156D01*
X451634Y471152D01*
X451560Y471158D01*
X451460Y471143D01*
X451360Y471138D01*
X451289Y471117D01*
X451215Y471106D01*
X451122Y471069D01*
X451025Y471041D01*
X450960Y471005D01*
X450891Y470977D01*
X450809Y470920D01*
X450721Y470871D01*
X450645Y470806D01*
X450605Y470778D01*
X450581Y470752D01*
X450535Y470713D01*
X447762Y467939D01*
X447668Y467821D01*
X447570Y467706D01*
X447560Y467685D01*
X447545Y467666D01*
X447480Y467530D01*
X447412Y467395D01*
X447406Y467372D01*
X447396Y467351D01*
X447364Y467204D01*
X447328Y467057D01*
X447328Y467033D01*
X447323Y467010D01*
X447325Y466860D01*
X447323Y466708D01*
X447328Y466681D01*
X447329Y466662D01*
X447340Y466617D01*
X447367Y466468D01*
X447481Y466045D01*
X447481Y463834D01*
X430291Y463834D01*
X430265Y463831D01*
X430239Y463833D01*
X430092Y463811D01*
X429945Y463794D01*
X429920Y463786D01*
X429894Y463782D01*
X429757Y463727D01*
X429617Y463677D01*
X429595Y463663D01*
X429570Y463653D01*
X429449Y463568D01*
X429324Y463488D01*
X429306Y463469D01*
X429284Y463454D01*
X429185Y463344D01*
X429082Y463237D01*
X429068Y463215D01*
X429051Y463195D01*
X428979Y463065D01*
X428928Y462979D01*
X428915Y462975D01*
X428893Y462960D01*
X428868Y462951D01*
X428747Y462866D01*
X428622Y462786D01*
X428604Y462767D01*
X428582Y462752D01*
X428483Y462642D01*
X428380Y462535D01*
X428366Y462512D01*
X428349Y462493D01*
X428277Y462363D01*
X428201Y462236D01*
X428193Y462211D01*
X428180Y462188D01*
X428140Y462045D01*
X428095Y461904D01*
X428092Y461878D01*
X428085Y461853D01*
X428066Y461609D01*
X428066Y455669D01*
X414528Y455669D01*
X414502Y455666D01*
X414476Y455668D01*
X414329Y455646D01*
X414182Y455629D01*
X414157Y455621D01*
X414131Y455617D01*
X413993Y455562D01*
X413854Y455512D01*
X413832Y455498D01*
X413807Y455488D01*
X413686Y455403D01*
X413561Y455323D01*
X413543Y455304D01*
X413521Y455289D01*
X413422Y455179D01*
X413319Y455072D01*
X413305Y455050D01*
X413288Y455030D01*
X413216Y454900D01*
X413140Y454773D01*
X413132Y454748D01*
X413119Y454725D01*
X413079Y454582D01*
X413034Y454441D01*
X413032Y454415D01*
X413024Y454390D01*
X413005Y454146D01*
X413005Y453898D01*
X413008Y453872D01*
X413006Y453846D01*
X413028Y453699D01*
X413045Y453552D01*
X413053Y453527D01*
X413057Y453501D01*
X413112Y453363D01*
X413162Y453224D01*
X413176Y453202D01*
X413186Y453177D01*
X413271Y453056D01*
X413351Y452931D01*
X413370Y452913D01*
X413385Y452891D01*
X413495Y452792D01*
X413602Y452689D01*
X413624Y452675D01*
X413644Y452658D01*
X413774Y452586D01*
X413901Y452510D01*
X413926Y452502D01*
X413949Y452489D01*
X414092Y452449D01*
X414233Y452404D01*
X414259Y452402D01*
X414284Y452394D01*
X414528Y452375D01*
X446521Y452375D01*
X446647Y452389D01*
G37*
G36*
X506122Y582554D02*
X506122Y582554D01*
X506196Y582555D01*
X506293Y582580D01*
X506393Y582595D01*
X506462Y582622D01*
X506534Y582640D01*
X506623Y582686D01*
X506717Y582723D01*
X506778Y582766D01*
X506844Y582800D01*
X506920Y582865D01*
X507003Y582922D01*
X507053Y582977D01*
X507109Y583026D01*
X507169Y583106D01*
X507236Y583181D01*
X507272Y583246D01*
X507317Y583306D01*
X507356Y583398D01*
X507405Y583486D01*
X507425Y583558D01*
X507455Y583626D01*
X507472Y583725D01*
X507500Y583821D01*
X507508Y583921D01*
X507516Y583969D01*
X507514Y584005D01*
X507519Y584065D01*
X507519Y590257D01*
X507505Y590383D01*
X507498Y590509D01*
X507485Y590556D01*
X507479Y590604D01*
X507437Y590723D01*
X507402Y590844D01*
X507378Y590886D01*
X507362Y590932D01*
X507293Y591038D01*
X507232Y591148D01*
X507192Y591195D01*
X507173Y591225D01*
X507138Y591258D01*
X507073Y591335D01*
X503479Y594929D01*
X503380Y595008D01*
X503286Y595092D01*
X503243Y595116D01*
X503206Y595146D01*
X503091Y595200D01*
X502981Y595261D01*
X502934Y595274D01*
X502890Y595295D01*
X502767Y595321D01*
X502645Y595356D01*
X502584Y595361D01*
X502550Y595368D01*
X502502Y595367D01*
X502401Y595375D01*
X491331Y595375D01*
X491206Y595361D01*
X491080Y595355D01*
X491033Y595341D01*
X490984Y595335D01*
X490866Y595293D01*
X490745Y595258D01*
X490703Y595234D01*
X490656Y595218D01*
X490551Y595150D01*
X490441Y595089D01*
X490405Y595056D01*
X490363Y595029D01*
X490276Y594938D01*
X490183Y594854D01*
X490156Y594814D01*
X490121Y594778D01*
X490057Y594670D01*
X489986Y594567D01*
X489968Y594521D01*
X489942Y594479D01*
X489904Y594360D01*
X489858Y594243D01*
X489851Y594194D01*
X489836Y594147D01*
X489826Y594022D01*
X489808Y593898D01*
X489812Y593849D01*
X489808Y593800D01*
X489827Y593676D01*
X489837Y593551D01*
X489853Y593504D01*
X489860Y593455D01*
X489906Y593339D01*
X489945Y593219D01*
X489971Y593177D01*
X489989Y593131D01*
X490060Y593028D01*
X490125Y592921D01*
X490160Y592885D01*
X490188Y592845D01*
X490281Y592761D01*
X490368Y592671D01*
X490380Y592663D01*
X490903Y592140D01*
X491238Y591561D01*
X491411Y590915D01*
X491411Y587579D01*
X484846Y587579D01*
X484820Y587576D01*
X484794Y587578D01*
X484647Y587556D01*
X484500Y587539D01*
X484475Y587531D01*
X484449Y587527D01*
X484312Y587472D01*
X484172Y587422D01*
X484150Y587408D01*
X484125Y587398D01*
X484004Y587313D01*
X483879Y587233D01*
X483861Y587214D01*
X483839Y587199D01*
X483740Y587089D01*
X483637Y586982D01*
X483623Y586960D01*
X483606Y586940D01*
X483534Y586810D01*
X483458Y586683D01*
X483450Y586658D01*
X483437Y586635D01*
X483397Y586492D01*
X483352Y586351D01*
X483350Y586325D01*
X483343Y586300D01*
X483323Y586056D01*
X483323Y584104D01*
X483326Y584078D01*
X483324Y584052D01*
X483346Y583905D01*
X483363Y583758D01*
X483372Y583733D01*
X483376Y583707D01*
X483430Y583569D01*
X483480Y583430D01*
X483495Y583408D01*
X483504Y583383D01*
X483589Y583262D01*
X483669Y583137D01*
X483688Y583119D01*
X483703Y583097D01*
X483813Y582998D01*
X483920Y582895D01*
X483943Y582881D01*
X483962Y582864D01*
X484092Y582792D01*
X484219Y582716D01*
X484244Y582708D01*
X484267Y582695D01*
X484410Y582655D01*
X484551Y582610D01*
X484577Y582607D01*
X484602Y582600D01*
X484846Y582581D01*
X489723Y582581D01*
X489848Y582595D01*
X489974Y582602D01*
X490021Y582615D01*
X490069Y582621D01*
X490188Y582663D01*
X490309Y582698D01*
X490351Y582722D01*
X490397Y582738D01*
X490503Y582807D01*
X490613Y582868D01*
X490660Y582908D01*
X490690Y582927D01*
X490723Y582962D01*
X490800Y583027D01*
X491814Y584041D01*
X503866Y584041D01*
X504919Y582988D01*
X504998Y582926D01*
X505070Y582856D01*
X505134Y582818D01*
X505192Y582772D01*
X505283Y582729D01*
X505369Y582677D01*
X505440Y582654D01*
X505507Y582623D01*
X505605Y582602D01*
X505701Y582571D01*
X505775Y582565D01*
X505848Y582549D01*
X505948Y582551D01*
X506048Y582543D01*
X506122Y582554D01*
G37*
%LPC*%
G36*
X690583Y472467D02*
X690583Y472467D01*
X688367Y474683D01*
X688367Y477817D01*
X690583Y480033D01*
X693717Y480033D01*
X694259Y479491D01*
X694358Y479412D01*
X694452Y479328D01*
X694494Y479304D01*
X694532Y479274D01*
X694646Y479220D01*
X694757Y479159D01*
X694803Y479146D01*
X694847Y479125D01*
X694970Y479099D01*
X695092Y479064D01*
X695153Y479059D01*
X695188Y479052D01*
X695236Y479053D01*
X695336Y479045D01*
X709284Y479045D01*
X709410Y479059D01*
X709536Y479066D01*
X709582Y479079D01*
X709630Y479085D01*
X709749Y479127D01*
X709871Y479162D01*
X709913Y479186D01*
X709958Y479202D01*
X710065Y479271D01*
X710175Y479332D01*
X710221Y479372D01*
X710251Y479391D01*
X710285Y479426D01*
X710361Y479491D01*
X710903Y480033D01*
X714037Y480033D01*
X716253Y477817D01*
X716253Y474683D01*
X714037Y472467D01*
X710903Y472467D01*
X710361Y473009D01*
X710262Y473088D01*
X710168Y473172D01*
X710126Y473196D01*
X710088Y473226D01*
X709974Y473280D01*
X709863Y473341D01*
X709817Y473354D01*
X709773Y473375D01*
X709650Y473401D01*
X709528Y473436D01*
X709467Y473441D01*
X709432Y473448D01*
X709384Y473447D01*
X709284Y473455D01*
X695336Y473455D01*
X695210Y473441D01*
X695084Y473434D01*
X695038Y473421D01*
X694990Y473415D01*
X694871Y473373D01*
X694749Y473338D01*
X694707Y473314D01*
X694662Y473298D01*
X694555Y473229D01*
X694445Y473168D01*
X694399Y473128D01*
X694369Y473109D01*
X694335Y473074D01*
X694259Y473009D01*
X693717Y472467D01*
X690583Y472467D01*
G37*
%LPD*%
%LPC*%
G36*
X431814Y455669D02*
X431814Y455669D01*
X431814Y460086D01*
X447481Y460086D01*
X447481Y457875D01*
X447308Y457229D01*
X446973Y456650D01*
X446500Y456177D01*
X445921Y455842D01*
X445275Y455669D01*
X431814Y455669D01*
G37*
%LPD*%
%LPC*%
G36*
X994917Y480569D02*
X994917Y480569D01*
X994917Y486563D01*
X1001911Y486563D01*
X1001911Y482588D01*
X1001922Y482488D01*
X1001924Y482387D01*
X1001942Y482315D01*
X1001951Y482241D01*
X1001984Y482147D01*
X1002009Y482049D01*
X1002043Y481983D01*
X1002045Y481977D01*
X1002008Y481959D01*
X1001960Y481945D01*
X1001852Y481884D01*
X1001739Y481831D01*
X1001700Y481799D01*
X1001656Y481775D01*
X1001470Y481616D01*
X1000930Y481077D01*
X1000351Y480742D01*
X999705Y480569D01*
X994917Y480569D01*
G37*
%LPD*%
%LPC*%
G36*
X984035Y480569D02*
X984035Y480569D01*
X983389Y480742D01*
X982810Y481077D01*
X982337Y481550D01*
X982002Y482129D01*
X981829Y482775D01*
X981829Y486563D01*
X988823Y486563D01*
X988823Y480569D01*
X984035Y480569D01*
G37*
%LPD*%
D10*
X944880Y411785D02*
X944880Y426415D01*
X970280Y426415D02*
X970280Y411785D01*
X995680Y411785D02*
X995680Y426415D01*
X1021080Y426415D02*
X1021080Y411785D01*
X1046480Y411785D02*
X1046480Y426415D01*
X1046480Y564185D02*
X1046480Y578815D01*
X1021080Y578815D02*
X1021080Y564185D01*
X995680Y564185D02*
X995680Y578815D01*
X970280Y578815D02*
X970280Y564185D01*
X944880Y564185D02*
X944880Y578815D01*
X820420Y426415D02*
X820420Y411785D01*
X845820Y411785D02*
X845820Y426415D01*
X871220Y426415D02*
X871220Y411785D01*
X896620Y411785D02*
X896620Y426415D01*
X922020Y426415D02*
X922020Y411785D01*
X922020Y564185D02*
X922020Y578815D01*
X896620Y578815D02*
X896620Y564185D01*
X871220Y564185D02*
X871220Y578815D01*
X845820Y578815D02*
X845820Y564185D01*
X820420Y564185D02*
X820420Y578815D01*
X652780Y426415D02*
X652780Y411785D01*
X678180Y411785D02*
X678180Y426415D01*
X703580Y426415D02*
X703580Y411785D01*
X728980Y411785D02*
X728980Y426415D01*
X754380Y426415D02*
X754380Y411785D01*
X754380Y564185D02*
X754380Y578815D01*
X728980Y578815D02*
X728980Y564185D01*
X703580Y564185D02*
X703580Y578815D01*
X678180Y578815D02*
X678180Y564185D01*
X652780Y564185D02*
X652780Y578815D01*
X528320Y426415D02*
X528320Y411785D01*
X553720Y411785D02*
X553720Y426415D01*
X579120Y426415D02*
X579120Y411785D01*
X604520Y411785D02*
X604520Y426415D01*
X629920Y426415D02*
X629920Y411785D01*
X629920Y564185D02*
X629920Y578815D01*
X604520Y578815D02*
X604520Y564185D01*
X579120Y564185D02*
X579120Y578815D01*
X553720Y578815D02*
X553720Y564185D01*
X528320Y564185D02*
X528320Y578815D01*
D11*
X586780Y518050D03*
X586780Y511550D03*
X586780Y505050D03*
X586780Y498550D03*
X586780Y492050D03*
X586780Y485550D03*
X586780Y479050D03*
X586780Y472550D03*
X528280Y472550D03*
X528280Y479050D03*
X528280Y485550D03*
X528280Y492050D03*
X528280Y498550D03*
X528280Y505050D03*
X528280Y511550D03*
X528280Y518050D03*
D12*
X394910Y571970D03*
X402910Y571970D03*
X410910Y571970D03*
X418910Y571970D03*
X426910Y571970D03*
X434910Y571970D03*
X442910Y571970D03*
X450910Y571970D03*
D13*
X465290Y557590D03*
X465290Y549590D03*
X465290Y541590D03*
X465290Y533590D03*
X465290Y525590D03*
X465290Y517590D03*
X465290Y509590D03*
X465290Y501590D03*
D12*
X450910Y487210D03*
X442910Y487210D03*
X434910Y487210D03*
X426910Y487210D03*
X418910Y487210D03*
X410910Y487210D03*
X402910Y487210D03*
X394910Y487210D03*
D13*
X380530Y501590D03*
X380530Y509590D03*
X380530Y517590D03*
X380530Y525590D03*
X380530Y533590D03*
X380530Y541590D03*
X380530Y549590D03*
X380530Y557590D03*
D14*
X787400Y553720D03*
X787400Y528320D03*
D15*
X787400Y435610D03*
X787400Y461010D03*
D16*
X496410Y439420D03*
X476410Y439420D03*
X495140Y466090D03*
X475140Y466090D03*
D17*
X387940Y421960D03*
X429940Y421960D03*
X387940Y441960D03*
X429940Y441960D03*
X387940Y461960D03*
X429940Y461960D03*
D18*
X1017340Y512110D03*
X1017340Y505610D03*
X1017340Y499110D03*
X1017340Y492610D03*
X1017340Y486110D03*
D19*
X1011840Y521360D03*
X1011840Y476860D03*
D20*
X1032840Y464110D03*
X1032840Y534110D03*
D21*
X497840Y579770D03*
X497840Y565770D03*
D22*
X991870Y508610D03*
X991870Y489610D03*
D23*
X471170Y588890D03*
X471170Y571890D03*
X483870Y585080D03*
X483870Y568080D03*
D24*
X528320Y548640D03*
D25*
X652780Y548640D01*
D24*
X652780Y548640D03*
D25*
X820420Y556260D02*
X820420Y571500D01*
X820420Y556260D02*
X828040Y548640D01*
X930910Y548640D01*
X563880Y516890D02*
X532130Y548640D01*
X528320Y548640D01*
X563880Y486410D02*
X571500Y478790D01*
X586520Y478790D01*
X586780Y479050D01*
X563880Y486410D02*
X563880Y516890D01*
X930910Y548640D02*
X944880Y562610D01*
X944880Y571500D01*
X763270Y548640D02*
X652780Y548640D01*
X763270Y548640D02*
X770890Y556260D01*
X770890Y566420D01*
X775970Y571500D01*
X820420Y571500D01*
D24*
X553720Y542290D03*
D25*
X678180Y542290D01*
D24*
X678180Y542290D03*
X845820Y542290D03*
D25*
X845340Y543080D01*
X826481Y543080D01*
X803141Y566420D02*
X778510Y566420D01*
X803141Y566420D02*
X826481Y543080D01*
X570230Y519430D02*
X553720Y535940D01*
X553720Y542290D01*
X570230Y519430D02*
X570230Y488950D01*
X573630Y485550D01*
X586780Y485550D01*
X960120Y542290D02*
X970280Y552450D01*
X970280Y571500D01*
X960120Y542290D02*
X845820Y542290D01*
X778510Y566420D02*
X775462Y563372D01*
X775462Y554366D01*
X764882Y543786D01*
X726782Y543786D02*
X725286Y542290D01*
X678180Y542290D01*
X726782Y543786D02*
X764882Y543786D01*
D24*
X754380Y459740D03*
D25*
X782666Y472440D02*
X792135Y472440D01*
X769966Y459740D02*
X754380Y459740D01*
X769966Y459740D02*
X782666Y472440D01*
X792135Y472440D02*
X804835Y459740D01*
X890771Y459740D02*
X893791Y462760D01*
X921540Y462760D01*
X922020Y462280D01*
D24*
X922020Y462280D03*
D25*
X890771Y459740D02*
X804835Y459740D01*
X922020Y462280D02*
X986790Y462280D01*
X1010920Y438150D01*
X1046480Y434340D02*
X1046480Y419100D01*
X1042670Y438150D02*
X1010920Y438150D01*
X1042670Y438150D02*
X1046480Y434340D01*
D24*
X629920Y462280D03*
D25*
X751840Y462280D01*
X754380Y459740D01*
X541350Y511550D02*
X528280Y511550D01*
X541350Y511550D02*
X542290Y510610D01*
D24*
X542290Y510610D03*
X566420Y436090D03*
D25*
X566966Y436090D02*
X567502Y436626D01*
X566966Y436090D02*
X566420Y436090D01*
X567502Y436626D02*
X620014Y436626D01*
X629920Y426720D01*
X629920Y419100D01*
D24*
X528320Y438150D03*
X652780Y438150D03*
D25*
X758190Y438150D01*
X777240Y419100D01*
X820420Y419100D01*
X838200Y436880D01*
X932180Y436880D01*
X944880Y424180D01*
X944880Y419100D01*
X560070Y463550D02*
X543560Y447040D01*
X560070Y463550D02*
X596900Y463550D01*
X607060Y473710D01*
X597610Y492050D02*
X586780Y492050D01*
X607060Y482600D02*
X607060Y473710D01*
X607060Y482600D02*
X597610Y492050D01*
X556260Y438150D02*
X543560Y438150D01*
X556260Y438150D02*
X560070Y441960D01*
X648970Y441960D01*
X652780Y438150D01*
X543560Y438150D02*
X543560Y447040D01*
X543560Y438150D02*
X528320Y438150D01*
D24*
X553720Y447040D03*
X678180Y445770D03*
D25*
X623570Y447040D02*
X597690Y447040D01*
X624840Y448310D02*
X675640Y448310D01*
X624840Y448310D02*
X623570Y447040D01*
X675640Y448310D02*
X678180Y445770D01*
X681228Y442722D01*
X760084Y442722D01*
X779134Y423672D01*
X838962Y441452D02*
X845820Y448310D01*
X818708Y441452D02*
X800928Y423672D01*
X818708Y441452D02*
X838962Y441452D01*
D24*
X845820Y448310D03*
D25*
X800928Y423672D02*
X779134Y423672D01*
X845820Y448310D02*
X939800Y448310D01*
X969010Y419100D02*
X970280Y419100D01*
X969010Y419100D02*
X939800Y448310D01*
X597016Y499110D02*
X587340Y499110D01*
X586780Y498550D01*
X597690Y447040D02*
X597690Y446560D01*
X597690Y447040D02*
X597690Y456219D01*
X612140Y470669D01*
X612140Y483986D02*
X597016Y499110D01*
X612140Y483986D02*
X612140Y470669D01*
X597210Y447040D02*
X553720Y447040D01*
X597210Y447040D02*
X597690Y446560D01*
D24*
X617220Y454660D03*
X728980Y450850D03*
D25*
X725170Y454660D01*
X617220Y454660D01*
X728980Y450850D02*
X731520Y448310D01*
X836161Y448310D01*
X842991Y455140D01*
X895830Y455140D02*
X896620Y455930D01*
X895830Y455140D02*
X842991Y455140D01*
D24*
X896620Y455930D03*
D25*
X918711Y455930D01*
X919191Y455450D01*
X984730Y455450D02*
X1021080Y419100D01*
X984730Y455450D02*
X919191Y455450D01*
X617220Y454660D02*
X617220Y487680D01*
X599850Y505050D02*
X586780Y505050D01*
X599850Y505050D02*
X617220Y487680D01*
D24*
X629920Y530860D03*
D25*
X751840Y530860D02*
X754380Y528320D01*
X751840Y530860D02*
X629920Y530860D01*
D24*
X754380Y528320D03*
X922020Y528320D03*
D25*
X797215Y516890D02*
X777586Y516890D01*
X766156Y528320D02*
X754380Y528320D01*
X808645Y528320D02*
X922020Y528320D01*
X777586Y516890D02*
X766156Y528320D01*
X797215Y516890D02*
X808645Y528320D01*
X629920Y530860D02*
X629920Y518160D01*
X623310Y511550D02*
X586780Y511550D01*
X623310Y511550D02*
X629920Y518160D01*
X922020Y528320D02*
X986790Y528320D01*
X1012444Y553974D01*
X1022604Y553974D01*
X1022813Y553977D01*
X1023021Y553984D01*
X1023230Y553997D01*
X1023437Y554014D01*
X1023645Y554037D01*
X1023852Y554065D01*
X1024058Y554097D01*
X1024263Y554135D01*
X1024468Y554177D01*
X1024671Y554225D01*
X1024873Y554277D01*
X1025073Y554335D01*
X1025273Y554397D01*
X1025470Y554464D01*
X1025666Y554535D01*
X1025861Y554612D01*
X1026053Y554693D01*
X1026243Y554778D01*
X1026431Y554868D01*
X1026617Y554963D01*
X1026801Y555062D01*
X1026982Y555166D01*
X1027161Y555274D01*
X1027337Y555386D01*
X1027510Y555503D01*
X1027680Y555623D01*
X1027847Y555748D01*
X1028012Y555877D01*
X1028173Y556009D01*
X1028331Y556146D01*
X1028485Y556286D01*
X1028636Y556430D01*
X1028784Y556578D01*
X1028928Y556729D01*
X1029068Y556883D01*
X1029205Y557041D01*
X1029337Y557202D01*
X1029466Y557367D01*
X1029591Y557534D01*
X1029711Y557704D01*
X1029828Y557877D01*
X1029940Y558053D01*
X1030048Y558232D01*
X1030152Y558413D01*
X1030251Y558597D01*
X1030346Y558783D01*
X1030436Y558971D01*
X1030521Y559161D01*
X1030602Y559353D01*
X1030679Y559548D01*
X1030750Y559744D01*
X1030817Y559941D01*
X1030879Y560141D01*
X1030937Y560341D01*
X1030989Y560543D01*
X1031037Y560746D01*
X1031079Y560951D01*
X1031117Y561156D01*
X1031149Y561362D01*
X1031177Y561569D01*
X1031200Y561777D01*
X1031217Y561984D01*
X1031230Y562193D01*
X1031237Y562401D01*
X1031240Y562610D01*
X1040130Y571500D01*
X1046480Y571500D01*
D24*
X604520Y537210D03*
D25*
X728980Y537210D01*
D24*
X728980Y537210D03*
X896620Y534670D03*
D25*
X774700Y537210D02*
X728980Y537210D01*
X774700Y537210D02*
X778510Y541020D01*
X797560Y541020D01*
X803910Y534670D01*
X896620Y534670D01*
X604520Y537210D02*
X604520Y521970D01*
X600600Y518050D02*
X586780Y518050D01*
X600600Y518050D02*
X604520Y521970D01*
X984250Y534670D02*
X1021080Y571500D01*
X984250Y534670D02*
X896620Y534670D01*
D24*
X416560Y554990D03*
D25*
X408940Y554990D01*
X402910Y561020D02*
X402910Y571970D01*
X402910Y561020D02*
X408940Y554990D01*
D24*
X384810Y577850D03*
D25*
X389030Y577850D01*
X394910Y571970D01*
D24*
X403225Y591185D03*
D25*
X400685Y588645D01*
X387985Y588645D01*
X375450Y576110D01*
X375450Y562670D01*
X380530Y557590D01*
D24*
X394970Y594360D03*
D25*
X394843Y594487D01*
X386091Y594487D01*
X369570Y577966D02*
X369570Y551180D01*
X371160Y549590D01*
X380530Y549590D01*
X369570Y577966D02*
X386091Y594487D01*
D24*
X660400Y495300D03*
X808990Y494030D03*
X933450Y495300D03*
X1037590Y497840D03*
X449580Y462280D03*
X383540Y492760D03*
X426720Y558800D03*
X486410Y414020D03*
X556260Y474980D03*
X976630Y485140D03*
X599440Y478790D03*
X541020Y558800D03*
X665480Y557530D03*
X1013460Y544830D03*
X556260Y514350D03*
X419100Y528320D03*
D25*
X449580Y462280D02*
X449260Y461960D01*
X429940Y461960D01*
D24*
X615950Y528320D03*
D25*
X1016724Y486110D02*
X1017340Y486110D01*
X1016724Y486110D02*
X1015980Y486854D01*
X1007700Y486854D01*
X1007256Y486410D01*
X1005840Y486410D01*
X483870Y585080D02*
X474980Y585080D01*
X471170Y588890D01*
X458950Y421960D02*
X429940Y421960D01*
X458950Y421960D02*
X476410Y439420D01*
X475140Y440690D02*
X475140Y466090D01*
X475140Y440690D02*
X476410Y439420D01*
D24*
X443230Y497840D03*
D25*
X442910Y497520D02*
X442910Y487210D01*
X442910Y497520D02*
X443230Y497840D01*
D24*
X466062Y466570D03*
D25*
X474660Y466570D01*
X475140Y466090D01*
X475140Y477680D01*
X515510Y518050D01*
X528280Y518050D01*
X442910Y487210D02*
X442910Y478470D01*
X439420Y474980D01*
X429260Y474980D01*
X426910Y477330D01*
X426910Y487210D01*
X515510Y518050D02*
X515510Y529590D01*
X511700Y533400D01*
X418910Y571970D02*
X418910Y584010D01*
X433070Y598170D01*
X1016150Y512110D02*
X1017340Y512110D01*
X1016150Y512110D02*
X1015812Y511772D01*
X995032Y511772D02*
X991870Y508610D01*
X995032Y511772D02*
X1015812Y511772D01*
X737870Y520700D02*
X642620Y520700D01*
D24*
X642620Y520700D03*
X595630Y529590D03*
D25*
X568960Y529590D01*
D24*
X568960Y529590D03*
X515510Y529590D03*
D25*
X990600Y507340D02*
X991870Y508610D01*
X990600Y507340D02*
X751230Y507340D01*
X737870Y520700D01*
X546210Y518050D02*
X528280Y518050D01*
X546210Y518050D02*
X549402Y514858D01*
X549402Y483863D02*
X544589Y479050D01*
X528280Y479050D01*
X549402Y483863D02*
X549402Y514858D01*
X511700Y579346D02*
X510314Y580732D01*
X510314Y592046D01*
X504190Y598170D02*
X433070Y598170D01*
X504190Y598170D02*
X510314Y592046D01*
X511700Y579346D02*
X511700Y533400D01*
X518570Y485550D02*
X528280Y485550D01*
X518570Y485550D02*
X516890Y483870D01*
X509270Y483870D01*
D24*
X509270Y483870D03*
X440119Y509072D03*
D25*
X439601Y509590D01*
X380530Y509590D01*
X514910Y492050D02*
X528280Y492050D01*
X514910Y492050D02*
X514350Y491490D01*
D24*
X514350Y491490D03*
X440690Y516890D03*
D25*
X381230Y516890D01*
X380530Y517590D01*
X528280Y505050D02*
X537620Y505050D01*
X542290Y500380D01*
X542290Y486410D01*
D24*
X542290Y486410D03*
X393700Y502760D03*
D25*
X381700Y502760D01*
X380530Y501590D01*
D24*
X786130Y582930D03*
D25*
X525592Y594106D02*
X515620Y584134D01*
X784794Y582930D02*
X786130Y582930D01*
X784794Y582930D02*
X773618Y594106D01*
X525592Y594106D01*
X515620Y584134D02*
X515620Y582930D01*
D24*
X515620Y582930D03*
X504190Y553720D03*
D25*
X500380Y557530D01*
X465350Y557530D01*
X465290Y557590D01*
D24*
X712470Y476250D03*
D25*
X692150Y476250D01*
D24*
X692150Y476250D03*
X591820Y454660D03*
D25*
X566420Y454660D01*
D24*
X566420Y454660D03*
X506730Y516890D03*
D25*
X506730Y531010D02*
X488150Y549590D01*
X465290Y549590D01*
X506730Y531010D02*
X506730Y516890D01*
X387940Y461960D02*
X369824Y480076D01*
X372300Y533590D02*
X380530Y533590D01*
X369824Y531114D02*
X369824Y480076D01*
X369824Y531114D02*
X372300Y533590D01*
X477520Y505460D02*
X477520Y489540D01*
X430448Y442468D02*
X429940Y441960D01*
X430448Y442468D02*
X447664Y442468D01*
X460502Y472522D02*
X477520Y489540D01*
X460502Y455306D02*
X447664Y442468D01*
X460502Y455306D02*
X460502Y472522D01*
X477520Y505460D02*
X473390Y509590D01*
X465290Y509590D01*
X405450Y421960D02*
X387940Y421960D01*
X411480Y447040D02*
X414020Y449580D01*
X448310Y449580D01*
X455930Y457200D01*
X455930Y474980D01*
X461480Y480530D01*
X461480Y497780D02*
X465290Y501590D01*
X461480Y497780D02*
X461480Y480530D01*
X411480Y427990D02*
X405450Y421960D01*
X411480Y427990D02*
X411480Y447040D01*
X397510Y441960D02*
X387940Y441960D01*
X397510Y441960D02*
X410210Y454660D01*
X410210Y465291D02*
X414820Y469900D01*
X445770Y469900D01*
X450910Y475040D01*
X450910Y487210D01*
X410210Y465291D02*
X410210Y454660D01*
D24*
X508385Y501265D03*
D25*
X495140Y488021D01*
X495140Y466090D01*
X510540Y453550D02*
X496410Y439420D01*
X510540Y453550D02*
X510540Y469900D01*
D24*
X510540Y469900D03*
X410210Y584200D03*
D25*
X410210Y572670D02*
X410910Y571970D01*
X410210Y572670D02*
X410210Y584200D01*
D24*
X440690Y554990D03*
D25*
X434910Y560770D01*
X434910Y571970D01*
X442910Y571970D02*
X442910Y582610D01*
X445380Y585080D01*
X471170Y571890D02*
X473480Y569580D01*
X493011Y579770D02*
X497840Y579770D01*
X476066Y576786D02*
X471170Y571890D01*
X490027Y576786D02*
X493011Y579770D01*
X490027Y576786D02*
X476066Y576786D01*
X471170Y571890D02*
X457980Y585080D01*
X445380Y585080D01*
X518720Y498550D02*
X528280Y498550D01*
X515620Y501650D02*
X515620Y508000D01*
D24*
X515620Y508000D03*
D25*
X515620Y501650D02*
X518720Y498550D01*
D24*
X402590Y539750D03*
D25*
X400750Y541590D01*
X380530Y541590D01*
X483870Y568080D02*
X483870Y570230D01*
X486180Y565770D02*
X497840Y565770D01*
X486180Y565770D02*
X483870Y568080D01*
X477327Y563596D02*
X465013Y563596D01*
X463376Y565233D01*
X481811Y568080D02*
X483870Y568080D01*
X481811Y568080D02*
X477327Y563596D01*
X463376Y565233D02*
X463376Y565324D01*
X456730Y571970D02*
X450910Y571970D01*
X456730Y571970D02*
X463376Y565324D01*
M02*
