G04 EAGLE Gerber RS-274X export*
G75*
%MOMM*%
%FSLAX34Y34*%
%LPD*%
%INSilkscreen Bottom*%
%IPPOS*%
%AMOC8*
5,1,8,0,0,1.08239X$1,22.5*%
G01*
%ADD10C,0.200000*%
%ADD11C,0.400000*%
%ADD12R,0.650000X1.400000*%
%ADD13C,0.100000*%
%ADD14C,0.100000*%
%ADD15C,0.200000*%
%ADD16C,0.101600*%


D10*
X576030Y520300D02*
X539030Y520300D01*
X539030Y470300D01*
X576030Y470300D01*
X576030Y520300D01*
X579530Y523800D02*
X594030Y523800D01*
X391410Y498090D02*
X391410Y561090D01*
X391410Y498090D02*
X454410Y498090D01*
X454410Y561090D01*
X391410Y561090D01*
D11*
X380910Y575340D02*
X380912Y575429D01*
X380918Y575518D01*
X380928Y575607D01*
X380942Y575695D01*
X380959Y575782D01*
X380981Y575868D01*
X381007Y575954D01*
X381036Y576038D01*
X381069Y576121D01*
X381105Y576202D01*
X381146Y576282D01*
X381189Y576359D01*
X381236Y576435D01*
X381287Y576508D01*
X381340Y576579D01*
X381397Y576648D01*
X381457Y576714D01*
X381520Y576778D01*
X381585Y576838D01*
X381653Y576896D01*
X381724Y576950D01*
X381797Y577001D01*
X381872Y577049D01*
X381949Y577094D01*
X382028Y577135D01*
X382109Y577172D01*
X382191Y577206D01*
X382275Y577237D01*
X382360Y577263D01*
X382446Y577286D01*
X382533Y577304D01*
X382621Y577319D01*
X382710Y577330D01*
X382799Y577337D01*
X382888Y577340D01*
X382977Y577339D01*
X383066Y577334D01*
X383154Y577325D01*
X383243Y577312D01*
X383330Y577295D01*
X383417Y577275D01*
X383503Y577250D01*
X383587Y577222D01*
X383670Y577190D01*
X383752Y577154D01*
X383832Y577115D01*
X383910Y577072D01*
X383986Y577026D01*
X384060Y576976D01*
X384132Y576923D01*
X384201Y576867D01*
X384268Y576808D01*
X384332Y576746D01*
X384393Y576682D01*
X384452Y576614D01*
X384507Y576544D01*
X384559Y576472D01*
X384608Y576397D01*
X384653Y576321D01*
X384695Y576242D01*
X384733Y576162D01*
X384768Y576080D01*
X384799Y575996D01*
X384827Y575911D01*
X384850Y575825D01*
X384870Y575738D01*
X384886Y575651D01*
X384898Y575562D01*
X384906Y575474D01*
X384910Y575385D01*
X384910Y575295D01*
X384906Y575206D01*
X384898Y575118D01*
X384886Y575029D01*
X384870Y574942D01*
X384850Y574855D01*
X384827Y574769D01*
X384799Y574684D01*
X384768Y574600D01*
X384733Y574518D01*
X384695Y574438D01*
X384653Y574359D01*
X384608Y574283D01*
X384559Y574208D01*
X384507Y574136D01*
X384452Y574066D01*
X384393Y573998D01*
X384332Y573934D01*
X384268Y573872D01*
X384201Y573813D01*
X384132Y573757D01*
X384060Y573704D01*
X383986Y573654D01*
X383910Y573608D01*
X383832Y573565D01*
X383752Y573526D01*
X383670Y573490D01*
X383587Y573458D01*
X383503Y573430D01*
X383417Y573405D01*
X383330Y573385D01*
X383243Y573368D01*
X383154Y573355D01*
X383066Y573346D01*
X382977Y573341D01*
X382888Y573340D01*
X382799Y573343D01*
X382710Y573350D01*
X382621Y573361D01*
X382533Y573376D01*
X382446Y573394D01*
X382360Y573417D01*
X382275Y573443D01*
X382191Y573474D01*
X382109Y573508D01*
X382028Y573545D01*
X381949Y573586D01*
X381872Y573631D01*
X381797Y573679D01*
X381724Y573730D01*
X381653Y573784D01*
X381585Y573842D01*
X381520Y573902D01*
X381457Y573966D01*
X381397Y574032D01*
X381340Y574101D01*
X381287Y574172D01*
X381236Y574245D01*
X381189Y574321D01*
X381146Y574398D01*
X381105Y574478D01*
X381069Y574559D01*
X381036Y574642D01*
X381007Y574726D01*
X380981Y574812D01*
X380959Y574898D01*
X380942Y574985D01*
X380928Y575073D01*
X380918Y575162D01*
X380912Y575251D01*
X380910Y575340D01*
D12*
X479096Y439435D03*
X493828Y439435D03*
X477826Y466105D03*
X492558Y466105D03*
D10*
X428940Y411960D02*
X372940Y411960D01*
X388940Y471960D02*
X428940Y471960D01*
D13*
X1053340Y461610D02*
X1063340Y461610D01*
X1063340Y536610D01*
X1048340Y536610D01*
X1017340Y536610D02*
X1013340Y536610D01*
D14*
X1013340Y536610D03*
D13*
X1013340Y461610D02*
X1017340Y461610D01*
D14*
X1013340Y461610D03*
D15*
X1003590Y512110D03*
D10*
X1003588Y512048D01*
X1003582Y511987D01*
X1003573Y511926D01*
X1003560Y511866D01*
X1003543Y511807D01*
X1003522Y511749D01*
X1003498Y511692D01*
X1003471Y511637D01*
X1003440Y511584D01*
X1003406Y511532D01*
X1003369Y511483D01*
X1003329Y511436D01*
X1003286Y511392D01*
X1003241Y511351D01*
X1003193Y511312D01*
X1003142Y511276D01*
X1003090Y511244D01*
X1003036Y511215D01*
X1002980Y511189D01*
X1002922Y511167D01*
X1002864Y511148D01*
X1002804Y511133D01*
X1002743Y511122D01*
X1002682Y511114D01*
X1002621Y511110D01*
X1002559Y511110D01*
X1002498Y511114D01*
X1002437Y511122D01*
X1002376Y511133D01*
X1002316Y511148D01*
X1002258Y511167D01*
X1002200Y511189D01*
X1002144Y511215D01*
X1002090Y511244D01*
X1002038Y511276D01*
X1001987Y511312D01*
X1001939Y511351D01*
X1001894Y511392D01*
X1001851Y511436D01*
X1001811Y511483D01*
X1001774Y511532D01*
X1001740Y511584D01*
X1001709Y511637D01*
X1001682Y511692D01*
X1001658Y511749D01*
X1001637Y511807D01*
X1001620Y511866D01*
X1001607Y511926D01*
X1001598Y511987D01*
X1001592Y512048D01*
X1001590Y512110D01*
D15*
X1001590Y512110D03*
D10*
X1001592Y512172D01*
X1001598Y512233D01*
X1001607Y512294D01*
X1001620Y512354D01*
X1001637Y512413D01*
X1001658Y512471D01*
X1001682Y512528D01*
X1001709Y512583D01*
X1001740Y512636D01*
X1001774Y512688D01*
X1001811Y512737D01*
X1001851Y512784D01*
X1001894Y512828D01*
X1001939Y512869D01*
X1001987Y512908D01*
X1002038Y512944D01*
X1002090Y512976D01*
X1002144Y513005D01*
X1002200Y513031D01*
X1002258Y513053D01*
X1002316Y513072D01*
X1002376Y513087D01*
X1002437Y513098D01*
X1002498Y513106D01*
X1002559Y513110D01*
X1002621Y513110D01*
X1002682Y513106D01*
X1002743Y513098D01*
X1002804Y513087D01*
X1002864Y513072D01*
X1002922Y513053D01*
X1002980Y513031D01*
X1003036Y513005D01*
X1003090Y512976D01*
X1003142Y512944D01*
X1003193Y512908D01*
X1003241Y512869D01*
X1003286Y512828D01*
X1003329Y512784D01*
X1003369Y512737D01*
X1003406Y512688D01*
X1003440Y512636D01*
X1003471Y512583D01*
X1003498Y512528D01*
X1003522Y512471D01*
X1003543Y512413D01*
X1003560Y512354D01*
X1003573Y512294D01*
X1003582Y512233D01*
X1003588Y512172D01*
X1003590Y512110D01*
D13*
X491840Y571770D02*
X491840Y573770D01*
X503840Y573770D02*
X503840Y571770D01*
D16*
X465328Y571566D02*
X465328Y568969D01*
X465330Y568870D01*
X465336Y568770D01*
X465345Y568671D01*
X465358Y568573D01*
X465375Y568475D01*
X465396Y568377D01*
X465421Y568281D01*
X465449Y568186D01*
X465481Y568092D01*
X465516Y567999D01*
X465555Y567907D01*
X465598Y567817D01*
X465643Y567729D01*
X465693Y567642D01*
X465745Y567558D01*
X465801Y567475D01*
X465859Y567395D01*
X465921Y567317D01*
X465986Y567242D01*
X466054Y567169D01*
X466124Y567099D01*
X466197Y567031D01*
X466272Y566966D01*
X466350Y566904D01*
X466430Y566846D01*
X466513Y566790D01*
X466597Y566738D01*
X466684Y566688D01*
X466772Y566643D01*
X466862Y566600D01*
X466954Y566561D01*
X467047Y566526D01*
X467141Y566494D01*
X467236Y566466D01*
X467332Y566441D01*
X467430Y566420D01*
X467528Y566403D01*
X467626Y566390D01*
X467725Y566381D01*
X467825Y566375D01*
X467924Y566373D01*
X474416Y566373D01*
X474515Y566375D01*
X474615Y566381D01*
X474714Y566390D01*
X474812Y566403D01*
X474910Y566420D01*
X475008Y566441D01*
X475104Y566466D01*
X475199Y566494D01*
X475293Y566526D01*
X475386Y566561D01*
X475478Y566600D01*
X475568Y566643D01*
X475656Y566688D01*
X475743Y566738D01*
X475827Y566790D01*
X475910Y566846D01*
X475990Y566904D01*
X476068Y566966D01*
X476143Y567031D01*
X476216Y567099D01*
X476286Y567169D01*
X476354Y567242D01*
X476419Y567317D01*
X476481Y567395D01*
X476539Y567475D01*
X476595Y567558D01*
X476647Y567642D01*
X476697Y567729D01*
X476742Y567817D01*
X476785Y567907D01*
X476824Y567999D01*
X476859Y568091D01*
X476891Y568186D01*
X476919Y568281D01*
X476944Y568377D01*
X476965Y568475D01*
X476982Y568573D01*
X476995Y568671D01*
X477004Y568770D01*
X477010Y568870D01*
X477012Y568969D01*
X477012Y571566D01*
X465328Y575931D02*
X465328Y579176D01*
X465330Y579289D01*
X465336Y579402D01*
X465346Y579515D01*
X465360Y579628D01*
X465377Y579740D01*
X465399Y579851D01*
X465424Y579961D01*
X465454Y580071D01*
X465487Y580179D01*
X465524Y580286D01*
X465564Y580392D01*
X465609Y580496D01*
X465657Y580599D01*
X465708Y580700D01*
X465763Y580799D01*
X465821Y580896D01*
X465883Y580991D01*
X465948Y581084D01*
X466016Y581174D01*
X466087Y581262D01*
X466162Y581348D01*
X466239Y581431D01*
X466319Y581511D01*
X466402Y581588D01*
X466488Y581663D01*
X466576Y581734D01*
X466666Y581802D01*
X466759Y581867D01*
X466854Y581929D01*
X466951Y581987D01*
X467050Y582042D01*
X467151Y582093D01*
X467254Y582141D01*
X467358Y582186D01*
X467464Y582226D01*
X467571Y582263D01*
X467679Y582296D01*
X467789Y582326D01*
X467899Y582351D01*
X468010Y582373D01*
X468122Y582390D01*
X468235Y582404D01*
X468348Y582414D01*
X468461Y582420D01*
X468574Y582422D01*
X468687Y582420D01*
X468800Y582414D01*
X468913Y582404D01*
X469026Y582390D01*
X469138Y582373D01*
X469249Y582351D01*
X469359Y582326D01*
X469469Y582296D01*
X469577Y582263D01*
X469684Y582226D01*
X469790Y582186D01*
X469894Y582141D01*
X469997Y582093D01*
X470098Y582042D01*
X470197Y581987D01*
X470294Y581929D01*
X470389Y581867D01*
X470482Y581802D01*
X470572Y581734D01*
X470660Y581663D01*
X470746Y581588D01*
X470829Y581511D01*
X470909Y581431D01*
X470986Y581348D01*
X471061Y581262D01*
X471132Y581174D01*
X471200Y581084D01*
X471265Y580991D01*
X471327Y580896D01*
X471385Y580799D01*
X471440Y580700D01*
X471491Y580599D01*
X471539Y580496D01*
X471584Y580392D01*
X471624Y580286D01*
X471661Y580179D01*
X471694Y580071D01*
X471724Y579961D01*
X471749Y579851D01*
X471771Y579740D01*
X471788Y579628D01*
X471802Y579515D01*
X471812Y579402D01*
X471818Y579289D01*
X471820Y579176D01*
X477012Y579826D02*
X477012Y575931D01*
X477012Y579826D02*
X477010Y579927D01*
X477004Y580027D01*
X476994Y580127D01*
X476981Y580227D01*
X476963Y580326D01*
X476942Y580425D01*
X476917Y580522D01*
X476888Y580619D01*
X476855Y580714D01*
X476819Y580808D01*
X476779Y580900D01*
X476736Y580991D01*
X476689Y581080D01*
X476639Y581167D01*
X476585Y581253D01*
X476528Y581336D01*
X476468Y581416D01*
X476405Y581495D01*
X476338Y581571D01*
X476269Y581644D01*
X476197Y581714D01*
X476123Y581782D01*
X476046Y581847D01*
X475966Y581908D01*
X475884Y581967D01*
X475800Y582022D01*
X475714Y582074D01*
X475626Y582123D01*
X475536Y582168D01*
X475444Y582210D01*
X475351Y582248D01*
X475256Y582282D01*
X475161Y582313D01*
X475064Y582340D01*
X474966Y582363D01*
X474867Y582383D01*
X474767Y582398D01*
X474667Y582410D01*
X474567Y582418D01*
X474466Y582422D01*
X474366Y582422D01*
X474265Y582418D01*
X474165Y582410D01*
X474065Y582398D01*
X473965Y582383D01*
X473866Y582363D01*
X473768Y582340D01*
X473671Y582313D01*
X473576Y582282D01*
X473481Y582248D01*
X473388Y582210D01*
X473296Y582168D01*
X473206Y582123D01*
X473118Y582074D01*
X473032Y582022D01*
X472948Y581967D01*
X472866Y581908D01*
X472786Y581847D01*
X472709Y581782D01*
X472635Y581714D01*
X472563Y581644D01*
X472494Y581571D01*
X472427Y581495D01*
X472364Y581416D01*
X472304Y581336D01*
X472247Y581253D01*
X472193Y581167D01*
X472143Y581080D01*
X472096Y580991D01*
X472053Y580900D01*
X472013Y580808D01*
X471977Y580714D01*
X471944Y580619D01*
X471915Y580522D01*
X471890Y580425D01*
X471869Y580326D01*
X471851Y580227D01*
X471838Y580127D01*
X471828Y580027D01*
X471822Y579927D01*
X471820Y579826D01*
X471819Y579826D02*
X471819Y577229D01*
M02*
