G04 EAGLE Gerber RS-274X export*
G75*
%MOMM*%
%FSLAX34Y34*%
%LPD*%
%INSilkscreen Top*%
%IPPOS*%
%AMOC8*
5,1,8,0,0,1.08239X$1,22.5*%
G01*
%ADD10C,0.152400*%
%ADD11C,0.254000*%
%ADD12C,1.016000*%
%ADD13C,0.762000*%
%ADD14C,0.508000*%
%ADD15C,0.660400*%
%ADD16C,0.406400*%
%ADD17R,0.635000X0.508000*%
%ADD18R,0.508000X0.508000*%
%ADD19R,0.381000X0.508000*%
%ADD20R,0.381000X0.254000*%
%ADD21R,0.508000X0.254000*%
%ADD22C,0.015238*%
%ADD23C,0.025400*%
%ADD24C,0.127000*%
%ADD25R,0.650000X1.400000*%
%ADD26C,0.100000*%
%ADD27C,0.200000*%
%ADD28C,0.200000*%
%ADD29C,0.101600*%


D10*
X1056640Y408940D02*
X1056640Y581660D01*
X934720Y581660D01*
X934720Y408940D01*
X1056640Y408940D01*
D11*
X1030986Y542798D02*
X1039876Y549910D01*
X1044448Y546608D01*
X1024128Y505714D02*
X1035558Y499364D01*
X1044448Y546608D01*
X1030986Y542798D02*
X1024128Y505714D01*
X1021080Y501650D02*
X1032510Y495300D01*
X1027430Y546100D02*
X1036066Y552958D01*
X1028446Y558800D01*
X1032510Y495300D02*
X1019810Y488950D01*
X1020318Y483362D02*
X1033780Y490220D01*
X1024890Y441198D01*
X1013714Y447802D02*
X1020318Y483362D01*
X1010412Y444500D02*
X1018032Y435356D01*
X1013968Y431800D01*
X1021588Y438404D02*
X1013714Y447802D01*
X1021588Y438404D02*
X1024890Y441198D01*
X970280Y488950D02*
X958850Y495300D01*
X963930Y444500D02*
X955294Y437642D01*
X962914Y431800D01*
X1013968Y431800D01*
X1010412Y444500D02*
X963930Y444500D01*
X970280Y488950D02*
X1019810Y488950D01*
X971550Y501650D02*
X958850Y495300D01*
X971550Y501650D02*
X1021080Y501650D01*
X980948Y546100D02*
X973328Y555244D01*
X977392Y558800D01*
X1028446Y558800D01*
X1027430Y546100D02*
X980948Y546100D01*
D12*
X962660Y438150D02*
X1009650Y438150D01*
X1019810Y448310D02*
X1026160Y480060D01*
X1022350Y495300D02*
X969010Y495300D01*
D13*
X1021080Y443230D02*
X1022350Y444500D01*
D12*
X1031240Y509270D02*
X1037590Y542290D01*
D14*
X1040130Y546100D02*
X1041400Y544830D01*
D15*
X1027430Y508000D02*
X1033780Y504190D01*
D12*
X1028700Y552450D02*
X981710Y552450D01*
D16*
X979170Y557530D02*
X975360Y553720D01*
D11*
X960374Y447802D02*
X951484Y440690D01*
X946912Y443992D01*
X967232Y484886D02*
X955802Y491236D01*
X946912Y443992D01*
X960374Y447802D02*
X967232Y484886D01*
X957580Y500380D02*
X971042Y507238D01*
X957580Y500380D02*
X966470Y549402D01*
X977646Y542798D02*
X971042Y507238D01*
X977646Y542798D02*
X969772Y552196D01*
X966470Y549402D01*
D12*
X971550Y542290D02*
X965200Y510540D01*
D13*
X969010Y546100D02*
X970280Y547370D01*
D12*
X960120Y481330D02*
X953770Y448310D01*
D14*
X951230Y444500D02*
X949960Y445770D01*
D15*
X963930Y482600D02*
X957580Y486410D01*
D13*
X1037590Y438150D02*
X1037592Y438273D01*
X1037598Y438397D01*
X1037608Y438520D01*
X1037622Y438642D01*
X1037640Y438764D01*
X1037662Y438886D01*
X1037687Y439006D01*
X1037717Y439126D01*
X1037751Y439245D01*
X1037788Y439363D01*
X1037829Y439479D01*
X1037874Y439594D01*
X1037923Y439707D01*
X1037975Y439819D01*
X1038031Y439929D01*
X1038090Y440037D01*
X1038153Y440143D01*
X1038219Y440247D01*
X1038289Y440349D01*
X1038362Y440449D01*
X1038438Y440546D01*
X1038517Y440641D01*
X1038599Y440733D01*
X1038684Y440822D01*
X1038772Y440909D01*
X1038863Y440992D01*
X1038956Y441073D01*
X1039052Y441151D01*
X1039151Y441225D01*
X1039251Y441296D01*
X1039354Y441364D01*
X1039459Y441429D01*
X1039567Y441490D01*
X1039676Y441548D01*
X1039787Y441602D01*
X1039899Y441652D01*
X1040014Y441699D01*
X1040129Y441742D01*
X1040246Y441781D01*
X1040364Y441817D01*
X1040484Y441848D01*
X1040604Y441876D01*
X1040725Y441900D01*
X1040847Y441920D01*
X1040969Y441936D01*
X1041092Y441948D01*
X1041215Y441956D01*
X1041338Y441960D01*
X1041462Y441960D01*
X1041585Y441956D01*
X1041708Y441948D01*
X1041831Y441936D01*
X1041953Y441920D01*
X1042075Y441900D01*
X1042196Y441876D01*
X1042316Y441848D01*
X1042436Y441817D01*
X1042554Y441781D01*
X1042671Y441742D01*
X1042786Y441699D01*
X1042901Y441652D01*
X1043013Y441602D01*
X1043124Y441548D01*
X1043233Y441490D01*
X1043341Y441429D01*
X1043446Y441364D01*
X1043549Y441296D01*
X1043649Y441225D01*
X1043748Y441151D01*
X1043844Y441073D01*
X1043937Y440992D01*
X1044028Y440909D01*
X1044116Y440822D01*
X1044201Y440733D01*
X1044283Y440641D01*
X1044362Y440546D01*
X1044438Y440449D01*
X1044511Y440349D01*
X1044581Y440247D01*
X1044647Y440143D01*
X1044710Y440037D01*
X1044769Y439929D01*
X1044825Y439819D01*
X1044877Y439707D01*
X1044926Y439594D01*
X1044971Y439479D01*
X1045012Y439363D01*
X1045049Y439245D01*
X1045083Y439126D01*
X1045113Y439006D01*
X1045138Y438886D01*
X1045160Y438764D01*
X1045178Y438642D01*
X1045192Y438520D01*
X1045202Y438397D01*
X1045208Y438273D01*
X1045210Y438150D01*
X1045208Y438027D01*
X1045202Y437903D01*
X1045192Y437780D01*
X1045178Y437658D01*
X1045160Y437536D01*
X1045138Y437414D01*
X1045113Y437294D01*
X1045083Y437174D01*
X1045049Y437055D01*
X1045012Y436937D01*
X1044971Y436821D01*
X1044926Y436706D01*
X1044877Y436593D01*
X1044825Y436481D01*
X1044769Y436371D01*
X1044710Y436263D01*
X1044647Y436157D01*
X1044581Y436053D01*
X1044511Y435951D01*
X1044438Y435851D01*
X1044362Y435754D01*
X1044283Y435659D01*
X1044201Y435567D01*
X1044116Y435478D01*
X1044028Y435391D01*
X1043937Y435308D01*
X1043844Y435227D01*
X1043748Y435149D01*
X1043649Y435075D01*
X1043549Y435004D01*
X1043446Y434936D01*
X1043341Y434871D01*
X1043233Y434810D01*
X1043124Y434752D01*
X1043013Y434698D01*
X1042901Y434648D01*
X1042786Y434601D01*
X1042671Y434558D01*
X1042554Y434519D01*
X1042436Y434483D01*
X1042316Y434452D01*
X1042196Y434424D01*
X1042075Y434400D01*
X1041953Y434380D01*
X1041831Y434364D01*
X1041708Y434352D01*
X1041585Y434344D01*
X1041462Y434340D01*
X1041338Y434340D01*
X1041215Y434344D01*
X1041092Y434352D01*
X1040969Y434364D01*
X1040847Y434380D01*
X1040725Y434400D01*
X1040604Y434424D01*
X1040484Y434452D01*
X1040364Y434483D01*
X1040246Y434519D01*
X1040129Y434558D01*
X1040014Y434601D01*
X1039899Y434648D01*
X1039787Y434698D01*
X1039676Y434752D01*
X1039567Y434810D01*
X1039459Y434871D01*
X1039354Y434936D01*
X1039251Y435004D01*
X1039151Y435075D01*
X1039052Y435149D01*
X1038956Y435227D01*
X1038863Y435308D01*
X1038772Y435391D01*
X1038684Y435478D01*
X1038599Y435567D01*
X1038517Y435659D01*
X1038438Y435754D01*
X1038362Y435851D01*
X1038289Y435951D01*
X1038219Y436053D01*
X1038153Y436157D01*
X1038090Y436263D01*
X1038031Y436371D01*
X1037975Y436481D01*
X1037923Y436593D01*
X1037874Y436706D01*
X1037829Y436821D01*
X1037788Y436937D01*
X1037751Y437055D01*
X1037717Y437174D01*
X1037687Y437294D01*
X1037662Y437414D01*
X1037640Y437536D01*
X1037622Y437658D01*
X1037608Y437780D01*
X1037598Y437903D01*
X1037592Y438027D01*
X1037590Y438150D01*
D17*
X1014095Y435610D03*
D18*
X1029970Y485140D03*
D19*
X1028065Y495300D03*
D20*
X963295Y495300D03*
D18*
X961390Y505460D03*
D21*
X1041400Y438150D03*
D10*
X932180Y408940D02*
X932180Y581660D01*
X810260Y581660D01*
X810260Y408940D01*
X932180Y408940D01*
D11*
X906526Y542798D02*
X915416Y549910D01*
X919988Y546608D01*
X899668Y505714D02*
X911098Y499364D01*
X919988Y546608D01*
X906526Y542798D02*
X899668Y505714D01*
X896620Y501650D02*
X908050Y495300D01*
X902970Y546100D02*
X911606Y552958D01*
X903986Y558800D01*
X908050Y495300D02*
X895350Y488950D01*
X895858Y483362D02*
X909320Y490220D01*
X900430Y441198D01*
X889254Y447802D02*
X895858Y483362D01*
X885952Y444500D02*
X893572Y435356D01*
X889508Y431800D01*
X897128Y438404D02*
X889254Y447802D01*
X897128Y438404D02*
X900430Y441198D01*
X845820Y488950D02*
X834390Y495300D01*
X839470Y444500D02*
X830834Y437642D01*
X838454Y431800D01*
X889508Y431800D01*
X885952Y444500D02*
X839470Y444500D01*
X845820Y488950D02*
X895350Y488950D01*
X847090Y501650D02*
X834390Y495300D01*
X847090Y501650D02*
X896620Y501650D01*
X856488Y546100D02*
X848868Y555244D01*
X852932Y558800D01*
X903986Y558800D01*
X902970Y546100D02*
X856488Y546100D01*
D12*
X838200Y438150D02*
X885190Y438150D01*
X895350Y448310D02*
X901700Y480060D01*
X897890Y495300D02*
X844550Y495300D01*
D13*
X896620Y443230D02*
X897890Y444500D01*
D12*
X906780Y509270D02*
X913130Y542290D01*
D14*
X915670Y546100D02*
X916940Y544830D01*
D15*
X902970Y508000D02*
X909320Y504190D01*
D12*
X904240Y552450D02*
X857250Y552450D01*
D16*
X854710Y557530D02*
X850900Y553720D01*
D11*
X835914Y447802D02*
X827024Y440690D01*
X822452Y443992D01*
X842772Y484886D02*
X831342Y491236D01*
X822452Y443992D01*
X835914Y447802D02*
X842772Y484886D01*
X833120Y500380D02*
X846582Y507238D01*
X833120Y500380D02*
X842010Y549402D01*
X853186Y542798D02*
X846582Y507238D01*
X853186Y542798D02*
X845312Y552196D01*
X842010Y549402D01*
D12*
X847090Y542290D02*
X840740Y510540D01*
D13*
X844550Y546100D02*
X845820Y547370D01*
D12*
X835660Y481330D02*
X829310Y448310D01*
D14*
X826770Y444500D02*
X825500Y445770D01*
D15*
X839470Y482600D02*
X833120Y486410D01*
D13*
X913130Y438150D02*
X913132Y438273D01*
X913138Y438397D01*
X913148Y438520D01*
X913162Y438642D01*
X913180Y438764D01*
X913202Y438886D01*
X913227Y439006D01*
X913257Y439126D01*
X913291Y439245D01*
X913328Y439363D01*
X913369Y439479D01*
X913414Y439594D01*
X913463Y439707D01*
X913515Y439819D01*
X913571Y439929D01*
X913630Y440037D01*
X913693Y440143D01*
X913759Y440247D01*
X913829Y440349D01*
X913902Y440449D01*
X913978Y440546D01*
X914057Y440641D01*
X914139Y440733D01*
X914224Y440822D01*
X914312Y440909D01*
X914403Y440992D01*
X914496Y441073D01*
X914592Y441151D01*
X914691Y441225D01*
X914791Y441296D01*
X914894Y441364D01*
X914999Y441429D01*
X915107Y441490D01*
X915216Y441548D01*
X915327Y441602D01*
X915439Y441652D01*
X915554Y441699D01*
X915669Y441742D01*
X915786Y441781D01*
X915904Y441817D01*
X916024Y441848D01*
X916144Y441876D01*
X916265Y441900D01*
X916387Y441920D01*
X916509Y441936D01*
X916632Y441948D01*
X916755Y441956D01*
X916878Y441960D01*
X917002Y441960D01*
X917125Y441956D01*
X917248Y441948D01*
X917371Y441936D01*
X917493Y441920D01*
X917615Y441900D01*
X917736Y441876D01*
X917856Y441848D01*
X917976Y441817D01*
X918094Y441781D01*
X918211Y441742D01*
X918326Y441699D01*
X918441Y441652D01*
X918553Y441602D01*
X918664Y441548D01*
X918773Y441490D01*
X918881Y441429D01*
X918986Y441364D01*
X919089Y441296D01*
X919189Y441225D01*
X919288Y441151D01*
X919384Y441073D01*
X919477Y440992D01*
X919568Y440909D01*
X919656Y440822D01*
X919741Y440733D01*
X919823Y440641D01*
X919902Y440546D01*
X919978Y440449D01*
X920051Y440349D01*
X920121Y440247D01*
X920187Y440143D01*
X920250Y440037D01*
X920309Y439929D01*
X920365Y439819D01*
X920417Y439707D01*
X920466Y439594D01*
X920511Y439479D01*
X920552Y439363D01*
X920589Y439245D01*
X920623Y439126D01*
X920653Y439006D01*
X920678Y438886D01*
X920700Y438764D01*
X920718Y438642D01*
X920732Y438520D01*
X920742Y438397D01*
X920748Y438273D01*
X920750Y438150D01*
X920748Y438027D01*
X920742Y437903D01*
X920732Y437780D01*
X920718Y437658D01*
X920700Y437536D01*
X920678Y437414D01*
X920653Y437294D01*
X920623Y437174D01*
X920589Y437055D01*
X920552Y436937D01*
X920511Y436821D01*
X920466Y436706D01*
X920417Y436593D01*
X920365Y436481D01*
X920309Y436371D01*
X920250Y436263D01*
X920187Y436157D01*
X920121Y436053D01*
X920051Y435951D01*
X919978Y435851D01*
X919902Y435754D01*
X919823Y435659D01*
X919741Y435567D01*
X919656Y435478D01*
X919568Y435391D01*
X919477Y435308D01*
X919384Y435227D01*
X919288Y435149D01*
X919189Y435075D01*
X919089Y435004D01*
X918986Y434936D01*
X918881Y434871D01*
X918773Y434810D01*
X918664Y434752D01*
X918553Y434698D01*
X918441Y434648D01*
X918326Y434601D01*
X918211Y434558D01*
X918094Y434519D01*
X917976Y434483D01*
X917856Y434452D01*
X917736Y434424D01*
X917615Y434400D01*
X917493Y434380D01*
X917371Y434364D01*
X917248Y434352D01*
X917125Y434344D01*
X917002Y434340D01*
X916878Y434340D01*
X916755Y434344D01*
X916632Y434352D01*
X916509Y434364D01*
X916387Y434380D01*
X916265Y434400D01*
X916144Y434424D01*
X916024Y434452D01*
X915904Y434483D01*
X915786Y434519D01*
X915669Y434558D01*
X915554Y434601D01*
X915439Y434648D01*
X915327Y434698D01*
X915216Y434752D01*
X915107Y434810D01*
X914999Y434871D01*
X914894Y434936D01*
X914791Y435004D01*
X914691Y435075D01*
X914592Y435149D01*
X914496Y435227D01*
X914403Y435308D01*
X914312Y435391D01*
X914224Y435478D01*
X914139Y435567D01*
X914057Y435659D01*
X913978Y435754D01*
X913902Y435851D01*
X913829Y435951D01*
X913759Y436053D01*
X913693Y436157D01*
X913630Y436263D01*
X913571Y436371D01*
X913515Y436481D01*
X913463Y436593D01*
X913414Y436706D01*
X913369Y436821D01*
X913328Y436937D01*
X913291Y437055D01*
X913257Y437174D01*
X913227Y437294D01*
X913202Y437414D01*
X913180Y437536D01*
X913162Y437658D01*
X913148Y437780D01*
X913138Y437903D01*
X913132Y438027D01*
X913130Y438150D01*
D17*
X889635Y435610D03*
D18*
X905510Y485140D03*
D19*
X903605Y495300D03*
D20*
X838835Y495300D03*
D18*
X836930Y505460D03*
D21*
X916940Y438150D03*
D10*
X764540Y408940D02*
X764540Y581660D01*
X642620Y581660D01*
X642620Y408940D01*
X764540Y408940D01*
D11*
X738886Y542798D02*
X747776Y549910D01*
X752348Y546608D01*
X732028Y505714D02*
X743458Y499364D01*
X752348Y546608D01*
X738886Y542798D02*
X732028Y505714D01*
X728980Y501650D02*
X740410Y495300D01*
X735330Y546100D02*
X743966Y552958D01*
X736346Y558800D01*
X740410Y495300D02*
X727710Y488950D01*
X728218Y483362D02*
X741680Y490220D01*
X732790Y441198D01*
X721614Y447802D02*
X728218Y483362D01*
X718312Y444500D02*
X725932Y435356D01*
X721868Y431800D01*
X729488Y438404D02*
X721614Y447802D01*
X729488Y438404D02*
X732790Y441198D01*
X678180Y488950D02*
X666750Y495300D01*
X671830Y444500D02*
X663194Y437642D01*
X670814Y431800D01*
X721868Y431800D01*
X718312Y444500D02*
X671830Y444500D01*
X678180Y488950D02*
X727710Y488950D01*
X679450Y501650D02*
X666750Y495300D01*
X679450Y501650D02*
X728980Y501650D01*
X688848Y546100D02*
X681228Y555244D01*
X685292Y558800D01*
X736346Y558800D01*
X735330Y546100D02*
X688848Y546100D01*
D12*
X670560Y438150D02*
X717550Y438150D01*
X727710Y448310D02*
X734060Y480060D01*
X730250Y495300D02*
X676910Y495300D01*
D13*
X728980Y443230D02*
X730250Y444500D01*
D12*
X739140Y509270D02*
X745490Y542290D01*
D14*
X748030Y546100D02*
X749300Y544830D01*
D15*
X735330Y508000D02*
X741680Y504190D01*
D12*
X736600Y552450D02*
X689610Y552450D01*
D16*
X687070Y557530D02*
X683260Y553720D01*
D11*
X668274Y447802D02*
X659384Y440690D01*
X654812Y443992D01*
X675132Y484886D02*
X663702Y491236D01*
X654812Y443992D01*
X668274Y447802D02*
X675132Y484886D01*
X665480Y500380D02*
X678942Y507238D01*
X665480Y500380D02*
X674370Y549402D01*
X685546Y542798D02*
X678942Y507238D01*
X685546Y542798D02*
X677672Y552196D01*
X674370Y549402D01*
D12*
X679450Y542290D02*
X673100Y510540D01*
D13*
X676910Y546100D02*
X678180Y547370D01*
D12*
X668020Y481330D02*
X661670Y448310D01*
D14*
X659130Y444500D02*
X657860Y445770D01*
D15*
X671830Y482600D02*
X665480Y486410D01*
D13*
X745490Y438150D02*
X745492Y438273D01*
X745498Y438397D01*
X745508Y438520D01*
X745522Y438642D01*
X745540Y438764D01*
X745562Y438886D01*
X745587Y439006D01*
X745617Y439126D01*
X745651Y439245D01*
X745688Y439363D01*
X745729Y439479D01*
X745774Y439594D01*
X745823Y439707D01*
X745875Y439819D01*
X745931Y439929D01*
X745990Y440037D01*
X746053Y440143D01*
X746119Y440247D01*
X746189Y440349D01*
X746262Y440449D01*
X746338Y440546D01*
X746417Y440641D01*
X746499Y440733D01*
X746584Y440822D01*
X746672Y440909D01*
X746763Y440992D01*
X746856Y441073D01*
X746952Y441151D01*
X747051Y441225D01*
X747151Y441296D01*
X747254Y441364D01*
X747359Y441429D01*
X747467Y441490D01*
X747576Y441548D01*
X747687Y441602D01*
X747799Y441652D01*
X747914Y441699D01*
X748029Y441742D01*
X748146Y441781D01*
X748264Y441817D01*
X748384Y441848D01*
X748504Y441876D01*
X748625Y441900D01*
X748747Y441920D01*
X748869Y441936D01*
X748992Y441948D01*
X749115Y441956D01*
X749238Y441960D01*
X749362Y441960D01*
X749485Y441956D01*
X749608Y441948D01*
X749731Y441936D01*
X749853Y441920D01*
X749975Y441900D01*
X750096Y441876D01*
X750216Y441848D01*
X750336Y441817D01*
X750454Y441781D01*
X750571Y441742D01*
X750686Y441699D01*
X750801Y441652D01*
X750913Y441602D01*
X751024Y441548D01*
X751133Y441490D01*
X751241Y441429D01*
X751346Y441364D01*
X751449Y441296D01*
X751549Y441225D01*
X751648Y441151D01*
X751744Y441073D01*
X751837Y440992D01*
X751928Y440909D01*
X752016Y440822D01*
X752101Y440733D01*
X752183Y440641D01*
X752262Y440546D01*
X752338Y440449D01*
X752411Y440349D01*
X752481Y440247D01*
X752547Y440143D01*
X752610Y440037D01*
X752669Y439929D01*
X752725Y439819D01*
X752777Y439707D01*
X752826Y439594D01*
X752871Y439479D01*
X752912Y439363D01*
X752949Y439245D01*
X752983Y439126D01*
X753013Y439006D01*
X753038Y438886D01*
X753060Y438764D01*
X753078Y438642D01*
X753092Y438520D01*
X753102Y438397D01*
X753108Y438273D01*
X753110Y438150D01*
X753108Y438027D01*
X753102Y437903D01*
X753092Y437780D01*
X753078Y437658D01*
X753060Y437536D01*
X753038Y437414D01*
X753013Y437294D01*
X752983Y437174D01*
X752949Y437055D01*
X752912Y436937D01*
X752871Y436821D01*
X752826Y436706D01*
X752777Y436593D01*
X752725Y436481D01*
X752669Y436371D01*
X752610Y436263D01*
X752547Y436157D01*
X752481Y436053D01*
X752411Y435951D01*
X752338Y435851D01*
X752262Y435754D01*
X752183Y435659D01*
X752101Y435567D01*
X752016Y435478D01*
X751928Y435391D01*
X751837Y435308D01*
X751744Y435227D01*
X751648Y435149D01*
X751549Y435075D01*
X751449Y435004D01*
X751346Y434936D01*
X751241Y434871D01*
X751133Y434810D01*
X751024Y434752D01*
X750913Y434698D01*
X750801Y434648D01*
X750686Y434601D01*
X750571Y434558D01*
X750454Y434519D01*
X750336Y434483D01*
X750216Y434452D01*
X750096Y434424D01*
X749975Y434400D01*
X749853Y434380D01*
X749731Y434364D01*
X749608Y434352D01*
X749485Y434344D01*
X749362Y434340D01*
X749238Y434340D01*
X749115Y434344D01*
X748992Y434352D01*
X748869Y434364D01*
X748747Y434380D01*
X748625Y434400D01*
X748504Y434424D01*
X748384Y434452D01*
X748264Y434483D01*
X748146Y434519D01*
X748029Y434558D01*
X747914Y434601D01*
X747799Y434648D01*
X747687Y434698D01*
X747576Y434752D01*
X747467Y434810D01*
X747359Y434871D01*
X747254Y434936D01*
X747151Y435004D01*
X747051Y435075D01*
X746952Y435149D01*
X746856Y435227D01*
X746763Y435308D01*
X746672Y435391D01*
X746584Y435478D01*
X746499Y435567D01*
X746417Y435659D01*
X746338Y435754D01*
X746262Y435851D01*
X746189Y435951D01*
X746119Y436053D01*
X746053Y436157D01*
X745990Y436263D01*
X745931Y436371D01*
X745875Y436481D01*
X745823Y436593D01*
X745774Y436706D01*
X745729Y436821D01*
X745688Y436937D01*
X745651Y437055D01*
X745617Y437174D01*
X745587Y437294D01*
X745562Y437414D01*
X745540Y437536D01*
X745522Y437658D01*
X745508Y437780D01*
X745498Y437903D01*
X745492Y438027D01*
X745490Y438150D01*
D17*
X721995Y435610D03*
D18*
X737870Y485140D03*
D19*
X735965Y495300D03*
D20*
X671195Y495300D03*
D18*
X669290Y505460D03*
D21*
X749300Y438150D03*
D10*
X640080Y408940D02*
X640080Y581660D01*
X518160Y581660D01*
X518160Y408940D01*
X640080Y408940D01*
D11*
X614426Y542798D02*
X623316Y549910D01*
X627888Y546608D01*
X607568Y505714D02*
X618998Y499364D01*
X627888Y546608D01*
X614426Y542798D02*
X607568Y505714D01*
X604520Y501650D02*
X615950Y495300D01*
X610870Y546100D02*
X619506Y552958D01*
X611886Y558800D01*
X615950Y495300D02*
X603250Y488950D01*
X603758Y483362D02*
X617220Y490220D01*
X608330Y441198D01*
X597154Y447802D02*
X603758Y483362D01*
X593852Y444500D02*
X601472Y435356D01*
X597408Y431800D01*
X605028Y438404D02*
X597154Y447802D01*
X605028Y438404D02*
X608330Y441198D01*
X553720Y488950D02*
X542290Y495300D01*
X547370Y444500D02*
X538734Y437642D01*
X546354Y431800D01*
X597408Y431800D01*
X593852Y444500D02*
X547370Y444500D01*
X553720Y488950D02*
X603250Y488950D01*
X554990Y501650D02*
X542290Y495300D01*
X554990Y501650D02*
X604520Y501650D01*
X564388Y546100D02*
X556768Y555244D01*
X560832Y558800D01*
X611886Y558800D01*
X610870Y546100D02*
X564388Y546100D01*
D12*
X546100Y438150D02*
X593090Y438150D01*
X603250Y448310D02*
X609600Y480060D01*
X605790Y495300D02*
X552450Y495300D01*
D13*
X604520Y443230D02*
X605790Y444500D01*
D12*
X614680Y509270D02*
X621030Y542290D01*
D14*
X623570Y546100D02*
X624840Y544830D01*
D15*
X610870Y508000D02*
X617220Y504190D01*
D12*
X612140Y552450D02*
X565150Y552450D01*
D16*
X562610Y557530D02*
X558800Y553720D01*
D11*
X543814Y447802D02*
X534924Y440690D01*
X530352Y443992D01*
X550672Y484886D02*
X539242Y491236D01*
X530352Y443992D01*
X543814Y447802D02*
X550672Y484886D01*
X541020Y500380D02*
X554482Y507238D01*
X541020Y500380D02*
X549910Y549402D01*
X561086Y542798D02*
X554482Y507238D01*
X561086Y542798D02*
X553212Y552196D01*
X549910Y549402D01*
D12*
X554990Y542290D02*
X548640Y510540D01*
D13*
X552450Y546100D02*
X553720Y547370D01*
D12*
X543560Y481330D02*
X537210Y448310D01*
D14*
X534670Y444500D02*
X533400Y445770D01*
D15*
X547370Y482600D02*
X541020Y486410D01*
D13*
X621030Y438150D02*
X621032Y438273D01*
X621038Y438397D01*
X621048Y438520D01*
X621062Y438642D01*
X621080Y438764D01*
X621102Y438886D01*
X621127Y439006D01*
X621157Y439126D01*
X621191Y439245D01*
X621228Y439363D01*
X621269Y439479D01*
X621314Y439594D01*
X621363Y439707D01*
X621415Y439819D01*
X621471Y439929D01*
X621530Y440037D01*
X621593Y440143D01*
X621659Y440247D01*
X621729Y440349D01*
X621802Y440449D01*
X621878Y440546D01*
X621957Y440641D01*
X622039Y440733D01*
X622124Y440822D01*
X622212Y440909D01*
X622303Y440992D01*
X622396Y441073D01*
X622492Y441151D01*
X622591Y441225D01*
X622691Y441296D01*
X622794Y441364D01*
X622899Y441429D01*
X623007Y441490D01*
X623116Y441548D01*
X623227Y441602D01*
X623339Y441652D01*
X623454Y441699D01*
X623569Y441742D01*
X623686Y441781D01*
X623804Y441817D01*
X623924Y441848D01*
X624044Y441876D01*
X624165Y441900D01*
X624287Y441920D01*
X624409Y441936D01*
X624532Y441948D01*
X624655Y441956D01*
X624778Y441960D01*
X624902Y441960D01*
X625025Y441956D01*
X625148Y441948D01*
X625271Y441936D01*
X625393Y441920D01*
X625515Y441900D01*
X625636Y441876D01*
X625756Y441848D01*
X625876Y441817D01*
X625994Y441781D01*
X626111Y441742D01*
X626226Y441699D01*
X626341Y441652D01*
X626453Y441602D01*
X626564Y441548D01*
X626673Y441490D01*
X626781Y441429D01*
X626886Y441364D01*
X626989Y441296D01*
X627089Y441225D01*
X627188Y441151D01*
X627284Y441073D01*
X627377Y440992D01*
X627468Y440909D01*
X627556Y440822D01*
X627641Y440733D01*
X627723Y440641D01*
X627802Y440546D01*
X627878Y440449D01*
X627951Y440349D01*
X628021Y440247D01*
X628087Y440143D01*
X628150Y440037D01*
X628209Y439929D01*
X628265Y439819D01*
X628317Y439707D01*
X628366Y439594D01*
X628411Y439479D01*
X628452Y439363D01*
X628489Y439245D01*
X628523Y439126D01*
X628553Y439006D01*
X628578Y438886D01*
X628600Y438764D01*
X628618Y438642D01*
X628632Y438520D01*
X628642Y438397D01*
X628648Y438273D01*
X628650Y438150D01*
X628648Y438027D01*
X628642Y437903D01*
X628632Y437780D01*
X628618Y437658D01*
X628600Y437536D01*
X628578Y437414D01*
X628553Y437294D01*
X628523Y437174D01*
X628489Y437055D01*
X628452Y436937D01*
X628411Y436821D01*
X628366Y436706D01*
X628317Y436593D01*
X628265Y436481D01*
X628209Y436371D01*
X628150Y436263D01*
X628087Y436157D01*
X628021Y436053D01*
X627951Y435951D01*
X627878Y435851D01*
X627802Y435754D01*
X627723Y435659D01*
X627641Y435567D01*
X627556Y435478D01*
X627468Y435391D01*
X627377Y435308D01*
X627284Y435227D01*
X627188Y435149D01*
X627089Y435075D01*
X626989Y435004D01*
X626886Y434936D01*
X626781Y434871D01*
X626673Y434810D01*
X626564Y434752D01*
X626453Y434698D01*
X626341Y434648D01*
X626226Y434601D01*
X626111Y434558D01*
X625994Y434519D01*
X625876Y434483D01*
X625756Y434452D01*
X625636Y434424D01*
X625515Y434400D01*
X625393Y434380D01*
X625271Y434364D01*
X625148Y434352D01*
X625025Y434344D01*
X624902Y434340D01*
X624778Y434340D01*
X624655Y434344D01*
X624532Y434352D01*
X624409Y434364D01*
X624287Y434380D01*
X624165Y434400D01*
X624044Y434424D01*
X623924Y434452D01*
X623804Y434483D01*
X623686Y434519D01*
X623569Y434558D01*
X623454Y434601D01*
X623339Y434648D01*
X623227Y434698D01*
X623116Y434752D01*
X623007Y434810D01*
X622899Y434871D01*
X622794Y434936D01*
X622691Y435004D01*
X622591Y435075D01*
X622492Y435149D01*
X622396Y435227D01*
X622303Y435308D01*
X622212Y435391D01*
X622124Y435478D01*
X622039Y435567D01*
X621957Y435659D01*
X621878Y435754D01*
X621802Y435851D01*
X621729Y435951D01*
X621659Y436053D01*
X621593Y436157D01*
X621530Y436263D01*
X621471Y436371D01*
X621415Y436481D01*
X621363Y436593D01*
X621314Y436706D01*
X621269Y436821D01*
X621228Y436937D01*
X621191Y437055D01*
X621157Y437174D01*
X621127Y437294D01*
X621102Y437414D01*
X621080Y437536D01*
X621062Y437658D01*
X621048Y437780D01*
X621038Y437903D01*
X621032Y438027D01*
X621030Y438150D01*
D17*
X597535Y435610D03*
D18*
X613410Y485140D03*
D19*
X611505Y495300D03*
D20*
X546735Y495300D03*
D18*
X544830Y505460D03*
D21*
X624840Y438150D03*
D22*
X796718Y528105D02*
X795921Y529222D01*
X795921Y529221D02*
X796203Y529430D01*
X796480Y529646D01*
X796751Y529868D01*
X797017Y530096D01*
X797278Y530331D01*
X797533Y530572D01*
X797781Y530820D01*
X798024Y531073D01*
X798261Y531332D01*
X798491Y531596D01*
X798715Y531867D01*
X798932Y532142D01*
X799143Y532422D01*
X799347Y532708D01*
X799544Y532998D01*
X799734Y533293D01*
X799916Y533593D01*
X800092Y533897D01*
X800260Y534205D01*
X800420Y534517D01*
X800573Y534832D01*
X800718Y535152D01*
X800856Y535474D01*
X800986Y535800D01*
X801108Y536129D01*
X801222Y536461D01*
X801327Y536796D01*
X801425Y537132D01*
X801515Y537472D01*
X801596Y537813D01*
X801669Y538156D01*
X801734Y538501D01*
X801791Y538847D01*
X801839Y539194D01*
X801879Y539543D01*
X801910Y539892D01*
X801933Y540242D01*
X801948Y540593D01*
X801954Y540944D01*
X803325Y540944D01*
X803326Y540944D01*
X803319Y540559D01*
X803304Y540176D01*
X803279Y539792D01*
X803244Y539409D01*
X803201Y539028D01*
X803148Y538647D01*
X803086Y538268D01*
X803015Y537890D01*
X802935Y537514D01*
X802846Y537140D01*
X802748Y536769D01*
X802641Y536400D01*
X802525Y536034D01*
X802401Y535670D01*
X802267Y535310D01*
X802125Y534953D01*
X801974Y534599D01*
X801815Y534250D01*
X801648Y533904D01*
X801472Y533562D01*
X801288Y533225D01*
X801096Y532892D01*
X800896Y532564D01*
X800688Y532241D01*
X800472Y531923D01*
X800249Y531610D01*
X800018Y531303D01*
X799780Y531001D01*
X799535Y530705D01*
X799282Y530416D01*
X799023Y530132D01*
X798757Y529855D01*
X798484Y529584D01*
X798205Y529320D01*
X797920Y529063D01*
X797628Y528812D01*
X797331Y528569D01*
X797027Y528333D01*
X796718Y528105D01*
X796635Y528221D01*
X796941Y528448D01*
X797242Y528681D01*
X797537Y528922D01*
X797826Y529171D01*
X798108Y529425D01*
X798385Y529687D01*
X798655Y529955D01*
X798919Y530230D01*
X799176Y530511D01*
X799426Y530798D01*
X799669Y531091D01*
X799905Y531390D01*
X800134Y531695D01*
X800355Y532005D01*
X800568Y532320D01*
X800775Y532640D01*
X800973Y532965D01*
X801163Y533295D01*
X801345Y533629D01*
X801520Y533968D01*
X801686Y534310D01*
X801843Y534657D01*
X801993Y535007D01*
X802134Y535361D01*
X802266Y535718D01*
X802389Y536078D01*
X802504Y536441D01*
X802610Y536807D01*
X802707Y537175D01*
X802796Y537545D01*
X802875Y537918D01*
X802945Y538292D01*
X803007Y538668D01*
X803059Y539045D01*
X803102Y539423D01*
X803136Y539803D01*
X803161Y540182D01*
X803176Y540563D01*
X803183Y540944D01*
X803040Y540944D01*
X803033Y540566D01*
X803018Y540189D01*
X802993Y539813D01*
X802960Y539437D01*
X802917Y539062D01*
X802865Y538689D01*
X802805Y538316D01*
X802735Y537945D01*
X802656Y537576D01*
X802569Y537209D01*
X802472Y536845D01*
X802367Y536482D01*
X802253Y536123D01*
X802131Y535766D01*
X802000Y535412D01*
X801860Y535061D01*
X801713Y534714D01*
X801556Y534371D01*
X801392Y534031D01*
X801219Y533696D01*
X801038Y533365D01*
X800850Y533038D01*
X800653Y532716D01*
X800449Y532399D01*
X800237Y532086D01*
X800018Y531779D01*
X799792Y531478D01*
X799558Y531182D01*
X799317Y530891D01*
X799069Y530607D01*
X798815Y530328D01*
X798554Y530056D01*
X798286Y529790D01*
X798012Y529531D01*
X797732Y529278D01*
X797445Y529032D01*
X797153Y528794D01*
X796855Y528562D01*
X796552Y528337D01*
X796469Y528454D01*
X796770Y528676D01*
X797065Y528906D01*
X797354Y529142D01*
X797637Y529386D01*
X797915Y529636D01*
X798187Y529893D01*
X798452Y530157D01*
X798711Y530426D01*
X798963Y530702D01*
X799208Y530984D01*
X799447Y531272D01*
X799679Y531565D01*
X799903Y531864D01*
X800120Y532168D01*
X800330Y532478D01*
X800532Y532792D01*
X800727Y533111D01*
X800914Y533435D01*
X801093Y533763D01*
X801264Y534095D01*
X801427Y534432D01*
X801582Y534772D01*
X801728Y535116D01*
X801866Y535463D01*
X801996Y535814D01*
X802118Y536167D01*
X802230Y536524D01*
X802334Y536883D01*
X802430Y537244D01*
X802517Y537608D01*
X802595Y537973D01*
X802664Y538341D01*
X802724Y538709D01*
X802775Y539080D01*
X802817Y539451D01*
X802851Y539823D01*
X802875Y540196D01*
X802890Y540570D01*
X802897Y540944D01*
X802754Y540944D01*
X802748Y540573D01*
X802732Y540203D01*
X802708Y539834D01*
X802675Y539465D01*
X802633Y539097D01*
X802582Y538730D01*
X802523Y538365D01*
X802454Y538001D01*
X802377Y537639D01*
X802291Y537279D01*
X802197Y536920D01*
X802093Y536565D01*
X801982Y536212D01*
X801862Y535862D01*
X801733Y535514D01*
X801596Y535170D01*
X801451Y534830D01*
X801297Y534492D01*
X801136Y534159D01*
X800966Y533830D01*
X800789Y533505D01*
X800604Y533184D01*
X800411Y532868D01*
X800211Y532557D01*
X800003Y532250D01*
X799788Y531949D01*
X799565Y531653D01*
X799336Y531362D01*
X799100Y531077D01*
X798856Y530798D01*
X798607Y530524D01*
X798350Y530257D01*
X798087Y529996D01*
X797818Y529742D01*
X797543Y529494D01*
X797263Y529252D01*
X796976Y529018D01*
X796684Y528791D01*
X796386Y528570D01*
X796303Y528687D01*
X796598Y528905D01*
X796887Y529130D01*
X797171Y529362D01*
X797449Y529601D01*
X797722Y529847D01*
X797988Y530099D01*
X798249Y530358D01*
X798502Y530622D01*
X798750Y530893D01*
X798991Y531170D01*
X799225Y531452D01*
X799452Y531740D01*
X799673Y532033D01*
X799886Y532332D01*
X800092Y532636D01*
X800290Y532944D01*
X800481Y533257D01*
X800664Y533575D01*
X800840Y533897D01*
X801008Y534223D01*
X801168Y534553D01*
X801320Y534887D01*
X801464Y535225D01*
X801599Y535565D01*
X801727Y535909D01*
X801846Y536256D01*
X801957Y536606D01*
X802059Y536958D01*
X802152Y537313D01*
X802237Y537670D01*
X802314Y538029D01*
X802382Y538389D01*
X802441Y538751D01*
X802491Y539115D01*
X802533Y539479D01*
X802565Y539844D01*
X802589Y540210D01*
X802605Y540577D01*
X802611Y540944D01*
X802468Y540944D01*
X802462Y540580D01*
X802447Y540217D01*
X802423Y539855D01*
X802390Y539493D01*
X802349Y539132D01*
X802299Y538772D01*
X802241Y538413D01*
X802174Y538056D01*
X802098Y537701D01*
X802014Y537348D01*
X801921Y536996D01*
X801820Y536647D01*
X801710Y536301D01*
X801592Y535957D01*
X801466Y535617D01*
X801331Y535279D01*
X801189Y534945D01*
X801038Y534614D01*
X800880Y534287D01*
X800714Y533964D01*
X800540Y533645D01*
X800358Y533330D01*
X800169Y533020D01*
X799972Y532715D01*
X799768Y532414D01*
X799557Y532118D01*
X799339Y531828D01*
X799114Y531542D01*
X798882Y531263D01*
X798644Y530989D01*
X798398Y530720D01*
X798147Y530458D01*
X797889Y530202D01*
X797625Y529952D01*
X797355Y529709D01*
X797080Y529472D01*
X796798Y529242D01*
X796512Y529019D01*
X796220Y528803D01*
X796137Y528919D01*
X796426Y529133D01*
X796710Y529355D01*
X796988Y529582D01*
X797261Y529817D01*
X797529Y530058D01*
X797790Y530305D01*
X798045Y530559D01*
X798294Y530819D01*
X798537Y531084D01*
X798773Y531356D01*
X799003Y531633D01*
X799226Y531915D01*
X799442Y532203D01*
X799651Y532496D01*
X799853Y532793D01*
X800048Y533096D01*
X800235Y533403D01*
X800415Y533715D01*
X800587Y534031D01*
X800752Y534351D01*
X800909Y534675D01*
X801058Y535002D01*
X801199Y535333D01*
X801332Y535668D01*
X801457Y536005D01*
X801574Y536345D01*
X801683Y536689D01*
X801783Y537034D01*
X801875Y537382D01*
X801958Y537732D01*
X802033Y538084D01*
X802100Y538438D01*
X802158Y538793D01*
X802207Y539149D01*
X802248Y539507D01*
X802280Y539865D01*
X802304Y540224D01*
X802319Y540584D01*
X802325Y540944D01*
X802182Y540944D01*
X802176Y540587D01*
X802161Y540231D01*
X802138Y539876D01*
X802106Y539521D01*
X802065Y539167D01*
X802016Y538814D01*
X801959Y538462D01*
X801893Y538112D01*
X801819Y537763D01*
X801736Y537417D01*
X801645Y537072D01*
X801546Y536730D01*
X801438Y536390D01*
X801322Y536053D01*
X801199Y535719D01*
X801067Y535388D01*
X800927Y535060D01*
X800780Y534735D01*
X800624Y534415D01*
X800461Y534098D01*
X800290Y533785D01*
X800112Y533476D01*
X799927Y533172D01*
X799734Y532872D01*
X799534Y532577D01*
X799327Y532287D01*
X799113Y532002D01*
X798892Y531723D01*
X798665Y531448D01*
X798431Y531180D01*
X798190Y530917D01*
X797944Y530659D01*
X797691Y530408D01*
X797432Y530163D01*
X797167Y529925D01*
X796897Y529692D01*
X796621Y529467D01*
X796340Y529248D01*
X796054Y529036D01*
X795970Y529152D01*
X796254Y529362D01*
X796532Y529579D01*
X796806Y529802D01*
X797073Y530032D01*
X797335Y530269D01*
X797591Y530511D01*
X797842Y530760D01*
X798086Y531015D01*
X798324Y531275D01*
X798556Y531541D01*
X798781Y531813D01*
X799000Y532090D01*
X799212Y532372D01*
X799417Y532659D01*
X799615Y532951D01*
X799806Y533248D01*
X799989Y533549D01*
X800166Y533855D01*
X800335Y534165D01*
X800496Y534479D01*
X800650Y534796D01*
X800796Y535117D01*
X800935Y535442D01*
X801065Y535770D01*
X801188Y536101D01*
X801302Y536435D01*
X801409Y536771D01*
X801507Y537110D01*
X801597Y537451D01*
X801679Y537794D01*
X801753Y538139D01*
X801818Y538486D01*
X801875Y538835D01*
X801923Y539184D01*
X801963Y539535D01*
X801995Y539886D01*
X802018Y540238D01*
X802033Y540591D01*
X802039Y540944D01*
X803325Y541095D02*
X801953Y541095D01*
X801954Y541096D02*
X801948Y541447D01*
X801933Y541798D01*
X801910Y542148D01*
X801879Y542498D01*
X801839Y542847D01*
X801791Y543195D01*
X801734Y543541D01*
X801669Y543886D01*
X801596Y544230D01*
X801514Y544571D01*
X801424Y544911D01*
X801326Y545248D01*
X801220Y545583D01*
X801106Y545915D01*
X800984Y546244D01*
X800854Y546570D01*
X800716Y546893D01*
X800571Y547213D01*
X800417Y547529D01*
X800257Y547841D01*
X800088Y548149D01*
X799913Y548453D01*
X799730Y548753D01*
X799540Y549048D01*
X799342Y549339D01*
X799138Y549624D01*
X798927Y549905D01*
X798709Y550180D01*
X798485Y550451D01*
X798254Y550715D01*
X798017Y550974D01*
X797774Y551228D01*
X797525Y551475D01*
X797270Y551716D01*
X797009Y551951D01*
X796742Y552180D01*
X796470Y552402D01*
X796193Y552617D01*
X797016Y553715D01*
X797320Y553479D01*
X797618Y553236D01*
X797910Y552986D01*
X798196Y552728D01*
X798476Y552464D01*
X798749Y552193D01*
X799015Y551916D01*
X799275Y551632D01*
X799528Y551343D01*
X799774Y551047D01*
X800012Y550745D01*
X800243Y550438D01*
X800467Y550125D01*
X800683Y549806D01*
X800891Y549483D01*
X801092Y549155D01*
X801284Y548822D01*
X801468Y548484D01*
X801645Y548142D01*
X801812Y547796D01*
X801972Y547446D01*
X802123Y547092D01*
X802265Y546735D01*
X802399Y546374D01*
X802524Y546011D01*
X802640Y545644D01*
X802747Y545275D01*
X802845Y544903D01*
X802935Y544529D01*
X803015Y544153D01*
X803086Y543775D01*
X803148Y543395D01*
X803201Y543014D01*
X803244Y542632D01*
X803279Y542249D01*
X803304Y541865D01*
X803319Y541481D01*
X803326Y541096D01*
X803183Y541096D01*
X803176Y541477D01*
X803161Y541858D01*
X803136Y542238D01*
X803102Y542618D01*
X803059Y542997D01*
X803006Y543374D01*
X802945Y543750D01*
X802875Y544125D01*
X802795Y544498D01*
X802707Y544868D01*
X802609Y545237D01*
X802503Y545603D01*
X802388Y545966D01*
X802264Y546327D01*
X802132Y546684D01*
X801991Y547038D01*
X801841Y547389D01*
X801683Y547735D01*
X801517Y548078D01*
X801342Y548417D01*
X801160Y548752D01*
X800969Y549082D01*
X800770Y549407D01*
X800564Y549727D01*
X800350Y550043D01*
X800128Y550353D01*
X799899Y550657D01*
X799663Y550956D01*
X799419Y551250D01*
X799169Y551537D01*
X798911Y551818D01*
X798647Y552093D01*
X798376Y552361D01*
X798099Y552623D01*
X797816Y552878D01*
X797527Y553126D01*
X797231Y553367D01*
X796930Y553601D01*
X796845Y553486D01*
X797143Y553255D01*
X797435Y553016D01*
X797722Y552770D01*
X798003Y552517D01*
X798277Y552258D01*
X798546Y551992D01*
X798807Y551720D01*
X799062Y551441D01*
X799310Y551157D01*
X799552Y550866D01*
X799786Y550570D01*
X800013Y550268D01*
X800232Y549961D01*
X800445Y549648D01*
X800649Y549331D01*
X800846Y549009D01*
X801035Y548682D01*
X801216Y548350D01*
X801389Y548014D01*
X801554Y547675D01*
X801710Y547331D01*
X801858Y546984D01*
X801998Y546633D01*
X802129Y546279D01*
X802252Y545922D01*
X802366Y545561D01*
X802471Y545199D01*
X802568Y544834D01*
X802656Y544466D01*
X802734Y544097D01*
X802804Y543726D01*
X802865Y543353D01*
X802917Y542979D01*
X802960Y542604D01*
X802993Y542228D01*
X803018Y541851D01*
X803033Y541474D01*
X803040Y541096D01*
X802897Y541096D01*
X802890Y541470D01*
X802875Y541844D01*
X802851Y542217D01*
X802817Y542590D01*
X802775Y542962D01*
X802724Y543332D01*
X802663Y543702D01*
X802594Y544069D01*
X802516Y544435D01*
X802429Y544799D01*
X802334Y545161D01*
X802229Y545520D01*
X802116Y545877D01*
X801995Y546231D01*
X801865Y546582D01*
X801726Y546929D01*
X801579Y547273D01*
X801424Y547614D01*
X801261Y547950D01*
X801090Y548283D01*
X800910Y548611D01*
X800723Y548935D01*
X800528Y549255D01*
X800325Y549569D01*
X800115Y549879D01*
X799898Y550183D01*
X799673Y550482D01*
X799441Y550776D01*
X799202Y551064D01*
X798956Y551346D01*
X798703Y551622D01*
X798444Y551891D01*
X798178Y552155D01*
X797906Y552412D01*
X797628Y552662D01*
X797344Y552906D01*
X797054Y553142D01*
X796759Y553372D01*
X796673Y553257D01*
X796966Y553030D01*
X797253Y552796D01*
X797534Y552554D01*
X797810Y552306D01*
X798079Y552052D01*
X798342Y551791D01*
X798599Y551523D01*
X798849Y551250D01*
X799093Y550971D01*
X799330Y550686D01*
X799560Y550395D01*
X799783Y550098D01*
X799998Y549797D01*
X800206Y549490D01*
X800407Y549179D01*
X800600Y548862D01*
X800786Y548541D01*
X800963Y548216D01*
X801133Y547887D01*
X801295Y547553D01*
X801448Y547216D01*
X801594Y546875D01*
X801731Y546530D01*
X801860Y546183D01*
X801980Y545832D01*
X802092Y545479D01*
X802196Y545123D01*
X802290Y544765D01*
X802376Y544404D01*
X802454Y544042D01*
X802522Y543677D01*
X802582Y543311D01*
X802633Y542944D01*
X802675Y542576D01*
X802708Y542207D01*
X802732Y541837D01*
X802748Y541467D01*
X802754Y541096D01*
X802611Y541096D01*
X802605Y541463D01*
X802589Y541830D01*
X802565Y542196D01*
X802533Y542562D01*
X802491Y542927D01*
X802441Y543291D01*
X802381Y543653D01*
X802313Y544014D01*
X802237Y544373D01*
X802152Y544730D01*
X802058Y545085D01*
X801955Y545438D01*
X801845Y545788D01*
X801725Y546135D01*
X801598Y546479D01*
X801462Y546820D01*
X801318Y547158D01*
X801165Y547492D01*
X801005Y547823D01*
X800837Y548149D01*
X800661Y548471D01*
X800477Y548789D01*
X800286Y549103D01*
X800087Y549411D01*
X799881Y549715D01*
X799667Y550014D01*
X799447Y550307D01*
X799219Y550595D01*
X798984Y550878D01*
X798743Y551154D01*
X798495Y551425D01*
X798241Y551690D01*
X797980Y551949D01*
X797713Y552201D01*
X797440Y552447D01*
X797162Y552686D01*
X796877Y552918D01*
X796587Y553143D01*
X796501Y553029D01*
X796789Y552805D01*
X797070Y552575D01*
X797346Y552339D01*
X797617Y552095D01*
X797881Y551846D01*
X798139Y551589D01*
X798391Y551327D01*
X798637Y551059D01*
X798876Y550785D01*
X799108Y550505D01*
X799334Y550220D01*
X799552Y549929D01*
X799764Y549633D01*
X799968Y549332D01*
X800165Y549026D01*
X800354Y548716D01*
X800536Y548401D01*
X800711Y548082D01*
X800877Y547759D01*
X801036Y547431D01*
X801187Y547100D01*
X801329Y546766D01*
X801464Y546428D01*
X801590Y546087D01*
X801709Y545743D01*
X801818Y545396D01*
X801920Y545047D01*
X802013Y544696D01*
X802097Y544342D01*
X802173Y543986D01*
X802240Y543629D01*
X802299Y543270D01*
X802349Y542909D01*
X802390Y542548D01*
X802423Y542186D01*
X802447Y541823D01*
X802462Y541460D01*
X802468Y541096D01*
X802325Y541096D01*
X802319Y541456D01*
X802304Y541816D01*
X802280Y542175D01*
X802248Y542534D01*
X802207Y542892D01*
X802158Y543249D01*
X802100Y543604D01*
X802033Y543958D01*
X801958Y544311D01*
X801874Y544661D01*
X801782Y545009D01*
X801682Y545355D01*
X801573Y545698D01*
X801456Y546039D01*
X801331Y546377D01*
X801197Y546711D01*
X801056Y547043D01*
X800907Y547371D01*
X800749Y547695D01*
X800584Y548015D01*
X800412Y548331D01*
X800232Y548643D01*
X800044Y548950D01*
X799849Y549253D01*
X799646Y549551D01*
X799437Y549844D01*
X799221Y550132D01*
X798997Y550415D01*
X798767Y550692D01*
X798530Y550963D01*
X798287Y551229D01*
X798038Y551489D01*
X797782Y551742D01*
X797520Y551990D01*
X797252Y552231D01*
X796979Y552465D01*
X796700Y552693D01*
X796416Y552914D01*
X796330Y552800D01*
X796612Y552581D01*
X796888Y552355D01*
X797159Y552123D01*
X797424Y551884D01*
X797683Y551639D01*
X797936Y551388D01*
X798183Y551131D01*
X798424Y550868D01*
X798658Y550599D01*
X798886Y550324D01*
X799107Y550045D01*
X799322Y549759D01*
X799529Y549469D01*
X799730Y549174D01*
X799923Y548874D01*
X800109Y548570D01*
X800287Y548261D01*
X800458Y547948D01*
X800621Y547631D01*
X800777Y547310D01*
X800925Y546985D01*
X801065Y546657D01*
X801197Y546326D01*
X801321Y545991D01*
X801437Y545654D01*
X801545Y545314D01*
X801644Y544971D01*
X801735Y544626D01*
X801818Y544279D01*
X801893Y543931D01*
X801959Y543580D01*
X802016Y543228D01*
X802065Y542875D01*
X802106Y542520D01*
X802138Y542165D01*
X802161Y541809D01*
X802176Y541453D01*
X802182Y541096D01*
X802039Y541096D01*
X802033Y541449D01*
X802018Y541802D01*
X801995Y542155D01*
X801963Y542506D01*
X801923Y542857D01*
X801875Y543207D01*
X801818Y543556D01*
X801752Y543903D01*
X801679Y544248D01*
X801597Y544592D01*
X801506Y544933D01*
X801408Y545273D01*
X801301Y545609D01*
X801186Y545943D01*
X801063Y546275D01*
X800933Y546603D01*
X800794Y546928D01*
X800648Y547249D01*
X800494Y547567D01*
X800332Y547881D01*
X800162Y548191D01*
X799986Y548497D01*
X799802Y548798D01*
X799610Y549095D01*
X799412Y549387D01*
X799207Y549675D01*
X798994Y549957D01*
X798775Y550234D01*
X798550Y550506D01*
X798318Y550772D01*
X798079Y551033D01*
X797835Y551287D01*
X797584Y551536D01*
X797327Y551779D01*
X797065Y552015D01*
X796797Y552245D01*
X796523Y552469D01*
X796244Y552685D01*
X771475Y540944D02*
X772847Y540944D01*
X772846Y540944D02*
X772852Y540590D01*
X772867Y540237D01*
X772890Y539884D01*
X772922Y539532D01*
X772963Y539180D01*
X773012Y538830D01*
X773069Y538481D01*
X773135Y538133D01*
X773210Y537787D01*
X773292Y537443D01*
X773383Y537102D01*
X773483Y536762D01*
X773590Y536425D01*
X773706Y536091D01*
X773830Y535759D01*
X773962Y535431D01*
X774102Y535106D01*
X774249Y534785D01*
X774405Y534467D01*
X774568Y534153D01*
X774739Y533843D01*
X774917Y533538D01*
X775102Y533236D01*
X775295Y532940D01*
X775495Y532648D01*
X775702Y532361D01*
X775916Y532079D01*
X776137Y531803D01*
X776364Y531532D01*
X776598Y531267D01*
X776838Y531007D01*
X777084Y530753D01*
X777337Y530505D01*
X777596Y530264D01*
X777860Y530029D01*
X778130Y529800D01*
X778405Y529578D01*
X777563Y528496D01*
X777563Y528495D01*
X777261Y528738D01*
X776965Y528989D01*
X776676Y529246D01*
X776392Y529510D01*
X776116Y529782D01*
X775846Y530059D01*
X775582Y530344D01*
X775326Y530634D01*
X775077Y530931D01*
X774835Y531234D01*
X774601Y531543D01*
X774374Y531857D01*
X774155Y532176D01*
X773944Y532501D01*
X773741Y532831D01*
X773545Y533166D01*
X773358Y533505D01*
X773180Y533849D01*
X773010Y534197D01*
X772848Y534549D01*
X772695Y534905D01*
X772550Y535265D01*
X772415Y535628D01*
X772288Y535994D01*
X772170Y536363D01*
X772061Y536735D01*
X771962Y537109D01*
X771871Y537486D01*
X771790Y537865D01*
X771718Y538246D01*
X771655Y538628D01*
X771601Y539012D01*
X771557Y539397D01*
X771522Y539783D01*
X771497Y540169D01*
X771481Y540556D01*
X771474Y540944D01*
X771617Y540944D01*
X771624Y540560D01*
X771640Y540176D01*
X771665Y539793D01*
X771699Y539411D01*
X771743Y539029D01*
X771796Y538649D01*
X771858Y538270D01*
X771930Y537893D01*
X772011Y537518D01*
X772100Y537144D01*
X772199Y536773D01*
X772307Y536405D01*
X772424Y536039D01*
X772549Y535676D01*
X772684Y535316D01*
X772827Y534960D01*
X772978Y534607D01*
X773139Y534258D01*
X773307Y533913D01*
X773484Y533573D01*
X773670Y533236D01*
X773863Y532905D01*
X774065Y532578D01*
X774274Y532256D01*
X774491Y531939D01*
X774716Y531628D01*
X774948Y531322D01*
X775188Y531022D01*
X775434Y530728D01*
X775688Y530440D01*
X775949Y530158D01*
X776217Y529883D01*
X776491Y529614D01*
X776772Y529352D01*
X777059Y529097D01*
X777352Y528849D01*
X777651Y528608D01*
X777739Y528721D01*
X777442Y528960D01*
X777152Y529205D01*
X776868Y529458D01*
X776589Y529718D01*
X776318Y529984D01*
X776053Y530257D01*
X775794Y530536D01*
X775543Y530821D01*
X775298Y531113D01*
X775061Y531410D01*
X774830Y531713D01*
X774608Y532022D01*
X774393Y532336D01*
X774185Y532654D01*
X773986Y532978D01*
X773794Y533307D01*
X773611Y533640D01*
X773435Y533978D01*
X773268Y534320D01*
X773109Y534665D01*
X772959Y535015D01*
X772817Y535368D01*
X772684Y535724D01*
X772559Y536084D01*
X772444Y536446D01*
X772337Y536811D01*
X772239Y537179D01*
X772150Y537549D01*
X772070Y537921D01*
X771999Y538295D01*
X771938Y538670D01*
X771885Y539047D01*
X771842Y539425D01*
X771807Y539804D01*
X771782Y540183D01*
X771767Y540564D01*
X771760Y540944D01*
X771903Y540944D01*
X771910Y540567D01*
X771925Y540190D01*
X771950Y539814D01*
X771984Y539439D01*
X772027Y539064D01*
X772079Y538691D01*
X772140Y538319D01*
X772210Y537949D01*
X772290Y537580D01*
X772378Y537214D01*
X772475Y536850D01*
X772581Y536488D01*
X772695Y536129D01*
X772818Y535773D01*
X772950Y535419D01*
X773091Y535070D01*
X773240Y534723D01*
X773397Y534381D01*
X773563Y534042D01*
X773737Y533708D01*
X773918Y533378D01*
X774108Y533052D01*
X774306Y532731D01*
X774512Y532415D01*
X774725Y532104D01*
X774945Y531799D01*
X775173Y531498D01*
X775408Y531204D01*
X775651Y530915D01*
X775900Y530632D01*
X776156Y530356D01*
X776419Y530085D01*
X776688Y529821D01*
X776963Y529564D01*
X777245Y529314D01*
X777533Y529070D01*
X777826Y528834D01*
X777914Y528947D01*
X777623Y529181D01*
X777338Y529422D01*
X777059Y529670D01*
X776786Y529925D01*
X776520Y530187D01*
X776259Y530454D01*
X776006Y530728D01*
X775759Y531009D01*
X775519Y531295D01*
X775286Y531586D01*
X775060Y531884D01*
X774841Y532187D01*
X774630Y532495D01*
X774427Y532808D01*
X774231Y533126D01*
X774043Y533448D01*
X773863Y533775D01*
X773690Y534107D01*
X773526Y534442D01*
X773371Y534781D01*
X773223Y535124D01*
X773084Y535471D01*
X772953Y535821D01*
X772831Y536174D01*
X772717Y536529D01*
X772613Y536888D01*
X772516Y537249D01*
X772429Y537612D01*
X772351Y537977D01*
X772281Y538344D01*
X772220Y538712D01*
X772169Y539082D01*
X772126Y539453D01*
X772093Y539825D01*
X772068Y540197D01*
X772053Y540571D01*
X772046Y540944D01*
X772189Y540944D01*
X772196Y540574D01*
X772211Y540204D01*
X772235Y539835D01*
X772268Y539467D01*
X772311Y539099D01*
X772362Y538733D01*
X772422Y538368D01*
X772491Y538005D01*
X772569Y537643D01*
X772655Y537283D01*
X772750Y536926D01*
X772854Y536571D01*
X772967Y536219D01*
X773088Y535869D01*
X773217Y535523D01*
X773355Y535179D01*
X773501Y534840D01*
X773656Y534503D01*
X773818Y534171D01*
X773989Y533843D01*
X774167Y533519D01*
X774354Y533199D01*
X774548Y532884D01*
X774749Y532574D01*
X774958Y532269D01*
X775175Y531969D01*
X775398Y531675D01*
X775629Y531386D01*
X775867Y531102D01*
X776112Y530825D01*
X776363Y530553D01*
X776621Y530288D01*
X776885Y530029D01*
X777155Y529776D01*
X777432Y529531D01*
X777714Y529292D01*
X778002Y529060D01*
X778090Y529172D01*
X777804Y529402D01*
X777525Y529639D01*
X777251Y529883D01*
X776983Y530133D01*
X776722Y530389D01*
X776466Y530652D01*
X776217Y530921D01*
X775975Y531196D01*
X775740Y531476D01*
X775511Y531763D01*
X775289Y532054D01*
X775075Y532352D01*
X774868Y532654D01*
X774668Y532961D01*
X774476Y533273D01*
X774292Y533589D01*
X774115Y533910D01*
X773946Y534235D01*
X773785Y534565D01*
X773632Y534898D01*
X773487Y535234D01*
X773351Y535574D01*
X773222Y535917D01*
X773102Y536264D01*
X772991Y536613D01*
X772888Y536964D01*
X772794Y537318D01*
X772708Y537674D01*
X772631Y538033D01*
X772563Y538393D01*
X772503Y538754D01*
X772453Y539117D01*
X772411Y539481D01*
X772378Y539846D01*
X772354Y540212D01*
X772338Y540578D01*
X772332Y540944D01*
X772475Y540944D01*
X772481Y540581D01*
X772497Y540219D01*
X772520Y539856D01*
X772553Y539495D01*
X772595Y539135D01*
X772645Y538775D01*
X772704Y538417D01*
X772771Y538061D01*
X772848Y537706D01*
X772932Y537353D01*
X773026Y537002D01*
X773128Y536654D01*
X773238Y536308D01*
X773357Y535966D01*
X773484Y535626D01*
X773619Y535289D01*
X773763Y534956D01*
X773914Y534626D01*
X774073Y534300D01*
X774241Y533978D01*
X774416Y533660D01*
X774599Y533347D01*
X774789Y533038D01*
X774987Y532733D01*
X775192Y532434D01*
X775404Y532140D01*
X775624Y531851D01*
X775850Y531567D01*
X776083Y531289D01*
X776323Y531017D01*
X776570Y530751D01*
X776823Y530490D01*
X777082Y530236D01*
X777347Y529989D01*
X777618Y529748D01*
X777895Y529513D01*
X778178Y529285D01*
X778265Y529398D01*
X777985Y529624D01*
X777711Y529856D01*
X777443Y530095D01*
X777180Y530340D01*
X776924Y530592D01*
X776673Y530849D01*
X776429Y531113D01*
X776191Y531383D01*
X775961Y531658D01*
X775736Y531939D01*
X775519Y532225D01*
X775309Y532517D01*
X775106Y532813D01*
X774910Y533114D01*
X774721Y533420D01*
X774540Y533731D01*
X774367Y534045D01*
X774201Y534364D01*
X774043Y534687D01*
X773893Y535014D01*
X773751Y535344D01*
X773617Y535677D01*
X773492Y536014D01*
X773374Y536353D01*
X773265Y536696D01*
X773164Y537041D01*
X773071Y537388D01*
X772987Y537737D01*
X772912Y538089D01*
X772845Y538442D01*
X772786Y538796D01*
X772736Y539152D01*
X772695Y539509D01*
X772663Y539867D01*
X772639Y540226D01*
X772624Y540585D01*
X772618Y540944D01*
X772761Y540944D01*
X772767Y540588D01*
X772782Y540233D01*
X772806Y539878D01*
X772838Y539523D01*
X772878Y539170D01*
X772928Y538817D01*
X772985Y538466D01*
X773052Y538117D01*
X773127Y537769D01*
X773210Y537423D01*
X773302Y537079D01*
X773401Y536737D01*
X773510Y536398D01*
X773626Y536062D01*
X773751Y535729D01*
X773883Y535399D01*
X774024Y535072D01*
X774173Y534748D01*
X774329Y534429D01*
X774493Y534113D01*
X774665Y533801D01*
X774844Y533494D01*
X775030Y533191D01*
X775224Y532893D01*
X775426Y532599D01*
X775634Y532310D01*
X775849Y532027D01*
X776071Y531749D01*
X776300Y531476D01*
X776535Y531209D01*
X776777Y530948D01*
X777024Y530693D01*
X777279Y530444D01*
X777539Y530201D01*
X777804Y529964D01*
X778076Y529734D01*
X778353Y529511D01*
X777563Y553544D02*
X778406Y552461D01*
X778405Y552462D02*
X778130Y552240D01*
X777860Y552011D01*
X777596Y551776D01*
X777337Y551535D01*
X777084Y551287D01*
X776838Y551033D01*
X776598Y550773D01*
X776364Y550508D01*
X776137Y550237D01*
X775916Y549961D01*
X775702Y549679D01*
X775495Y549392D01*
X775295Y549100D01*
X775102Y548804D01*
X774917Y548502D01*
X774739Y548197D01*
X774568Y547887D01*
X774405Y547573D01*
X774249Y547255D01*
X774102Y546934D01*
X773962Y546609D01*
X773830Y546281D01*
X773706Y545949D01*
X773590Y545615D01*
X773483Y545278D01*
X773383Y544938D01*
X773292Y544597D01*
X773210Y544253D01*
X773135Y543907D01*
X773069Y543559D01*
X773012Y543210D01*
X772963Y542860D01*
X772922Y542508D01*
X772890Y542156D01*
X772867Y541803D01*
X772852Y541450D01*
X772846Y541096D01*
X771475Y541096D01*
X771474Y541096D01*
X771481Y541484D01*
X771497Y541871D01*
X771522Y542257D01*
X771557Y542643D01*
X771601Y543028D01*
X771655Y543412D01*
X771718Y543794D01*
X771790Y544175D01*
X771871Y544554D01*
X771962Y544931D01*
X772061Y545305D01*
X772170Y545677D01*
X772288Y546046D01*
X772415Y546412D01*
X772550Y546775D01*
X772695Y547135D01*
X772848Y547491D01*
X773010Y547843D01*
X773180Y548191D01*
X773358Y548535D01*
X773545Y548874D01*
X773741Y549209D01*
X773944Y549539D01*
X774155Y549864D01*
X774374Y550183D01*
X774601Y550497D01*
X774835Y550806D01*
X775077Y551109D01*
X775326Y551406D01*
X775582Y551696D01*
X775846Y551981D01*
X776116Y552258D01*
X776392Y552530D01*
X776676Y552794D01*
X776965Y553051D01*
X777261Y553302D01*
X777563Y553545D01*
X777651Y553432D01*
X777352Y553191D01*
X777059Y552943D01*
X776772Y552688D01*
X776491Y552426D01*
X776217Y552157D01*
X775949Y551882D01*
X775688Y551600D01*
X775434Y551312D01*
X775188Y551018D01*
X774948Y550718D01*
X774716Y550412D01*
X774491Y550101D01*
X774274Y549784D01*
X774065Y549462D01*
X773863Y549135D01*
X773670Y548804D01*
X773484Y548467D01*
X773307Y548127D01*
X773139Y547782D01*
X772978Y547433D01*
X772827Y547080D01*
X772684Y546724D01*
X772549Y546364D01*
X772424Y546001D01*
X772307Y545635D01*
X772199Y545267D01*
X772100Y544896D01*
X772011Y544522D01*
X771930Y544147D01*
X771858Y543770D01*
X771796Y543391D01*
X771743Y543011D01*
X771699Y542629D01*
X771665Y542247D01*
X771640Y541864D01*
X771624Y541480D01*
X771617Y541096D01*
X771760Y541096D01*
X771767Y541476D01*
X771782Y541857D01*
X771807Y542236D01*
X771842Y542615D01*
X771885Y542993D01*
X771938Y543370D01*
X771999Y543745D01*
X772070Y544119D01*
X772150Y544491D01*
X772239Y544861D01*
X772337Y545229D01*
X772444Y545594D01*
X772559Y545956D01*
X772684Y546316D01*
X772817Y546672D01*
X772959Y547025D01*
X773109Y547375D01*
X773268Y547720D01*
X773435Y548062D01*
X773611Y548400D01*
X773794Y548733D01*
X773986Y549062D01*
X774185Y549386D01*
X774393Y549704D01*
X774608Y550018D01*
X774830Y550327D01*
X775061Y550630D01*
X775298Y550927D01*
X775543Y551219D01*
X775794Y551504D01*
X776053Y551783D01*
X776318Y552056D01*
X776589Y552322D01*
X776868Y552582D01*
X777152Y552835D01*
X777442Y553080D01*
X777739Y553319D01*
X777826Y553206D01*
X777533Y552970D01*
X777245Y552726D01*
X776963Y552476D01*
X776688Y552219D01*
X776419Y551955D01*
X776156Y551684D01*
X775900Y551408D01*
X775651Y551125D01*
X775408Y550836D01*
X775173Y550542D01*
X774945Y550241D01*
X774725Y549936D01*
X774512Y549625D01*
X774306Y549309D01*
X774108Y548988D01*
X773918Y548662D01*
X773737Y548332D01*
X773563Y547998D01*
X773397Y547659D01*
X773240Y547317D01*
X773091Y546970D01*
X772950Y546621D01*
X772818Y546267D01*
X772695Y545911D01*
X772581Y545552D01*
X772475Y545190D01*
X772378Y544826D01*
X772290Y544460D01*
X772210Y544091D01*
X772140Y543721D01*
X772079Y543349D01*
X772027Y542976D01*
X771984Y542601D01*
X771950Y542226D01*
X771925Y541850D01*
X771910Y541473D01*
X771903Y541096D01*
X772046Y541096D01*
X772053Y541469D01*
X772068Y541843D01*
X772093Y542215D01*
X772126Y542587D01*
X772169Y542958D01*
X772220Y543328D01*
X772281Y543696D01*
X772351Y544063D01*
X772429Y544428D01*
X772516Y544791D01*
X772613Y545152D01*
X772717Y545511D01*
X772831Y545866D01*
X772953Y546219D01*
X773084Y546569D01*
X773223Y546916D01*
X773371Y547259D01*
X773526Y547598D01*
X773690Y547933D01*
X773863Y548265D01*
X774043Y548592D01*
X774231Y548914D01*
X774427Y549232D01*
X774630Y549545D01*
X774841Y549853D01*
X775060Y550156D01*
X775286Y550454D01*
X775519Y550745D01*
X775759Y551031D01*
X776006Y551312D01*
X776259Y551586D01*
X776520Y551853D01*
X776786Y552115D01*
X777059Y552370D01*
X777338Y552618D01*
X777623Y552859D01*
X777914Y553093D01*
X778002Y552980D01*
X777714Y552748D01*
X777432Y552509D01*
X777155Y552264D01*
X776885Y552011D01*
X776621Y551752D01*
X776363Y551487D01*
X776112Y551215D01*
X775867Y550938D01*
X775629Y550654D01*
X775398Y550365D01*
X775175Y550071D01*
X774958Y549771D01*
X774749Y549466D01*
X774548Y549156D01*
X774354Y548841D01*
X774167Y548521D01*
X773989Y548197D01*
X773818Y547869D01*
X773656Y547537D01*
X773501Y547200D01*
X773355Y546861D01*
X773217Y546517D01*
X773088Y546171D01*
X772967Y545821D01*
X772854Y545469D01*
X772750Y545114D01*
X772655Y544757D01*
X772569Y544397D01*
X772491Y544035D01*
X772422Y543672D01*
X772362Y543307D01*
X772311Y542941D01*
X772268Y542573D01*
X772235Y542205D01*
X772211Y541836D01*
X772196Y541466D01*
X772189Y541096D01*
X772332Y541096D01*
X772338Y541462D01*
X772354Y541828D01*
X772378Y542194D01*
X772411Y542559D01*
X772453Y542923D01*
X772503Y543286D01*
X772563Y543647D01*
X772631Y544007D01*
X772708Y544366D01*
X772794Y544722D01*
X772888Y545076D01*
X772991Y545427D01*
X773102Y545776D01*
X773222Y546123D01*
X773351Y546466D01*
X773487Y546806D01*
X773632Y547142D01*
X773785Y547475D01*
X773946Y547805D01*
X774115Y548130D01*
X774292Y548451D01*
X774476Y548767D01*
X774668Y549079D01*
X774868Y549386D01*
X775075Y549688D01*
X775289Y549986D01*
X775511Y550277D01*
X775740Y550564D01*
X775975Y550844D01*
X776217Y551119D01*
X776466Y551388D01*
X776722Y551651D01*
X776983Y551907D01*
X777251Y552157D01*
X777525Y552401D01*
X777804Y552638D01*
X778090Y552868D01*
X778178Y552755D01*
X777895Y552527D01*
X777618Y552292D01*
X777347Y552051D01*
X777082Y551804D01*
X776823Y551550D01*
X776570Y551289D01*
X776323Y551023D01*
X776083Y550751D01*
X775850Y550473D01*
X775624Y550189D01*
X775404Y549900D01*
X775192Y549606D01*
X774987Y549307D01*
X774789Y549002D01*
X774599Y548693D01*
X774416Y548380D01*
X774241Y548062D01*
X774073Y547740D01*
X773914Y547414D01*
X773763Y547084D01*
X773619Y546751D01*
X773484Y546414D01*
X773357Y546074D01*
X773238Y545732D01*
X773128Y545386D01*
X773026Y545038D01*
X772932Y544687D01*
X772848Y544334D01*
X772771Y543979D01*
X772704Y543623D01*
X772645Y543265D01*
X772595Y542905D01*
X772553Y542545D01*
X772520Y542184D01*
X772497Y541821D01*
X772481Y541459D01*
X772475Y541096D01*
X772618Y541096D01*
X772624Y541455D01*
X772639Y541814D01*
X772663Y542173D01*
X772695Y542531D01*
X772736Y542888D01*
X772786Y543244D01*
X772845Y543598D01*
X772912Y543951D01*
X772987Y544303D01*
X773071Y544652D01*
X773164Y544999D01*
X773265Y545344D01*
X773374Y545687D01*
X773492Y546026D01*
X773617Y546363D01*
X773751Y546696D01*
X773893Y547026D01*
X774043Y547353D01*
X774201Y547676D01*
X774367Y547995D01*
X774540Y548309D01*
X774721Y548620D01*
X774910Y548926D01*
X775106Y549227D01*
X775309Y549523D01*
X775519Y549815D01*
X775736Y550101D01*
X775961Y550382D01*
X776191Y550657D01*
X776429Y550927D01*
X776673Y551191D01*
X776924Y551448D01*
X777180Y551700D01*
X777443Y551945D01*
X777711Y552184D01*
X777985Y552416D01*
X778265Y552642D01*
X778353Y552529D01*
X778076Y552306D01*
X777804Y552076D01*
X777539Y551839D01*
X777279Y551596D01*
X777024Y551347D01*
X776777Y551092D01*
X776535Y550831D01*
X776300Y550564D01*
X776071Y550291D01*
X775849Y550013D01*
X775634Y549730D01*
X775426Y549441D01*
X775224Y549147D01*
X775030Y548849D01*
X774844Y548546D01*
X774665Y548239D01*
X774493Y547927D01*
X774329Y547611D01*
X774173Y547292D01*
X774024Y546968D01*
X773883Y546641D01*
X773751Y546311D01*
X773626Y545978D01*
X773510Y545642D01*
X773401Y545303D01*
X773302Y544961D01*
X773210Y544617D01*
X773127Y544271D01*
X773052Y543923D01*
X772985Y543574D01*
X772928Y543223D01*
X772878Y542870D01*
X772838Y542517D01*
X772806Y542162D01*
X772782Y541807D01*
X772767Y541452D01*
X772761Y541096D01*
D23*
X801238Y524614D02*
X799774Y526370D01*
X799775Y526370D02*
X800122Y526671D01*
X800462Y526980D01*
X800795Y527297D01*
X801120Y527622D01*
X801437Y527954D01*
X801746Y528294D01*
X802047Y528642D01*
X802340Y528996D01*
X802623Y529358D01*
X802898Y529726D01*
X803165Y530101D01*
X803422Y530482D01*
X803670Y530869D01*
X803908Y531261D01*
X804137Y531660D01*
X804357Y532064D01*
X804567Y532472D01*
X804767Y532886D01*
X804957Y533305D01*
X805136Y533728D01*
X805306Y534155D01*
X805465Y534586D01*
X805614Y535021D01*
X805753Y535459D01*
X805881Y535900D01*
X805998Y536345D01*
X806105Y536792D01*
X806201Y537241D01*
X806286Y537693D01*
X806360Y538146D01*
X806424Y538602D01*
X806476Y539058D01*
X806518Y539516D01*
X806548Y539974D01*
X806568Y540434D01*
X806577Y540893D01*
X808862Y540894D01*
X808863Y540893D01*
X808853Y540378D01*
X808832Y539863D01*
X808798Y539349D01*
X808752Y538836D01*
X808693Y538324D01*
X808622Y537814D01*
X808539Y537305D01*
X808444Y536799D01*
X808336Y536295D01*
X808217Y535794D01*
X808086Y535296D01*
X807942Y534801D01*
X807787Y534310D01*
X807620Y533822D01*
X807441Y533339D01*
X807251Y532860D01*
X807050Y532386D01*
X806837Y531917D01*
X806613Y531453D01*
X806378Y530994D01*
X806131Y530542D01*
X805875Y530095D01*
X805607Y529655D01*
X805329Y529221D01*
X805041Y528794D01*
X804742Y528374D01*
X804433Y527962D01*
X804115Y527556D01*
X803787Y527159D01*
X803450Y526770D01*
X803103Y526389D01*
X802747Y526016D01*
X802383Y525652D01*
X802010Y525297D01*
X801628Y524951D01*
X801238Y524614D01*
X801084Y524798D01*
X801470Y525131D01*
X801847Y525473D01*
X802216Y525825D01*
X802576Y526185D01*
X802928Y526553D01*
X803271Y526930D01*
X803604Y527315D01*
X803929Y527708D01*
X804243Y528108D01*
X804548Y528516D01*
X804844Y528931D01*
X805129Y529353D01*
X805404Y529782D01*
X805668Y530218D01*
X805922Y530659D01*
X806165Y531107D01*
X806398Y531560D01*
X806619Y532018D01*
X806830Y532482D01*
X807029Y532951D01*
X807217Y533425D01*
X807394Y533902D01*
X807559Y534384D01*
X807712Y534870D01*
X807854Y535359D01*
X807984Y535852D01*
X808102Y536347D01*
X808208Y536845D01*
X808303Y537346D01*
X808385Y537849D01*
X808455Y538353D01*
X808513Y538859D01*
X808558Y539367D01*
X808592Y539875D01*
X808613Y540384D01*
X808623Y540893D01*
X808383Y540893D01*
X808374Y540390D01*
X808352Y539887D01*
X808319Y539384D01*
X808274Y538883D01*
X808217Y538382D01*
X808147Y537884D01*
X808066Y537387D01*
X807973Y536892D01*
X807868Y536399D01*
X807751Y535910D01*
X807623Y535423D01*
X807483Y534939D01*
X807331Y534459D01*
X807168Y533983D01*
X806993Y533510D01*
X806807Y533042D01*
X806610Y532579D01*
X806402Y532120D01*
X806183Y531667D01*
X805953Y531219D01*
X805713Y530776D01*
X805462Y530340D01*
X805200Y529910D01*
X804928Y529486D01*
X804647Y529068D01*
X804355Y528658D01*
X804053Y528255D01*
X803742Y527859D01*
X803422Y527470D01*
X803092Y527090D01*
X802753Y526717D01*
X802406Y526353D01*
X802049Y525997D01*
X801685Y525650D01*
X801312Y525312D01*
X800931Y524982D01*
X800777Y525167D01*
X801154Y525492D01*
X801522Y525827D01*
X801883Y526170D01*
X802235Y526522D01*
X802578Y526882D01*
X802913Y527250D01*
X803239Y527626D01*
X803556Y528010D01*
X803863Y528401D01*
X804161Y528800D01*
X804450Y529206D01*
X804728Y529618D01*
X804997Y530037D01*
X805255Y530462D01*
X805503Y530894D01*
X805741Y531331D01*
X805968Y531774D01*
X806185Y532222D01*
X806390Y532675D01*
X806585Y533133D01*
X806769Y533596D01*
X806941Y534063D01*
X807103Y534534D01*
X807253Y535008D01*
X807391Y535486D01*
X807518Y535967D01*
X807634Y536451D01*
X807737Y536938D01*
X807830Y537427D01*
X807910Y537919D01*
X807978Y538411D01*
X808035Y538906D01*
X808080Y539402D01*
X808113Y539898D01*
X808134Y540396D01*
X808143Y540893D01*
X807903Y540893D01*
X807894Y540401D01*
X807873Y539910D01*
X807840Y539419D01*
X807796Y538929D01*
X807740Y538441D01*
X807672Y537953D01*
X807593Y537468D01*
X807502Y536985D01*
X807399Y536504D01*
X807285Y536025D01*
X807160Y535550D01*
X807023Y535077D01*
X806875Y534608D01*
X806715Y534143D01*
X806545Y533682D01*
X806363Y533224D01*
X806171Y532772D01*
X805967Y532324D01*
X805754Y531881D01*
X805529Y531443D01*
X805294Y531011D01*
X805049Y530585D01*
X804793Y530165D01*
X804528Y529750D01*
X804253Y529343D01*
X803968Y528942D01*
X803673Y528548D01*
X803369Y528161D01*
X803056Y527782D01*
X802734Y527410D01*
X802403Y527046D01*
X802064Y526690D01*
X801716Y526343D01*
X801360Y526003D01*
X800996Y525673D01*
X800623Y525351D01*
X800470Y525536D01*
X800837Y525853D01*
X801197Y526180D01*
X801549Y526515D01*
X801893Y526859D01*
X802229Y527210D01*
X802555Y527570D01*
X802874Y527937D01*
X803183Y528312D01*
X803483Y528695D01*
X803774Y529084D01*
X804056Y529480D01*
X804328Y529883D01*
X804590Y530292D01*
X804842Y530707D01*
X805085Y531129D01*
X805317Y531556D01*
X805539Y531988D01*
X805750Y532426D01*
X805951Y532868D01*
X806141Y533316D01*
X806321Y533767D01*
X806489Y534223D01*
X806647Y534683D01*
X806793Y535146D01*
X806928Y535613D01*
X807052Y536083D01*
X807165Y536556D01*
X807267Y537031D01*
X807356Y537509D01*
X807435Y537988D01*
X807502Y538470D01*
X807557Y538953D01*
X807601Y539437D01*
X807633Y539922D01*
X807654Y540407D01*
X807663Y540893D01*
X807423Y540893D01*
X807414Y540413D01*
X807393Y539933D01*
X807362Y539454D01*
X807318Y538976D01*
X807264Y538499D01*
X807197Y538023D01*
X807120Y537549D01*
X807031Y537078D01*
X806931Y536608D01*
X806819Y536141D01*
X806697Y535677D01*
X806563Y535215D01*
X806418Y534758D01*
X806263Y534303D01*
X806096Y533853D01*
X805919Y533407D01*
X805731Y532965D01*
X805533Y532527D01*
X805324Y532095D01*
X805105Y531668D01*
X804875Y531246D01*
X804636Y530830D01*
X804387Y530419D01*
X804128Y530015D01*
X803859Y529617D01*
X803581Y529226D01*
X803293Y528841D01*
X802997Y528463D01*
X802691Y528093D01*
X802377Y527730D01*
X802054Y527375D01*
X801722Y527027D01*
X801383Y526688D01*
X801035Y526357D01*
X800679Y526034D01*
X800316Y525720D01*
X800163Y525904D01*
X800521Y526215D01*
X800872Y526533D01*
X801216Y526861D01*
X801551Y527196D01*
X801879Y527539D01*
X802198Y527890D01*
X802508Y528249D01*
X802810Y528615D01*
X803103Y528988D01*
X803387Y529368D01*
X803662Y529754D01*
X803927Y530147D01*
X804183Y530547D01*
X804430Y530952D01*
X804666Y531363D01*
X804893Y531780D01*
X805109Y532202D01*
X805315Y532629D01*
X805511Y533061D01*
X805697Y533498D01*
X805872Y533939D01*
X806037Y534383D01*
X806190Y534832D01*
X806333Y535284D01*
X806465Y535740D01*
X806587Y536199D01*
X806697Y536660D01*
X806796Y537124D01*
X806883Y537590D01*
X806960Y538058D01*
X807025Y538528D01*
X807080Y538999D01*
X807122Y539472D01*
X807154Y539945D01*
X807174Y540419D01*
X807183Y540893D01*
X806943Y540893D01*
X806934Y540425D01*
X806914Y539957D01*
X806883Y539489D01*
X806841Y539023D01*
X806787Y538557D01*
X806723Y538093D01*
X806647Y537631D01*
X806560Y537170D01*
X806462Y536712D01*
X806354Y536256D01*
X806234Y535804D01*
X806103Y535354D01*
X805962Y534907D01*
X805810Y534464D01*
X805648Y534024D01*
X805475Y533589D01*
X805292Y533158D01*
X805098Y532731D01*
X804894Y532309D01*
X804680Y531892D01*
X804457Y531481D01*
X804223Y531075D01*
X803980Y530674D01*
X803727Y530280D01*
X803465Y529891D01*
X803194Y529510D01*
X802913Y529134D01*
X802624Y528766D01*
X802326Y528404D01*
X802019Y528050D01*
X801704Y527704D01*
X801381Y527364D01*
X801049Y527033D01*
X800710Y526710D01*
X800363Y526395D01*
X800009Y526089D01*
X799855Y526273D01*
X800205Y526576D01*
X800548Y526887D01*
X800883Y527206D01*
X801210Y527533D01*
X801529Y527868D01*
X801840Y528210D01*
X802143Y528560D01*
X802437Y528917D01*
X802723Y529281D01*
X803000Y529651D01*
X803268Y530029D01*
X803527Y530412D01*
X803777Y530802D01*
X804017Y531197D01*
X804247Y531598D01*
X804468Y532005D01*
X804679Y532416D01*
X804881Y532833D01*
X805072Y533254D01*
X805253Y533680D01*
X805424Y534110D01*
X805584Y534544D01*
X805734Y534982D01*
X805874Y535423D01*
X806002Y535867D01*
X806121Y536314D01*
X806228Y536764D01*
X806325Y537217D01*
X806410Y537671D01*
X806485Y538128D01*
X806549Y538586D01*
X806602Y539046D01*
X806644Y539507D01*
X806674Y539968D01*
X806694Y540431D01*
X806703Y540893D01*
X808862Y541146D02*
X806576Y541146D01*
X806577Y541147D02*
X806568Y541612D01*
X806548Y542077D01*
X806517Y542541D01*
X806474Y543004D01*
X806420Y543466D01*
X806355Y543927D01*
X806279Y544386D01*
X806192Y544843D01*
X806094Y545298D01*
X805984Y545750D01*
X805864Y546200D01*
X805733Y546646D01*
X805591Y547089D01*
X805438Y547529D01*
X805275Y547964D01*
X805101Y548396D01*
X804917Y548823D01*
X804723Y549246D01*
X804518Y549664D01*
X804303Y550077D01*
X804078Y550484D01*
X803844Y550886D01*
X803600Y551282D01*
X803346Y551672D01*
X803083Y552056D01*
X802810Y552433D01*
X802529Y552803D01*
X802239Y553167D01*
X801940Y553523D01*
X801632Y553872D01*
X801316Y554214D01*
X800992Y554548D01*
X800659Y554873D01*
X800319Y555191D01*
X799972Y555500D01*
X799617Y555801D01*
X799255Y556093D01*
X798885Y556376D01*
X798509Y556650D01*
X798127Y556915D01*
X797738Y557171D01*
X797343Y557417D01*
X796942Y557653D01*
X796536Y557880D01*
X797611Y559897D01*
X797612Y559897D01*
X798067Y559643D01*
X798517Y559379D01*
X798959Y559103D01*
X799395Y558817D01*
X799824Y558520D01*
X800246Y558214D01*
X800660Y557896D01*
X801066Y557569D01*
X801464Y557232D01*
X801853Y556886D01*
X802235Y556530D01*
X802607Y556165D01*
X802970Y555791D01*
X803325Y555409D01*
X803670Y555018D01*
X804005Y554618D01*
X804330Y554211D01*
X804646Y553796D01*
X804951Y553373D01*
X805246Y552943D01*
X805530Y552506D01*
X805804Y552062D01*
X806067Y551612D01*
X806319Y551155D01*
X806559Y550693D01*
X806789Y550224D01*
X807007Y549751D01*
X807213Y549272D01*
X807408Y548788D01*
X807590Y548300D01*
X807761Y547807D01*
X807920Y547310D01*
X808067Y546810D01*
X808202Y546306D01*
X808324Y545799D01*
X808434Y545290D01*
X808531Y544777D01*
X808616Y544263D01*
X808689Y543746D01*
X808749Y543229D01*
X808796Y542709D01*
X808831Y542189D01*
X808853Y541668D01*
X808863Y541147D01*
X808623Y541147D01*
X808613Y541662D01*
X808591Y542177D01*
X808557Y542692D01*
X808510Y543205D01*
X808451Y543717D01*
X808379Y544228D01*
X808295Y544736D01*
X808198Y545243D01*
X808090Y545747D01*
X807969Y546248D01*
X807836Y546746D01*
X807691Y547241D01*
X807533Y547732D01*
X807364Y548219D01*
X807184Y548701D01*
X806991Y549180D01*
X806787Y549653D01*
X806572Y550122D01*
X806345Y550585D01*
X806107Y551042D01*
X805858Y551493D01*
X805598Y551939D01*
X805328Y552377D01*
X805047Y552810D01*
X804755Y553235D01*
X804453Y553653D01*
X804141Y554063D01*
X803819Y554466D01*
X803488Y554861D01*
X803147Y555247D01*
X802797Y555626D01*
X802437Y555995D01*
X802069Y556356D01*
X801692Y556708D01*
X801307Y557051D01*
X800913Y557384D01*
X800512Y557707D01*
X800103Y558021D01*
X799686Y558324D01*
X799262Y558617D01*
X798831Y558900D01*
X798393Y559173D01*
X797949Y559434D01*
X797499Y559685D01*
X797386Y559474D01*
X797831Y559226D01*
X798270Y558967D01*
X798703Y558698D01*
X799129Y558418D01*
X799548Y558128D01*
X799960Y557828D01*
X800364Y557518D01*
X800761Y557198D01*
X801150Y556869D01*
X801531Y556530D01*
X801904Y556182D01*
X802268Y555826D01*
X802623Y555460D01*
X802969Y555086D01*
X803306Y554704D01*
X803634Y554314D01*
X803952Y553915D01*
X804260Y553510D01*
X804559Y553096D01*
X804847Y552676D01*
X805125Y552249D01*
X805393Y551815D01*
X805649Y551375D01*
X805896Y550929D01*
X806131Y550477D01*
X806355Y550019D01*
X806568Y549556D01*
X806770Y549088D01*
X806960Y548615D01*
X807139Y548138D01*
X807306Y547656D01*
X807461Y547171D01*
X807604Y546682D01*
X807736Y546189D01*
X807856Y545694D01*
X807963Y545196D01*
X808058Y544695D01*
X808142Y544192D01*
X808213Y543688D01*
X808271Y543181D01*
X808318Y542674D01*
X808352Y542165D01*
X808373Y541656D01*
X808383Y541147D01*
X808143Y541147D01*
X808133Y541650D01*
X808112Y542154D01*
X808078Y542656D01*
X808032Y543158D01*
X807974Y543658D01*
X807904Y544157D01*
X807822Y544654D01*
X807728Y545149D01*
X807621Y545641D01*
X807503Y546131D01*
X807373Y546618D01*
X807231Y547101D01*
X807078Y547581D01*
X806913Y548057D01*
X806736Y548529D01*
X806548Y548996D01*
X806349Y549458D01*
X806138Y549916D01*
X805916Y550369D01*
X805684Y550815D01*
X805441Y551257D01*
X805187Y551692D01*
X804922Y552120D01*
X804648Y552543D01*
X804363Y552958D01*
X804068Y553366D01*
X803763Y553768D01*
X803449Y554161D01*
X803125Y554547D01*
X802792Y554925D01*
X802449Y555295D01*
X802098Y555656D01*
X801738Y556008D01*
X801370Y556352D01*
X800994Y556687D01*
X800609Y557012D01*
X800217Y557328D01*
X799817Y557635D01*
X799410Y557931D01*
X798996Y558218D01*
X798575Y558495D01*
X798147Y558761D01*
X797713Y559017D01*
X797273Y559262D01*
X797160Y559050D01*
X797595Y558808D01*
X798024Y558555D01*
X798446Y558292D01*
X798863Y558018D01*
X799272Y557735D01*
X799674Y557442D01*
X800069Y557139D01*
X800457Y556827D01*
X800837Y556505D01*
X801209Y556174D01*
X801573Y555834D01*
X801929Y555486D01*
X802276Y555129D01*
X802614Y554764D01*
X802943Y554390D01*
X803263Y554009D01*
X803574Y553620D01*
X803875Y553223D01*
X804166Y552820D01*
X804448Y552409D01*
X804720Y551992D01*
X804981Y551568D01*
X805232Y551138D01*
X805472Y550702D01*
X805702Y550261D01*
X805921Y549813D01*
X806129Y549361D01*
X806326Y548904D01*
X806512Y548442D01*
X806687Y547976D01*
X806850Y547506D01*
X807002Y547031D01*
X807142Y546554D01*
X807270Y546073D01*
X807387Y545589D01*
X807492Y545102D01*
X807586Y544613D01*
X807667Y544122D01*
X807736Y543629D01*
X807794Y543134D01*
X807839Y542639D01*
X807872Y542142D01*
X807893Y541644D01*
X807903Y541147D01*
X807663Y541147D01*
X807654Y541638D01*
X807633Y542130D01*
X807600Y542621D01*
X807555Y543111D01*
X807498Y543599D01*
X807429Y544087D01*
X807349Y544572D01*
X807257Y545055D01*
X807153Y545536D01*
X807038Y546014D01*
X806911Y546490D01*
X806772Y546962D01*
X806622Y547430D01*
X806461Y547895D01*
X806288Y548356D01*
X806104Y548812D01*
X805910Y549264D01*
X805704Y549711D01*
X805488Y550153D01*
X805261Y550589D01*
X805023Y551020D01*
X804775Y551445D01*
X804517Y551863D01*
X804249Y552276D01*
X803970Y552681D01*
X803682Y553080D01*
X803385Y553472D01*
X803078Y553856D01*
X802761Y554233D01*
X802436Y554602D01*
X802102Y554963D01*
X801759Y555316D01*
X801408Y555661D01*
X801048Y555996D01*
X800680Y556323D01*
X800305Y556641D01*
X799922Y556950D01*
X799532Y557249D01*
X799134Y557539D01*
X798729Y557819D01*
X798318Y558089D01*
X797901Y558349D01*
X797477Y558599D01*
X797047Y558838D01*
X796934Y558626D01*
X797359Y558390D01*
X797777Y558143D01*
X798190Y557886D01*
X798596Y557619D01*
X798996Y557342D01*
X799389Y557056D01*
X799774Y556760D01*
X800153Y556455D01*
X800524Y556141D01*
X800887Y555818D01*
X801242Y555487D01*
X801589Y555146D01*
X801928Y554798D01*
X802258Y554441D01*
X802580Y554076D01*
X802892Y553704D01*
X803196Y553324D01*
X803490Y552937D01*
X803774Y552543D01*
X804049Y552142D01*
X804314Y551735D01*
X804569Y551321D01*
X804814Y550901D01*
X805049Y550476D01*
X805273Y550045D01*
X805487Y549608D01*
X805690Y549166D01*
X805883Y548720D01*
X806064Y548269D01*
X806235Y547814D01*
X806394Y547355D01*
X806542Y546892D01*
X806679Y546426D01*
X806805Y545956D01*
X806919Y545483D01*
X807022Y545008D01*
X807113Y544531D01*
X807192Y544051D01*
X807260Y543570D01*
X807316Y543087D01*
X807360Y542603D01*
X807393Y542118D01*
X807414Y541633D01*
X807423Y541147D01*
X807183Y541147D01*
X807174Y541627D01*
X807153Y542106D01*
X807121Y542585D01*
X807077Y543064D01*
X807022Y543541D01*
X806955Y544016D01*
X806876Y544490D01*
X806786Y544961D01*
X806685Y545431D01*
X806572Y545898D01*
X806448Y546361D01*
X806313Y546822D01*
X806166Y547279D01*
X806009Y547733D01*
X805840Y548183D01*
X805661Y548628D01*
X805471Y549069D01*
X805270Y549505D01*
X805059Y549937D01*
X804837Y550363D01*
X804606Y550783D01*
X804364Y551198D01*
X804111Y551606D01*
X803850Y552009D01*
X803578Y552405D01*
X803297Y552794D01*
X803006Y553177D01*
X802707Y553552D01*
X802398Y553920D01*
X802081Y554280D01*
X801754Y554632D01*
X801420Y554976D01*
X801077Y555313D01*
X800726Y555640D01*
X800367Y555959D01*
X800001Y556270D01*
X799627Y556571D01*
X799246Y556863D01*
X798858Y557146D01*
X798463Y557419D01*
X798062Y557683D01*
X797654Y557937D01*
X797241Y558181D01*
X796821Y558415D01*
X796708Y558203D01*
X797122Y557972D01*
X797531Y557731D01*
X797934Y557480D01*
X798330Y557220D01*
X798720Y556950D01*
X799103Y556670D01*
X799479Y556382D01*
X799849Y556084D01*
X800211Y555778D01*
X800565Y555462D01*
X800912Y555139D01*
X801250Y554807D01*
X801581Y554466D01*
X801903Y554118D01*
X802217Y553763D01*
X802521Y553399D01*
X802817Y553029D01*
X803104Y552651D01*
X803382Y552267D01*
X803650Y551875D01*
X803909Y551478D01*
X804158Y551074D01*
X804397Y550665D01*
X804626Y550249D01*
X804845Y549829D01*
X805053Y549403D01*
X805252Y548972D01*
X805439Y548536D01*
X805617Y548096D01*
X805783Y547652D01*
X805938Y547204D01*
X806083Y546752D01*
X806217Y546297D01*
X806339Y545839D01*
X806451Y545378D01*
X806551Y544915D01*
X806640Y544449D01*
X806717Y543981D01*
X806783Y543511D01*
X806838Y543040D01*
X806882Y542568D01*
X806913Y542095D01*
X806934Y541621D01*
X806943Y541147D01*
X806703Y541147D01*
X806694Y541615D01*
X806674Y542083D01*
X806642Y542550D01*
X806599Y543017D01*
X806545Y543482D01*
X806480Y543946D01*
X806403Y544408D01*
X806315Y544868D01*
X806216Y545326D01*
X806106Y545781D01*
X805985Y546233D01*
X805853Y546683D01*
X805711Y547129D01*
X805557Y547571D01*
X805393Y548010D01*
X805218Y548444D01*
X805032Y548874D01*
X804837Y549300D01*
X804630Y549721D01*
X804414Y550136D01*
X804188Y550546D01*
X803952Y550951D01*
X803706Y551349D01*
X803451Y551742D01*
X803186Y552128D01*
X802912Y552508D01*
X802628Y552881D01*
X802336Y553247D01*
X802035Y553606D01*
X801725Y553957D01*
X801407Y554301D01*
X801081Y554637D01*
X800746Y554965D01*
X800404Y555284D01*
X800054Y555596D01*
X799697Y555899D01*
X799332Y556192D01*
X798960Y556478D01*
X798582Y556753D01*
X798197Y557020D01*
X797805Y557277D01*
X797408Y557525D01*
X797004Y557763D01*
X796595Y557991D01*
X765938Y540894D02*
X768224Y540894D01*
X768223Y540893D02*
X768232Y540425D01*
X768253Y539957D01*
X768284Y539489D01*
X768327Y539022D01*
X768382Y538557D01*
X768448Y538093D01*
X768525Y537631D01*
X768613Y537171D01*
X768713Y536713D01*
X768824Y536257D01*
X768946Y535805D01*
X769079Y535356D01*
X769223Y534910D01*
X769377Y534467D01*
X769543Y534029D01*
X769719Y533595D01*
X769906Y533165D01*
X770103Y532740D01*
X770310Y532320D01*
X770528Y531905D01*
X770756Y531495D01*
X770993Y531091D01*
X771241Y530693D01*
X771498Y530302D01*
X771765Y529916D01*
X772041Y529537D01*
X772326Y529166D01*
X772620Y528801D01*
X772923Y528443D01*
X773235Y528093D01*
X773555Y527751D01*
X773883Y527417D01*
X774219Y527091D01*
X774564Y526773D01*
X774916Y526463D01*
X773439Y524719D01*
X773439Y524718D01*
X773044Y525065D01*
X772658Y525421D01*
X772281Y525786D01*
X771912Y526161D01*
X771553Y526544D01*
X771204Y526937D01*
X770864Y527337D01*
X770534Y527746D01*
X770214Y528163D01*
X769905Y528587D01*
X769606Y529019D01*
X769317Y529458D01*
X769040Y529904D01*
X768773Y530357D01*
X768518Y530816D01*
X768274Y531281D01*
X768041Y531752D01*
X767820Y532229D01*
X767611Y532711D01*
X767413Y533198D01*
X767228Y533689D01*
X767054Y534185D01*
X766893Y534685D01*
X766744Y535189D01*
X766608Y535696D01*
X766484Y536207D01*
X766372Y536720D01*
X766273Y537236D01*
X766187Y537754D01*
X766113Y538274D01*
X766053Y538796D01*
X766005Y539319D01*
X765969Y539843D01*
X765947Y540368D01*
X765937Y540893D01*
X766177Y540893D01*
X766187Y540374D01*
X766209Y539855D01*
X766244Y539337D01*
X766291Y538820D01*
X766352Y538304D01*
X766424Y537790D01*
X766510Y537277D01*
X766607Y536767D01*
X766718Y536260D01*
X766840Y535755D01*
X766975Y535253D01*
X767123Y534755D01*
X767282Y534261D01*
X767453Y533771D01*
X767637Y533285D01*
X767832Y532804D01*
X768039Y532327D01*
X768257Y531856D01*
X768487Y531390D01*
X768729Y530930D01*
X768981Y530477D01*
X769245Y530029D01*
X769519Y529588D01*
X769804Y529154D01*
X770100Y528727D01*
X770406Y528307D01*
X770722Y527895D01*
X771048Y527491D01*
X771384Y527095D01*
X771730Y526707D01*
X772085Y526328D01*
X772449Y525958D01*
X772822Y525596D01*
X773204Y525244D01*
X773594Y524901D01*
X773749Y525085D01*
X773363Y525423D01*
X772986Y525771D01*
X772617Y526129D01*
X772257Y526495D01*
X771906Y526870D01*
X771565Y527253D01*
X771233Y527645D01*
X770910Y528044D01*
X770598Y528451D01*
X770295Y528866D01*
X770003Y529288D01*
X769721Y529718D01*
X769450Y530154D01*
X769189Y530596D01*
X768940Y531045D01*
X768701Y531499D01*
X768474Y531960D01*
X768258Y532425D01*
X768053Y532896D01*
X767860Y533372D01*
X767679Y533853D01*
X767510Y534337D01*
X767352Y534826D01*
X767207Y535318D01*
X767073Y535814D01*
X766952Y536313D01*
X766843Y536815D01*
X766746Y537319D01*
X766662Y537825D01*
X766590Y538334D01*
X766530Y538844D01*
X766483Y539355D01*
X766449Y539867D01*
X766427Y540380D01*
X766417Y540893D01*
X766657Y540893D01*
X766667Y540386D01*
X766688Y539879D01*
X766723Y539373D01*
X766769Y538867D01*
X766828Y538363D01*
X766899Y537861D01*
X766982Y537360D01*
X767078Y536862D01*
X767186Y536366D01*
X767306Y535873D01*
X767438Y535383D01*
X767582Y534896D01*
X767737Y534413D01*
X767905Y533934D01*
X768084Y533459D01*
X768275Y532989D01*
X768477Y532524D01*
X768690Y532063D01*
X768915Y531608D01*
X769151Y531159D01*
X769398Y530715D01*
X769655Y530278D01*
X769923Y529847D01*
X770202Y529423D01*
X770490Y529006D01*
X770789Y528596D01*
X771098Y528193D01*
X771417Y527798D01*
X771745Y527411D01*
X772083Y527032D01*
X772430Y526662D01*
X772785Y526300D01*
X773150Y525947D01*
X773523Y525603D01*
X773904Y525268D01*
X774059Y525451D01*
X773682Y525782D01*
X773314Y526122D01*
X772954Y526471D01*
X772602Y526829D01*
X772259Y527195D01*
X771926Y527569D01*
X771601Y527952D01*
X771286Y528342D01*
X770981Y528740D01*
X770686Y529145D01*
X770400Y529558D01*
X770125Y529977D01*
X769860Y530403D01*
X769606Y530835D01*
X769362Y531273D01*
X769129Y531717D01*
X768907Y532167D01*
X768696Y532622D01*
X768496Y533082D01*
X768308Y533547D01*
X768130Y534016D01*
X767965Y534489D01*
X767811Y534967D01*
X767669Y535448D01*
X767538Y535932D01*
X767420Y536419D01*
X767313Y536909D01*
X767219Y537402D01*
X767136Y537896D01*
X767066Y538393D01*
X767008Y538891D01*
X766962Y539391D01*
X766928Y539891D01*
X766907Y540392D01*
X766897Y540893D01*
X767137Y540893D01*
X767147Y540398D01*
X767168Y539903D01*
X767201Y539408D01*
X767247Y538915D01*
X767304Y538423D01*
X767374Y537932D01*
X767455Y537443D01*
X767549Y536957D01*
X767654Y536472D01*
X767771Y535991D01*
X767900Y535512D01*
X768040Y535037D01*
X768193Y534565D01*
X768356Y534098D01*
X768531Y533634D01*
X768717Y533175D01*
X768915Y532720D01*
X769123Y532271D01*
X769343Y531826D01*
X769573Y531388D01*
X769814Y530954D01*
X770065Y530527D01*
X770327Y530107D01*
X770599Y529692D01*
X770881Y529285D01*
X771173Y528884D01*
X771475Y528491D01*
X771786Y528106D01*
X772106Y527728D01*
X772436Y527358D01*
X772774Y526996D01*
X773122Y526642D01*
X773478Y526297D01*
X773842Y525961D01*
X774214Y525634D01*
X774369Y525817D01*
X774001Y526141D01*
X773642Y526473D01*
X773290Y526813D01*
X772947Y527163D01*
X772612Y527520D01*
X772287Y527886D01*
X771970Y528259D01*
X771663Y528640D01*
X771365Y529029D01*
X771076Y529424D01*
X770798Y529827D01*
X770529Y530236D01*
X770270Y530652D01*
X770022Y531074D01*
X769784Y531502D01*
X769557Y531935D01*
X769340Y532374D01*
X769134Y532819D01*
X768939Y533268D01*
X768755Y533721D01*
X768582Y534179D01*
X768420Y534641D01*
X768270Y535107D01*
X768131Y535577D01*
X768004Y536050D01*
X767888Y536525D01*
X767784Y537004D01*
X767692Y537485D01*
X767611Y537968D01*
X767542Y538452D01*
X767485Y538939D01*
X767441Y539426D01*
X767408Y539915D01*
X767386Y540404D01*
X767377Y540893D01*
X767617Y540893D01*
X767626Y540410D01*
X767647Y539927D01*
X767680Y539444D01*
X767724Y538962D01*
X767780Y538482D01*
X767848Y538003D01*
X767928Y537526D01*
X768019Y537051D01*
X768122Y536579D01*
X768236Y536109D01*
X768362Y535642D01*
X768499Y535178D01*
X768648Y534718D01*
X768807Y534261D01*
X768978Y533809D01*
X769160Y533360D01*
X769353Y532917D01*
X769556Y532478D01*
X769770Y532044D01*
X769995Y531616D01*
X770230Y531193D01*
X770475Y530777D01*
X770731Y530366D01*
X770996Y529962D01*
X771272Y529564D01*
X771556Y529173D01*
X771851Y528789D01*
X772154Y528413D01*
X772467Y528044D01*
X772789Y527683D01*
X773119Y527330D01*
X773458Y526985D01*
X773805Y526648D01*
X774161Y526320D01*
X774524Y526001D01*
X774679Y526184D01*
X774320Y526499D01*
X773969Y526823D01*
X773626Y527156D01*
X773292Y527497D01*
X772965Y527845D01*
X772648Y528202D01*
X772339Y528567D01*
X772039Y528938D01*
X771748Y529317D01*
X771467Y529703D01*
X771195Y530096D01*
X770933Y530496D01*
X770681Y530901D01*
X770438Y531313D01*
X770206Y531730D01*
X769984Y532153D01*
X769773Y532582D01*
X769572Y533015D01*
X769381Y533453D01*
X769202Y533896D01*
X769033Y534343D01*
X768875Y534794D01*
X768729Y535248D01*
X768593Y535706D01*
X768469Y536168D01*
X768356Y536632D01*
X768254Y537099D01*
X768164Y537568D01*
X768086Y538039D01*
X768019Y538512D01*
X767963Y538986D01*
X767919Y539462D01*
X767887Y539939D01*
X767866Y540416D01*
X767857Y540893D01*
X768097Y540893D01*
X768106Y540422D01*
X768127Y539950D01*
X768159Y539480D01*
X768202Y539010D01*
X768257Y538541D01*
X768323Y538074D01*
X768401Y537609D01*
X768490Y537146D01*
X768590Y536685D01*
X768702Y536227D01*
X768824Y535771D01*
X768958Y535319D01*
X769103Y534870D01*
X769259Y534424D01*
X769425Y533983D01*
X769603Y533546D01*
X769791Y533113D01*
X769989Y532685D01*
X770198Y532262D01*
X770417Y531845D01*
X770646Y531432D01*
X770886Y531026D01*
X771135Y530625D01*
X771394Y530231D01*
X771662Y529843D01*
X771940Y529462D01*
X772227Y529087D01*
X772523Y528720D01*
X772828Y528360D01*
X773142Y528008D01*
X773464Y527663D01*
X773795Y527327D01*
X774133Y526999D01*
X774480Y526679D01*
X774834Y526367D01*
X776641Y559592D02*
X777776Y557607D01*
X777775Y557608D02*
X777377Y557370D01*
X776985Y557124D01*
X776600Y556867D01*
X776220Y556602D01*
X775847Y556328D01*
X775481Y556044D01*
X775122Y555752D01*
X774770Y555451D01*
X774425Y555142D01*
X774088Y554825D01*
X773758Y554499D01*
X773437Y554166D01*
X773123Y553825D01*
X772818Y553476D01*
X772522Y553121D01*
X772234Y552758D01*
X771955Y552388D01*
X771685Y552012D01*
X771424Y551629D01*
X771173Y551240D01*
X770931Y550846D01*
X770698Y550445D01*
X770476Y550039D01*
X770263Y549628D01*
X770060Y549211D01*
X769867Y548790D01*
X769685Y548365D01*
X769513Y547935D01*
X769351Y547501D01*
X769200Y547063D01*
X769059Y546622D01*
X768929Y546177D01*
X768810Y545730D01*
X768702Y545280D01*
X768604Y544827D01*
X768518Y544372D01*
X768443Y543915D01*
X768378Y543456D01*
X768325Y542996D01*
X768283Y542535D01*
X768252Y542073D01*
X768232Y541610D01*
X768223Y541147D01*
X765938Y541147D01*
X765937Y541147D01*
X765947Y541666D01*
X765969Y542185D01*
X766003Y542703D01*
X766050Y543220D01*
X766109Y543735D01*
X766181Y544249D01*
X766265Y544761D01*
X766362Y545271D01*
X766471Y545779D01*
X766592Y546283D01*
X766725Y546785D01*
X766871Y547283D01*
X767028Y547778D01*
X767198Y548268D01*
X767379Y548755D01*
X767572Y549237D01*
X767776Y549714D01*
X767992Y550185D01*
X768219Y550652D01*
X768458Y551113D01*
X768707Y551568D01*
X768968Y552017D01*
X769239Y552459D01*
X769521Y552895D01*
X769813Y553324D01*
X770116Y553746D01*
X770429Y554160D01*
X770751Y554566D01*
X771084Y554965D01*
X771426Y555356D01*
X771777Y555738D01*
X772137Y556111D01*
X772507Y556476D01*
X772885Y556831D01*
X773271Y557178D01*
X773666Y557515D01*
X774069Y557842D01*
X774479Y558159D01*
X774898Y558467D01*
X775323Y558764D01*
X775756Y559051D01*
X776195Y559327D01*
X776641Y559592D01*
X776760Y559384D01*
X776319Y559122D01*
X775885Y558848D01*
X775457Y558565D01*
X775036Y558271D01*
X774623Y557967D01*
X774217Y557653D01*
X773819Y557329D01*
X773428Y556996D01*
X773046Y556654D01*
X772673Y556302D01*
X772307Y555942D01*
X771951Y555573D01*
X771604Y555195D01*
X771266Y554809D01*
X770937Y554415D01*
X770618Y554013D01*
X770309Y553603D01*
X770010Y553186D01*
X769721Y552762D01*
X769442Y552331D01*
X769174Y551894D01*
X768916Y551450D01*
X768670Y551000D01*
X768434Y550545D01*
X768209Y550083D01*
X767996Y549617D01*
X767793Y549145D01*
X767603Y548669D01*
X767424Y548188D01*
X767256Y547703D01*
X767101Y547214D01*
X766957Y546721D01*
X766825Y546225D01*
X766705Y545726D01*
X766597Y545225D01*
X766502Y544720D01*
X766419Y544214D01*
X766348Y543706D01*
X766289Y543196D01*
X766242Y542685D01*
X766208Y542173D01*
X766187Y541660D01*
X766177Y541147D01*
X766417Y541147D01*
X766427Y541655D01*
X766448Y542161D01*
X766482Y542668D01*
X766528Y543173D01*
X766586Y543677D01*
X766656Y544179D01*
X766738Y544680D01*
X766833Y545178D01*
X766939Y545674D01*
X767058Y546167D01*
X767188Y546657D01*
X767330Y547144D01*
X767484Y547628D01*
X767650Y548107D01*
X767827Y548583D01*
X768015Y549053D01*
X768215Y549520D01*
X768426Y549981D01*
X768648Y550437D01*
X768881Y550888D01*
X769125Y551332D01*
X769380Y551771D01*
X769645Y552204D01*
X769921Y552629D01*
X770206Y553049D01*
X770502Y553461D01*
X770808Y553866D01*
X771123Y554263D01*
X771448Y554652D01*
X771782Y555034D01*
X772125Y555408D01*
X772478Y555773D01*
X772839Y556129D01*
X773208Y556477D01*
X773586Y556815D01*
X773972Y557144D01*
X774365Y557464D01*
X774767Y557775D01*
X775175Y558075D01*
X775591Y558366D01*
X776014Y558646D01*
X776443Y558916D01*
X776879Y559176D01*
X776998Y558967D01*
X776567Y558711D01*
X776143Y558444D01*
X775725Y558167D01*
X775314Y557879D01*
X774910Y557582D01*
X774514Y557276D01*
X774124Y556959D01*
X773743Y556634D01*
X773370Y556299D01*
X773005Y555956D01*
X772648Y555603D01*
X772300Y555243D01*
X771960Y554873D01*
X771630Y554496D01*
X771309Y554111D01*
X770997Y553718D01*
X770695Y553318D01*
X770403Y552911D01*
X770120Y552497D01*
X769848Y552076D01*
X769586Y551648D01*
X769334Y551214D01*
X769093Y550775D01*
X768863Y550329D01*
X768643Y549879D01*
X768435Y549423D01*
X768237Y548962D01*
X768051Y548496D01*
X767876Y548027D01*
X767712Y547553D01*
X767560Y547075D01*
X767420Y546594D01*
X767291Y546109D01*
X767174Y545621D01*
X767068Y545131D01*
X766975Y544639D01*
X766893Y544144D01*
X766824Y543647D01*
X766766Y543149D01*
X766721Y542650D01*
X766688Y542150D01*
X766667Y541649D01*
X766657Y541147D01*
X766897Y541147D01*
X766906Y541643D01*
X766927Y542138D01*
X766960Y542632D01*
X767005Y543126D01*
X767062Y543618D01*
X767131Y544109D01*
X767211Y544598D01*
X767304Y545085D01*
X767408Y545569D01*
X767524Y546051D01*
X767651Y546530D01*
X767790Y547005D01*
X767940Y547478D01*
X768102Y547946D01*
X768275Y548410D01*
X768459Y548870D01*
X768654Y549326D01*
X768860Y549776D01*
X769077Y550222D01*
X769305Y550662D01*
X769543Y551096D01*
X769792Y551525D01*
X770051Y551948D01*
X770320Y552364D01*
X770599Y552773D01*
X770888Y553176D01*
X771187Y553571D01*
X771495Y553959D01*
X771812Y554340D01*
X772139Y554713D01*
X772474Y555077D01*
X772818Y555434D01*
X773171Y555782D01*
X773531Y556122D01*
X773900Y556453D01*
X774277Y556774D01*
X774662Y557087D01*
X775054Y557390D01*
X775453Y557684D01*
X775859Y557967D01*
X776272Y558241D01*
X776691Y558505D01*
X777117Y558759D01*
X777236Y558551D01*
X776816Y558300D01*
X776401Y558039D01*
X775993Y557768D01*
X775592Y557488D01*
X775197Y557198D01*
X774810Y556898D01*
X774430Y556589D01*
X774058Y556271D01*
X773693Y555945D01*
X773337Y555609D01*
X772988Y555265D01*
X772648Y554912D01*
X772317Y554552D01*
X771994Y554184D01*
X771681Y553807D01*
X771376Y553424D01*
X771081Y553033D01*
X770796Y552635D01*
X770520Y552231D01*
X770254Y551820D01*
X769998Y551402D01*
X769752Y550979D01*
X769517Y550549D01*
X769292Y550114D01*
X769078Y549674D01*
X768874Y549229D01*
X768681Y548779D01*
X768499Y548324D01*
X768328Y547865D01*
X768168Y547403D01*
X768020Y546936D01*
X767882Y546466D01*
X767756Y545993D01*
X767642Y545517D01*
X767539Y545038D01*
X767448Y544557D01*
X767368Y544074D01*
X767300Y543589D01*
X767244Y543102D01*
X767200Y542615D01*
X767167Y542126D01*
X767146Y541637D01*
X767137Y541147D01*
X767377Y541147D01*
X767386Y541631D01*
X767407Y542114D01*
X767439Y542597D01*
X767483Y543079D01*
X767539Y543560D01*
X767606Y544039D01*
X767684Y544516D01*
X767775Y544991D01*
X767876Y545464D01*
X767989Y545935D01*
X768114Y546402D01*
X768249Y546867D01*
X768396Y547328D01*
X768554Y547785D01*
X768723Y548238D01*
X768903Y548687D01*
X769093Y549132D01*
X769295Y549572D01*
X769507Y550007D01*
X769729Y550436D01*
X769961Y550861D01*
X770204Y551279D01*
X770457Y551692D01*
X770720Y552098D01*
X770992Y552498D01*
X771274Y552891D01*
X771566Y553277D01*
X771867Y553656D01*
X772176Y554027D01*
X772495Y554391D01*
X772822Y554747D01*
X773158Y555096D01*
X773503Y555436D01*
X773855Y555767D01*
X774215Y556090D01*
X774583Y556404D01*
X774958Y556709D01*
X775341Y557005D01*
X775731Y557292D01*
X776127Y557569D01*
X776530Y557837D01*
X776940Y558094D01*
X777355Y558342D01*
X777474Y558134D01*
X777064Y557889D01*
X776659Y557634D01*
X776261Y557370D01*
X775870Y557096D01*
X775485Y556813D01*
X775107Y556521D01*
X774736Y556219D01*
X774372Y555909D01*
X774017Y555590D01*
X773669Y555262D01*
X773329Y554926D01*
X772997Y554582D01*
X772673Y554231D01*
X772359Y553871D01*
X772053Y553504D01*
X771755Y553129D01*
X771468Y552748D01*
X771189Y552360D01*
X770920Y551965D01*
X770660Y551564D01*
X770410Y551156D01*
X770171Y550743D01*
X769941Y550324D01*
X769721Y549899D01*
X769512Y549470D01*
X769313Y549035D01*
X769125Y548596D01*
X768947Y548152D01*
X768780Y547704D01*
X768624Y547253D01*
X768479Y546797D01*
X768345Y546338D01*
X768222Y545877D01*
X768110Y545412D01*
X768010Y544945D01*
X767921Y544475D01*
X767843Y544004D01*
X767777Y543530D01*
X767722Y543056D01*
X767678Y542580D01*
X767647Y542103D01*
X767626Y541625D01*
X767617Y541147D01*
X767857Y541147D01*
X767866Y541619D01*
X767886Y542091D01*
X767918Y542562D01*
X767961Y543032D01*
X768015Y543501D01*
X768081Y543969D01*
X768157Y544434D01*
X768245Y544898D01*
X768345Y545360D01*
X768455Y545818D01*
X768576Y546275D01*
X768709Y546728D01*
X768852Y547178D01*
X769006Y547624D01*
X769171Y548066D01*
X769346Y548504D01*
X769532Y548938D01*
X769729Y549367D01*
X769936Y549792D01*
X770153Y550211D01*
X770380Y550625D01*
X770616Y551033D01*
X770863Y551436D01*
X771120Y551832D01*
X771385Y552222D01*
X771661Y552606D01*
X771945Y552982D01*
X772238Y553352D01*
X772541Y553715D01*
X772852Y554070D01*
X773171Y554417D01*
X773499Y554757D01*
X773835Y555089D01*
X774178Y555412D01*
X774530Y555728D01*
X774889Y556034D01*
X775255Y556332D01*
X775628Y556621D01*
X776008Y556901D01*
X776395Y557171D01*
X776789Y557432D01*
X777188Y557684D01*
X777593Y557925D01*
X777713Y557717D01*
X777312Y557478D01*
X776918Y557230D01*
X776529Y556972D01*
X776147Y556705D01*
X775772Y556429D01*
X775403Y556143D01*
X775041Y555849D01*
X774687Y555546D01*
X774340Y555235D01*
X774001Y554916D01*
X773669Y554588D01*
X773345Y554252D01*
X773030Y553909D01*
X772723Y553558D01*
X772424Y553200D01*
X772135Y552835D01*
X771854Y552463D01*
X771582Y552084D01*
X771319Y551699D01*
X771066Y551308D01*
X770823Y550910D01*
X770589Y550507D01*
X770364Y550098D01*
X770150Y549684D01*
X769946Y549265D01*
X769752Y548841D01*
X769568Y548413D01*
X769395Y547980D01*
X769232Y547543D01*
X769080Y547103D01*
X768939Y546658D01*
X768808Y546211D01*
X768688Y545760D01*
X768579Y545307D01*
X768481Y544851D01*
X768394Y544393D01*
X768318Y543933D01*
X768253Y543472D01*
X768200Y543009D01*
X768157Y542544D01*
X768126Y542079D01*
X768106Y541614D01*
X768097Y541147D01*
D24*
X804672Y559562D02*
X804672Y566928D01*
X808482Y563372D02*
X800608Y563372D01*
D22*
X778082Y461225D02*
X778879Y460108D01*
X778879Y460109D02*
X778597Y459900D01*
X778320Y459684D01*
X778049Y459462D01*
X777783Y459234D01*
X777522Y458999D01*
X777267Y458758D01*
X777019Y458510D01*
X776776Y458257D01*
X776539Y457998D01*
X776309Y457734D01*
X776085Y457463D01*
X775868Y457188D01*
X775657Y456908D01*
X775453Y456622D01*
X775256Y456332D01*
X775066Y456037D01*
X774884Y455737D01*
X774708Y455433D01*
X774540Y455125D01*
X774380Y454813D01*
X774227Y454498D01*
X774082Y454178D01*
X773944Y453856D01*
X773814Y453530D01*
X773692Y453201D01*
X773578Y452869D01*
X773473Y452534D01*
X773375Y452198D01*
X773285Y451858D01*
X773204Y451517D01*
X773131Y451174D01*
X773066Y450829D01*
X773009Y450483D01*
X772961Y450136D01*
X772921Y449787D01*
X772890Y449438D01*
X772867Y449088D01*
X772852Y448737D01*
X772846Y448386D01*
X771475Y448386D01*
X771474Y448386D01*
X771481Y448771D01*
X771496Y449154D01*
X771521Y449538D01*
X771556Y449921D01*
X771599Y450302D01*
X771652Y450683D01*
X771714Y451062D01*
X771785Y451440D01*
X771865Y451816D01*
X771954Y452190D01*
X772052Y452561D01*
X772159Y452930D01*
X772275Y453296D01*
X772399Y453660D01*
X772533Y454020D01*
X772675Y454377D01*
X772826Y454731D01*
X772985Y455080D01*
X773152Y455426D01*
X773328Y455768D01*
X773512Y456105D01*
X773704Y456438D01*
X773904Y456766D01*
X774112Y457089D01*
X774328Y457407D01*
X774551Y457720D01*
X774782Y458027D01*
X775020Y458329D01*
X775265Y458625D01*
X775518Y458914D01*
X775777Y459198D01*
X776043Y459475D01*
X776316Y459746D01*
X776595Y460010D01*
X776880Y460267D01*
X777172Y460518D01*
X777469Y460761D01*
X777773Y460997D01*
X778082Y461225D01*
X778165Y461109D01*
X777859Y460882D01*
X777558Y460649D01*
X777263Y460408D01*
X776974Y460159D01*
X776692Y459905D01*
X776415Y459643D01*
X776145Y459375D01*
X775881Y459100D01*
X775624Y458819D01*
X775374Y458532D01*
X775131Y458239D01*
X774895Y457940D01*
X774666Y457635D01*
X774445Y457325D01*
X774232Y457010D01*
X774025Y456690D01*
X773827Y456365D01*
X773637Y456035D01*
X773455Y455701D01*
X773280Y455362D01*
X773114Y455020D01*
X772957Y454673D01*
X772807Y454323D01*
X772666Y453969D01*
X772534Y453612D01*
X772411Y453252D01*
X772296Y452889D01*
X772190Y452523D01*
X772093Y452155D01*
X772004Y451785D01*
X771925Y451412D01*
X771855Y451038D01*
X771793Y450662D01*
X771741Y450285D01*
X771698Y449907D01*
X771664Y449527D01*
X771639Y449148D01*
X771624Y448767D01*
X771617Y448386D01*
X771760Y448386D01*
X771767Y448764D01*
X771782Y449141D01*
X771807Y449517D01*
X771840Y449893D01*
X771883Y450268D01*
X771935Y450641D01*
X771995Y451014D01*
X772065Y451385D01*
X772144Y451754D01*
X772231Y452121D01*
X772328Y452485D01*
X772433Y452848D01*
X772547Y453207D01*
X772669Y453564D01*
X772800Y453918D01*
X772940Y454269D01*
X773087Y454616D01*
X773244Y454959D01*
X773408Y455299D01*
X773581Y455634D01*
X773762Y455965D01*
X773950Y456292D01*
X774147Y456614D01*
X774351Y456931D01*
X774563Y457244D01*
X774782Y457551D01*
X775008Y457852D01*
X775242Y458148D01*
X775483Y458439D01*
X775731Y458723D01*
X775985Y459002D01*
X776246Y459274D01*
X776514Y459540D01*
X776788Y459799D01*
X777068Y460052D01*
X777355Y460298D01*
X777647Y460536D01*
X777945Y460768D01*
X778248Y460993D01*
X778331Y460876D01*
X778030Y460654D01*
X777735Y460424D01*
X777446Y460188D01*
X777163Y459944D01*
X776885Y459694D01*
X776613Y459437D01*
X776348Y459173D01*
X776089Y458904D01*
X775837Y458628D01*
X775592Y458346D01*
X775353Y458058D01*
X775121Y457765D01*
X774897Y457466D01*
X774680Y457162D01*
X774470Y456852D01*
X774268Y456538D01*
X774073Y456219D01*
X773886Y455895D01*
X773707Y455567D01*
X773536Y455235D01*
X773373Y454898D01*
X773218Y454558D01*
X773072Y454214D01*
X772934Y453867D01*
X772804Y453516D01*
X772682Y453163D01*
X772570Y452806D01*
X772466Y452447D01*
X772370Y452086D01*
X772283Y451722D01*
X772205Y451357D01*
X772136Y450989D01*
X772076Y450621D01*
X772025Y450250D01*
X771983Y449879D01*
X771949Y449507D01*
X771925Y449134D01*
X771910Y448760D01*
X771903Y448386D01*
X772046Y448386D01*
X772052Y448757D01*
X772068Y449127D01*
X772092Y449496D01*
X772125Y449865D01*
X772167Y450233D01*
X772218Y450600D01*
X772277Y450965D01*
X772346Y451329D01*
X772423Y451691D01*
X772509Y452051D01*
X772603Y452410D01*
X772707Y452765D01*
X772818Y453118D01*
X772938Y453468D01*
X773067Y453816D01*
X773204Y454160D01*
X773349Y454500D01*
X773503Y454838D01*
X773664Y455171D01*
X773834Y455500D01*
X774011Y455825D01*
X774196Y456146D01*
X774389Y456462D01*
X774589Y456773D01*
X774797Y457080D01*
X775012Y457381D01*
X775235Y457677D01*
X775464Y457968D01*
X775700Y458253D01*
X775944Y458532D01*
X776193Y458806D01*
X776450Y459073D01*
X776713Y459334D01*
X776982Y459588D01*
X777257Y459836D01*
X777537Y460078D01*
X777824Y460312D01*
X778116Y460539D01*
X778414Y460760D01*
X778497Y460643D01*
X778202Y460425D01*
X777913Y460200D01*
X777629Y459968D01*
X777351Y459729D01*
X777078Y459483D01*
X776812Y459231D01*
X776551Y458972D01*
X776298Y458708D01*
X776050Y458437D01*
X775809Y458160D01*
X775575Y457878D01*
X775348Y457590D01*
X775127Y457297D01*
X774914Y456998D01*
X774708Y456694D01*
X774510Y456386D01*
X774319Y456073D01*
X774136Y455755D01*
X773960Y455433D01*
X773792Y455107D01*
X773632Y454777D01*
X773480Y454443D01*
X773336Y454105D01*
X773201Y453765D01*
X773073Y453421D01*
X772954Y453074D01*
X772843Y452724D01*
X772741Y452372D01*
X772648Y452017D01*
X772563Y451660D01*
X772486Y451301D01*
X772418Y450941D01*
X772359Y450579D01*
X772309Y450215D01*
X772267Y449851D01*
X772235Y449486D01*
X772211Y449120D01*
X772195Y448753D01*
X772189Y448386D01*
X772332Y448386D01*
X772338Y448750D01*
X772353Y449113D01*
X772377Y449475D01*
X772410Y449837D01*
X772451Y450198D01*
X772501Y450558D01*
X772559Y450917D01*
X772626Y451274D01*
X772702Y451629D01*
X772786Y451982D01*
X772879Y452334D01*
X772980Y452683D01*
X773090Y453029D01*
X773208Y453373D01*
X773334Y453713D01*
X773469Y454051D01*
X773611Y454385D01*
X773762Y454716D01*
X773920Y455043D01*
X774086Y455366D01*
X774260Y455685D01*
X774442Y456000D01*
X774631Y456310D01*
X774828Y456615D01*
X775032Y456916D01*
X775243Y457212D01*
X775461Y457502D01*
X775686Y457788D01*
X775918Y458067D01*
X776156Y458341D01*
X776402Y458610D01*
X776653Y458872D01*
X776911Y459128D01*
X777175Y459378D01*
X777445Y459621D01*
X777720Y459858D01*
X778002Y460088D01*
X778288Y460311D01*
X778580Y460527D01*
X778663Y460411D01*
X778374Y460197D01*
X778090Y459975D01*
X777812Y459748D01*
X777539Y459513D01*
X777271Y459272D01*
X777010Y459025D01*
X776755Y458771D01*
X776506Y458511D01*
X776263Y458246D01*
X776027Y457974D01*
X775797Y457697D01*
X775574Y457415D01*
X775358Y457127D01*
X775149Y456834D01*
X774947Y456537D01*
X774752Y456234D01*
X774565Y455927D01*
X774385Y455615D01*
X774213Y455299D01*
X774048Y454979D01*
X773891Y454655D01*
X773742Y454328D01*
X773601Y453997D01*
X773468Y453662D01*
X773343Y453325D01*
X773226Y452985D01*
X773117Y452641D01*
X773017Y452296D01*
X772925Y451948D01*
X772842Y451598D01*
X772767Y451246D01*
X772700Y450892D01*
X772642Y450537D01*
X772593Y450181D01*
X772552Y449823D01*
X772520Y449465D01*
X772496Y449106D01*
X772481Y448746D01*
X772475Y448386D01*
X772618Y448386D01*
X772624Y448743D01*
X772639Y449099D01*
X772662Y449454D01*
X772694Y449809D01*
X772735Y450163D01*
X772784Y450516D01*
X772841Y450868D01*
X772907Y451218D01*
X772981Y451567D01*
X773064Y451913D01*
X773155Y452258D01*
X773254Y452600D01*
X773362Y452940D01*
X773478Y453277D01*
X773601Y453611D01*
X773733Y453942D01*
X773873Y454270D01*
X774020Y454595D01*
X774176Y454915D01*
X774339Y455232D01*
X774510Y455545D01*
X774688Y455854D01*
X774873Y456158D01*
X775066Y456458D01*
X775266Y456753D01*
X775473Y457043D01*
X775687Y457328D01*
X775908Y457607D01*
X776135Y457882D01*
X776369Y458150D01*
X776610Y458413D01*
X776856Y458671D01*
X777109Y458922D01*
X777368Y459167D01*
X777633Y459405D01*
X777903Y459638D01*
X778179Y459863D01*
X778460Y460082D01*
X778746Y460294D01*
X778830Y460178D01*
X778546Y459968D01*
X778268Y459751D01*
X777994Y459528D01*
X777727Y459298D01*
X777465Y459061D01*
X777209Y458819D01*
X776958Y458570D01*
X776714Y458315D01*
X776476Y458055D01*
X776244Y457789D01*
X776019Y457517D01*
X775800Y457240D01*
X775588Y456958D01*
X775383Y456671D01*
X775185Y456379D01*
X774994Y456082D01*
X774811Y455781D01*
X774634Y455475D01*
X774465Y455165D01*
X774304Y454851D01*
X774150Y454534D01*
X774004Y454213D01*
X773865Y453888D01*
X773735Y453560D01*
X773612Y453229D01*
X773498Y452895D01*
X773391Y452559D01*
X773293Y452220D01*
X773203Y451879D01*
X773121Y451536D01*
X773047Y451191D01*
X772982Y450844D01*
X772925Y450495D01*
X772877Y450146D01*
X772837Y449795D01*
X772805Y449444D01*
X772782Y449092D01*
X772767Y448739D01*
X772761Y448386D01*
X771475Y448235D02*
X772847Y448235D01*
X772846Y448234D02*
X772852Y447883D01*
X772867Y447532D01*
X772890Y447182D01*
X772921Y446832D01*
X772961Y446483D01*
X773009Y446135D01*
X773066Y445789D01*
X773131Y445444D01*
X773204Y445100D01*
X773286Y444759D01*
X773376Y444419D01*
X773474Y444082D01*
X773580Y443747D01*
X773694Y443415D01*
X773816Y443086D01*
X773946Y442760D01*
X774084Y442437D01*
X774229Y442117D01*
X774383Y441801D01*
X774543Y441489D01*
X774712Y441181D01*
X774887Y440877D01*
X775070Y440577D01*
X775260Y440282D01*
X775458Y439991D01*
X775662Y439706D01*
X775873Y439425D01*
X776091Y439150D01*
X776315Y438879D01*
X776546Y438615D01*
X776783Y438356D01*
X777026Y438102D01*
X777275Y437855D01*
X777530Y437614D01*
X777791Y437379D01*
X778058Y437150D01*
X778330Y436928D01*
X778607Y436713D01*
X777784Y435615D01*
X777480Y435851D01*
X777182Y436094D01*
X776890Y436344D01*
X776604Y436602D01*
X776324Y436866D01*
X776051Y437137D01*
X775785Y437414D01*
X775525Y437698D01*
X775272Y437987D01*
X775026Y438283D01*
X774788Y438585D01*
X774557Y438892D01*
X774333Y439205D01*
X774117Y439524D01*
X773909Y439847D01*
X773708Y440175D01*
X773516Y440508D01*
X773332Y440846D01*
X773155Y441188D01*
X772988Y441534D01*
X772828Y441884D01*
X772677Y442238D01*
X772535Y442595D01*
X772401Y442956D01*
X772276Y443319D01*
X772160Y443686D01*
X772053Y444055D01*
X771955Y444427D01*
X771865Y444801D01*
X771785Y445177D01*
X771714Y445555D01*
X771652Y445935D01*
X771599Y446316D01*
X771556Y446698D01*
X771521Y447081D01*
X771496Y447465D01*
X771481Y447849D01*
X771474Y448234D01*
X771617Y448234D01*
X771624Y447853D01*
X771639Y447472D01*
X771664Y447092D01*
X771698Y446712D01*
X771741Y446333D01*
X771794Y445956D01*
X771855Y445580D01*
X771925Y445205D01*
X772005Y444832D01*
X772093Y444462D01*
X772191Y444093D01*
X772297Y443727D01*
X772412Y443364D01*
X772536Y443003D01*
X772668Y442646D01*
X772809Y442292D01*
X772959Y441941D01*
X773117Y441595D01*
X773283Y441252D01*
X773458Y440913D01*
X773640Y440578D01*
X773831Y440248D01*
X774030Y439923D01*
X774236Y439603D01*
X774450Y439287D01*
X774672Y438977D01*
X774901Y438673D01*
X775137Y438374D01*
X775381Y438080D01*
X775631Y437793D01*
X775889Y437512D01*
X776153Y437237D01*
X776424Y436969D01*
X776701Y436707D01*
X776984Y436452D01*
X777273Y436204D01*
X777569Y435963D01*
X777870Y435729D01*
X777955Y435844D01*
X777657Y436075D01*
X777365Y436314D01*
X777078Y436560D01*
X776797Y436813D01*
X776523Y437072D01*
X776254Y437338D01*
X775993Y437610D01*
X775738Y437889D01*
X775490Y438173D01*
X775248Y438464D01*
X775014Y438760D01*
X774787Y439062D01*
X774568Y439369D01*
X774355Y439682D01*
X774151Y439999D01*
X773954Y440321D01*
X773765Y440648D01*
X773584Y440980D01*
X773411Y441316D01*
X773246Y441655D01*
X773090Y441999D01*
X772942Y442346D01*
X772802Y442697D01*
X772671Y443051D01*
X772548Y443408D01*
X772434Y443769D01*
X772329Y444131D01*
X772232Y444496D01*
X772144Y444864D01*
X772066Y445233D01*
X771996Y445604D01*
X771935Y445977D01*
X771883Y446351D01*
X771840Y446726D01*
X771807Y447102D01*
X771782Y447479D01*
X771767Y447856D01*
X771760Y448234D01*
X771903Y448234D01*
X771910Y447860D01*
X771925Y447486D01*
X771949Y447113D01*
X771983Y446740D01*
X772025Y446368D01*
X772076Y445998D01*
X772137Y445628D01*
X772206Y445261D01*
X772284Y444895D01*
X772371Y444531D01*
X772466Y444169D01*
X772571Y443810D01*
X772684Y443453D01*
X772805Y443099D01*
X772935Y442748D01*
X773074Y442401D01*
X773221Y442057D01*
X773376Y441716D01*
X773539Y441380D01*
X773710Y441047D01*
X773890Y440719D01*
X774077Y440395D01*
X774272Y440075D01*
X774475Y439761D01*
X774685Y439451D01*
X774902Y439147D01*
X775127Y438848D01*
X775359Y438554D01*
X775598Y438266D01*
X775844Y437984D01*
X776097Y437708D01*
X776356Y437439D01*
X776622Y437175D01*
X776894Y436918D01*
X777172Y436668D01*
X777456Y436424D01*
X777746Y436188D01*
X778041Y435958D01*
X778127Y436073D01*
X777834Y436300D01*
X777547Y436534D01*
X777266Y436776D01*
X776990Y437024D01*
X776721Y437278D01*
X776458Y437539D01*
X776201Y437807D01*
X775951Y438080D01*
X775707Y438359D01*
X775470Y438644D01*
X775240Y438935D01*
X775017Y439232D01*
X774802Y439533D01*
X774594Y439840D01*
X774393Y440151D01*
X774200Y440468D01*
X774014Y440789D01*
X773837Y441114D01*
X773667Y441443D01*
X773505Y441777D01*
X773352Y442114D01*
X773206Y442455D01*
X773069Y442800D01*
X772940Y443147D01*
X772820Y443498D01*
X772708Y443851D01*
X772604Y444207D01*
X772510Y444565D01*
X772424Y444926D01*
X772346Y445288D01*
X772278Y445653D01*
X772218Y446019D01*
X772167Y446386D01*
X772125Y446754D01*
X772092Y447123D01*
X772068Y447493D01*
X772052Y447863D01*
X772046Y448234D01*
X772189Y448234D01*
X772195Y447867D01*
X772211Y447500D01*
X772235Y447134D01*
X772267Y446768D01*
X772309Y446403D01*
X772359Y446039D01*
X772419Y445677D01*
X772487Y445316D01*
X772563Y444957D01*
X772648Y444600D01*
X772742Y444245D01*
X772845Y443892D01*
X772955Y443542D01*
X773075Y443195D01*
X773202Y442851D01*
X773338Y442510D01*
X773482Y442172D01*
X773635Y441838D01*
X773795Y441507D01*
X773963Y441181D01*
X774139Y440859D01*
X774323Y440541D01*
X774514Y440227D01*
X774713Y439919D01*
X774919Y439615D01*
X775133Y439316D01*
X775353Y439023D01*
X775581Y438735D01*
X775816Y438452D01*
X776057Y438176D01*
X776305Y437905D01*
X776559Y437640D01*
X776820Y437381D01*
X777087Y437129D01*
X777360Y436883D01*
X777638Y436644D01*
X777923Y436412D01*
X778213Y436187D01*
X778299Y436301D01*
X778011Y436525D01*
X777730Y436755D01*
X777454Y436991D01*
X777183Y437235D01*
X776919Y437484D01*
X776661Y437741D01*
X776409Y438003D01*
X776163Y438271D01*
X775924Y438545D01*
X775692Y438825D01*
X775466Y439110D01*
X775248Y439401D01*
X775036Y439697D01*
X774832Y439998D01*
X774635Y440304D01*
X774446Y440614D01*
X774264Y440929D01*
X774089Y441248D01*
X773923Y441571D01*
X773764Y441899D01*
X773613Y442230D01*
X773471Y442564D01*
X773336Y442902D01*
X773210Y443243D01*
X773091Y443587D01*
X772982Y443934D01*
X772880Y444283D01*
X772787Y444634D01*
X772703Y444988D01*
X772627Y445344D01*
X772560Y445701D01*
X772501Y446060D01*
X772451Y446421D01*
X772410Y446782D01*
X772377Y447144D01*
X772353Y447507D01*
X772338Y447870D01*
X772332Y448234D01*
X772475Y448234D01*
X772481Y447874D01*
X772496Y447514D01*
X772520Y447155D01*
X772552Y446796D01*
X772593Y446438D01*
X772642Y446081D01*
X772700Y445726D01*
X772767Y445372D01*
X772842Y445019D01*
X772926Y444669D01*
X773018Y444321D01*
X773118Y443975D01*
X773227Y443632D01*
X773344Y443291D01*
X773469Y442953D01*
X773603Y442619D01*
X773744Y442287D01*
X773893Y441959D01*
X774051Y441635D01*
X774216Y441315D01*
X774388Y440999D01*
X774568Y440687D01*
X774756Y440380D01*
X774951Y440077D01*
X775154Y439779D01*
X775363Y439486D01*
X775579Y439198D01*
X775803Y438915D01*
X776033Y438638D01*
X776270Y438367D01*
X776513Y438101D01*
X776762Y437841D01*
X777018Y437588D01*
X777280Y437340D01*
X777548Y437099D01*
X777821Y436865D01*
X778100Y436637D01*
X778384Y436416D01*
X778470Y436530D01*
X778188Y436749D01*
X777912Y436975D01*
X777641Y437207D01*
X777376Y437446D01*
X777117Y437691D01*
X776864Y437942D01*
X776617Y438199D01*
X776376Y438462D01*
X776142Y438731D01*
X775914Y439006D01*
X775693Y439285D01*
X775478Y439571D01*
X775271Y439861D01*
X775070Y440156D01*
X774877Y440456D01*
X774691Y440760D01*
X774513Y441069D01*
X774342Y441382D01*
X774179Y441699D01*
X774023Y442020D01*
X773875Y442345D01*
X773735Y442673D01*
X773603Y443004D01*
X773479Y443339D01*
X773363Y443676D01*
X773255Y444016D01*
X773156Y444359D01*
X773065Y444704D01*
X772982Y445051D01*
X772907Y445399D01*
X772841Y445750D01*
X772784Y446102D01*
X772735Y446455D01*
X772694Y446810D01*
X772662Y447165D01*
X772639Y447521D01*
X772624Y447877D01*
X772618Y448234D01*
X772761Y448234D01*
X772767Y447881D01*
X772782Y447528D01*
X772805Y447175D01*
X772837Y446824D01*
X772877Y446473D01*
X772925Y446123D01*
X772982Y445774D01*
X773048Y445427D01*
X773121Y445082D01*
X773203Y444738D01*
X773294Y444397D01*
X773392Y444057D01*
X773499Y443721D01*
X773614Y443387D01*
X773737Y443055D01*
X773867Y442727D01*
X774006Y442402D01*
X774152Y442081D01*
X774306Y441763D01*
X774468Y441449D01*
X774638Y441139D01*
X774814Y440833D01*
X774998Y440532D01*
X775190Y440235D01*
X775388Y439943D01*
X775593Y439655D01*
X775806Y439373D01*
X776025Y439096D01*
X776250Y438824D01*
X776482Y438558D01*
X776721Y438297D01*
X776965Y438043D01*
X777216Y437794D01*
X777473Y437551D01*
X777735Y437315D01*
X778003Y437085D01*
X778277Y436861D01*
X778556Y436645D01*
X803325Y448386D02*
X801953Y448386D01*
X801954Y448386D02*
X801948Y448740D01*
X801933Y449093D01*
X801910Y449446D01*
X801878Y449798D01*
X801837Y450150D01*
X801788Y450500D01*
X801731Y450849D01*
X801665Y451197D01*
X801590Y451543D01*
X801508Y451887D01*
X801417Y452228D01*
X801317Y452568D01*
X801210Y452905D01*
X801094Y453239D01*
X800970Y453571D01*
X800838Y453899D01*
X800698Y454224D01*
X800551Y454545D01*
X800395Y454863D01*
X800232Y455177D01*
X800061Y455487D01*
X799883Y455792D01*
X799698Y456094D01*
X799505Y456390D01*
X799305Y456682D01*
X799098Y456969D01*
X798884Y457251D01*
X798663Y457527D01*
X798436Y457798D01*
X798202Y458063D01*
X797962Y458323D01*
X797716Y458577D01*
X797463Y458825D01*
X797204Y459066D01*
X796940Y459301D01*
X796670Y459530D01*
X796395Y459752D01*
X797237Y460834D01*
X797237Y460835D01*
X797539Y460592D01*
X797835Y460341D01*
X798124Y460084D01*
X798408Y459820D01*
X798684Y459548D01*
X798954Y459271D01*
X799218Y458986D01*
X799474Y458696D01*
X799723Y458399D01*
X799965Y458096D01*
X800199Y457787D01*
X800426Y457473D01*
X800645Y457154D01*
X800856Y456829D01*
X801059Y456499D01*
X801255Y456164D01*
X801442Y455825D01*
X801620Y455481D01*
X801790Y455133D01*
X801952Y454781D01*
X802105Y454425D01*
X802250Y454065D01*
X802385Y453702D01*
X802512Y453336D01*
X802630Y452967D01*
X802739Y452595D01*
X802838Y452221D01*
X802929Y451844D01*
X803010Y451465D01*
X803082Y451084D01*
X803145Y450702D01*
X803199Y450318D01*
X803243Y449933D01*
X803278Y449547D01*
X803303Y449161D01*
X803319Y448774D01*
X803326Y448386D01*
X803183Y448386D01*
X803176Y448770D01*
X803160Y449154D01*
X803135Y449537D01*
X803101Y449919D01*
X803057Y450301D01*
X803004Y450681D01*
X802942Y451060D01*
X802870Y451437D01*
X802789Y451812D01*
X802700Y452186D01*
X802601Y452557D01*
X802493Y452925D01*
X802376Y453291D01*
X802251Y453654D01*
X802116Y454014D01*
X801973Y454370D01*
X801822Y454723D01*
X801661Y455072D01*
X801493Y455417D01*
X801316Y455757D01*
X801130Y456094D01*
X800937Y456425D01*
X800735Y456752D01*
X800526Y457074D01*
X800309Y457391D01*
X800084Y457702D01*
X799852Y458008D01*
X799612Y458308D01*
X799366Y458602D01*
X799112Y458890D01*
X798851Y459172D01*
X798583Y459447D01*
X798309Y459716D01*
X798028Y459978D01*
X797741Y460233D01*
X797448Y460481D01*
X797149Y460722D01*
X797061Y460609D01*
X797358Y460370D01*
X797648Y460125D01*
X797932Y459872D01*
X798211Y459612D01*
X798482Y459346D01*
X798747Y459073D01*
X799006Y458794D01*
X799257Y458509D01*
X799502Y458217D01*
X799739Y457920D01*
X799970Y457617D01*
X800192Y457308D01*
X800407Y456994D01*
X800615Y456676D01*
X800814Y456352D01*
X801006Y456023D01*
X801189Y455690D01*
X801365Y455352D01*
X801532Y455010D01*
X801691Y454665D01*
X801841Y454315D01*
X801983Y453962D01*
X802116Y453606D01*
X802241Y453246D01*
X802356Y452884D01*
X802463Y452519D01*
X802561Y452151D01*
X802650Y451781D01*
X802730Y451409D01*
X802801Y451035D01*
X802862Y450660D01*
X802915Y450283D01*
X802958Y449905D01*
X802993Y449526D01*
X803018Y449147D01*
X803033Y448766D01*
X803040Y448386D01*
X802897Y448386D01*
X802890Y448763D01*
X802875Y449140D01*
X802850Y449516D01*
X802816Y449891D01*
X802773Y450266D01*
X802721Y450639D01*
X802660Y451011D01*
X802590Y451381D01*
X802510Y451750D01*
X802422Y452116D01*
X802325Y452480D01*
X802219Y452842D01*
X802105Y453201D01*
X801982Y453557D01*
X801850Y453911D01*
X801709Y454260D01*
X801560Y454607D01*
X801403Y454949D01*
X801237Y455288D01*
X801063Y455622D01*
X800882Y455952D01*
X800692Y456278D01*
X800494Y456599D01*
X800288Y456915D01*
X800075Y457226D01*
X799855Y457531D01*
X799627Y457832D01*
X799392Y458126D01*
X799149Y458415D01*
X798900Y458698D01*
X798644Y458974D01*
X798381Y459245D01*
X798112Y459509D01*
X797837Y459766D01*
X797555Y460016D01*
X797267Y460260D01*
X796974Y460496D01*
X796886Y460383D01*
X797177Y460149D01*
X797462Y459908D01*
X797741Y459660D01*
X798014Y459405D01*
X798280Y459143D01*
X798541Y458876D01*
X798794Y458602D01*
X799041Y458321D01*
X799281Y458035D01*
X799514Y457744D01*
X799740Y457446D01*
X799959Y457143D01*
X800170Y456835D01*
X800373Y456522D01*
X800569Y456204D01*
X800757Y455882D01*
X800937Y455555D01*
X801110Y455223D01*
X801274Y454888D01*
X801429Y454549D01*
X801577Y454206D01*
X801716Y453859D01*
X801847Y453509D01*
X801969Y453156D01*
X802083Y452801D01*
X802187Y452442D01*
X802284Y452081D01*
X802371Y451718D01*
X802449Y451353D01*
X802519Y450986D01*
X802580Y450618D01*
X802631Y450248D01*
X802674Y449877D01*
X802707Y449505D01*
X802732Y449133D01*
X802747Y448759D01*
X802754Y448386D01*
X802611Y448386D01*
X802604Y448756D01*
X802589Y449126D01*
X802565Y449495D01*
X802532Y449863D01*
X802489Y450231D01*
X802438Y450597D01*
X802378Y450962D01*
X802309Y451325D01*
X802231Y451687D01*
X802145Y452047D01*
X802050Y452404D01*
X801946Y452759D01*
X801833Y453111D01*
X801712Y453461D01*
X801583Y453807D01*
X801445Y454151D01*
X801299Y454490D01*
X801144Y454827D01*
X800982Y455159D01*
X800811Y455487D01*
X800633Y455811D01*
X800446Y456131D01*
X800252Y456446D01*
X800051Y456756D01*
X799842Y457061D01*
X799625Y457361D01*
X799402Y457655D01*
X799171Y457944D01*
X798933Y458228D01*
X798688Y458505D01*
X798437Y458777D01*
X798179Y459042D01*
X797915Y459301D01*
X797645Y459554D01*
X797368Y459799D01*
X797086Y460038D01*
X796798Y460270D01*
X796710Y460158D01*
X796996Y459928D01*
X797275Y459691D01*
X797549Y459447D01*
X797817Y459197D01*
X798078Y458941D01*
X798334Y458678D01*
X798583Y458409D01*
X798825Y458134D01*
X799060Y457854D01*
X799289Y457567D01*
X799511Y457276D01*
X799725Y456978D01*
X799932Y456676D01*
X800132Y456369D01*
X800324Y456057D01*
X800508Y455741D01*
X800685Y455420D01*
X800854Y455095D01*
X801015Y454765D01*
X801168Y454432D01*
X801313Y454096D01*
X801449Y453756D01*
X801578Y453413D01*
X801698Y453066D01*
X801809Y452717D01*
X801912Y452366D01*
X802006Y452012D01*
X802092Y451656D01*
X802169Y451297D01*
X802237Y450937D01*
X802297Y450576D01*
X802347Y450213D01*
X802389Y449849D01*
X802422Y449484D01*
X802446Y449118D01*
X802462Y448752D01*
X802468Y448386D01*
X802325Y448386D01*
X802319Y448749D01*
X802303Y449111D01*
X802280Y449474D01*
X802247Y449835D01*
X802205Y450195D01*
X802155Y450555D01*
X802096Y450913D01*
X802029Y451269D01*
X801952Y451624D01*
X801868Y451977D01*
X801774Y452328D01*
X801672Y452676D01*
X801562Y453022D01*
X801443Y453364D01*
X801316Y453704D01*
X801181Y454041D01*
X801037Y454374D01*
X800886Y454704D01*
X800727Y455030D01*
X800559Y455352D01*
X800384Y455670D01*
X800201Y455983D01*
X800011Y456292D01*
X799813Y456597D01*
X799608Y456896D01*
X799396Y457190D01*
X799176Y457479D01*
X798950Y457763D01*
X798717Y458041D01*
X798477Y458313D01*
X798230Y458579D01*
X797977Y458840D01*
X797718Y459094D01*
X797453Y459341D01*
X797182Y459582D01*
X796905Y459817D01*
X796622Y460045D01*
X796535Y459932D01*
X796815Y459706D01*
X797089Y459474D01*
X797357Y459235D01*
X797620Y458990D01*
X797876Y458738D01*
X798127Y458481D01*
X798371Y458217D01*
X798609Y457947D01*
X798839Y457672D01*
X799064Y457391D01*
X799281Y457105D01*
X799491Y456813D01*
X799694Y456517D01*
X799890Y456216D01*
X800079Y455910D01*
X800260Y455599D01*
X800433Y455285D01*
X800599Y454966D01*
X800757Y454643D01*
X800907Y454316D01*
X801049Y453986D01*
X801183Y453653D01*
X801308Y453316D01*
X801426Y452977D01*
X801535Y452634D01*
X801636Y452289D01*
X801729Y451942D01*
X801813Y451593D01*
X801888Y451241D01*
X801955Y450888D01*
X802014Y450534D01*
X802064Y450178D01*
X802105Y449821D01*
X802137Y449463D01*
X802161Y449104D01*
X802176Y448745D01*
X802182Y448386D01*
X802039Y448386D01*
X802033Y448742D01*
X802018Y449097D01*
X801994Y449452D01*
X801962Y449807D01*
X801922Y450160D01*
X801872Y450513D01*
X801815Y450864D01*
X801748Y451213D01*
X801673Y451561D01*
X801590Y451907D01*
X801498Y452251D01*
X801399Y452593D01*
X801290Y452932D01*
X801174Y453268D01*
X801049Y453601D01*
X800917Y453931D01*
X800776Y454258D01*
X800627Y454582D01*
X800471Y454901D01*
X800307Y455217D01*
X800135Y455529D01*
X799956Y455836D01*
X799770Y456139D01*
X799576Y456437D01*
X799374Y456731D01*
X799166Y457020D01*
X798951Y457303D01*
X798729Y457581D01*
X798500Y457854D01*
X798265Y458121D01*
X798023Y458382D01*
X797776Y458637D01*
X797521Y458886D01*
X797261Y459129D01*
X796996Y459366D01*
X796724Y459596D01*
X796447Y459819D01*
X797237Y435786D02*
X796394Y436869D01*
X796395Y436868D02*
X796670Y437090D01*
X796940Y437319D01*
X797204Y437554D01*
X797463Y437795D01*
X797716Y438043D01*
X797962Y438297D01*
X798202Y438557D01*
X798436Y438822D01*
X798663Y439093D01*
X798884Y439369D01*
X799098Y439651D01*
X799305Y439938D01*
X799505Y440230D01*
X799698Y440526D01*
X799883Y440828D01*
X800061Y441133D01*
X800232Y441443D01*
X800395Y441757D01*
X800551Y442075D01*
X800698Y442396D01*
X800838Y442721D01*
X800970Y443049D01*
X801094Y443381D01*
X801210Y443715D01*
X801317Y444052D01*
X801417Y444392D01*
X801508Y444733D01*
X801590Y445077D01*
X801665Y445423D01*
X801731Y445771D01*
X801788Y446120D01*
X801837Y446470D01*
X801878Y446822D01*
X801910Y447174D01*
X801933Y447527D01*
X801948Y447880D01*
X801954Y448234D01*
X803325Y448234D01*
X803326Y448234D01*
X803319Y447846D01*
X803303Y447459D01*
X803278Y447073D01*
X803243Y446687D01*
X803199Y446302D01*
X803145Y445918D01*
X803082Y445536D01*
X803010Y445155D01*
X802929Y444776D01*
X802838Y444399D01*
X802739Y444025D01*
X802630Y443653D01*
X802512Y443284D01*
X802385Y442918D01*
X802250Y442555D01*
X802105Y442195D01*
X801952Y441839D01*
X801790Y441487D01*
X801620Y441139D01*
X801442Y440795D01*
X801255Y440456D01*
X801059Y440121D01*
X800856Y439791D01*
X800645Y439466D01*
X800426Y439147D01*
X800199Y438833D01*
X799965Y438524D01*
X799723Y438221D01*
X799474Y437924D01*
X799218Y437634D01*
X798954Y437349D01*
X798684Y437072D01*
X798408Y436800D01*
X798124Y436536D01*
X797835Y436279D01*
X797539Y436028D01*
X797237Y435785D01*
X797149Y435898D01*
X797448Y436139D01*
X797741Y436387D01*
X798028Y436642D01*
X798309Y436904D01*
X798583Y437173D01*
X798851Y437448D01*
X799112Y437730D01*
X799366Y438018D01*
X799612Y438312D01*
X799852Y438612D01*
X800084Y438918D01*
X800309Y439229D01*
X800526Y439546D01*
X800735Y439868D01*
X800937Y440195D01*
X801130Y440526D01*
X801316Y440863D01*
X801493Y441203D01*
X801661Y441548D01*
X801822Y441897D01*
X801973Y442250D01*
X802116Y442606D01*
X802251Y442966D01*
X802376Y443329D01*
X802493Y443695D01*
X802601Y444063D01*
X802700Y444434D01*
X802789Y444808D01*
X802870Y445183D01*
X802942Y445560D01*
X803004Y445939D01*
X803057Y446319D01*
X803101Y446701D01*
X803135Y447083D01*
X803160Y447466D01*
X803176Y447850D01*
X803183Y448234D01*
X803040Y448234D01*
X803033Y447854D01*
X803018Y447473D01*
X802993Y447094D01*
X802958Y446715D01*
X802915Y446337D01*
X802862Y445960D01*
X802801Y445585D01*
X802730Y445211D01*
X802650Y444839D01*
X802561Y444469D01*
X802463Y444101D01*
X802356Y443736D01*
X802241Y443374D01*
X802116Y443014D01*
X801983Y442658D01*
X801841Y442305D01*
X801691Y441955D01*
X801532Y441610D01*
X801365Y441268D01*
X801189Y440930D01*
X801006Y440597D01*
X800814Y440268D01*
X800615Y439944D01*
X800407Y439626D01*
X800192Y439312D01*
X799970Y439003D01*
X799739Y438700D01*
X799502Y438403D01*
X799257Y438111D01*
X799006Y437826D01*
X798747Y437547D01*
X798482Y437274D01*
X798211Y437008D01*
X797932Y436748D01*
X797648Y436495D01*
X797358Y436250D01*
X797061Y436011D01*
X796974Y436124D01*
X797267Y436360D01*
X797555Y436604D01*
X797837Y436854D01*
X798112Y437111D01*
X798381Y437375D01*
X798644Y437646D01*
X798900Y437922D01*
X799149Y438205D01*
X799392Y438494D01*
X799627Y438788D01*
X799855Y439089D01*
X800075Y439394D01*
X800288Y439705D01*
X800494Y440021D01*
X800692Y440342D01*
X800882Y440668D01*
X801063Y440998D01*
X801237Y441332D01*
X801403Y441671D01*
X801560Y442013D01*
X801709Y442360D01*
X801850Y442709D01*
X801982Y443063D01*
X802105Y443419D01*
X802219Y443778D01*
X802325Y444140D01*
X802422Y444504D01*
X802510Y444870D01*
X802590Y445239D01*
X802660Y445609D01*
X802721Y445981D01*
X802773Y446354D01*
X802816Y446729D01*
X802850Y447104D01*
X802875Y447480D01*
X802890Y447857D01*
X802897Y448234D01*
X802754Y448234D01*
X802747Y447861D01*
X802732Y447487D01*
X802707Y447115D01*
X802674Y446743D01*
X802631Y446372D01*
X802580Y446002D01*
X802519Y445634D01*
X802449Y445267D01*
X802371Y444902D01*
X802284Y444539D01*
X802187Y444178D01*
X802083Y443819D01*
X801969Y443464D01*
X801847Y443111D01*
X801716Y442761D01*
X801577Y442414D01*
X801429Y442071D01*
X801274Y441732D01*
X801110Y441397D01*
X800937Y441065D01*
X800757Y440738D01*
X800569Y440416D01*
X800373Y440098D01*
X800170Y439785D01*
X799959Y439477D01*
X799740Y439174D01*
X799514Y438876D01*
X799281Y438585D01*
X799041Y438299D01*
X798794Y438018D01*
X798541Y437744D01*
X798280Y437477D01*
X798014Y437215D01*
X797741Y436960D01*
X797462Y436712D01*
X797177Y436471D01*
X796886Y436237D01*
X796798Y436350D01*
X797086Y436582D01*
X797368Y436821D01*
X797645Y437066D01*
X797915Y437319D01*
X798179Y437578D01*
X798437Y437843D01*
X798688Y438115D01*
X798933Y438392D01*
X799171Y438676D01*
X799402Y438965D01*
X799625Y439259D01*
X799842Y439559D01*
X800051Y439864D01*
X800252Y440174D01*
X800446Y440489D01*
X800633Y440809D01*
X800811Y441133D01*
X800982Y441461D01*
X801144Y441793D01*
X801299Y442130D01*
X801445Y442469D01*
X801583Y442813D01*
X801712Y443159D01*
X801833Y443509D01*
X801946Y443861D01*
X802050Y444216D01*
X802145Y444573D01*
X802231Y444933D01*
X802309Y445295D01*
X802378Y445658D01*
X802438Y446023D01*
X802489Y446389D01*
X802532Y446757D01*
X802565Y447125D01*
X802589Y447494D01*
X802604Y447864D01*
X802611Y448234D01*
X802468Y448234D01*
X802462Y447868D01*
X802446Y447502D01*
X802422Y447136D01*
X802389Y446771D01*
X802347Y446407D01*
X802297Y446044D01*
X802237Y445683D01*
X802169Y445323D01*
X802092Y444964D01*
X802006Y444608D01*
X801912Y444254D01*
X801809Y443903D01*
X801698Y443554D01*
X801578Y443207D01*
X801449Y442864D01*
X801313Y442524D01*
X801168Y442188D01*
X801015Y441855D01*
X800854Y441525D01*
X800685Y441200D01*
X800508Y440879D01*
X800324Y440563D01*
X800132Y440251D01*
X799932Y439944D01*
X799725Y439642D01*
X799511Y439344D01*
X799289Y439053D01*
X799060Y438766D01*
X798825Y438486D01*
X798583Y438211D01*
X798334Y437942D01*
X798078Y437679D01*
X797817Y437423D01*
X797549Y437173D01*
X797275Y436929D01*
X796996Y436692D01*
X796710Y436462D01*
X796622Y436575D01*
X796905Y436803D01*
X797182Y437038D01*
X797453Y437279D01*
X797718Y437526D01*
X797977Y437780D01*
X798230Y438041D01*
X798477Y438307D01*
X798717Y438579D01*
X798950Y438857D01*
X799176Y439141D01*
X799396Y439430D01*
X799608Y439724D01*
X799813Y440023D01*
X800011Y440328D01*
X800201Y440637D01*
X800384Y440950D01*
X800559Y441268D01*
X800727Y441590D01*
X800886Y441916D01*
X801037Y442246D01*
X801181Y442579D01*
X801316Y442916D01*
X801443Y443256D01*
X801562Y443598D01*
X801672Y443944D01*
X801774Y444292D01*
X801868Y444643D01*
X801952Y444996D01*
X802029Y445351D01*
X802096Y445707D01*
X802155Y446065D01*
X802205Y446425D01*
X802247Y446785D01*
X802280Y447146D01*
X802303Y447509D01*
X802319Y447871D01*
X802325Y448234D01*
X802182Y448234D01*
X802176Y447875D01*
X802161Y447516D01*
X802137Y447157D01*
X802105Y446799D01*
X802064Y446442D01*
X802014Y446086D01*
X801955Y445732D01*
X801888Y445379D01*
X801813Y445027D01*
X801729Y444678D01*
X801636Y444331D01*
X801535Y443986D01*
X801426Y443643D01*
X801308Y443304D01*
X801183Y442967D01*
X801049Y442634D01*
X800907Y442304D01*
X800757Y441977D01*
X800599Y441654D01*
X800433Y441335D01*
X800260Y441021D01*
X800079Y440710D01*
X799890Y440404D01*
X799694Y440103D01*
X799491Y439807D01*
X799281Y439515D01*
X799064Y439229D01*
X798839Y438948D01*
X798609Y438673D01*
X798371Y438403D01*
X798127Y438139D01*
X797876Y437882D01*
X797620Y437630D01*
X797357Y437385D01*
X797089Y437146D01*
X796815Y436914D01*
X796535Y436688D01*
X796447Y436801D01*
X796724Y437024D01*
X796996Y437254D01*
X797261Y437491D01*
X797521Y437734D01*
X797776Y437983D01*
X798023Y438238D01*
X798265Y438499D01*
X798500Y438766D01*
X798729Y439039D01*
X798951Y439317D01*
X799166Y439600D01*
X799374Y439889D01*
X799576Y440183D01*
X799770Y440481D01*
X799956Y440784D01*
X800135Y441091D01*
X800307Y441403D01*
X800471Y441719D01*
X800627Y442038D01*
X800776Y442362D01*
X800917Y442689D01*
X801049Y443019D01*
X801174Y443352D01*
X801290Y443688D01*
X801399Y444027D01*
X801498Y444369D01*
X801590Y444713D01*
X801673Y445059D01*
X801748Y445407D01*
X801815Y445756D01*
X801872Y446107D01*
X801922Y446460D01*
X801962Y446813D01*
X801994Y447168D01*
X802018Y447523D01*
X802033Y447878D01*
X802039Y448234D01*
D23*
X773562Y464716D02*
X775026Y462960D01*
X775025Y462960D02*
X774678Y462659D01*
X774338Y462350D01*
X774005Y462033D01*
X773680Y461708D01*
X773363Y461376D01*
X773054Y461036D01*
X772753Y460688D01*
X772460Y460334D01*
X772177Y459972D01*
X771902Y459604D01*
X771635Y459229D01*
X771378Y458848D01*
X771130Y458461D01*
X770892Y458069D01*
X770663Y457670D01*
X770443Y457266D01*
X770233Y456858D01*
X770033Y456444D01*
X769843Y456025D01*
X769664Y455602D01*
X769494Y455175D01*
X769335Y454744D01*
X769186Y454309D01*
X769047Y453871D01*
X768919Y453430D01*
X768802Y452985D01*
X768695Y452538D01*
X768599Y452089D01*
X768514Y451637D01*
X768440Y451184D01*
X768376Y450728D01*
X768324Y450272D01*
X768282Y449814D01*
X768252Y449356D01*
X768232Y448896D01*
X768223Y448437D01*
X765938Y448436D01*
X765937Y448437D01*
X765947Y448952D01*
X765968Y449467D01*
X766002Y449981D01*
X766048Y450494D01*
X766107Y451006D01*
X766178Y451516D01*
X766261Y452025D01*
X766356Y452531D01*
X766464Y453035D01*
X766583Y453536D01*
X766714Y454034D01*
X766858Y454529D01*
X767013Y455020D01*
X767180Y455508D01*
X767359Y455991D01*
X767549Y456470D01*
X767750Y456944D01*
X767963Y457413D01*
X768187Y457877D01*
X768422Y458336D01*
X768669Y458788D01*
X768925Y459235D01*
X769193Y459675D01*
X769471Y460109D01*
X769759Y460536D01*
X770058Y460956D01*
X770367Y461368D01*
X770685Y461774D01*
X771013Y462171D01*
X771350Y462560D01*
X771697Y462941D01*
X772053Y463314D01*
X772417Y463678D01*
X772790Y464033D01*
X773172Y464379D01*
X773562Y464716D01*
X773716Y464532D01*
X773330Y464199D01*
X772953Y463857D01*
X772584Y463505D01*
X772224Y463145D01*
X771872Y462777D01*
X771529Y462400D01*
X771196Y462015D01*
X770871Y461622D01*
X770557Y461222D01*
X770252Y460814D01*
X769956Y460399D01*
X769671Y459977D01*
X769396Y459548D01*
X769132Y459112D01*
X768878Y458671D01*
X768635Y458223D01*
X768402Y457770D01*
X768181Y457312D01*
X767970Y456848D01*
X767771Y456379D01*
X767583Y455905D01*
X767406Y455428D01*
X767241Y454946D01*
X767088Y454460D01*
X766946Y453971D01*
X766816Y453478D01*
X766698Y452983D01*
X766592Y452485D01*
X766497Y451984D01*
X766415Y451481D01*
X766345Y450977D01*
X766287Y450471D01*
X766242Y449963D01*
X766208Y449455D01*
X766187Y448946D01*
X766177Y448437D01*
X766417Y448437D01*
X766426Y448940D01*
X766448Y449443D01*
X766481Y449946D01*
X766526Y450447D01*
X766583Y450948D01*
X766653Y451446D01*
X766734Y451943D01*
X766827Y452438D01*
X766932Y452931D01*
X767049Y453420D01*
X767177Y453907D01*
X767317Y454391D01*
X767469Y454871D01*
X767632Y455347D01*
X767807Y455820D01*
X767993Y456288D01*
X768190Y456751D01*
X768398Y457210D01*
X768617Y457663D01*
X768847Y458111D01*
X769087Y458554D01*
X769338Y458990D01*
X769600Y459420D01*
X769872Y459844D01*
X770153Y460262D01*
X770445Y460672D01*
X770747Y461075D01*
X771058Y461471D01*
X771378Y461860D01*
X771708Y462240D01*
X772047Y462613D01*
X772394Y462977D01*
X772751Y463333D01*
X773115Y463680D01*
X773488Y464018D01*
X773869Y464348D01*
X774023Y464163D01*
X773646Y463838D01*
X773278Y463503D01*
X772917Y463160D01*
X772565Y462808D01*
X772222Y462448D01*
X771887Y462080D01*
X771561Y461704D01*
X771244Y461320D01*
X770937Y460929D01*
X770639Y460530D01*
X770350Y460124D01*
X770072Y459712D01*
X769803Y459293D01*
X769545Y458868D01*
X769297Y458436D01*
X769059Y457999D01*
X768832Y457556D01*
X768615Y457108D01*
X768410Y456655D01*
X768215Y456197D01*
X768031Y455734D01*
X767859Y455267D01*
X767697Y454796D01*
X767547Y454322D01*
X767409Y453844D01*
X767282Y453363D01*
X767166Y452879D01*
X767063Y452392D01*
X766970Y451903D01*
X766890Y451411D01*
X766822Y450919D01*
X766765Y450424D01*
X766720Y449928D01*
X766687Y449432D01*
X766666Y448934D01*
X766657Y448437D01*
X766897Y448437D01*
X766906Y448929D01*
X766927Y449420D01*
X766960Y449911D01*
X767004Y450401D01*
X767060Y450889D01*
X767128Y451377D01*
X767207Y451862D01*
X767298Y452345D01*
X767401Y452826D01*
X767515Y453305D01*
X767640Y453780D01*
X767777Y454253D01*
X767925Y454722D01*
X768085Y455187D01*
X768255Y455648D01*
X768437Y456106D01*
X768629Y456558D01*
X768833Y457006D01*
X769046Y457449D01*
X769271Y457887D01*
X769506Y458319D01*
X769751Y458745D01*
X770007Y459165D01*
X770272Y459580D01*
X770547Y459987D01*
X770832Y460388D01*
X771127Y460782D01*
X771431Y461169D01*
X771744Y461548D01*
X772066Y461920D01*
X772397Y462284D01*
X772736Y462640D01*
X773084Y462987D01*
X773440Y463327D01*
X773804Y463657D01*
X774177Y463979D01*
X774330Y463794D01*
X773963Y463477D01*
X773603Y463150D01*
X773251Y462815D01*
X772907Y462471D01*
X772571Y462120D01*
X772245Y461760D01*
X771926Y461393D01*
X771617Y461018D01*
X771317Y460635D01*
X771026Y460246D01*
X770744Y459850D01*
X770472Y459447D01*
X770210Y459038D01*
X769958Y458623D01*
X769715Y458201D01*
X769483Y457774D01*
X769261Y457342D01*
X769050Y456904D01*
X768849Y456462D01*
X768659Y456014D01*
X768479Y455563D01*
X768311Y455107D01*
X768153Y454647D01*
X768007Y454184D01*
X767872Y453717D01*
X767748Y453247D01*
X767635Y452774D01*
X767533Y452299D01*
X767444Y451821D01*
X767365Y451342D01*
X767298Y450860D01*
X767243Y450377D01*
X767199Y449893D01*
X767167Y449408D01*
X767146Y448923D01*
X767137Y448437D01*
X767377Y448437D01*
X767386Y448917D01*
X767407Y449397D01*
X767438Y449876D01*
X767482Y450354D01*
X767536Y450831D01*
X767603Y451307D01*
X767680Y451781D01*
X767769Y452252D01*
X767869Y452722D01*
X767981Y453189D01*
X768103Y453653D01*
X768237Y454115D01*
X768382Y454572D01*
X768537Y455027D01*
X768704Y455477D01*
X768881Y455923D01*
X769069Y456365D01*
X769267Y456803D01*
X769476Y457235D01*
X769695Y457662D01*
X769925Y458084D01*
X770164Y458500D01*
X770413Y458911D01*
X770672Y459315D01*
X770941Y459713D01*
X771219Y460104D01*
X771507Y460489D01*
X771803Y460867D01*
X772109Y461237D01*
X772423Y461600D01*
X772746Y461955D01*
X773078Y462303D01*
X773417Y462642D01*
X773765Y462973D01*
X774121Y463296D01*
X774484Y463610D01*
X774637Y463426D01*
X774279Y463115D01*
X773928Y462797D01*
X773584Y462469D01*
X773249Y462134D01*
X772921Y461791D01*
X772602Y461440D01*
X772292Y461081D01*
X771990Y460715D01*
X771697Y460342D01*
X771413Y459962D01*
X771138Y459576D01*
X770873Y459183D01*
X770617Y458783D01*
X770370Y458378D01*
X770134Y457967D01*
X769907Y457550D01*
X769691Y457128D01*
X769485Y456701D01*
X769289Y456269D01*
X769103Y455832D01*
X768928Y455391D01*
X768763Y454947D01*
X768610Y454498D01*
X768467Y454046D01*
X768335Y453590D01*
X768213Y453131D01*
X768103Y452670D01*
X768004Y452206D01*
X767917Y451740D01*
X767840Y451272D01*
X767775Y450802D01*
X767720Y450331D01*
X767678Y449858D01*
X767646Y449385D01*
X767626Y448911D01*
X767617Y448437D01*
X767857Y448437D01*
X767866Y448905D01*
X767886Y449373D01*
X767917Y449841D01*
X767959Y450307D01*
X768013Y450773D01*
X768077Y451237D01*
X768153Y451699D01*
X768240Y452160D01*
X768338Y452618D01*
X768446Y453074D01*
X768566Y453526D01*
X768697Y453976D01*
X768838Y454423D01*
X768990Y454866D01*
X769152Y455306D01*
X769325Y455741D01*
X769508Y456172D01*
X769702Y456599D01*
X769906Y457021D01*
X770120Y457438D01*
X770343Y457849D01*
X770577Y458255D01*
X770820Y458656D01*
X771073Y459050D01*
X771335Y459439D01*
X771606Y459820D01*
X771887Y460196D01*
X772176Y460564D01*
X772474Y460926D01*
X772781Y461280D01*
X773096Y461626D01*
X773419Y461966D01*
X773751Y462297D01*
X774090Y462620D01*
X774437Y462935D01*
X774791Y463241D01*
X774945Y463057D01*
X774595Y462754D01*
X774252Y462443D01*
X773917Y462124D01*
X773590Y461797D01*
X773271Y461462D01*
X772960Y461120D01*
X772657Y460770D01*
X772363Y460413D01*
X772077Y460049D01*
X771800Y459679D01*
X771532Y459301D01*
X771273Y458918D01*
X771023Y458528D01*
X770783Y458133D01*
X770553Y457732D01*
X770332Y457325D01*
X770121Y456914D01*
X769919Y456497D01*
X769728Y456076D01*
X769547Y455650D01*
X769376Y455220D01*
X769216Y454786D01*
X769066Y454348D01*
X768926Y453907D01*
X768798Y453463D01*
X768679Y453016D01*
X768572Y452566D01*
X768475Y452113D01*
X768390Y451659D01*
X768315Y451202D01*
X768251Y450744D01*
X768198Y450284D01*
X768156Y449823D01*
X768126Y449362D01*
X768106Y448899D01*
X768097Y448437D01*
X765938Y448184D02*
X768224Y448184D01*
X768223Y448183D02*
X768232Y447718D01*
X768252Y447253D01*
X768283Y446789D01*
X768326Y446326D01*
X768380Y445864D01*
X768445Y445403D01*
X768521Y444944D01*
X768608Y444487D01*
X768706Y444032D01*
X768816Y443580D01*
X768936Y443130D01*
X769067Y442684D01*
X769209Y442241D01*
X769362Y441801D01*
X769525Y441366D01*
X769699Y440934D01*
X769883Y440507D01*
X770077Y440084D01*
X770282Y439666D01*
X770497Y439253D01*
X770722Y438846D01*
X770956Y438444D01*
X771200Y438048D01*
X771454Y437658D01*
X771717Y437274D01*
X771990Y436897D01*
X772271Y436527D01*
X772561Y436163D01*
X772860Y435807D01*
X773168Y435458D01*
X773484Y435116D01*
X773808Y434782D01*
X774141Y434457D01*
X774481Y434139D01*
X774828Y433830D01*
X775183Y433529D01*
X775545Y433237D01*
X775915Y432954D01*
X776291Y432680D01*
X776673Y432415D01*
X777062Y432159D01*
X777457Y431913D01*
X777858Y431677D01*
X778264Y431450D01*
X777189Y429433D01*
X777188Y429433D01*
X776733Y429687D01*
X776283Y429951D01*
X775841Y430227D01*
X775405Y430513D01*
X774976Y430810D01*
X774554Y431116D01*
X774140Y431434D01*
X773734Y431761D01*
X773336Y432098D01*
X772947Y432444D01*
X772565Y432800D01*
X772193Y433165D01*
X771830Y433539D01*
X771475Y433921D01*
X771130Y434312D01*
X770795Y434712D01*
X770470Y435119D01*
X770154Y435534D01*
X769849Y435957D01*
X769554Y436387D01*
X769270Y436824D01*
X768996Y437268D01*
X768733Y437718D01*
X768481Y438175D01*
X768241Y438637D01*
X768011Y439106D01*
X767793Y439579D01*
X767587Y440058D01*
X767392Y440542D01*
X767210Y441030D01*
X767039Y441523D01*
X766880Y442020D01*
X766733Y442520D01*
X766598Y443024D01*
X766476Y443531D01*
X766366Y444040D01*
X766269Y444553D01*
X766184Y445067D01*
X766111Y445584D01*
X766051Y446101D01*
X766004Y446621D01*
X765969Y447141D01*
X765947Y447662D01*
X765937Y448183D01*
X766177Y448183D01*
X766187Y447668D01*
X766209Y447153D01*
X766243Y446638D01*
X766290Y446125D01*
X766349Y445613D01*
X766421Y445102D01*
X766505Y444594D01*
X766602Y444087D01*
X766710Y443583D01*
X766831Y443082D01*
X766964Y442584D01*
X767109Y442089D01*
X767267Y441598D01*
X767436Y441111D01*
X767616Y440629D01*
X767809Y440150D01*
X768013Y439677D01*
X768228Y439208D01*
X768455Y438745D01*
X768693Y438288D01*
X768942Y437837D01*
X769202Y437391D01*
X769472Y436953D01*
X769753Y436520D01*
X770045Y436095D01*
X770347Y435677D01*
X770659Y435267D01*
X770981Y434864D01*
X771312Y434469D01*
X771653Y434083D01*
X772003Y433704D01*
X772363Y433335D01*
X772731Y432974D01*
X773108Y432622D01*
X773493Y432279D01*
X773887Y431946D01*
X774288Y431623D01*
X774697Y431309D01*
X775114Y431006D01*
X775538Y430713D01*
X775969Y430430D01*
X776407Y430157D01*
X776851Y429896D01*
X777301Y429645D01*
X777414Y429856D01*
X776969Y430104D01*
X776530Y430363D01*
X776097Y430632D01*
X775671Y430912D01*
X775252Y431202D01*
X774840Y431502D01*
X774436Y431812D01*
X774039Y432132D01*
X773650Y432461D01*
X773269Y432800D01*
X772896Y433148D01*
X772532Y433504D01*
X772177Y433870D01*
X771831Y434244D01*
X771494Y434626D01*
X771166Y435016D01*
X770848Y435415D01*
X770540Y435820D01*
X770241Y436234D01*
X769953Y436654D01*
X769675Y437081D01*
X769407Y437515D01*
X769151Y437955D01*
X768904Y438401D01*
X768669Y438853D01*
X768445Y439311D01*
X768232Y439774D01*
X768030Y440242D01*
X767840Y440715D01*
X767661Y441192D01*
X767494Y441674D01*
X767339Y442159D01*
X767196Y442648D01*
X767064Y443141D01*
X766944Y443636D01*
X766837Y444134D01*
X766742Y444635D01*
X766658Y445138D01*
X766587Y445642D01*
X766529Y446149D01*
X766482Y446656D01*
X766448Y447165D01*
X766427Y447674D01*
X766417Y448183D01*
X766657Y448183D01*
X766667Y447680D01*
X766688Y447176D01*
X766722Y446674D01*
X766768Y446172D01*
X766826Y445672D01*
X766896Y445173D01*
X766978Y444676D01*
X767072Y444181D01*
X767179Y443689D01*
X767297Y443199D01*
X767427Y442712D01*
X767569Y442229D01*
X767722Y441749D01*
X767887Y441273D01*
X768064Y440801D01*
X768252Y440334D01*
X768451Y439872D01*
X768662Y439414D01*
X768884Y438961D01*
X769116Y438515D01*
X769359Y438073D01*
X769613Y437638D01*
X769878Y437210D01*
X770152Y436787D01*
X770437Y436372D01*
X770732Y435964D01*
X771037Y435562D01*
X771351Y435169D01*
X771675Y434783D01*
X772008Y434405D01*
X772351Y434035D01*
X772702Y433674D01*
X773062Y433322D01*
X773430Y432978D01*
X773806Y432643D01*
X774191Y432318D01*
X774583Y432002D01*
X774983Y431695D01*
X775390Y431399D01*
X775804Y431112D01*
X776225Y430835D01*
X776653Y430569D01*
X777087Y430313D01*
X777527Y430068D01*
X777640Y430280D01*
X777205Y430522D01*
X776776Y430775D01*
X776354Y431038D01*
X775937Y431312D01*
X775528Y431595D01*
X775126Y431888D01*
X774731Y432191D01*
X774343Y432503D01*
X773963Y432825D01*
X773591Y433156D01*
X773227Y433496D01*
X772871Y433844D01*
X772524Y434201D01*
X772186Y434566D01*
X771857Y434940D01*
X771537Y435321D01*
X771226Y435710D01*
X770925Y436107D01*
X770634Y436510D01*
X770352Y436921D01*
X770080Y437338D01*
X769819Y437762D01*
X769568Y438192D01*
X769328Y438628D01*
X769098Y439069D01*
X768879Y439517D01*
X768671Y439969D01*
X768474Y440426D01*
X768288Y440888D01*
X768113Y441354D01*
X767950Y441824D01*
X767798Y442299D01*
X767658Y442776D01*
X767530Y443257D01*
X767413Y443741D01*
X767308Y444228D01*
X767214Y444717D01*
X767133Y445208D01*
X767064Y445701D01*
X767006Y446196D01*
X766961Y446691D01*
X766928Y447188D01*
X766907Y447686D01*
X766897Y448183D01*
X767137Y448183D01*
X767146Y447692D01*
X767167Y447200D01*
X767200Y446709D01*
X767245Y446219D01*
X767302Y445731D01*
X767371Y445243D01*
X767451Y444758D01*
X767543Y444275D01*
X767647Y443794D01*
X767762Y443316D01*
X767889Y442840D01*
X768028Y442368D01*
X768178Y441900D01*
X768339Y441435D01*
X768512Y440974D01*
X768696Y440518D01*
X768890Y440066D01*
X769096Y439619D01*
X769312Y439177D01*
X769539Y438741D01*
X769777Y438310D01*
X770025Y437885D01*
X770283Y437467D01*
X770551Y437054D01*
X770830Y436649D01*
X771118Y436250D01*
X771415Y435858D01*
X771722Y435474D01*
X772039Y435097D01*
X772364Y434728D01*
X772698Y434367D01*
X773041Y434014D01*
X773392Y433669D01*
X773752Y433334D01*
X774120Y433007D01*
X774495Y432689D01*
X774878Y432380D01*
X775268Y432081D01*
X775666Y431791D01*
X776071Y431511D01*
X776482Y431241D01*
X776899Y430981D01*
X777323Y430731D01*
X777753Y430492D01*
X777866Y430704D01*
X777441Y430940D01*
X777023Y431187D01*
X776610Y431444D01*
X776204Y431711D01*
X775804Y431988D01*
X775411Y432274D01*
X775026Y432570D01*
X774647Y432875D01*
X774276Y433189D01*
X773913Y433512D01*
X773558Y433843D01*
X773211Y434184D01*
X772872Y434532D01*
X772542Y434889D01*
X772220Y435254D01*
X771908Y435626D01*
X771604Y436006D01*
X771310Y436393D01*
X771026Y436787D01*
X770751Y437188D01*
X770486Y437595D01*
X770231Y438009D01*
X769986Y438429D01*
X769751Y438854D01*
X769527Y439285D01*
X769313Y439722D01*
X769110Y440164D01*
X768917Y440610D01*
X768736Y441061D01*
X768565Y441516D01*
X768406Y441975D01*
X768258Y442438D01*
X768121Y442904D01*
X767995Y443374D01*
X767881Y443847D01*
X767778Y444322D01*
X767687Y444799D01*
X767608Y445279D01*
X767540Y445760D01*
X767484Y446243D01*
X767440Y446727D01*
X767407Y447212D01*
X767386Y447697D01*
X767377Y448183D01*
X767617Y448183D01*
X767626Y447703D01*
X767647Y447224D01*
X767679Y446745D01*
X767723Y446266D01*
X767778Y445789D01*
X767845Y445314D01*
X767924Y444840D01*
X768014Y444369D01*
X768115Y443899D01*
X768228Y443432D01*
X768352Y442969D01*
X768487Y442508D01*
X768634Y442051D01*
X768791Y441597D01*
X768960Y441147D01*
X769139Y440702D01*
X769329Y440261D01*
X769530Y439825D01*
X769741Y439393D01*
X769963Y438967D01*
X770194Y438547D01*
X770436Y438132D01*
X770689Y437724D01*
X770950Y437321D01*
X771222Y436925D01*
X771503Y436536D01*
X771794Y436153D01*
X772093Y435778D01*
X772402Y435410D01*
X772719Y435050D01*
X773046Y434698D01*
X773380Y434354D01*
X773723Y434017D01*
X774074Y433690D01*
X774433Y433371D01*
X774799Y433060D01*
X775173Y432759D01*
X775554Y432467D01*
X775942Y432184D01*
X776337Y431911D01*
X776738Y431647D01*
X777146Y431393D01*
X777559Y431149D01*
X777979Y430915D01*
X778092Y431127D01*
X777678Y431358D01*
X777269Y431599D01*
X776866Y431850D01*
X776470Y432110D01*
X776080Y432380D01*
X775697Y432660D01*
X775321Y432948D01*
X774951Y433246D01*
X774589Y433552D01*
X774235Y433868D01*
X773888Y434191D01*
X773550Y434523D01*
X773219Y434864D01*
X772897Y435212D01*
X772583Y435567D01*
X772279Y435931D01*
X771983Y436301D01*
X771696Y436679D01*
X771418Y437063D01*
X771150Y437455D01*
X770891Y437852D01*
X770642Y438256D01*
X770403Y438665D01*
X770174Y439081D01*
X769955Y439501D01*
X769747Y439927D01*
X769548Y440358D01*
X769361Y440794D01*
X769183Y441234D01*
X769017Y441678D01*
X768862Y442126D01*
X768717Y442578D01*
X768583Y443033D01*
X768461Y443491D01*
X768349Y443952D01*
X768249Y444415D01*
X768160Y444881D01*
X768083Y445349D01*
X768017Y445819D01*
X767962Y446290D01*
X767918Y446762D01*
X767887Y447235D01*
X767866Y447709D01*
X767857Y448183D01*
X768097Y448183D01*
X768106Y447715D01*
X768126Y447247D01*
X768158Y446780D01*
X768201Y446313D01*
X768255Y445848D01*
X768320Y445384D01*
X768397Y444922D01*
X768485Y444462D01*
X768584Y444004D01*
X768694Y443549D01*
X768815Y443097D01*
X768947Y442647D01*
X769089Y442201D01*
X769243Y441759D01*
X769407Y441320D01*
X769582Y440886D01*
X769768Y440456D01*
X769963Y440030D01*
X770170Y439609D01*
X770386Y439194D01*
X770612Y438784D01*
X770848Y438379D01*
X771094Y437981D01*
X771349Y437588D01*
X771614Y437202D01*
X771888Y436822D01*
X772172Y436449D01*
X772464Y436083D01*
X772765Y435724D01*
X773075Y435373D01*
X773393Y435029D01*
X773719Y434693D01*
X774054Y434365D01*
X774396Y434046D01*
X774746Y433734D01*
X775103Y433431D01*
X775468Y433138D01*
X775840Y432852D01*
X776218Y432577D01*
X776603Y432310D01*
X776995Y432053D01*
X777392Y431805D01*
X777796Y431567D01*
X778205Y431339D01*
X808862Y448436D02*
X806576Y448436D01*
X806577Y448437D02*
X806568Y448905D01*
X806547Y449373D01*
X806516Y449841D01*
X806473Y450308D01*
X806418Y450773D01*
X806352Y451237D01*
X806275Y451699D01*
X806187Y452159D01*
X806087Y452617D01*
X805976Y453073D01*
X805854Y453525D01*
X805721Y453974D01*
X805577Y454420D01*
X805423Y454863D01*
X805257Y455301D01*
X805081Y455735D01*
X804894Y456165D01*
X804697Y456590D01*
X804490Y457010D01*
X804272Y457425D01*
X804044Y457835D01*
X803807Y458239D01*
X803559Y458637D01*
X803302Y459028D01*
X803035Y459414D01*
X802759Y459793D01*
X802474Y460164D01*
X802180Y460529D01*
X801877Y460887D01*
X801565Y461237D01*
X801245Y461579D01*
X800917Y461913D01*
X800581Y462239D01*
X800236Y462557D01*
X799884Y462867D01*
X801361Y464611D01*
X801361Y464612D01*
X801756Y464265D01*
X802142Y463909D01*
X802519Y463544D01*
X802888Y463169D01*
X803247Y462786D01*
X803596Y462393D01*
X803936Y461993D01*
X804266Y461584D01*
X804586Y461167D01*
X804895Y460743D01*
X805194Y460311D01*
X805483Y459872D01*
X805760Y459426D01*
X806027Y458973D01*
X806282Y458514D01*
X806526Y458049D01*
X806759Y457578D01*
X806980Y457101D01*
X807189Y456619D01*
X807387Y456132D01*
X807572Y455641D01*
X807746Y455145D01*
X807907Y454645D01*
X808056Y454141D01*
X808192Y453634D01*
X808316Y453123D01*
X808428Y452610D01*
X808527Y452094D01*
X808613Y451576D01*
X808687Y451056D01*
X808747Y450534D01*
X808795Y450011D01*
X808831Y449487D01*
X808853Y448962D01*
X808863Y448437D01*
X808623Y448437D01*
X808613Y448956D01*
X808591Y449475D01*
X808556Y449993D01*
X808509Y450510D01*
X808448Y451026D01*
X808376Y451540D01*
X808290Y452053D01*
X808193Y452563D01*
X808082Y453070D01*
X807960Y453575D01*
X807825Y454077D01*
X807677Y454575D01*
X807518Y455069D01*
X807347Y455559D01*
X807163Y456045D01*
X806968Y456526D01*
X806761Y457003D01*
X806543Y457474D01*
X806313Y457940D01*
X806071Y458400D01*
X805819Y458853D01*
X805555Y459301D01*
X805281Y459742D01*
X804996Y460176D01*
X804700Y460603D01*
X804394Y461023D01*
X804078Y461435D01*
X803752Y461839D01*
X803416Y462235D01*
X803070Y462623D01*
X802715Y463002D01*
X802351Y463372D01*
X801978Y463734D01*
X801596Y464086D01*
X801206Y464429D01*
X801051Y464245D01*
X801437Y463907D01*
X801814Y463559D01*
X802183Y463201D01*
X802543Y462835D01*
X802894Y462460D01*
X803235Y462077D01*
X803567Y461685D01*
X803890Y461286D01*
X804202Y460879D01*
X804505Y460464D01*
X804797Y460042D01*
X805079Y459612D01*
X805350Y459176D01*
X805611Y458734D01*
X805860Y458285D01*
X806099Y457831D01*
X806326Y457370D01*
X806542Y456905D01*
X806747Y456434D01*
X806940Y455958D01*
X807121Y455477D01*
X807290Y454993D01*
X807448Y454504D01*
X807593Y454012D01*
X807727Y453516D01*
X807848Y453017D01*
X807957Y452515D01*
X808054Y452011D01*
X808138Y451505D01*
X808210Y450996D01*
X808270Y450486D01*
X808317Y449975D01*
X808351Y449463D01*
X808373Y448950D01*
X808383Y448437D01*
X808143Y448437D01*
X808133Y448944D01*
X808112Y449451D01*
X808077Y449957D01*
X808031Y450463D01*
X807972Y450967D01*
X807901Y451469D01*
X807818Y451970D01*
X807722Y452468D01*
X807614Y452964D01*
X807494Y453457D01*
X807362Y453947D01*
X807218Y454434D01*
X807063Y454917D01*
X806895Y455396D01*
X806716Y455871D01*
X806525Y456341D01*
X806323Y456806D01*
X806110Y457267D01*
X805885Y457722D01*
X805649Y458171D01*
X805402Y458615D01*
X805145Y459052D01*
X804877Y459483D01*
X804598Y459907D01*
X804310Y460324D01*
X804011Y460734D01*
X803702Y461137D01*
X803383Y461532D01*
X803055Y461919D01*
X802717Y462298D01*
X802370Y462668D01*
X802015Y463030D01*
X801650Y463383D01*
X801277Y463727D01*
X800896Y464062D01*
X800741Y463879D01*
X801118Y463548D01*
X801486Y463208D01*
X801846Y462859D01*
X802198Y462501D01*
X802541Y462135D01*
X802874Y461761D01*
X803199Y461378D01*
X803514Y460988D01*
X803819Y460590D01*
X804114Y460185D01*
X804400Y459772D01*
X804675Y459353D01*
X804940Y458927D01*
X805194Y458495D01*
X805438Y458057D01*
X805671Y457613D01*
X805893Y457163D01*
X806104Y456708D01*
X806304Y456248D01*
X806492Y455783D01*
X806670Y455314D01*
X806835Y454841D01*
X806989Y454363D01*
X807131Y453882D01*
X807262Y453398D01*
X807380Y452911D01*
X807487Y452421D01*
X807581Y451928D01*
X807664Y451434D01*
X807734Y450937D01*
X807792Y450439D01*
X807838Y449939D01*
X807872Y449439D01*
X807893Y448938D01*
X807903Y448437D01*
X807663Y448437D01*
X807653Y448932D01*
X807632Y449427D01*
X807599Y449922D01*
X807553Y450415D01*
X807496Y450907D01*
X807426Y451398D01*
X807345Y451887D01*
X807251Y452373D01*
X807146Y452858D01*
X807029Y453339D01*
X806900Y453818D01*
X806760Y454293D01*
X806607Y454765D01*
X806444Y455232D01*
X806269Y455696D01*
X806083Y456155D01*
X805885Y456610D01*
X805677Y457059D01*
X805457Y457504D01*
X805227Y457942D01*
X804986Y458376D01*
X804735Y458803D01*
X804473Y459223D01*
X804201Y459638D01*
X803919Y460045D01*
X803627Y460446D01*
X803325Y460839D01*
X803014Y461224D01*
X802694Y461602D01*
X802364Y461972D01*
X802026Y462334D01*
X801678Y462688D01*
X801322Y463033D01*
X800958Y463369D01*
X800586Y463696D01*
X800431Y463513D01*
X800799Y463189D01*
X801158Y462857D01*
X801510Y462517D01*
X801853Y462167D01*
X802188Y461810D01*
X802513Y461444D01*
X802830Y461071D01*
X803137Y460690D01*
X803435Y460301D01*
X803724Y459906D01*
X804002Y459503D01*
X804271Y459094D01*
X804530Y458678D01*
X804778Y458256D01*
X805016Y457828D01*
X805243Y457395D01*
X805460Y456956D01*
X805666Y456511D01*
X805861Y456062D01*
X806045Y455609D01*
X806218Y455151D01*
X806380Y454689D01*
X806530Y454223D01*
X806669Y453753D01*
X806796Y453280D01*
X806912Y452805D01*
X807016Y452326D01*
X807108Y451845D01*
X807189Y451362D01*
X807258Y450878D01*
X807315Y450391D01*
X807359Y449904D01*
X807392Y449415D01*
X807414Y448926D01*
X807423Y448437D01*
X807183Y448437D01*
X807174Y448920D01*
X807153Y449403D01*
X807120Y449886D01*
X807076Y450368D01*
X807020Y450848D01*
X806952Y451327D01*
X806872Y451804D01*
X806781Y452279D01*
X806678Y452751D01*
X806564Y453221D01*
X806438Y453688D01*
X806301Y454152D01*
X806152Y454612D01*
X805993Y455069D01*
X805822Y455521D01*
X805640Y455970D01*
X805447Y456413D01*
X805244Y456852D01*
X805030Y457286D01*
X804805Y457714D01*
X804570Y458137D01*
X804325Y458553D01*
X804069Y458964D01*
X803804Y459368D01*
X803528Y459766D01*
X803244Y460157D01*
X802949Y460541D01*
X802646Y460917D01*
X802333Y461286D01*
X802011Y461647D01*
X801681Y462000D01*
X801342Y462345D01*
X800995Y462682D01*
X800639Y463010D01*
X800276Y463329D01*
X800121Y463146D01*
X800480Y462831D01*
X800831Y462507D01*
X801174Y462174D01*
X801508Y461833D01*
X801835Y461485D01*
X802152Y461128D01*
X802461Y460763D01*
X802761Y460392D01*
X803052Y460013D01*
X803333Y459627D01*
X803605Y459234D01*
X803867Y458834D01*
X804119Y458429D01*
X804362Y458017D01*
X804594Y457600D01*
X804816Y457177D01*
X805027Y456748D01*
X805228Y456315D01*
X805419Y455877D01*
X805598Y455434D01*
X805767Y454987D01*
X805925Y454536D01*
X806071Y454082D01*
X806207Y453624D01*
X806331Y453162D01*
X806444Y452698D01*
X806546Y452231D01*
X806636Y451762D01*
X806714Y451291D01*
X806781Y450818D01*
X806837Y450344D01*
X806881Y449868D01*
X806913Y449391D01*
X806934Y448914D01*
X806943Y448437D01*
X806703Y448437D01*
X806694Y448908D01*
X806673Y449380D01*
X806641Y449850D01*
X806598Y450320D01*
X806543Y450789D01*
X806477Y451256D01*
X806399Y451721D01*
X806310Y452184D01*
X806210Y452645D01*
X806098Y453103D01*
X805976Y453559D01*
X805842Y454011D01*
X805697Y454460D01*
X805541Y454906D01*
X805375Y455347D01*
X805197Y455784D01*
X805009Y456217D01*
X804811Y456645D01*
X804602Y457068D01*
X804383Y457485D01*
X804154Y457898D01*
X803914Y458304D01*
X803665Y458705D01*
X803406Y459099D01*
X803138Y459487D01*
X802860Y459868D01*
X802573Y460243D01*
X802277Y460610D01*
X801972Y460970D01*
X801658Y461322D01*
X801336Y461667D01*
X801005Y462003D01*
X800667Y462331D01*
X800320Y462651D01*
X799966Y462963D01*
X798159Y429738D02*
X797024Y431723D01*
X797025Y431722D02*
X797423Y431960D01*
X797815Y432206D01*
X798200Y432463D01*
X798580Y432728D01*
X798953Y433002D01*
X799319Y433286D01*
X799678Y433578D01*
X800030Y433879D01*
X800375Y434188D01*
X800712Y434505D01*
X801042Y434831D01*
X801363Y435164D01*
X801677Y435505D01*
X801982Y435854D01*
X802278Y436209D01*
X802566Y436572D01*
X802845Y436942D01*
X803115Y437318D01*
X803376Y437701D01*
X803627Y438090D01*
X803869Y438484D01*
X804102Y438885D01*
X804324Y439291D01*
X804537Y439702D01*
X804740Y440119D01*
X804933Y440540D01*
X805115Y440965D01*
X805287Y441395D01*
X805449Y441829D01*
X805600Y442267D01*
X805741Y442708D01*
X805871Y443153D01*
X805990Y443600D01*
X806098Y444050D01*
X806196Y444503D01*
X806282Y444958D01*
X806357Y445415D01*
X806422Y445874D01*
X806475Y446334D01*
X806517Y446795D01*
X806548Y447257D01*
X806568Y447720D01*
X806577Y448183D01*
X808862Y448183D01*
X808863Y448183D01*
X808853Y447664D01*
X808831Y447145D01*
X808797Y446627D01*
X808750Y446110D01*
X808691Y445595D01*
X808619Y445081D01*
X808535Y444569D01*
X808438Y444059D01*
X808329Y443551D01*
X808208Y443047D01*
X808075Y442545D01*
X807929Y442047D01*
X807772Y441552D01*
X807602Y441062D01*
X807421Y440575D01*
X807228Y440093D01*
X807024Y439616D01*
X806808Y439145D01*
X806581Y438678D01*
X806342Y438217D01*
X806093Y437762D01*
X805832Y437313D01*
X805561Y436871D01*
X805279Y436435D01*
X804987Y436006D01*
X804684Y435584D01*
X804371Y435170D01*
X804049Y434764D01*
X803716Y434365D01*
X803374Y433974D01*
X803023Y433592D01*
X802663Y433219D01*
X802293Y432854D01*
X801915Y432499D01*
X801529Y432152D01*
X801134Y431815D01*
X800731Y431488D01*
X800321Y431171D01*
X799902Y430863D01*
X799477Y430566D01*
X799044Y430279D01*
X798605Y430003D01*
X798159Y429738D01*
X798040Y429946D01*
X798481Y430208D01*
X798915Y430482D01*
X799343Y430765D01*
X799764Y431059D01*
X800177Y431363D01*
X800583Y431677D01*
X800981Y432001D01*
X801372Y432334D01*
X801754Y432676D01*
X802127Y433028D01*
X802493Y433388D01*
X802849Y433757D01*
X803196Y434135D01*
X803534Y434521D01*
X803863Y434915D01*
X804182Y435317D01*
X804491Y435727D01*
X804790Y436144D01*
X805079Y436568D01*
X805358Y436999D01*
X805626Y437436D01*
X805884Y437880D01*
X806130Y438330D01*
X806366Y438785D01*
X806591Y439247D01*
X806804Y439713D01*
X807007Y440185D01*
X807197Y440661D01*
X807376Y441142D01*
X807544Y441627D01*
X807699Y442116D01*
X807843Y442609D01*
X807975Y443105D01*
X808095Y443604D01*
X808203Y444105D01*
X808298Y444610D01*
X808381Y445116D01*
X808452Y445624D01*
X808511Y446134D01*
X808558Y446645D01*
X808592Y447157D01*
X808613Y447670D01*
X808623Y448183D01*
X808383Y448183D01*
X808373Y447675D01*
X808352Y447169D01*
X808318Y446662D01*
X808272Y446157D01*
X808214Y445653D01*
X808144Y445151D01*
X808062Y444650D01*
X807967Y444152D01*
X807861Y443656D01*
X807742Y443163D01*
X807612Y442673D01*
X807470Y442186D01*
X807316Y441702D01*
X807150Y441223D01*
X806973Y440747D01*
X806785Y440277D01*
X806585Y439810D01*
X806374Y439349D01*
X806152Y438893D01*
X805919Y438442D01*
X805675Y437998D01*
X805420Y437559D01*
X805155Y437126D01*
X804879Y436701D01*
X804594Y436281D01*
X804298Y435869D01*
X803992Y435464D01*
X803677Y435067D01*
X803352Y434678D01*
X803018Y434296D01*
X802675Y433922D01*
X802322Y433557D01*
X801961Y433201D01*
X801592Y432853D01*
X801214Y432515D01*
X800828Y432186D01*
X800435Y431866D01*
X800033Y431555D01*
X799625Y431255D01*
X799209Y430964D01*
X798786Y430684D01*
X798357Y430414D01*
X797921Y430154D01*
X797802Y430363D01*
X798233Y430619D01*
X798657Y430886D01*
X799075Y431163D01*
X799486Y431451D01*
X799890Y431748D01*
X800286Y432054D01*
X800676Y432371D01*
X801057Y432696D01*
X801430Y433031D01*
X801795Y433374D01*
X802152Y433727D01*
X802500Y434087D01*
X802840Y434457D01*
X803170Y434834D01*
X803491Y435219D01*
X803803Y435612D01*
X804105Y436012D01*
X804397Y436419D01*
X804680Y436833D01*
X804952Y437254D01*
X805214Y437682D01*
X805466Y438116D01*
X805707Y438555D01*
X805937Y439001D01*
X806157Y439451D01*
X806365Y439907D01*
X806563Y440368D01*
X806749Y440834D01*
X806924Y441303D01*
X807088Y441777D01*
X807240Y442255D01*
X807380Y442736D01*
X807509Y443221D01*
X807626Y443709D01*
X807732Y444199D01*
X807825Y444691D01*
X807907Y445186D01*
X807976Y445683D01*
X808034Y446181D01*
X808079Y446680D01*
X808112Y447180D01*
X808133Y447681D01*
X808143Y448183D01*
X807903Y448183D01*
X807894Y447687D01*
X807873Y447192D01*
X807840Y446698D01*
X807795Y446204D01*
X807738Y445712D01*
X807669Y445221D01*
X807589Y444732D01*
X807496Y444245D01*
X807392Y443761D01*
X807276Y443279D01*
X807149Y442800D01*
X807010Y442325D01*
X806860Y441852D01*
X806698Y441384D01*
X806525Y440920D01*
X806341Y440460D01*
X806146Y440004D01*
X805940Y439554D01*
X805723Y439108D01*
X805495Y438668D01*
X805257Y438234D01*
X805008Y437805D01*
X804749Y437382D01*
X804480Y436966D01*
X804201Y436557D01*
X803912Y436154D01*
X803613Y435759D01*
X803305Y435371D01*
X802988Y434990D01*
X802661Y434617D01*
X802326Y434253D01*
X801982Y433896D01*
X801629Y433548D01*
X801269Y433208D01*
X800900Y432877D01*
X800523Y432556D01*
X800138Y432243D01*
X799746Y431940D01*
X799347Y431646D01*
X798941Y431363D01*
X798528Y431089D01*
X798109Y430825D01*
X797683Y430571D01*
X797564Y430779D01*
X797984Y431030D01*
X798399Y431291D01*
X798807Y431562D01*
X799208Y431842D01*
X799603Y432132D01*
X799990Y432432D01*
X800370Y432741D01*
X800742Y433059D01*
X801107Y433385D01*
X801463Y433721D01*
X801812Y434065D01*
X802152Y434418D01*
X802483Y434778D01*
X802806Y435146D01*
X803119Y435523D01*
X803424Y435906D01*
X803719Y436297D01*
X804004Y436695D01*
X804280Y437099D01*
X804546Y437510D01*
X804802Y437928D01*
X805048Y438351D01*
X805283Y438781D01*
X805508Y439216D01*
X805722Y439656D01*
X805926Y440101D01*
X806119Y440551D01*
X806301Y441006D01*
X806472Y441465D01*
X806632Y441927D01*
X806780Y442394D01*
X806918Y442864D01*
X807044Y443337D01*
X807158Y443813D01*
X807261Y444292D01*
X807352Y444773D01*
X807432Y445256D01*
X807500Y445741D01*
X807556Y446228D01*
X807600Y446715D01*
X807633Y447204D01*
X807654Y447693D01*
X807663Y448183D01*
X807423Y448183D01*
X807414Y447699D01*
X807393Y447216D01*
X807361Y446733D01*
X807317Y446251D01*
X807261Y445770D01*
X807194Y445291D01*
X807116Y444814D01*
X807025Y444339D01*
X806924Y443866D01*
X806811Y443395D01*
X806686Y442928D01*
X806551Y442463D01*
X806404Y442002D01*
X806246Y441545D01*
X806077Y441092D01*
X805897Y440643D01*
X805707Y440198D01*
X805505Y439758D01*
X805293Y439323D01*
X805071Y438894D01*
X804839Y438469D01*
X804596Y438051D01*
X804343Y437638D01*
X804080Y437232D01*
X803808Y436832D01*
X803526Y436439D01*
X803234Y436053D01*
X802933Y435674D01*
X802624Y435303D01*
X802305Y434939D01*
X801978Y434583D01*
X801642Y434234D01*
X801297Y433894D01*
X800945Y433563D01*
X800585Y433240D01*
X800217Y432926D01*
X799842Y432621D01*
X799459Y432325D01*
X799069Y432038D01*
X798673Y431761D01*
X798270Y431493D01*
X797860Y431236D01*
X797445Y430988D01*
X797326Y431196D01*
X797736Y431441D01*
X798141Y431696D01*
X798539Y431960D01*
X798930Y432234D01*
X799315Y432517D01*
X799693Y432809D01*
X800064Y433111D01*
X800428Y433421D01*
X800783Y433740D01*
X801131Y434068D01*
X801471Y434404D01*
X801803Y434748D01*
X802127Y435099D01*
X802441Y435459D01*
X802747Y435826D01*
X803045Y436201D01*
X803332Y436582D01*
X803611Y436970D01*
X803880Y437365D01*
X804140Y437766D01*
X804390Y438174D01*
X804629Y438587D01*
X804859Y439006D01*
X805079Y439431D01*
X805288Y439860D01*
X805487Y440295D01*
X805675Y440734D01*
X805853Y441178D01*
X806020Y441626D01*
X806176Y442077D01*
X806321Y442533D01*
X806455Y442992D01*
X806578Y443453D01*
X806690Y443918D01*
X806790Y444385D01*
X806879Y444855D01*
X806957Y445326D01*
X807023Y445800D01*
X807078Y446274D01*
X807122Y446750D01*
X807153Y447227D01*
X807174Y447705D01*
X807183Y448183D01*
X806943Y448183D01*
X806934Y447711D01*
X806914Y447239D01*
X806882Y446768D01*
X806839Y446298D01*
X806785Y445829D01*
X806719Y445361D01*
X806643Y444896D01*
X806555Y444432D01*
X806455Y443970D01*
X806345Y443512D01*
X806224Y443055D01*
X806091Y442602D01*
X805948Y442152D01*
X805794Y441706D01*
X805629Y441264D01*
X805454Y440826D01*
X805268Y440392D01*
X805071Y439963D01*
X804864Y439538D01*
X804647Y439119D01*
X804420Y438705D01*
X804184Y438297D01*
X803937Y437894D01*
X803680Y437498D01*
X803415Y437108D01*
X803139Y436724D01*
X802855Y436348D01*
X802562Y435978D01*
X802259Y435615D01*
X801948Y435260D01*
X801629Y434913D01*
X801301Y434573D01*
X800965Y434241D01*
X800622Y433918D01*
X800270Y433602D01*
X799911Y433296D01*
X799545Y432998D01*
X799172Y432709D01*
X798792Y432429D01*
X798405Y432159D01*
X798011Y431898D01*
X797612Y431646D01*
X797207Y431405D01*
X797087Y431613D01*
X797488Y431852D01*
X797882Y432100D01*
X798271Y432358D01*
X798653Y432625D01*
X799028Y432901D01*
X799397Y433187D01*
X799759Y433481D01*
X800113Y433784D01*
X800460Y434095D01*
X800799Y434414D01*
X801131Y434742D01*
X801455Y435078D01*
X801770Y435421D01*
X802077Y435772D01*
X802376Y436130D01*
X802665Y436495D01*
X802946Y436867D01*
X803218Y437246D01*
X803481Y437631D01*
X803734Y438022D01*
X803977Y438420D01*
X804211Y438823D01*
X804436Y439232D01*
X804650Y439646D01*
X804854Y440065D01*
X805048Y440489D01*
X805232Y440917D01*
X805405Y441350D01*
X805568Y441787D01*
X805720Y442227D01*
X805861Y442672D01*
X805992Y443119D01*
X806112Y443570D01*
X806221Y444023D01*
X806319Y444479D01*
X806406Y444937D01*
X806482Y445397D01*
X806547Y445858D01*
X806600Y446321D01*
X806643Y446786D01*
X806674Y447251D01*
X806694Y447716D01*
X806703Y448183D01*
D24*
X770128Y429768D02*
X770128Y422402D01*
X766318Y425958D02*
X774192Y425958D01*
D25*
X794714Y504205D03*
X779982Y504205D03*
X794714Y482615D03*
X779982Y482615D03*
D26*
X471960Y508480D02*
X411960Y508480D01*
X411960Y568480D01*
X471960Y568480D01*
X471960Y508480D01*
D27*
X502960Y515480D03*
D28*
X502898Y515482D01*
X502837Y515488D01*
X502776Y515497D01*
X502716Y515510D01*
X502657Y515527D01*
X502599Y515548D01*
X502542Y515572D01*
X502487Y515599D01*
X502434Y515630D01*
X502382Y515664D01*
X502333Y515701D01*
X502286Y515741D01*
X502242Y515784D01*
X502201Y515829D01*
X502162Y515877D01*
X502126Y515928D01*
X502094Y515980D01*
X502065Y516034D01*
X502039Y516090D01*
X502017Y516148D01*
X501998Y516206D01*
X501983Y516266D01*
X501972Y516327D01*
X501964Y516388D01*
X501960Y516449D01*
X501960Y516511D01*
X501964Y516572D01*
X501972Y516633D01*
X501983Y516694D01*
X501998Y516754D01*
X502017Y516812D01*
X502039Y516870D01*
X502065Y516926D01*
X502094Y516980D01*
X502126Y517032D01*
X502162Y517083D01*
X502201Y517131D01*
X502242Y517176D01*
X502286Y517219D01*
X502333Y517259D01*
X502382Y517296D01*
X502434Y517330D01*
X502487Y517361D01*
X502542Y517388D01*
X502599Y517412D01*
X502657Y517433D01*
X502716Y517450D01*
X502776Y517463D01*
X502837Y517472D01*
X502898Y517478D01*
X502960Y517480D01*
D27*
X502960Y517480D03*
D28*
X503022Y517478D01*
X503083Y517472D01*
X503144Y517463D01*
X503204Y517450D01*
X503263Y517433D01*
X503321Y517412D01*
X503378Y517388D01*
X503433Y517361D01*
X503486Y517330D01*
X503538Y517296D01*
X503587Y517259D01*
X503634Y517219D01*
X503678Y517176D01*
X503719Y517131D01*
X503758Y517083D01*
X503794Y517032D01*
X503826Y516980D01*
X503855Y516926D01*
X503881Y516870D01*
X503903Y516812D01*
X503922Y516754D01*
X503937Y516694D01*
X503948Y516633D01*
X503956Y516572D01*
X503960Y516511D01*
X503960Y516449D01*
X503956Y516388D01*
X503948Y516327D01*
X503937Y516266D01*
X503922Y516206D01*
X503903Y516148D01*
X503881Y516090D01*
X503855Y516034D01*
X503826Y515980D01*
X503794Y515928D01*
X503758Y515877D01*
X503719Y515829D01*
X503678Y515784D01*
X503634Y515741D01*
X503587Y515701D01*
X503538Y515664D01*
X503486Y515630D01*
X503433Y515599D01*
X503378Y515572D01*
X503321Y515548D01*
X503263Y515527D01*
X503204Y515510D01*
X503144Y515497D01*
X503083Y515488D01*
X503022Y515482D01*
X502960Y515480D01*
D26*
X470690Y482120D02*
X410690Y482120D01*
X470690Y482120D02*
X470690Y422120D01*
X410690Y422120D01*
X410690Y482120D01*
D27*
X379690Y475120D03*
D28*
X379752Y475118D01*
X379813Y475112D01*
X379874Y475103D01*
X379934Y475090D01*
X379993Y475073D01*
X380051Y475052D01*
X380108Y475028D01*
X380163Y475001D01*
X380216Y474970D01*
X380268Y474936D01*
X380317Y474899D01*
X380364Y474859D01*
X380408Y474816D01*
X380449Y474771D01*
X380488Y474723D01*
X380524Y474672D01*
X380556Y474620D01*
X380585Y474566D01*
X380611Y474510D01*
X380633Y474452D01*
X380652Y474394D01*
X380667Y474334D01*
X380678Y474273D01*
X380686Y474212D01*
X380690Y474151D01*
X380690Y474089D01*
X380686Y474028D01*
X380678Y473967D01*
X380667Y473906D01*
X380652Y473846D01*
X380633Y473788D01*
X380611Y473730D01*
X380585Y473674D01*
X380556Y473620D01*
X380524Y473568D01*
X380488Y473517D01*
X380449Y473469D01*
X380408Y473424D01*
X380364Y473381D01*
X380317Y473341D01*
X380268Y473304D01*
X380216Y473270D01*
X380163Y473239D01*
X380108Y473212D01*
X380051Y473188D01*
X379993Y473167D01*
X379934Y473150D01*
X379874Y473137D01*
X379813Y473128D01*
X379752Y473122D01*
X379690Y473120D01*
D27*
X379690Y473120D03*
D28*
X379628Y473122D01*
X379567Y473128D01*
X379506Y473137D01*
X379446Y473150D01*
X379387Y473167D01*
X379329Y473188D01*
X379272Y473212D01*
X379217Y473239D01*
X379164Y473270D01*
X379112Y473304D01*
X379063Y473341D01*
X379016Y473381D01*
X378972Y473424D01*
X378931Y473469D01*
X378892Y473517D01*
X378856Y473568D01*
X378824Y473620D01*
X378795Y473674D01*
X378769Y473730D01*
X378747Y473788D01*
X378728Y473846D01*
X378713Y473906D01*
X378702Y473967D01*
X378694Y474028D01*
X378690Y474089D01*
X378690Y474151D01*
X378694Y474212D01*
X378702Y474273D01*
X378713Y474334D01*
X378728Y474394D01*
X378747Y474452D01*
X378769Y474510D01*
X378795Y474566D01*
X378824Y474620D01*
X378856Y474672D01*
X378892Y474723D01*
X378931Y474771D01*
X378972Y474816D01*
X379016Y474859D01*
X379063Y474899D01*
X379112Y474936D01*
X379164Y474970D01*
X379217Y475001D01*
X379272Y475028D01*
X379329Y475052D01*
X379387Y475073D01*
X379446Y475090D01*
X379506Y475103D01*
X379567Y475112D01*
X379628Y475118D01*
X379690Y475120D01*
D25*
X588974Y504205D03*
X574242Y504205D03*
D29*
X574548Y514858D02*
X574548Y526542D01*
X577794Y526542D01*
X577907Y526540D01*
X578020Y526534D01*
X578133Y526524D01*
X578246Y526510D01*
X578358Y526493D01*
X578469Y526471D01*
X578579Y526446D01*
X578689Y526416D01*
X578797Y526383D01*
X578904Y526346D01*
X579010Y526306D01*
X579114Y526261D01*
X579217Y526213D01*
X579318Y526162D01*
X579417Y526107D01*
X579514Y526049D01*
X579609Y525987D01*
X579702Y525922D01*
X579792Y525854D01*
X579880Y525783D01*
X579966Y525708D01*
X580049Y525631D01*
X580129Y525551D01*
X580206Y525468D01*
X580281Y525382D01*
X580352Y525294D01*
X580420Y525204D01*
X580485Y525111D01*
X580547Y525016D01*
X580605Y524919D01*
X580660Y524820D01*
X580711Y524719D01*
X580759Y524616D01*
X580804Y524512D01*
X580844Y524406D01*
X580881Y524299D01*
X580914Y524191D01*
X580944Y524081D01*
X580969Y523971D01*
X580991Y523860D01*
X581008Y523748D01*
X581022Y523635D01*
X581032Y523522D01*
X581038Y523409D01*
X581040Y523296D01*
X581038Y523183D01*
X581032Y523070D01*
X581022Y522957D01*
X581008Y522844D01*
X580991Y522732D01*
X580969Y522621D01*
X580944Y522511D01*
X580914Y522401D01*
X580881Y522293D01*
X580844Y522186D01*
X580804Y522080D01*
X580759Y521976D01*
X580711Y521873D01*
X580660Y521772D01*
X580605Y521673D01*
X580547Y521576D01*
X580485Y521481D01*
X580420Y521388D01*
X580352Y521298D01*
X580281Y521210D01*
X580206Y521124D01*
X580129Y521041D01*
X580049Y520961D01*
X579966Y520884D01*
X579880Y520809D01*
X579792Y520738D01*
X579702Y520670D01*
X579609Y520605D01*
X579514Y520543D01*
X579417Y520485D01*
X579318Y520430D01*
X579217Y520379D01*
X579114Y520331D01*
X579010Y520286D01*
X578904Y520246D01*
X578797Y520209D01*
X578689Y520176D01*
X578579Y520146D01*
X578469Y520121D01*
X578358Y520099D01*
X578246Y520082D01*
X578133Y520068D01*
X578020Y520058D01*
X577907Y520052D01*
X577794Y520050D01*
X577794Y520051D02*
X574548Y520051D01*
X578443Y520051D02*
X581039Y514858D01*
X585904Y514858D02*
X589799Y514858D01*
X589898Y514860D01*
X589998Y514866D01*
X590097Y514875D01*
X590195Y514888D01*
X590293Y514905D01*
X590391Y514926D01*
X590487Y514951D01*
X590582Y514979D01*
X590676Y515011D01*
X590769Y515046D01*
X590861Y515085D01*
X590951Y515128D01*
X591039Y515173D01*
X591126Y515223D01*
X591210Y515275D01*
X591293Y515331D01*
X591373Y515389D01*
X591451Y515451D01*
X591526Y515516D01*
X591599Y515584D01*
X591669Y515654D01*
X591737Y515727D01*
X591802Y515802D01*
X591864Y515880D01*
X591922Y515960D01*
X591978Y516043D01*
X592030Y516127D01*
X592080Y516214D01*
X592125Y516302D01*
X592168Y516392D01*
X592207Y516484D01*
X592242Y516577D01*
X592274Y516671D01*
X592302Y516766D01*
X592327Y516862D01*
X592348Y516960D01*
X592365Y517058D01*
X592378Y517156D01*
X592387Y517255D01*
X592393Y517355D01*
X592395Y517454D01*
X592395Y518753D01*
X592393Y518852D01*
X592387Y518952D01*
X592378Y519051D01*
X592365Y519149D01*
X592348Y519247D01*
X592327Y519345D01*
X592302Y519441D01*
X592274Y519536D01*
X592242Y519630D01*
X592207Y519723D01*
X592168Y519815D01*
X592125Y519905D01*
X592080Y519993D01*
X592030Y520080D01*
X591978Y520164D01*
X591922Y520247D01*
X591864Y520327D01*
X591802Y520405D01*
X591737Y520480D01*
X591669Y520553D01*
X591599Y520623D01*
X591526Y520691D01*
X591451Y520756D01*
X591373Y520818D01*
X591293Y520876D01*
X591210Y520932D01*
X591126Y520984D01*
X591039Y521034D01*
X590951Y521079D01*
X590861Y521122D01*
X590769Y521161D01*
X590676Y521196D01*
X590582Y521228D01*
X590487Y521256D01*
X590391Y521281D01*
X590293Y521302D01*
X590195Y521319D01*
X590097Y521332D01*
X589998Y521341D01*
X589898Y521347D01*
X589799Y521349D01*
X585904Y521349D01*
X585904Y526542D01*
X592395Y526542D01*
D25*
X702004Y497855D03*
X687272Y497855D03*
D29*
X687578Y508508D02*
X687578Y520192D01*
X690824Y520192D01*
X690937Y520190D01*
X691050Y520184D01*
X691163Y520174D01*
X691276Y520160D01*
X691388Y520143D01*
X691499Y520121D01*
X691609Y520096D01*
X691719Y520066D01*
X691827Y520033D01*
X691934Y519996D01*
X692040Y519956D01*
X692144Y519911D01*
X692247Y519863D01*
X692348Y519812D01*
X692447Y519757D01*
X692544Y519699D01*
X692639Y519637D01*
X692732Y519572D01*
X692822Y519504D01*
X692910Y519433D01*
X692996Y519358D01*
X693079Y519281D01*
X693159Y519201D01*
X693236Y519118D01*
X693311Y519032D01*
X693382Y518944D01*
X693450Y518854D01*
X693515Y518761D01*
X693577Y518666D01*
X693635Y518569D01*
X693690Y518470D01*
X693741Y518369D01*
X693789Y518266D01*
X693834Y518162D01*
X693874Y518056D01*
X693911Y517949D01*
X693944Y517841D01*
X693974Y517731D01*
X693999Y517621D01*
X694021Y517510D01*
X694038Y517398D01*
X694052Y517285D01*
X694062Y517172D01*
X694068Y517059D01*
X694070Y516946D01*
X694068Y516833D01*
X694062Y516720D01*
X694052Y516607D01*
X694038Y516494D01*
X694021Y516382D01*
X693999Y516271D01*
X693974Y516161D01*
X693944Y516051D01*
X693911Y515943D01*
X693874Y515836D01*
X693834Y515730D01*
X693789Y515626D01*
X693741Y515523D01*
X693690Y515422D01*
X693635Y515323D01*
X693577Y515226D01*
X693515Y515131D01*
X693450Y515038D01*
X693382Y514948D01*
X693311Y514860D01*
X693236Y514774D01*
X693159Y514691D01*
X693079Y514611D01*
X692996Y514534D01*
X692910Y514459D01*
X692822Y514388D01*
X692732Y514320D01*
X692639Y514255D01*
X692544Y514193D01*
X692447Y514135D01*
X692348Y514080D01*
X692247Y514029D01*
X692144Y513981D01*
X692040Y513936D01*
X691934Y513896D01*
X691827Y513859D01*
X691719Y513826D01*
X691609Y513796D01*
X691499Y513771D01*
X691388Y513749D01*
X691276Y513732D01*
X691163Y513718D01*
X691050Y513708D01*
X690937Y513702D01*
X690824Y513700D01*
X690824Y513701D02*
X687578Y513701D01*
X691473Y513701D02*
X694069Y508508D01*
X698934Y514999D02*
X702829Y514999D01*
X702928Y514997D01*
X703028Y514991D01*
X703127Y514982D01*
X703225Y514969D01*
X703323Y514952D01*
X703421Y514931D01*
X703517Y514906D01*
X703612Y514878D01*
X703706Y514846D01*
X703799Y514811D01*
X703891Y514772D01*
X703981Y514729D01*
X704069Y514684D01*
X704156Y514634D01*
X704240Y514582D01*
X704323Y514526D01*
X704403Y514468D01*
X704481Y514406D01*
X704556Y514341D01*
X704629Y514273D01*
X704699Y514203D01*
X704767Y514130D01*
X704832Y514055D01*
X704894Y513977D01*
X704952Y513897D01*
X705008Y513814D01*
X705060Y513730D01*
X705110Y513643D01*
X705155Y513555D01*
X705198Y513465D01*
X705237Y513373D01*
X705272Y513280D01*
X705304Y513186D01*
X705332Y513091D01*
X705357Y512995D01*
X705378Y512897D01*
X705395Y512799D01*
X705408Y512701D01*
X705417Y512602D01*
X705423Y512502D01*
X705425Y512403D01*
X705425Y511754D01*
X705426Y511754D02*
X705424Y511641D01*
X705418Y511528D01*
X705408Y511415D01*
X705394Y511302D01*
X705377Y511190D01*
X705355Y511079D01*
X705330Y510969D01*
X705300Y510859D01*
X705267Y510751D01*
X705230Y510644D01*
X705190Y510538D01*
X705145Y510434D01*
X705097Y510331D01*
X705046Y510230D01*
X704991Y510131D01*
X704933Y510034D01*
X704871Y509939D01*
X704806Y509846D01*
X704738Y509756D01*
X704667Y509668D01*
X704592Y509582D01*
X704515Y509499D01*
X704435Y509419D01*
X704352Y509342D01*
X704266Y509267D01*
X704178Y509196D01*
X704088Y509128D01*
X703995Y509063D01*
X703900Y509001D01*
X703803Y508943D01*
X703704Y508888D01*
X703603Y508837D01*
X703500Y508789D01*
X703396Y508744D01*
X703290Y508704D01*
X703183Y508667D01*
X703075Y508634D01*
X702965Y508604D01*
X702855Y508579D01*
X702744Y508557D01*
X702632Y508540D01*
X702519Y508526D01*
X702406Y508516D01*
X702293Y508510D01*
X702180Y508508D01*
X702067Y508510D01*
X701954Y508516D01*
X701841Y508526D01*
X701728Y508540D01*
X701616Y508557D01*
X701505Y508579D01*
X701395Y508604D01*
X701285Y508634D01*
X701177Y508667D01*
X701070Y508704D01*
X700964Y508744D01*
X700860Y508789D01*
X700757Y508837D01*
X700656Y508888D01*
X700557Y508943D01*
X700460Y509001D01*
X700365Y509063D01*
X700272Y509128D01*
X700182Y509196D01*
X700094Y509267D01*
X700008Y509342D01*
X699925Y509419D01*
X699845Y509499D01*
X699768Y509582D01*
X699693Y509668D01*
X699622Y509756D01*
X699554Y509846D01*
X699489Y509939D01*
X699427Y510034D01*
X699369Y510131D01*
X699314Y510230D01*
X699263Y510331D01*
X699215Y510434D01*
X699170Y510538D01*
X699130Y510644D01*
X699093Y510751D01*
X699060Y510859D01*
X699030Y510969D01*
X699005Y511079D01*
X698983Y511190D01*
X698966Y511302D01*
X698952Y511415D01*
X698942Y511528D01*
X698936Y511641D01*
X698934Y511754D01*
X698934Y514999D01*
X698936Y515142D01*
X698942Y515285D01*
X698952Y515428D01*
X698966Y515570D01*
X698983Y515712D01*
X699005Y515854D01*
X699030Y515995D01*
X699060Y516135D01*
X699093Y516274D01*
X699130Y516412D01*
X699171Y516549D01*
X699215Y516685D01*
X699264Y516820D01*
X699316Y516953D01*
X699371Y517085D01*
X699431Y517215D01*
X699494Y517344D01*
X699560Y517471D01*
X699630Y517595D01*
X699703Y517718D01*
X699780Y517839D01*
X699860Y517958D01*
X699943Y518074D01*
X700029Y518189D01*
X700118Y518300D01*
X700211Y518410D01*
X700306Y518516D01*
X700405Y518620D01*
X700506Y518721D01*
X700610Y518820D01*
X700716Y518915D01*
X700826Y519008D01*
X700937Y519097D01*
X701052Y519183D01*
X701168Y519266D01*
X701287Y519346D01*
X701408Y519423D01*
X701530Y519496D01*
X701655Y519566D01*
X701782Y519632D01*
X701911Y519695D01*
X702041Y519755D01*
X702173Y519810D01*
X702306Y519862D01*
X702441Y519911D01*
X702577Y519955D01*
X702714Y519996D01*
X702852Y520033D01*
X702991Y520066D01*
X703131Y520096D01*
X703272Y520121D01*
X703414Y520143D01*
X703556Y520160D01*
X703698Y520174D01*
X703841Y520184D01*
X703984Y520190D01*
X704127Y520192D01*
D25*
X868374Y494045D03*
X853642Y494045D03*
D29*
X853948Y504698D02*
X853948Y516382D01*
X857194Y516382D01*
X857307Y516380D01*
X857420Y516374D01*
X857533Y516364D01*
X857646Y516350D01*
X857758Y516333D01*
X857869Y516311D01*
X857979Y516286D01*
X858089Y516256D01*
X858197Y516223D01*
X858304Y516186D01*
X858410Y516146D01*
X858514Y516101D01*
X858617Y516053D01*
X858718Y516002D01*
X858817Y515947D01*
X858914Y515889D01*
X859009Y515827D01*
X859102Y515762D01*
X859192Y515694D01*
X859280Y515623D01*
X859366Y515548D01*
X859449Y515471D01*
X859529Y515391D01*
X859606Y515308D01*
X859681Y515222D01*
X859752Y515134D01*
X859820Y515044D01*
X859885Y514951D01*
X859947Y514856D01*
X860005Y514759D01*
X860060Y514660D01*
X860111Y514559D01*
X860159Y514456D01*
X860204Y514352D01*
X860244Y514246D01*
X860281Y514139D01*
X860314Y514031D01*
X860344Y513921D01*
X860369Y513811D01*
X860391Y513700D01*
X860408Y513588D01*
X860422Y513475D01*
X860432Y513362D01*
X860438Y513249D01*
X860440Y513136D01*
X860438Y513023D01*
X860432Y512910D01*
X860422Y512797D01*
X860408Y512684D01*
X860391Y512572D01*
X860369Y512461D01*
X860344Y512351D01*
X860314Y512241D01*
X860281Y512133D01*
X860244Y512026D01*
X860204Y511920D01*
X860159Y511816D01*
X860111Y511713D01*
X860060Y511612D01*
X860005Y511513D01*
X859947Y511416D01*
X859885Y511321D01*
X859820Y511228D01*
X859752Y511138D01*
X859681Y511050D01*
X859606Y510964D01*
X859529Y510881D01*
X859449Y510801D01*
X859366Y510724D01*
X859280Y510649D01*
X859192Y510578D01*
X859102Y510510D01*
X859009Y510445D01*
X858914Y510383D01*
X858817Y510325D01*
X858718Y510270D01*
X858617Y510219D01*
X858514Y510171D01*
X858410Y510126D01*
X858304Y510086D01*
X858197Y510049D01*
X858089Y510016D01*
X857979Y509986D01*
X857869Y509961D01*
X857758Y509939D01*
X857646Y509922D01*
X857533Y509908D01*
X857420Y509898D01*
X857307Y509892D01*
X857194Y509890D01*
X857194Y509891D02*
X853948Y509891D01*
X857843Y509891D02*
X860439Y504698D01*
X865304Y515084D02*
X865304Y516382D01*
X871795Y516382D01*
X868550Y504698D01*
D25*
X994104Y499125D03*
X979372Y499125D03*
D29*
X979678Y509778D02*
X979678Y521462D01*
X982924Y521462D01*
X983037Y521460D01*
X983150Y521454D01*
X983263Y521444D01*
X983376Y521430D01*
X983488Y521413D01*
X983599Y521391D01*
X983709Y521366D01*
X983819Y521336D01*
X983927Y521303D01*
X984034Y521266D01*
X984140Y521226D01*
X984244Y521181D01*
X984347Y521133D01*
X984448Y521082D01*
X984547Y521027D01*
X984644Y520969D01*
X984739Y520907D01*
X984832Y520842D01*
X984922Y520774D01*
X985010Y520703D01*
X985096Y520628D01*
X985179Y520551D01*
X985259Y520471D01*
X985336Y520388D01*
X985411Y520302D01*
X985482Y520214D01*
X985550Y520124D01*
X985615Y520031D01*
X985677Y519936D01*
X985735Y519839D01*
X985790Y519740D01*
X985841Y519639D01*
X985889Y519536D01*
X985934Y519432D01*
X985974Y519326D01*
X986011Y519219D01*
X986044Y519111D01*
X986074Y519001D01*
X986099Y518891D01*
X986121Y518780D01*
X986138Y518668D01*
X986152Y518555D01*
X986162Y518442D01*
X986168Y518329D01*
X986170Y518216D01*
X986168Y518103D01*
X986162Y517990D01*
X986152Y517877D01*
X986138Y517764D01*
X986121Y517652D01*
X986099Y517541D01*
X986074Y517431D01*
X986044Y517321D01*
X986011Y517213D01*
X985974Y517106D01*
X985934Y517000D01*
X985889Y516896D01*
X985841Y516793D01*
X985790Y516692D01*
X985735Y516593D01*
X985677Y516496D01*
X985615Y516401D01*
X985550Y516308D01*
X985482Y516218D01*
X985411Y516130D01*
X985336Y516044D01*
X985259Y515961D01*
X985179Y515881D01*
X985096Y515804D01*
X985010Y515729D01*
X984922Y515658D01*
X984832Y515590D01*
X984739Y515525D01*
X984644Y515463D01*
X984547Y515405D01*
X984448Y515350D01*
X984347Y515299D01*
X984244Y515251D01*
X984140Y515206D01*
X984034Y515166D01*
X983927Y515129D01*
X983819Y515096D01*
X983709Y515066D01*
X983599Y515041D01*
X983488Y515019D01*
X983376Y515002D01*
X983263Y514988D01*
X983150Y514978D01*
X983037Y514972D01*
X982924Y514970D01*
X982924Y514971D02*
X979678Y514971D01*
X983573Y514971D02*
X986169Y509778D01*
X991034Y513024D02*
X991036Y513137D01*
X991042Y513250D01*
X991052Y513363D01*
X991066Y513476D01*
X991083Y513588D01*
X991105Y513699D01*
X991130Y513809D01*
X991160Y513919D01*
X991193Y514027D01*
X991230Y514134D01*
X991270Y514240D01*
X991315Y514344D01*
X991363Y514447D01*
X991414Y514548D01*
X991469Y514647D01*
X991527Y514744D01*
X991589Y514839D01*
X991654Y514932D01*
X991722Y515022D01*
X991793Y515110D01*
X991868Y515196D01*
X991945Y515279D01*
X992025Y515359D01*
X992108Y515436D01*
X992194Y515511D01*
X992282Y515582D01*
X992372Y515650D01*
X992465Y515715D01*
X992560Y515777D01*
X992657Y515835D01*
X992756Y515890D01*
X992857Y515941D01*
X992960Y515989D01*
X993064Y516034D01*
X993170Y516074D01*
X993277Y516111D01*
X993385Y516144D01*
X993495Y516174D01*
X993605Y516199D01*
X993716Y516221D01*
X993828Y516238D01*
X993941Y516252D01*
X994054Y516262D01*
X994167Y516268D01*
X994280Y516270D01*
X994393Y516268D01*
X994506Y516262D01*
X994619Y516252D01*
X994732Y516238D01*
X994844Y516221D01*
X994955Y516199D01*
X995065Y516174D01*
X995175Y516144D01*
X995283Y516111D01*
X995390Y516074D01*
X995496Y516034D01*
X995600Y515989D01*
X995703Y515941D01*
X995804Y515890D01*
X995903Y515835D01*
X996000Y515777D01*
X996095Y515715D01*
X996188Y515650D01*
X996278Y515582D01*
X996366Y515511D01*
X996452Y515436D01*
X996535Y515359D01*
X996615Y515279D01*
X996692Y515196D01*
X996767Y515110D01*
X996838Y515022D01*
X996906Y514932D01*
X996971Y514839D01*
X997033Y514744D01*
X997091Y514647D01*
X997146Y514548D01*
X997197Y514447D01*
X997245Y514344D01*
X997290Y514240D01*
X997330Y514134D01*
X997367Y514027D01*
X997400Y513919D01*
X997430Y513809D01*
X997455Y513699D01*
X997477Y513588D01*
X997494Y513476D01*
X997508Y513363D01*
X997518Y513250D01*
X997524Y513137D01*
X997526Y513024D01*
X997524Y512911D01*
X997518Y512798D01*
X997508Y512685D01*
X997494Y512572D01*
X997477Y512460D01*
X997455Y512349D01*
X997430Y512239D01*
X997400Y512129D01*
X997367Y512021D01*
X997330Y511914D01*
X997290Y511808D01*
X997245Y511704D01*
X997197Y511601D01*
X997146Y511500D01*
X997091Y511401D01*
X997033Y511304D01*
X996971Y511209D01*
X996906Y511116D01*
X996838Y511026D01*
X996767Y510938D01*
X996692Y510852D01*
X996615Y510769D01*
X996535Y510689D01*
X996452Y510612D01*
X996366Y510537D01*
X996278Y510466D01*
X996188Y510398D01*
X996095Y510333D01*
X996000Y510271D01*
X995903Y510213D01*
X995804Y510158D01*
X995703Y510107D01*
X995600Y510059D01*
X995496Y510014D01*
X995390Y509974D01*
X995283Y509937D01*
X995175Y509904D01*
X995065Y509874D01*
X994955Y509849D01*
X994844Y509827D01*
X994732Y509810D01*
X994619Y509796D01*
X994506Y509786D01*
X994393Y509780D01*
X994280Y509778D01*
X994167Y509780D01*
X994054Y509786D01*
X993941Y509796D01*
X993828Y509810D01*
X993716Y509827D01*
X993605Y509849D01*
X993495Y509874D01*
X993385Y509904D01*
X993277Y509937D01*
X993170Y509974D01*
X993064Y510014D01*
X992960Y510059D01*
X992857Y510107D01*
X992756Y510158D01*
X992657Y510213D01*
X992560Y510271D01*
X992465Y510333D01*
X992372Y510398D01*
X992282Y510466D01*
X992194Y510537D01*
X992108Y510612D01*
X992025Y510689D01*
X991945Y510769D01*
X991868Y510852D01*
X991793Y510938D01*
X991722Y511026D01*
X991654Y511116D01*
X991589Y511209D01*
X991527Y511304D01*
X991469Y511401D01*
X991414Y511500D01*
X991363Y511601D01*
X991315Y511704D01*
X991270Y511808D01*
X991230Y511914D01*
X991193Y512021D01*
X991160Y512129D01*
X991130Y512239D01*
X991105Y512349D01*
X991083Y512460D01*
X991066Y512572D01*
X991052Y512685D01*
X991042Y512798D01*
X991036Y512911D01*
X991034Y513024D01*
X991684Y518866D02*
X991686Y518967D01*
X991692Y519067D01*
X991702Y519167D01*
X991715Y519267D01*
X991733Y519366D01*
X991754Y519465D01*
X991779Y519562D01*
X991808Y519659D01*
X991841Y519754D01*
X991877Y519848D01*
X991917Y519940D01*
X991960Y520031D01*
X992007Y520120D01*
X992057Y520207D01*
X992111Y520293D01*
X992168Y520376D01*
X992228Y520456D01*
X992291Y520535D01*
X992358Y520611D01*
X992427Y520684D01*
X992499Y520754D01*
X992573Y520822D01*
X992650Y520887D01*
X992730Y520948D01*
X992812Y521007D01*
X992896Y521062D01*
X992982Y521114D01*
X993070Y521163D01*
X993160Y521208D01*
X993252Y521250D01*
X993345Y521288D01*
X993440Y521322D01*
X993535Y521353D01*
X993632Y521380D01*
X993730Y521403D01*
X993829Y521423D01*
X993929Y521438D01*
X994029Y521450D01*
X994129Y521458D01*
X994230Y521462D01*
X994330Y521462D01*
X994431Y521458D01*
X994531Y521450D01*
X994631Y521438D01*
X994731Y521423D01*
X994830Y521403D01*
X994928Y521380D01*
X995025Y521353D01*
X995120Y521322D01*
X995215Y521288D01*
X995308Y521250D01*
X995400Y521208D01*
X995490Y521163D01*
X995578Y521114D01*
X995664Y521062D01*
X995748Y521007D01*
X995830Y520948D01*
X995910Y520887D01*
X995987Y520822D01*
X996061Y520754D01*
X996133Y520684D01*
X996202Y520611D01*
X996269Y520535D01*
X996332Y520456D01*
X996392Y520376D01*
X996449Y520293D01*
X996503Y520207D01*
X996553Y520120D01*
X996600Y520031D01*
X996643Y519940D01*
X996683Y519848D01*
X996719Y519754D01*
X996752Y519659D01*
X996781Y519562D01*
X996806Y519465D01*
X996827Y519366D01*
X996845Y519267D01*
X996858Y519167D01*
X996868Y519067D01*
X996874Y518967D01*
X996876Y518866D01*
X996874Y518765D01*
X996868Y518665D01*
X996858Y518565D01*
X996845Y518465D01*
X996827Y518366D01*
X996806Y518267D01*
X996781Y518170D01*
X996752Y518073D01*
X996719Y517978D01*
X996683Y517884D01*
X996643Y517792D01*
X996600Y517701D01*
X996553Y517612D01*
X996503Y517525D01*
X996449Y517439D01*
X996392Y517356D01*
X996332Y517276D01*
X996269Y517197D01*
X996202Y517121D01*
X996133Y517048D01*
X996061Y516978D01*
X995987Y516910D01*
X995910Y516845D01*
X995830Y516784D01*
X995748Y516725D01*
X995664Y516670D01*
X995578Y516618D01*
X995490Y516569D01*
X995400Y516524D01*
X995308Y516482D01*
X995215Y516444D01*
X995120Y516410D01*
X995025Y516379D01*
X994928Y516352D01*
X994830Y516329D01*
X994731Y516309D01*
X994631Y516294D01*
X994531Y516282D01*
X994431Y516274D01*
X994330Y516270D01*
X994230Y516270D01*
X994129Y516274D01*
X994029Y516282D01*
X993929Y516294D01*
X993829Y516309D01*
X993730Y516329D01*
X993632Y516352D01*
X993535Y516379D01*
X993440Y516410D01*
X993345Y516444D01*
X993252Y516482D01*
X993160Y516524D01*
X993070Y516569D01*
X992982Y516618D01*
X992896Y516670D01*
X992812Y516725D01*
X992730Y516784D01*
X992650Y516845D01*
X992573Y516910D01*
X992499Y516978D01*
X992427Y517048D01*
X992358Y517121D01*
X992291Y517197D01*
X992228Y517276D01*
X992168Y517356D01*
X992111Y517439D01*
X992057Y517525D01*
X992007Y517612D01*
X991960Y517701D01*
X991917Y517792D01*
X991877Y517884D01*
X991841Y517978D01*
X991808Y518073D01*
X991779Y518170D01*
X991754Y518267D01*
X991733Y518366D01*
X991715Y518465D01*
X991702Y518565D01*
X991692Y518665D01*
X991686Y518765D01*
X991684Y518866D01*
M02*
