M48
;GenerationSoftware,Autodesk,EAGLE,9.6.2*%
;CreationDate,2020-09-15T01:51:49Z*%
FMAT,2
ICI,OFF
METRIC,TZ,000.000
T4C0.350
T3C0.800
T2C0.813
T1C1.565
%
G90
M71
T1
X103284Y53411
X103284Y46411
T2
X99568Y41910
X94488Y41910
X97028Y41910
X102108Y41910
X104648Y41910
X104648Y57150
X102108Y57150
X99568Y57150
X97028Y57150
X94488Y57150
X82042Y41910
X84582Y41910
X87122Y41910
X89662Y41910
X92202Y41910
X92202Y57150
X89662Y57150
X87122Y57150
X84582Y57150
X65278Y41910
X67818Y41910
X70358Y41910
X72898Y41910
X75438Y41910
X75438Y57150
X72898Y57150
X70358Y57150
X67818Y57150
X65278Y57150
X52832Y41910
X55372Y41910
X57912Y41910
X62992Y41910
X62992Y57150
X60452Y57150
X57912Y57150
X55372Y57150
X52832Y57150
X78740Y55372
X78740Y52832
X78740Y43561
X78740Y46101
X82042Y57150
X60452Y41910
T3
X101184Y52136
X101184Y47686
T4
X59563Y52959
X56896Y52959
X51551Y52959
X50927Y48387
X44012Y50907
X51435Y49149
X44069Y51689
X54229Y48641
X39370Y50276
X78613Y58293
X51562Y58293
X84582Y44831
X71247Y47625
X69215Y47625
X59182Y45466
X56642Y45466
X50673Y51689
X50838Y50127
X51054Y46990
X41021Y58420
X44069Y55499
X51562Y50800
X40259Y53975
X52832Y54864
X65278Y54864
X50419Y55372
X55372Y54229
X67818Y54229
X84582Y54229
X75438Y45974
X92202Y46228
X62992Y46228
X54229Y51061
X56642Y43609
X52832Y43815
X65278Y43815
X55372Y44704
X67818Y44577
X61722Y45466
X72898Y45085
X89662Y45593
X62992Y53086
X75438Y52832
X92202Y52832
X60452Y53721
X72898Y53721
X89662Y53467
X41656Y55499
X38481Y57785
X40323Y59118
X39497Y59436
X66040Y49530
X80899Y49403
X93345Y49530
X103759Y49784
X44958Y46228
X44323Y49784
X38354Y49276
X42672Y55880
X48641Y41402
X55626Y47498
X97663Y48514
X59944Y47879
X54102Y55880
X66548Y55753
X101346Y54483
X55626Y51435
X41910Y52832
X61595Y52832
X46606Y46657
X64262Y52070
M30