G04 EAGLE Gerber RS-274X export*
G75*
%MOMM*%
%FSLAX34Y34*%
%LPD*%
%INSoldermask Bottom*%
%IPPOS*%
%AMOC8*
5,1,8,0,0,1.08239X$1,22.5*%
G01*
%ADD10C,1.666238*%
%ADD11R,1.653200X0.653200*%
%ADD12R,0.803200X1.678200*%
%ADD13R,1.678200X0.803200*%
%ADD14P,2.034460X8X292.500000*%
%ADD15P,2.034460X8X112.500000*%
%ADD16R,1.303200X1.603200*%
%ADD17R,3.203200X0.953200*%
%ADD18R,1.403200X0.603200*%
%ADD19C,1.643200*%
%ADD20C,3.020563*%
%ADD21R,1.303200X0.803200*%
%ADD22R,1.703200X1.503200*%
%ADD23R,1.203200X1.303200*%
%ADD24C,0.705600*%


D10*
X944880Y411785D02*
X944880Y426415D01*
X970280Y426415D02*
X970280Y411785D01*
X995680Y411785D02*
X995680Y426415D01*
X1021080Y426415D02*
X1021080Y411785D01*
X1046480Y411785D02*
X1046480Y426415D01*
X1046480Y564185D02*
X1046480Y578815D01*
X1021080Y578815D02*
X1021080Y564185D01*
X995680Y564185D02*
X995680Y578815D01*
X970280Y578815D02*
X970280Y564185D01*
X944880Y564185D02*
X944880Y578815D01*
X820420Y426415D02*
X820420Y411785D01*
X845820Y411785D02*
X845820Y426415D01*
X871220Y426415D02*
X871220Y411785D01*
X896620Y411785D02*
X896620Y426415D01*
X922020Y426415D02*
X922020Y411785D01*
X922020Y564185D02*
X922020Y578815D01*
X896620Y578815D02*
X896620Y564185D01*
X871220Y564185D02*
X871220Y578815D01*
X845820Y578815D02*
X845820Y564185D01*
X820420Y564185D02*
X820420Y578815D01*
X652780Y426415D02*
X652780Y411785D01*
X678180Y411785D02*
X678180Y426415D01*
X703580Y426415D02*
X703580Y411785D01*
X728980Y411785D02*
X728980Y426415D01*
X754380Y426415D02*
X754380Y411785D01*
X754380Y564185D02*
X754380Y578815D01*
X728980Y578815D02*
X728980Y564185D01*
X703580Y564185D02*
X703580Y578815D01*
X678180Y578815D02*
X678180Y564185D01*
X652780Y564185D02*
X652780Y578815D01*
X528320Y426415D02*
X528320Y411785D01*
X553720Y411785D02*
X553720Y426415D01*
X579120Y426415D02*
X579120Y411785D01*
X604520Y411785D02*
X604520Y426415D01*
X629920Y426415D02*
X629920Y411785D01*
X629920Y564185D02*
X629920Y578815D01*
X604520Y578815D02*
X604520Y564185D01*
X579120Y564185D02*
X579120Y578815D01*
X553720Y578815D02*
X553720Y564185D01*
X528320Y564185D02*
X528320Y578815D01*
D11*
X586780Y518050D03*
X586780Y511550D03*
X586780Y505050D03*
X586780Y498550D03*
X586780Y492050D03*
X586780Y485550D03*
X586780Y479050D03*
X586780Y472550D03*
X528280Y472550D03*
X528280Y479050D03*
X528280Y485550D03*
X528280Y492050D03*
X528280Y498550D03*
X528280Y505050D03*
X528280Y511550D03*
X528280Y518050D03*
D12*
X394910Y571970D03*
X402910Y571970D03*
X410910Y571970D03*
X418910Y571970D03*
X426910Y571970D03*
X434910Y571970D03*
X442910Y571970D03*
X450910Y571970D03*
D13*
X465290Y557590D03*
X465290Y549590D03*
X465290Y541590D03*
X465290Y533590D03*
X465290Y525590D03*
X465290Y517590D03*
X465290Y509590D03*
X465290Y501590D03*
D12*
X450910Y487210D03*
X442910Y487210D03*
X434910Y487210D03*
X426910Y487210D03*
X418910Y487210D03*
X410910Y487210D03*
X402910Y487210D03*
X394910Y487210D03*
D13*
X380530Y501590D03*
X380530Y509590D03*
X380530Y517590D03*
X380530Y525590D03*
X380530Y533590D03*
X380530Y541590D03*
X380530Y549590D03*
X380530Y557590D03*
D14*
X787400Y553720D03*
X787400Y528320D03*
D15*
X787400Y435610D03*
X787400Y461010D03*
D16*
X496410Y439420D03*
X476410Y439420D03*
X495140Y466090D03*
X475140Y466090D03*
D17*
X387940Y421960D03*
X429940Y421960D03*
X387940Y441960D03*
X429940Y441960D03*
X387940Y461960D03*
X429940Y461960D03*
D18*
X1017340Y512110D03*
X1017340Y505610D03*
X1017340Y499110D03*
X1017340Y492610D03*
X1017340Y486110D03*
D19*
X1011840Y521360D03*
X1011840Y476860D03*
D20*
X1032840Y464110D03*
X1032840Y534110D03*
D21*
X497840Y579770D03*
X497840Y565770D03*
D22*
X991870Y508610D03*
X991870Y489610D03*
D23*
X471170Y588890D03*
X471170Y571890D03*
X483870Y585080D03*
X483870Y568080D03*
D24*
X528320Y548640D03*
X652780Y548640D03*
X553720Y542290D03*
X678180Y542290D03*
X845820Y542290D03*
X754380Y459740D03*
X922020Y462280D03*
X629920Y462280D03*
X542290Y510610D03*
X566420Y436090D03*
X528320Y438150D03*
X652780Y438150D03*
X553720Y447040D03*
X678180Y445770D03*
X845820Y448310D03*
X617220Y454660D03*
X728980Y450850D03*
X896620Y455930D03*
X629920Y530860D03*
X754380Y528320D03*
X922020Y528320D03*
X604520Y537210D03*
X728980Y537210D03*
X896620Y534670D03*
X416560Y554990D03*
X384810Y577850D03*
X403225Y591185D03*
X394970Y594360D03*
X660400Y495300D03*
X808990Y494030D03*
X933450Y495300D03*
X1037590Y497840D03*
X449580Y462280D03*
X383540Y492760D03*
X426720Y558800D03*
X486410Y414020D03*
X556260Y474980D03*
X976630Y485140D03*
X599440Y478790D03*
X541020Y558800D03*
X665480Y557530D03*
X1013460Y544830D03*
X556260Y514350D03*
X419100Y528320D03*
X615950Y528320D03*
X443230Y497840D03*
X466062Y466570D03*
X642620Y520700D03*
X595630Y529590D03*
X568960Y529590D03*
X515510Y529590D03*
X509270Y483870D03*
X440119Y509072D03*
X514350Y491490D03*
X440690Y516890D03*
X542290Y486410D03*
X393700Y502760D03*
X786130Y582930D03*
X515620Y582930D03*
X504190Y553720D03*
X712470Y476250D03*
X692150Y476250D03*
X591820Y454660D03*
X566420Y454660D03*
X506730Y516890D03*
X508385Y501265D03*
X510540Y469900D03*
X410210Y584200D03*
X440690Y554990D03*
X515620Y508000D03*
X402590Y539750D03*
M02*
